<?xml version="1.0" encoding="UTF-8" standalone="no"?><!-- Generator: Gravit.io -->
<svg xmlns="http://www.w3.org/2000/svg" style="isolation:isolate"
     viewBox="0 0 59.453 73.795" width="59.453pt" height="73.795pt">
    <defs>
        <clipPath id="_clipPath_xwWKfytoRTBFyY5KcJ2CgGk04qerg4gY">
            <rect width="59.453" height="73.795"/>
        </clipPath>
    </defs>
    <g clip-path="url(#_clipPath_xwWKfytoRTBFyY5KcJ2CgGk04qerg4gY)">
        <path d=" M 59.376 43.743 C 59.063 39.975 57.787 36.774 55.741 34.446 C 57.284 27.585 58.457 17.817 55.38 9.989 C 54.382 7.452 52.747 5.098 50.776 3.368 C 49.401 2.159 47.884 1.257 46.265 0.686 C 44.309 -0.001 42.224 -0.177 40.229 0.181 C 34.741 1.173 31.387 5.698 30.079 9.598 C 29.139 12.397 28.987 15.171 28.866 17.388 C 28.866 17.388 28.82 18.202 28.8 18.53 C 28.532 18.472 28.266 18.421 28 18.372 C 25.733 17.962 23.697 17.944 21.769 18.317 C 18.966 18.862 16.466 20.28 14.739 22.298 C 13.606 23.618 12.907 25.089 12.662 26.679 C 12.632 26.878 12.608 27.077 12.595 27.274 C 11.109 28.227 9.739 29.38 8.518 30.718 C 8.383 30.868 8.249 31.02 8.098 31.198 C 6.738 32.829 5.705 34.809 4.938 37.261 C 3.854 40.741 4.787 44.259 7.387 46.456 C 7.997 46.966 8.675 47.38 9.408 47.69 C 4.288 52.075 -0.622 57.358 0.065 63.593 C 0.442 66.993 2.461 69.849 5.762 71.671 L 6.164 71.934 L 6.438 72.032 C 6.845 72.233 7.303 72.429 7.899 72.657 L 8.21 72.768 C 8.381 72.829 8.585 72.897 8.821 72.962 C 16.28 75.317 23.575 72.233 29.104 69.276 C 30.626 68.466 32.049 67.659 33.386 66.845 C 34.169 67.536 35.09 68.077 36.096 68.431 C 37.539 68.938 39.13 69.067 40.837 68.809 C 44.124 68.307 47.294 66.667 49.76 64.188 C 51.987 61.952 53.601 59.28 54.471 56.444 C 55.811 55.45 56.944 54.161 57.761 52.665 C 59.139 50.147 59.667 47.227 59.376 43.743 Z "
              fill="rgb(255,255,255)"/>
        <path d=" M 49.012 37.473 C 51.501 38.597 52.576 41.571 52.803 44.292 C 52.952 46.067 52.831 47.933 51.975 49.497 C 51.12 51.061 49.391 52.243 47.622 52.03 C 47.341 51.995 47.055 51.925 46.827 51.755 C 46.411 51.446 46.28 50.893 46.143 50.393 C 45.263 47.169 43.034 44.468 42.313 41.194 C 42.178 40.579 41.881 39.46 42.114 38.847 C 42.389 38.122 43.148 37.95 43.882 37.655 C 45.505 37.003 47.368 36.729 49.012 37.473 Z "
              fill="rgb(244,218,119)"/>
        <path d=" M 46.852 37.593 C 45.831 37.593 44.852 37.876 44.093 38.181 L 43.747 38.313 C 43.132 38.542 42.778 38.69 42.641 39.048 C 42.493 39.44 42.706 40.368 42.819 40.868 L 42.866 41.071 C 43.229 42.727 43.991 44.22 44.796 45.798 C 45.514 47.208 46.258 48.663 46.689 50.243 C 46.818 50.72 46.929 51.126 47.165 51.302 C 47.276 51.384 47.448 51.438 47.69 51.468 C 49.104 51.638 50.664 50.718 51.479 49.225 C 52.163 47.977 52.411 46.38 52.24 44.339 C 52.115 42.843 51.527 39.229 48.78 37.989 C 48.149 37.704 47.493 37.593 46.852 37.593 Z  M 48.02 52.618 C 47.864 52.618 47.709 52.61 47.554 52.591 C 47.112 52.538 46.764 52.413 46.491 52.21 C 45.94 51.8 45.762 51.147 45.62 50.622 C 45.197 49.073 44.481 47.671 43.789 46.311 C 42.986 44.739 42.157 43.112 41.761 41.315 L 41.718 41.12 C 41.505 40.19 41.335 39.304 41.585 38.645 C 41.909 37.792 42.675 37.507 43.35 37.253 L 43.671 37.132 C 45.109 36.554 47.244 36.056 49.245 36.958 C 52.54 38.446 53.225 42.55 53.367 44.245 C 53.557 46.513 53.264 48.319 52.471 49.768 C 51.526 51.499 49.747 52.618 48.02 52.618 Z "
              fill="rgb(0,0,0)"/>
        <path d=" M 26.435 29.921 C 24.561 29.204 22.526 29.036 20.521 28.964 C 20.202 28.952 19.866 28.936 19.6 28.761 C 19.259 28.534 19.12 28.079 19.182 27.673 C 19.245 27.268 19.475 26.907 19.742 26.597 C 20.57 25.63 21.778 25.036 23.028 24.792 C 24.278 24.55 25.573 24.636 26.827 24.862 C 29.739 25.388 32.582 26.727 34.483 28.995 C 36.386 31.263 37.204 34.53 36.151 37.296 C 36.013 37.659 35.836 38.022 35.534 38.266 C 35.148 38.579 34.621 38.645 34.124 38.651 C 33.288 38.659 32.384 38.497 31.805 37.891 C 30.64 36.673 31.312 34.7 30.55 33.294 C 29.681 31.694 28.11 30.559 26.435 29.921 Z "
              fill="rgb(244,218,119)"/>
        <path d=" M 24.616 25.212 C 24.091 25.212 23.599 25.257 23.137 25.347 C 21.914 25.585 20.86 26.159 20.171 26.964 C 19.919 27.259 19.778 27.518 19.741 27.759 C 19.708 27.973 19.782 28.202 19.913 28.29 C 20.05 28.38 20.311 28.389 20.542 28.397 C 22.548 28.472 24.675 28.643 26.638 29.391 C 28.621 30.149 30.186 31.44 31.047 33.024 C 31.438 33.745 31.503 34.542 31.565 35.311 C 31.636 36.196 31.698 36.962 32.214 37.501 C 32.595 37.897 33.237 38.089 34.118 38.085 C 34.44 38.081 34.901 38.05 35.179 37.827 C 35.39 37.655 35.526 37.347 35.622 37.095 C 36.554 34.645 35.937 31.608 34.051 29.358 C 32.382 27.368 29.78 25.97 26.725 25.419 C 25.964 25.28 25.263 25.212 24.616 25.212 Z  M 34.061 39.216 C 32.885 39.216 31.989 38.901 31.397 38.282 C 30.604 37.452 30.515 36.364 30.437 35.403 C 30.382 34.72 30.33 34.075 30.053 33.563 C 29.321 32.216 27.966 31.11 26.233 30.448 C 24.425 29.759 22.409 29.598 20.501 29.528 C 20.159 29.516 19.691 29.499 19.288 29.231 C 18.782 28.895 18.521 28.251 18.624 27.587 C 18.694 27.132 18.919 26.688 19.312 26.229 C 20.167 25.231 21.448 24.524 22.921 24.237 C 24.095 24.009 25.405 24.03 26.927 24.306 C 30.241 24.903 33.079 26.438 34.917 28.632 C 37.063 31.192 37.755 34.673 36.679 37.497 C 36.534 37.882 36.311 38.366 35.889 38.706 C 35.34 39.151 34.622 39.21 34.132 39.216 L 34.061 39.216 Z "
              fill="rgb(0,0,0)"/>
        <path d=" M 46.915 41.165 C 46.553 42.118 46.163 43.048 45.742 43.956 C 44.673 46.237 43.413 48.335 41.981 50.272 C 37.907 55.819 32.419 60.04 26.005 63.454 C 21.261 65.993 15.708 68.298 10.653 66.622 C 10.475 66.585 10.309 66.513 10.14 66.454 C 9.771 66.311 9.44 66.169 9.143 66.001 C 2.446 62.526 10.682 55.229 14.309 52.182 C 17.27 49.69 20.664 47.706 23.573 45.145 C 25.932 43.063 27.93 40.639 29.562 37.985 C 30.52 36.452 31.355 34.839 32.069 33.171 C 32.29 32.651 32.5 32.128 32.698 31.6 C 34.202 27.616 35.076 23.36 35.37 19.128 C 35.54 16.62 35.532 14.075 36.331 11.698 C 37.124 9.335 38.947 7.116 41.405 6.671 C 43.249 6.341 45.001 7.071 46.418 8.319 C 47.651 9.401 48.643 10.882 49.241 12.401 C 52.399 20.44 49.866 33.278 46.915 41.165 Z "
              fill="rgb(255,238,204)"/>
        <path d=" M 42.304 7.155 C 42.045 7.155 41.778 7.179 41.505 7.227 C 39.087 7.665 37.495 10.007 36.866 11.878 C 36.237 13.753 36.13 15.718 36.014 17.796 C 35.989 18.253 35.965 18.71 35.933 19.167 C 35.626 23.606 34.716 27.856 33.227 31.8 C 33.026 32.335 32.813 32.866 32.589 33.393 C 31.852 35.114 30.996 36.759 30.042 38.284 C 28.341 41.05 26.29 43.503 23.947 45.569 C 22.382 46.946 20.663 48.171 19 49.354 C 17.548 50.389 16.046 51.46 14.673 52.614 C 12.723 54.253 6.789 59.239 7.182 62.804 C 7.304 63.905 8.031 64.788 9.403 65.499 C 9.658 65.643 9.934 65.768 10.345 65.927 L 10.465 65.97 C 10.565 66.007 10.664 66.046 10.769 66.067 C 15.785 67.731 21.401 65.276 25.739 62.956 C 32.616 59.294 37.78 55.036 41.526 49.938 C 42.956 48.003 44.202 45.909 45.229 43.716 C 45.642 42.827 46.031 41.901 46.385 40.966 C 49.657 32.225 51.645 20.069 48.714 12.608 C 48.126 11.11 47.178 9.737 46.046 8.745 C 45.184 7.985 43.882 7.155 42.304 7.155 Z  M 14.29 67.753 C 13.006 67.753 11.726 67.573 10.475 67.159 C 10.378 67.141 10.223 67.087 10.071 67.03 L 9.953 66.987 C 9.473 66.802 9.152 66.657 8.864 66.493 C 7.173 65.616 6.223 64.413 6.059 62.929 C 5.646 59.194 10.362 54.759 13.945 51.749 C 15.352 50.565 16.874 49.481 18.344 48.434 C 19.983 47.266 21.679 46.059 23.2 44.72 C 25.458 42.727 27.436 40.362 29.081 37.688 C 30.007 36.21 30.836 34.616 31.55 32.948 C 31.766 32.438 31.973 31.921 32.169 31.401 C 33.618 27.559 34.505 23.417 34.805 19.089 C 34.836 18.64 34.86 18.186 34.886 17.735 C 34.999 15.671 35.116 13.538 35.794 11.518 C 36.555 9.251 38.403 6.64 41.304 6.114 C 43.161 5.782 45.112 6.415 46.792 7.895 C 48.056 9.005 49.113 10.532 49.766 12.194 C 53.242 21.038 49.942 34.69 47.444 41.362 L 47.443 41.364 C 47.08 42.325 46.681 43.276 46.255 44.194 C 45.194 46.456 43.909 48.614 42.436 50.608 C 38.589 55.847 33.302 60.212 26.27 63.952 C 22.793 65.813 18.515 67.753 14.29 67.753 Z "
              fill="rgb(0,0,0)"/>
        <path d=" M 32.426 45.225 C 35.021 40.341 35.442 36.865 32.675 33.188 C 32.851 32.769 33.019 32.348 33.18 31.924 C 33.692 32.358 34.436 33.071 34.513 33.151 C 35.565 34.237 36.169 35.173 36.531 36.682 C 36.894 38.194 36.983 38.886 38.589 39.001 C 38.846 39.02 39.129 39.03 39.429 39.03 C 41.056 39.03 43.173 38.723 44.309 37.786 C 45.989 36.403 46.302 32.921 46.552 30.907 C 47.443 23.725 47.896 16.946 46.577 9.749 C 46.538 9.55 46.498 9.346 46.467 9.141 C 47.412 10.088 48.2 11.3 48.714 12.608 C 51.645 20.069 49.657 32.225 46.385 40.966 C 46.031 41.901 45.642 42.827 45.229 43.716 C 45.172 43.838 45.114 43.959 45.056 44.08 C 45.047 44.072 45.037 44.064 45.028 44.056 C 44.748 43.806 44.458 43.546 44.111 43.444 C 43.165 43.167 42.227 42.989 41.341 42.917 C 40.853 42.866 40.368 42.84 39.887 42.84 C 39.746 42.84 39.606 42.843 39.466 42.847 C 39.28 42.817 39.091 42.8 38.906 42.8 C 38.586 42.8 38.278 42.851 38.015 42.973 C 37.754 43.01 37.497 43.055 37.241 43.108 C 35.493 43.466 33.859 44.187 32.426 45.225 Z "
              fill="rgb(230,216,186)"/>
        <path d=" M 45.518 44.425 C 45.508 44.42 45.497 44.415 45.486 44.411 C 45.383 44.369 45.206 44.214 45.056 44.08 C 45.114 43.959 45.172 43.838 45.229 43.716 C 45.642 42.827 46.031 41.901 46.385 40.966 C 49.657 32.225 51.645 20.069 48.714 12.608 C 48.2 11.3 47.412 10.088 46.467 9.141 C 46.427 8.867 46.403 8.59 46.418 8.319 C 47.651 9.401 48.643 10.882 49.241 12.401 C 52.399 20.44 49.866 33.278 46.915 41.165 C 46.553 42.118 46.163 43.048 45.742 43.956 C 45.668 44.113 45.594 44.27 45.518 44.425 Z  M 32.675 33.188 C 32.662 33.171 32.649 33.153 32.635 33.136 L 32.63 33.099 C 32.603 32.895 32.469 32.726 32.286 32.65 C 32.428 32.302 32.566 31.952 32.698 31.6 C 32.7 31.594 32.706 31.591 32.714 31.591 C 32.769 31.591 32.951 31.73 33.18 31.924 C 33.019 32.348 32.851 32.769 32.675 33.188 Z "
              fill="rgb(0,0,0)"/>
        <path d=" M 29.381 49.233 L 29.372 49.257 C 27.942 52.237 26.061 55.02 23.825 57.436 C 20.153 61.407 15.596 64.458 10.653 66.622 C 10.475 66.585 10.309 66.513 10.14 66.454 C 9.771 66.311 9.44 66.169 9.143 66.001 C 2.446 62.526 10.682 55.229 14.309 52.182 C 17.27 49.69 20.664 47.706 23.573 45.145 C 27.295 41.864 30.109 37.731 32.069 33.171 L 32.093 33.356 C 35.609 37.87 33.968 42.083 29.381 49.233 Z "
              fill="rgb(255,199,0)"/>
        <path d=" M 32.143 34.393 C 30.091 38.825 27.337 42.581 23.947 45.569 C 22.382 46.946 20.663 48.171 19 49.354 C 17.548 50.389 16.046 51.46 14.673 52.614 C 12.723 54.253 6.789 59.239 7.182 62.804 C 7.304 63.905 8.031 64.788 9.403 65.499 C 9.658 65.643 9.934 65.768 10.345 65.927 L 10.465 65.97 L 10.61 66.022 C 15.673 63.78 19.979 60.763 23.411 57.054 C 25.603 54.682 27.434 51.985 28.852 49.034 L 28.906 48.929 L 28.905 48.929 C 33.217 42.208 34.773 38.368 32.143 34.393 Z  M 10.653 67.186 L 10.538 67.175 C 10.378 67.141 10.223 67.087 10.071 67.03 L 9.953 66.987 C 9.473 66.802 9.152 66.657 8.864 66.493 C 7.173 65.616 6.223 64.413 6.059 62.929 C 5.646 59.194 10.362 54.759 13.945 51.749 C 15.352 50.565 16.874 49.481 18.344 48.434 C 19.983 47.266 21.679 46.059 23.2 44.72 C 26.715 41.622 29.524 37.661 31.55 32.948 C 31.651 32.714 31.898 32.577 32.147 32.612 C 32.399 32.647 32.596 32.847 32.63 33.099 L 32.635 33.136 C 36.197 37.819 34.582 42.167 29.885 49.495 L 29.882 49.501 C 28.413 52.561 26.515 55.362 24.241 57.821 C 20.661 61.69 16.167 64.825 10.88 67.139 L 10.653 67.186 Z "
              fill="rgb(0,0,0)"/>
        <path d=" M 45.27 44.934 C 45.055 45.405 44.831 45.86 44.6 46.3 C 40.46 54.276 34.202 59.091 26.005 63.454 C 21.261 65.993 15.708 68.298 10.653 66.622 C 10.475 66.585 10.309 66.513 10.14 66.454 L 10.061 66.425 C 9.725 66.296 9.417 66.161 9.143 66.001 C 9.927 65.399 19.218 57.163 24.284 53.352 C 26.733 51.518 30.567 47.669 31.257 46.97 C 32.993 45.216 35.093 44.126 37.354 43.661 C 38.629 43.397 39.946 43.341 41.282 43.479 C 42.173 43.552 43.064 43.725 43.952 43.987 C 44.378 44.112 44.848 44.761 45.27 44.934 Z "
              fill="rgb(255,199,0)"/>
        <path d=" M 10.183 65.866 L 10.266 65.899 L 10.465 65.97 C 10.565 66.007 10.664 66.046 10.769 66.067 C 15.785 67.731 21.401 65.276 25.739 62.956 C 35.139 57.952 40.458 53.052 44.098 46.038 C 44.253 45.745 44.403 45.444 44.551 45.138 C 44.457 45.061 44.365 44.979 44.274 44.899 C 44.124 44.763 43.895 44.559 43.792 44.53 C 42.92 44.272 42.059 44.11 41.237 44.044 C 39.936 43.907 38.673 43.966 37.469 44.216 C 35.23 44.673 33.276 45.733 31.659 47.368 C 30.915 48.12 27.081 51.966 24.622 53.806 C 20.929 56.583 14.944 61.757 11.727 64.536 C 11.093 65.085 10.569 65.536 10.183 65.866 Z  M 14.29 67.753 C 13.006 67.753 11.726 67.573 10.475 67.159 C 10.378 67.141 10.223 67.087 10.071 67.03 L 9.953 66.987 L 9.856 66.952 C 9.433 66.788 9.126 66.645 8.858 66.491 C 8.696 66.395 8.591 66.225 8.579 66.038 C 8.567 65.848 8.649 65.667 8.799 65.554 C 8.995 65.401 9.875 64.641 10.989 63.679 C 14.214 60.891 20.22 55.702 23.944 52.899 C 26.339 51.108 30.122 47.315 30.855 46.573 C 32.607 44.802 34.815 43.604 37.241 43.108 C 38.557 42.835 39.938 42.77 41.341 42.917 C 42.227 42.989 43.165 43.167 44.111 43.444 C 44.458 43.546 44.748 43.806 45.028 44.056 C 45.183 44.194 45.377 44.366 45.486 44.411 C 45.629 44.47 45.741 44.585 45.798 44.727 C 45.853 44.87 45.848 45.03 45.784 45.171 C 45.563 45.649 45.336 46.114 45.1 46.561 C 41.347 53.794 35.891 58.833 26.27 63.952 C 22.793 65.813 18.515 67.753 14.29 67.753 Z "
              fill="rgb(0,0,0)"/>
        <path d=" M 38.015 42.973 C 38.278 42.851 38.586 42.8 38.906 42.8 C 39.091 42.8 39.28 42.817 39.466 42.847 C 38.976 42.862 38.492 42.904 38.015 42.973 Z "
              fill="rgb(188,178,155)"/>
        <path d=" M 14.288 66.613 C 13.545 66.613 12.805 66.549 12.074 66.407 C 12.252 66.39 12.43 66.368 12.607 66.343 C 14.812 66.038 16.893 65.181 18.893 64.194 C 21.122 63.097 23.266 61.843 25.29 60.393 C 28.721 57.938 31.74 54.958 34.739 51.997 C 36.374 50.386 38.145 48.35 37.674 46.112 C 37.557 45.505 37.276 44.86 37.26 44.26 C 37.329 44.245 37.399 44.23 37.469 44.216 C 38.25 44.053 39.056 43.972 39.881 43.972 C 40.328 43.972 40.78 43.996 41.237 44.044 C 41.683 44.08 42.14 44.144 42.604 44.236 C 43.225 44.669 43.779 45.184 44.235 45.775 C 44.19 45.863 44.144 45.951 44.098 46.038 C 40.458 53.052 35.139 57.952 25.739 62.956 C 22.395 64.745 18.291 66.614 14.288 66.613 Z "
              fill="rgb(208,164,0)"/>
        <path d=" M 14.312 67.192 C 13.076 67.192 11.851 67.019 10.653 66.622 C 10.475 66.585 10.309 66.513 10.14 66.454 L 10.061 66.425 C 10.361 66.449 10.664 66.461 10.968 66.461 C 11.336 66.461 11.706 66.443 12.074 66.407 C 12.805 66.549 13.545 66.613 14.288 66.613 C 18.291 66.614 22.395 64.745 25.739 62.956 C 35.139 57.952 40.458 53.052 44.098 46.038 C 44.144 45.951 44.19 45.863 44.235 45.775 C 44.365 45.943 44.487 46.119 44.6 46.3 C 40.46 54.276 34.202 59.091 26.005 63.454 C 22.385 65.391 18.293 67.192 14.312 67.192 Z  M 37.26 44.26 C 37.254 44.054 37.28 43.853 37.354 43.661 L 37.44 43.489 C 37.579 43.249 37.778 43.082 38.015 42.973 C 38.492 42.904 38.976 42.862 39.466 42.847 C 39.686 42.882 39.902 42.936 40.102 43.001 C 40.503 43.13 40.906 43.284 41.282 43.479 C 41.745 43.694 42.189 43.947 42.604 44.236 C 42.14 44.144 41.683 44.08 41.237 44.044 C 40.78 43.996 40.328 43.972 39.881 43.972 C 39.056 43.972 38.25 44.053 37.469 44.216 C 37.399 44.23 37.329 44.245 37.26 44.26 Z "
              fill="rgb(0,0,0)"/>
        <path d=" M 13.163 35.425 C 12.257 36.511 11.655 37.878 11.235 39.224 C 11.003 39.97 11.027 40.897 11.626 41.401 C 12.114 41.811 12.822 41.811 13.453 41.72 C 17.688 41.114 29.698 33.198 33.511 38.007 C 35.507 40.522 30.888 46.874 28.685 49.491 C 31.364 45.929 34.957 41.47 33.982 36.856 C 33.055 32.47 28.513 30.866 24.462 30.651 C 20.304 30.431 16.231 32.05 13.419 35.132 C 13.331 35.227 13.246 35.325 13.163 35.425 Z "
              fill="rgb(244,218,119)"/>
        <path d=" M 23.698 31.196 C 19.923 31.196 16.361 32.747 13.836 35.513 C 13.755 35.602 13.675 35.694 13.597 35.788 L 13.596 35.788 C 12.848 36.684 12.252 37.864 11.775 39.391 C 11.604 39.942 11.603 40.643 11.99 40.97 C 12.257 41.192 12.708 41.255 13.372 41.161 C 14.578 40.987 16.606 40.122 18.753 39.204 C 23.931 36.991 30.308 34.266 33.46 37.124 L 33.429 36.974 C 32.411 32.155 26.798 31.341 24.431 31.216 C 24.186 31.202 23.941 31.196 23.698 31.196 Z  M 28.684 50.056 C 28.561 50.056 28.437 50.016 28.333 49.932 C 28.094 49.743 28.05 49.395 28.233 49.151 L 28.625 48.632 C 30.52 46.122 32.764 43.151 33.401 40.077 C 33.492 39.364 33.397 38.772 33.068 38.358 C 30.675 35.339 24.041 38.175 19.197 40.243 C 16.884 41.233 14.886 42.087 13.533 42.28 C 12.532 42.425 11.79 42.278 11.263 41.835 C 10.425 41.13 10.421 39.936 10.696 39.056 C 11.218 37.382 11.883 36.077 12.729 35.063 C 12.817 34.956 12.907 34.852 13.001 34.751 C 15.919 31.554 20.118 29.85 24.491 30.087 C 29.962 30.378 33.717 32.864 34.536 36.739 C 34.813 38.057 34.746 39.354 34.445 40.616 C 33.764 44.155 30.059 48.735 29.118 49.854 C 29.007 49.987 28.846 50.056 28.684 50.056 Z "
              fill="rgb(0,0,0)"/>
        <path d=" M 32.066 45.821 C 32.886 44.981 33.7 44.067 34.792 43.634 C 36.291 43.042 37.993 43.481 39.482 44.099 C 41.442 44.911 42.706 46.259 42.518 48.505 C 42.41 49.807 41.851 51.028 41.235 52.181 C 40.07 54.364 38.989 56.567 37.863 58.77 C 37.384 59.712 36.925 60.927 37.596 61.741 C 38.11 62.364 39.044 62.411 39.841 62.29 C 41.827 61.987 43.669 60.96 45.085 59.536 C 47.346 57.265 48.923 54.024 48.593 50.763 C 48.234 47.225 45.416 43.722 42.038 42.634 C 40.411 42.108 35.845 40.813 32.066 45.821 Z "
              fill="rgb(244,218,119)"/>
        <path d=" M 37.245 42.852 C 38.163 42.985 39.017 43.294 39.699 43.577 C 42.136 44.587 43.274 46.261 43.083 48.552 C 42.964 49.979 42.364 51.268 41.735 52.448 C 40.94 53.936 40.184 55.432 39.428 56.934 C 39.075 57.632 38.723 58.331 38.366 59.028 C 37.782 60.175 37.673 60.944 38.033 61.382 C 38.421 61.854 39.28 61.802 39.757 61.731 C 41.539 61.46 43.29 60.538 44.684 59.138 C 47.065 56.747 48.315 53.636 48.03 50.819 C 47.692 47.483 45.042 44.196 41.864 43.171 C 40.198 42.634 38.655 42.53 37.245 42.852 Z  M 39.168 62.909 C 38.286 62.909 37.6 62.636 37.161 62.1 C 36.257 61.007 36.842 59.53 37.36 58.515 C 37.716 57.817 38.067 57.122 38.418 56.425 C 39.179 54.917 39.938 53.411 40.737 51.915 C 41.309 50.843 41.853 49.682 41.956 48.458 C 42.105 46.663 41.251 45.444 39.265 44.622 C 37.457 43.87 36.101 43.725 35 44.159 C 34.124 44.507 33.433 45.222 32.703 45.977 L 32.471 46.216 C 32.263 46.431 31.923 46.446 31.698 46.251 C 31.471 46.056 31.435 45.72 31.615 45.481 C 34.354 41.85 37.923 40.714 42.211 42.095 C 45.79 43.249 48.774 46.95 49.155 50.706 C 49.474 53.856 48.102 57.306 45.486 59.934 C 43.921 61.507 41.946 62.542 39.927 62.849 C 39.66 62.89 39.407 62.909 39.168 62.909 Z "
              fill="rgb(0,0,0)"/>
    </g>
</svg>