<?xml version="1.0" encoding="UTF-8" standalone="no"?><!-- Generator: Gravit.io -->
<svg xmlns="http://www.w3.org/2000/svg" style="isolation:isolate"
     viewBox="0 0 101.495 93.868" width="101.495pt" height="93.868pt">
    <defs>
        <clipPath id="_clipPath_bJv1nPRm6UwX9A7qZn5DKqrJo3A5x8Ar">
            <rect width="101.495" height="93.868"/>
        </clipPath>
    </defs>
    <g clip-path="url(#_clipPath_bJv1nPRm6UwX9A7qZn5DKqrJo3A5x8Ar)">
        <path d=" M 49.437 87.606 C 64.622 81.481 75.075 76.26 84.404 70.141 C 88.042 67.743 91.251 65.391 94.162 62.999 C 94.566 62.675 94.994 62.313 95.412 61.919 C 95.644 61.698 95.871 61.468 96.091 61.225 C 96.191 61.139 96.294 61.048 96.398 60.948 C 100.271 57.284 101.509 48.93 101.495 47.009 C 101.484 45.854 101.203 44.702 100.701 43.72 C 94.181 30.745 84.498 13.075 75.378 2.563 C 73.194 0.064 69.696 -0.696 66.665 0.676 C 62.29 2.662 58.071 4.778 53.786 7.134 C 42.002 13.567 32.007 20.503 22.342 27.212 C 17.769 30.385 13.04 33.667 8.207 36.827 C 7.845 37.065 7.503 37.339 7.188 37.636 L 6.73 38.081 L 1.557 44.809 L 0.961 45.563 L 0.702 46.222 C 0.57 46.503 0.428 46.85 0.308 47.251 L 0.106 47.905 L 0.053 48.536 C 0.018 48.827 -0.023 49.309 0.015 49.882 L 0.075 50.679 L 0.188 51.061 L 0.276 51.585 L 0.627 52.382 C 6.425 65.575 13.893 78.02 22.841 89.397 C 23.614 90.372 25.224 92.401 28.192 93.391 C 29.407 93.784 30.677 93.934 31.975 93.841 C 33.52 93.727 34.835 93.29 35.921 92.876 L 37.602 92.231 C 39.652 91.448 41.698 90.667 43.745 89.864 C 45.686 89.104 47.585 88.354 49.437 87.606 Z "
              fill="rgb(255,255,255)"/>
        <path d=" M 69.753 7.473 C 78.484 17.538 88.044 35.161 94.027 47.073 C 94.044 49.151 92.275 55.292 90.974 55.725 L 90.962 55.737 C 89.346 56.282 88.419 56.071 87.392 55.86 C 86.571 55.692 85.687 55.523 84.335 55.739 C 82.964 55.958 81.595 56.155 80.224 56.376 C 63.36 58.899 46.24 60.499 29.338 58.44 C 21.982 57.544 13.094 54.192 7.464 49.378 L 12.323 43.057 C 27.227 33.311 40.364 22.968 57.364 13.688 C 61.261 11.546 65.368 9.466 69.753 7.473 Z "
              fill="rgb(0,198,242)"/>
        <path d=" M 8.243 49.292 C 9.552 50.362 11.067 51.38 12.722 52.32 C 17.624 55.101 23.756 57.19 29.406 57.878 C 47.362 60.067 65.13 58.063 80.14 55.815 C 80.822 55.708 81.507 55.602 82.195 55.499 C 82.878 55.393 83.562 55.29 84.246 55.18 C 85.74 54.944 86.714 55.143 87.576 55.321 C 88.55 55.522 89.324 55.68 90.722 55.221 L 90.794 55.19 C 91.644 54.874 93.413 49.534 93.46 47.206 C 87.218 34.79 78.062 18.048 69.6 8.165 C 65.548 10.016 61.629 11.989 57.637 14.182 C 46.233 20.409 36.419 27.22 26.927 33.805 C 22.329 36.997 17.575 40.296 12.713 43.477 L 8.243 49.292 Z  M 45.698 59.954 C 40.292 59.954 34.792 59.673 29.269 59.001 C 21.18 58.016 12.476 54.407 7.097 49.807 C 6.867 49.612 6.831 49.272 7.015 49.034 L 11.875 42.712 L 12.014 42.583 C 16.891 39.395 21.665 36.081 26.282 32.878 C 35.798 26.274 45.638 19.444 57.093 13.192 C 61.236 10.913 65.301 8.876 69.518 6.96 C 69.745 6.856 70.015 6.915 70.18 7.104 C 78.82 17.063 88.193 34.198 94.533 46.819 L 94.593 47.069 C 94.607 48.839 93.009 55.452 91.236 56.231 L 91.144 56.272 C 89.417 56.854 88.367 56.639 87.347 56.428 C 86.542 56.263 85.71 56.091 84.425 56.298 C 83.738 56.407 83.052 56.51 82.365 56.616 C 81.681 56.72 80.997 56.823 80.312 56.934 C 69.827 58.503 58.005 59.954 45.698 59.954 Z "
              fill="rgb(0,0,0)"/>
        <path d=" M 66.935 12.259 C 66.924 12.27 92.396 51.206 91.564 54.528 C 91.458 54.971 91.244 55.366 90.962 55.737 C 90.552 56.292 90.011 56.753 89.482 57.182 C 86.535 59.604 83.462 61.821 80.292 63.909 C 68.179 71.854 54.634 77.591 41.026 82.911 C 38.431 83.927 35.849 84.907 33.255 85.901 C 32.665 86.126 32.032 86.348 31.427 86.395 C 31.102 86.417 30.79 86.384 30.481 86.284 C 29.729 86.034 29.183 85.378 28.69 84.757 C 20.166 73.919 13.009 62.001 7.464 49.378 C 22.665 40.716 37.601 31.61 52.265 22.046 C 57.183 18.844 62.081 15.575 66.935 12.259 Z "
              fill="rgb(0,198,242)"/>
        <path d=" M 8.186 49.616 C 13.679 62.012 20.725 73.716 29.136 84.407 C 29.626 85.026 30.08 85.553 30.659 85.747 C 30.888 85.821 31.129 85.85 31.388 85.831 C 31.921 85.79 32.527 85.573 33.054 85.372 L 34.658 84.759 C 36.712 83.973 38.763 83.19 40.819 82.385 C 56.088 76.415 68.591 70.907 79.984 63.438 C 83.386 61.192 86.376 59.003 89.123 56.745 C 89.619 56.342 90.13 55.911 90.507 55.401 C 90.771 55.053 90.935 54.727 91.013 54.399 C 91.306 53.026 85.156 41.415 66.86 13.184 L 66.774 13.052 C 62.029 16.29 57.254 19.471 52.573 22.518 C 38.188 31.903 23.257 41.018 8.186 49.616 Z  M 31.234 86.968 C 30.911 86.968 30.606 86.919 30.306 86.821 C 29.429 86.53 28.832 85.844 28.248 85.108 C 19.673 74.206 12.506 62.26 6.946 49.606 C 6.829 49.341 6.932 49.03 7.184 48.887 C 22.384 40.225 37.448 31.034 51.956 21.571 C 56.788 18.427 61.72 15.135 66.616 11.792 C 66.856 11.626 67.184 11.673 67.37 11.897 L 67.424 11.973 C 67.456 12.024 67.589 12.229 67.809 12.569 C 79.275 30.263 92.798 51.927 92.113 54.667 C 91.999 55.145 91.769 55.61 91.414 56.079 C 90.96 56.69 90.363 57.196 89.837 57.622 C 87.062 59.901 84.042 62.114 80.605 64.382 C 69.13 71.907 56.565 77.442 41.231 83.438 C 39.171 84.243 37.118 85.028 35.061 85.815 L 33.457 86.428 C 32.855 86.657 32.157 86.907 31.47 86.958 L 31.234 86.968 Z "
              fill="rgb(0,0,0)"/>
        <path d=" M 66.618 13.364 C 66.485 13.364 66.352 13.317 66.245 13.223 C 66.011 13.016 65.987 12.659 66.193 12.425 C 67.382 11.071 68.307 9.452 68.872 7.739 C 68.97 7.442 69.288 7.28 69.587 7.38 C 69.883 7.477 70.044 7.798 69.946 8.093 C 69.335 9.948 68.331 11.704 67.043 13.171 C 66.931 13.298 66.774 13.364 66.618 13.364 Z "
              fill="rgb(0,0,0)"/>
        <path d=" M 24.927 57.194 C 24.675 56.657 24.431 56.073 24.534 55.489 C 24.657 54.802 25.227 54.296 25.767 53.85 C 37.078 44.553 50.041 37.518 62.914 30.542 C 66.386 34.68 69.27 39.309 71.454 44.251 C 71.666 44.729 71.875 45.255 71.747 45.761 C 71.643 46.173 71.334 46.499 71.02 46.786 C 68.204 49.364 41.585 65.997 35.902 68.534 C 31.032 70.708 26.638 60.858 24.927 57.194 Z "
              fill="rgb(255,255,255)"/>
        <path d=" M 62.776 31.261 C 50.243 38.052 37.312 45.093 26.126 54.288 C 25.63 54.696 25.178 55.104 25.091 55.589 C 25.017 56.005 25.222 56.491 25.438 56.956 L 25.607 57.317 C 27.209 60.757 31.468 69.901 35.672 68.016 C 41.351 65.481 67.948 48.831 70.64 46.368 C 70.89 46.137 71.132 45.887 71.199 45.622 C 71.28 45.298 71.122 44.897 70.937 44.479 C 68.833 39.718 66.089 35.274 62.776 31.261 Z  M 34.489 69.413 C 29.991 69.413 26.272 61.427 24.582 57.794 L 24.414 57.434 C 24.134 56.833 23.845 56.132 23.977 55.389 C 24.132 54.526 24.768 53.94 25.408 53.415 C 36.8 44.05 49.938 36.93 62.644 30.046 C 62.882 29.919 63.176 29.973 63.347 30.178 C 66.86 34.366 69.763 39.024 71.972 44.022 C 72.161 44.452 72.479 45.171 72.296 45.899 C 72.156 46.452 71.784 46.852 71.403 47.202 C 68.581 49.786 42.093 66.389 36.133 69.05 C 35.575 69.3 35.026 69.413 34.489 69.413 Z "
              fill="rgb(0,0,0)"/>
        <path d=" M 34.204 62.643 C 39.63 63.499 49.843 56.637 52.8 54.745 C 55.914 52.749 66.841 45.989 62.946 40.977 C 57.607 34.106 43.532 46.389 39.012 49.487 C 36.031 51.532 29.19 56.03 31.304 60.546 C 31.89 61.798 32.911 62.44 34.204 62.643 Z "
              fill="rgb(255,199,0)"/>
        <path d=" M 34.292 62.085 C 39.184 62.846 48.434 56.889 51.913 54.643 L 52.777 54.087 C 55.427 52.395 62.466 47.901 63.156 43.897 C 63.32 42.946 63.105 42.104 62.499 41.325 C 58.243 35.846 47.507 43.878 41.737 48.194 C 40.782 48.907 39.964 49.52 39.331 49.954 L 39.058 50.141 C 36.107 52.159 29.968 56.358 31.815 60.307 C 32.288 61.315 33.099 61.897 34.292 62.085 Z  M 35.174 63.28 C 34.806 63.28 34.453 63.255 34.116 63.202 C 32.545 62.954 31.427 62.141 30.792 60.786 C 28.536 55.968 35.212 51.401 38.419 49.208 L 38.692 49.02 C 39.315 48.595 40.12 47.991 41.06 47.288 C 47.14 42.741 58.454 34.272 63.392 40.632 C 64.193 41.661 64.489 42.825 64.27 44.091 C 63.495 48.585 56.411 53.108 53.386 55.04 L 52.526 55.593 C 49.175 57.757 40.622 63.28 35.174 63.28 Z "
              fill="rgb(0,0,0)"/>
        <path d=" M 32.162 55.229 C 30.909 57.057 30.781 59.628 33.08 61.358 C 34.935 62.755 37.859 62.434 39.368 60.667 C 40.878 58.901 40.737 55.964 39.067 54.348 C 36.61 51.971 33.622 53.098 32.162 55.229 Z "
              fill="rgb(65,64,66)"/>
        <path d=" M 32.628 55.548 C 31.636 56.997 31.247 59.27 33.42 60.905 C 35.04 62.128 37.62 61.845 38.938 60.3 C 40.257 58.757 40.134 56.167 38.675 54.755 C 37.784 53.893 36.758 53.491 35.696 53.6 C 34.53 53.718 33.384 54.446 32.628 55.548 Z  M 35.812 62.803 C 34.72 62.803 33.63 62.479 32.739 61.809 C 30.11 59.829 30.32 56.917 31.696 54.909 C 32.637 53.536 34.089 52.626 35.583 52.475 C 36.983 52.343 38.322 52.843 39.46 53.942 C 41.36 55.778 41.515 59.026 39.798 61.034 C 38.806 62.196 37.308 62.803 35.812 62.803 Z "
              fill="rgb(0,0,0)"/>
        <path d=" M 55.237 41.005 C 53.983 42.833 53.856 45.401 56.154 47.132 C 58.011 48.53 60.934 48.208 62.442 46.442 C 63.952 44.677 63.811 41.737 62.142 40.124 C 59.684 37.747 56.696 38.874 55.237 41.005 Z "
              fill="rgb(65,64,66)"/>
        <path d=" M 59.106 39.358 C 58.995 39.358 58.884 39.364 58.771 39.376 C 57.605 39.493 56.458 40.221 55.703 41.323 C 54.71 42.772 54.321 45.044 56.494 46.68 C 58.116 47.901 60.694 47.618 62.013 46.075 C 63.331 44.532 63.208 41.94 61.749 40.53 C 60.952 39.759 60.045 39.358 59.106 39.358 Z  M 58.888 48.579 C 57.796 48.579 56.705 48.255 55.813 47.585 C 53.183 45.604 53.394 42.692 54.77 40.684 C 55.712 39.311 57.165 38.401 58.657 38.251 C 60.058 38.108 61.397 38.616 62.535 39.718 C 64.434 41.552 64.589 44.802 62.873 46.809 C 61.881 47.97 60.383 48.579 58.888 48.579 Z "
              fill="rgb(0,0,0)"/>
        <path d=" M 80.292 63.909 C 68.179 71.854 54.634 77.591 41.026 82.911 L 40.974 82.809 C 40.257 80.95 41.04 77.737 41.121 75.762 C 41.152 75.194 41.173 74.591 41.481 74.11 C 41.802 73.573 42.37 73.28 42.929 72.999 C 52.5 68.073 61.884 62.737 71.036 57.036 C 73.966 59.206 76.906 61.387 79.847 63.548 C 79.999 63.665 80.152 63.782 80.292 63.909 Z "
              fill="rgb(255,104,103)"/>
        <path d=" M 71.009 57.72 C 61.924 63.366 52.565 68.675 43.186 73.501 C 42.704 73.745 42.208 73.997 41.966 74.399 C 41.742 74.751 41.716 75.225 41.689 75.727 C 41.661 76.385 41.577 77.081 41.486 77.817 C 41.304 79.311 41.099 80.985 41.37 82.169 C 56.097 76.395 68.247 71.03 79.326 63.866 C 76.779 61.995 74.225 60.102 71.679 58.216 L 71.009 57.72 Z  M 41.026 83.477 C 40.87 83.477 40.718 83.413 40.608 83.294 C 40.491 83.165 40.452 83.034 40.434 82.979 C 39.888 81.565 40.141 79.501 40.364 77.678 C 40.451 76.968 40.534 76.294 40.556 75.739 C 40.593 75.069 40.629 74.393 41.005 73.805 C 41.405 73.135 42.108 72.78 42.673 72.493 C 52.134 67.626 61.577 62.263 70.737 56.555 C 70.934 56.43 71.185 56.442 71.372 56.581 L 72.352 57.305 C 74.956 59.237 77.57 61.173 80.183 63.093 C 80.357 63.227 80.521 63.354 80.673 63.493 C 80.802 63.61 80.871 63.78 80.857 63.956 C 80.843 64.13 80.749 64.288 80.603 64.384 C 69.13 71.907 56.565 77.442 41.231 83.438 L 41.026 83.477 Z "
              fill="rgb(0,0,0)"/>
        <path d=" M 85.423 53.667 C 84.902 54.497 85.535 55.782 86.511 55.87 C 87.49 55.96 88.345 54.813 87.982 53.901 C 87.619 52.991 86.208 52.747 85.56 53.483 L 85.423 53.667 Z "
              fill="rgb(255,199,0)"/>
        <path d=" M 85.937 53.907 L 85.902 53.968 C 85.738 54.229 85.8 54.567 85.913 54.798 C 86.027 55.026 86.255 55.28 86.564 55.307 C 86.876 55.335 87.144 55.128 87.296 54.923 C 87.449 54.72 87.572 54.397 87.456 54.11 C 87.343 53.825 87.033 53.675 86.783 53.632 C 86.531 53.591 86.189 53.626 85.986 53.856 L 85.937 53.907 Z  M 86.622 56.44 L 86.46 56.434 C 85.806 56.374 85.222 55.95 84.9 55.298 C 84.577 54.645 84.595 53.925 84.945 53.366 L 85.048 53.245 L 85.136 53.11 C 85.572 52.616 86.259 52.393 86.974 52.518 C 87.691 52.641 88.263 53.081 88.507 53.692 C 88.751 54.304 88.638 55.018 88.203 55.6 C 87.804 56.134 87.222 56.44 86.622 56.44 Z "
              fill="rgb(0,0,0)"/>
        <path d=" M 64.507 17.78 C 63.983 18.61 64.618 19.895 65.595 19.985 C 66.571 20.073 67.429 18.926 67.065 18.014 C 66.702 17.104 65.29 16.86 64.643 17.598 L 64.507 17.78 Z "
              fill="rgb(255,199,0)"/>
        <path d=" M 65.018 18.02 L 64.985 18.083 C 64.819 18.343 64.882 18.68 64.995 18.909 C 65.108 19.139 65.339 19.393 65.645 19.421 C 65.946 19.452 66.226 19.241 66.38 19.036 C 66.532 18.831 66.654 18.511 66.54 18.223 C 66.425 17.938 66.116 17.788 65.864 17.745 C 65.614 17.704 65.272 17.739 65.067 17.971 L 65.018 18.02 Z  M 65.702 20.555 L 65.543 20.548 C 64.886 20.487 64.303 20.061 63.981 19.411 C 63.659 18.759 63.677 18.036 64.028 17.479 L 64.132 17.358 L 64.218 17.225 C 64.653 16.729 65.341 16.509 66.057 16.632 C 66.772 16.755 67.347 17.194 67.591 17.805 C 67.834 18.417 67.72 19.13 67.286 19.712 C 66.886 20.249 66.304 20.555 65.702 20.555 Z "
              fill="rgb(0,0,0)"/>
        <path d=" M 12.206 50.485 C 11.683 51.315 12.317 52.6 13.294 52.688 C 14.27 52.778 15.128 51.632 14.765 50.72 C 14.401 49.809 12.989 49.565 12.343 50.302 L 12.206 50.485 Z "
              fill="rgb(255,199,0)"/>
        <path d=" M 12.718 50.725 L 12.684 50.786 C 12.519 51.048 12.581 51.386 12.694 51.616 C 12.808 51.845 13.038 52.098 13.345 52.126 C 13.655 52.159 13.926 51.946 14.079 51.741 C 14.231 51.538 14.353 51.216 14.239 50.928 C 14.124 50.643 13.815 50.493 13.563 50.45 C 13.311 50.409 12.971 50.444 12.767 50.675 L 12.718 50.725 Z  M 13.403 53.259 L 13.242 53.253 C 12.587 53.192 12.003 52.768 11.681 52.116 C 11.358 51.464 11.376 50.743 11.727 50.184 L 11.829 50.063 L 11.917 49.928 C 12.352 49.434 13.04 49.214 13.757 49.337 C 14.472 49.46 15.046 49.899 15.29 50.511 C 15.533 51.122 15.419 51.837 14.984 52.419 C 14.585 52.952 14.003 53.259 13.403 53.259 Z "
              fill="rgb(0,0,0)"/>
        <path d=" M 30.172 81.057 C 29.649 81.887 30.282 83.173 31.26 83.262 C 32.236 83.352 33.093 82.204 32.729 81.292 C 32.367 80.382 30.956 80.137 30.308 80.876 L 30.172 81.057 Z "
              fill="rgb(255,199,0)"/>
        <path d=" M 30.683 81.298 L 30.649 81.358 C 30.485 81.62 30.548 81.958 30.66 82.188 C 30.773 82.417 31.004 82.671 31.311 82.698 C 31.612 82.727 31.892 82.518 32.044 82.315 C 32.196 82.11 32.319 81.79 32.204 81.501 C 32.091 81.216 31.781 81.067 31.53 81.022 C 31.279 80.981 30.937 81.016 30.733 81.249 L 30.683 81.298 Z  M 31.369 83.833 L 31.208 83.825 C 30.552 83.764 29.968 83.341 29.646 82.688 C 29.325 82.036 29.342 81.315 29.692 80.757 L 29.796 80.636 L 29.884 80.503 C 30.318 80.007 31.007 79.786 31.723 79.909 C 32.438 80.032 33.012 80.471 33.255 81.083 C 33.499 81.696 33.386 82.409 32.95 82.991 C 32.551 83.526 31.97 83.833 31.369 83.833 Z "
              fill="rgb(0,0,0)"/>
        <path d=" M 37.261 83.763 C 38.258 83.294 39.255 82.815 40.245 82.33 C 40.264 82.417 40.284 82.502 40.307 82.586 C 39.29 82.982 38.275 83.373 37.261 83.763 Z "
              fill="rgb(0,176,236)"/>
        <path d=" M 31.427 86.395 C 33.385 85.548 35.329 84.67 37.261 83.763 C 38.275 83.373 39.29 82.982 40.307 82.586 C 40.343 82.722 40.386 82.853 40.434 82.979 C 40.444 83.009 40.459 83.06 40.49 83.12 C 38.075 84.062 35.67 84.976 33.255 85.901 C 32.665 86.126 32.032 86.348 31.427 86.395 Z "
              fill="rgb(0,0,0)"/>
        <path d=" M 41.37 82.169 C 41.344 82.053 41.322 81.933 41.304 81.808 C 53.211 75.893 64.543 68.832 75.079 60.733 C 76.495 61.781 77.911 62.827 79.326 63.866 C 68.247 71.03 56.097 76.395 41.37 82.169 Z "
              fill="rgb(127,92,100)"/>
        <path d=" M 91.92 53.336 C 90.165 47.715 78.15 28.527 67.809 12.569 C 67.765 12.501 67.725 12.438 67.688 12.381 C 68.595 11.187 69.325 9.843 69.829 8.433 C 78.227 18.349 87.274 34.901 93.46 47.206 C 93.43 48.714 92.677 51.484 91.92 53.336 Z  M 51.739 21.712 C 51.64 21.637 51.542 21.555 51.446 21.47 C 53.981 19.927 55.977 17.505 57.026 14.714 C 57.057 14.633 57.086 14.551 57.115 14.468 C 57.289 14.373 57.463 14.277 57.637 14.182 C 61.277 12.182 64.856 10.366 68.531 8.658 C 68.081 9.746 67.486 10.781 66.773 11.716 C 66.718 11.733 66.665 11.758 66.616 11.792 C 61.72 15.135 56.788 18.427 51.956 21.571 C 51.883 21.618 51.812 21.665 51.739 21.712 Z "
              fill="rgb(0,176,236)"/>
        <path d=" M 92.126 54.235 C 92.101 53.993 92.031 53.691 91.92 53.336 C 92.677 51.484 93.43 48.714 93.46 47.206 C 87.274 34.901 78.227 18.349 69.829 8.433 C 69.87 8.32 69.909 8.207 69.946 8.093 C 69.996 7.943 69.979 7.787 69.911 7.657 C 78.599 17.751 88.08 35.233 94.027 47.073 C 94.039 48.57 93.125 52.174 92.126 54.235 Z  M 57.115 14.468 C 57.204 14.215 57.288 13.955 57.364 13.688 C 60.982 11.699 64.782 9.763 68.817 7.902 C 68.73 8.156 68.634 8.408 68.531 8.658 C 64.856 10.366 61.277 12.182 57.637 14.182 C 57.463 14.277 57.289 14.373 57.115 14.468 Z "
              fill="rgb(0,0,0)"/>
        <path d=" M 80.331 63.208 C 80.283 63.17 80.233 63.132 80.183 63.093 C 78.791 62.07 77.399 61.043 76.008 60.014 C 76.469 59.656 76.927 59.296 77.384 58.934 C 78.384 58.155 79.374 57.317 80.224 56.376 C 80.994 55.464 81.609 54.458 81.908 53.296 C 82.441 51.134 81.683 48.884 80.849 46.833 C 78.206 40.335 74.69 34.176 70.439 28.596 C 68.067 25.497 65.038 22.339 61.136 22.089 C 60.954 22.078 60.771 22.072 60.587 22.072 C 59.647 22.072 58.672 22.204 57.703 22.335 C 56.735 22.466 55.774 22.597 54.862 22.597 C 54.17 22.597 53.506 22.522 52.888 22.313 C 57.341 19.411 61.877 16.39 66.388 13.315 C 66.461 13.348 66.54 13.364 66.618 13.364 C 66.723 13.364 66.828 13.334 66.92 13.276 C 85.168 41.439 91.306 53.028 91.013 54.399 C 90.935 54.727 90.771 55.053 90.507 55.401 C 90.13 55.911 89.619 56.342 89.123 56.745 C 86.47 58.926 83.59 61.042 80.331 63.208 Z  M 86.585 52.484 C 86.015 52.484 85.492 52.707 85.136 53.11 L 85.048 53.245 L 84.945 53.366 C 84.595 53.925 84.577 54.645 84.9 55.298 C 85.222 55.95 85.806 56.374 86.46 56.434 L 86.622 56.44 C 87.222 56.44 87.804 56.134 88.203 55.6 C 88.638 55.018 88.751 54.304 88.507 53.692 C 88.263 53.081 87.691 52.641 86.974 52.518 C 86.843 52.495 86.713 52.484 86.585 52.484 Z  M 65.669 16.598 C 65.098 16.598 64.574 16.82 64.218 17.225 L 64.132 17.358 L 64.028 17.479 C 63.677 18.036 63.659 18.759 63.981 19.411 C 64.303 20.061 64.886 20.487 65.543 20.548 L 65.702 20.555 C 66.304 20.555 66.886 20.249 67.286 19.712 C 67.72 19.13 67.834 18.417 67.591 17.805 C 67.347 17.194 66.772 16.755 66.057 16.632 C 65.926 16.609 65.796 16.598 65.669 16.598 Z "
              fill="rgb(0,176,236)"/>
        <path d=" M 80.763 63.597 C 80.738 63.559 80.708 63.524 80.673 63.493 C 80.565 63.394 80.451 63.302 80.331 63.208 C 83.59 61.042 86.47 58.926 89.123 56.745 C 89.619 56.342 90.13 55.911 90.507 55.401 C 90.771 55.053 90.935 54.727 91.013 54.399 C 91.306 53.028 85.168 41.439 66.92 13.276 C 66.964 13.248 67.006 13.212 67.043 13.171 C 67.267 12.916 67.482 12.653 67.688 12.381 C 67.725 12.438 67.765 12.501 67.809 12.569 C 78.15 28.527 90.165 47.715 91.92 53.336 C 92.031 53.691 92.101 53.993 92.126 54.235 C 91.739 55.036 91.338 55.604 90.974 55.725 L 90.962 55.737 C 90.552 56.292 90.011 56.753 89.482 57.182 C 86.681 59.484 83.767 61.601 80.763 63.597 Z  M 52.888 22.313 C 52.675 22.241 52.466 22.152 52.265 22.046 C 52.085 21.955 51.909 21.842 51.739 21.712 C 51.812 21.665 51.883 21.618 51.956 21.571 C 56.788 18.427 61.72 15.135 66.616 11.792 C 66.665 11.758 66.718 11.733 66.773 11.716 C 66.588 11.959 66.394 12.196 66.193 12.425 C 65.987 12.659 66.011 13.016 66.245 13.223 C 66.289 13.262 66.337 13.292 66.388 13.315 C 61.877 16.39 57.341 19.411 52.888 22.313 Z "
              fill="rgb(0,0,0)"/>
        <path d=" M 66.618 13.364 C 66.54 13.364 66.461 13.348 66.388 13.315 C 66.337 13.292 66.289 13.262 66.245 13.223 C 66.011 13.016 65.987 12.659 66.193 12.425 C 66.394 12.196 66.588 11.959 66.773 11.716 C 67.486 10.781 68.081 9.746 68.531 8.658 C 68.634 8.408 68.73 8.156 68.817 7.902 C 69.128 7.759 69.44 7.616 69.753 7.473 C 69.806 7.534 69.858 7.595 69.911 7.657 C 69.979 7.787 69.996 7.943 69.946 8.093 C 69.909 8.207 69.87 8.32 69.829 8.433 C 69.325 9.843 68.595 11.187 67.688 12.381 C 67.482 12.653 67.267 12.916 67.043 13.171 C 67.006 13.212 66.964 13.248 66.92 13.276 C 66.828 13.334 66.723 13.364 66.618 13.364 Z "
              fill="rgb(0,0,0)"/>
        <path d=" M 40.49 83.12 C 40.459 83.06 40.444 83.009 40.434 82.979 C 40.386 82.853 40.343 82.722 40.307 82.586 C 40.284 82.502 40.264 82.417 40.245 82.33 C 40.599 82.157 40.951 81.983 41.304 81.808 C 41.322 81.933 41.344 82.053 41.37 82.169 C 56.097 76.395 68.247 71.03 79.326 63.866 C 77.911 62.827 76.495 61.781 75.079 60.733 C 75.389 60.494 75.699 60.255 76.008 60.014 C 77.399 61.043 78.791 62.07 80.183 63.093 C 80.233 63.132 80.283 63.17 80.331 63.208 C 80.451 63.302 80.565 63.394 80.673 63.493 C 80.708 63.524 80.738 63.559 80.763 63.597 C 80.606 63.702 80.45 63.805 80.292 63.909 C 68.179 71.854 54.634 77.591 41.026 82.911 C 40.847 82.981 40.668 83.051 40.49 83.12 Z "
              fill="rgb(0,0,0)"/>
        <path d=" M 86.62 55.31 C 86.601 55.31 86.583 55.309 86.564 55.307 C 86.255 55.28 86.027 55.026 85.913 54.798 C 85.8 54.567 85.738 54.229 85.902 53.968 L 85.937 53.907 L 85.986 53.856 C 86.142 53.678 86.382 53.617 86.599 53.617 C 86.663 53.617 86.725 53.622 86.783 53.632 C 87.033 53.675 87.343 53.825 87.456 54.11 C 87.572 54.397 87.449 54.72 87.296 54.923 C 87.153 55.115 86.908 55.31 86.62 55.31 Z "
              fill="rgb(127,177,0)"/>
        <path d=" M 86.622 56.44 L 86.46 56.434 C 85.806 56.374 85.222 55.95 84.9 55.298 C 84.577 54.645 84.595 53.925 84.945 53.366 L 85.048 53.245 L 85.136 53.11 C 85.492 52.707 86.015 52.484 86.585 52.484 C 86.713 52.484 86.843 52.495 86.974 52.518 C 87.691 52.641 88.263 53.081 88.507 53.692 C 88.751 54.304 88.638 55.018 88.203 55.6 C 87.804 56.134 87.222 56.44 86.622 56.44 Z  M 86.599 53.617 C 86.382 53.617 86.142 53.678 85.986 53.856 L 85.937 53.907 L 85.902 53.968 C 85.738 54.229 85.8 54.567 85.913 54.798 C 86.027 55.026 86.255 55.28 86.564 55.307 C 86.583 55.309 86.601 55.31 86.62 55.31 C 86.908 55.31 87.153 55.115 87.296 54.923 C 87.449 54.72 87.572 54.397 87.456 54.11 C 87.343 53.825 87.033 53.675 86.783 53.632 C 86.725 53.622 86.663 53.617 86.599 53.617 Z "
              fill="rgb(0,0,0)"/>
        <path d=" M 65.705 19.424 C 65.686 19.424 65.666 19.423 65.645 19.421 C 65.339 19.393 65.108 19.139 64.995 18.909 C 64.882 18.68 64.819 18.343 64.985 18.083 L 65.018 18.02 L 65.067 17.971 C 65.226 17.792 65.465 17.73 65.682 17.73 C 65.745 17.73 65.807 17.736 65.864 17.745 C 66.116 17.788 66.425 17.938 66.54 18.223 C 66.654 18.511 66.532 18.831 66.38 19.036 C 66.237 19.227 65.983 19.424 65.705 19.424 Z "
              fill="rgb(127,177,0)"/>
        <path d=" M 65.702 20.555 L 65.543 20.548 C 64.886 20.487 64.303 20.061 63.981 19.411 C 63.659 18.759 63.677 18.036 64.028 17.479 L 64.132 17.358 L 64.218 17.225 C 64.574 16.82 65.098 16.598 65.669 16.598 C 65.796 16.598 65.926 16.609 66.057 16.632 C 66.772 16.755 67.347 17.194 67.591 17.805 C 67.834 18.417 67.72 19.13 67.286 19.712 C 66.886 20.249 66.304 20.555 65.702 20.555 Z  M 65.682 17.73 C 65.465 17.73 65.226 17.792 65.067 17.971 L 65.018 18.02 L 64.985 18.083 C 64.819 18.343 64.882 18.68 64.995 18.909 C 65.108 19.139 65.339 19.393 65.645 19.421 C 65.666 19.423 65.686 19.424 65.705 19.424 C 65.983 19.424 66.237 19.227 66.38 19.036 C 66.532 18.831 66.654 18.511 66.54 18.223 C 66.425 17.938 66.116 17.788 65.864 17.745 C 65.807 17.736 65.745 17.73 65.682 17.73 Z "
              fill="rgb(0,0,0)"/>
    </g>
</svg>