<?xml version="1.0" encoding="UTF-8" standalone="no"?><!-- Generator: Gravit.io -->
<svg xmlns="http://www.w3.org/2000/svg" style="isolation:isolate"
     viewBox="0 0 76.594 95.812" width="76.594pt" height="95.812pt">
    <defs>
        <clipPath id="_clipPath_fDuPPOy4WX6CQmVkAiLe8rnAURepr0c1">
            <rect width="76.594" height="95.812"/>
        </clipPath>
    </defs>
    <g clip-path="url(#_clipPath_fDuPPOy4WX6CQmVkAiLe8rnAURepr0c1)">
        <path d=" M 7.935 95.286 L 7.852 95.323 L 7.793 95.351 L 7.935 95.286 Z " fill="rgb(254,254,254)"/>
        <path d=" M 0.116 90.59 C 0.124 90.704 0.136 90.821 0.153 90.939 C 0.182 91.188 0.224 91.393 0.261 91.543 C 0.31 91.776 0.375 92.013 0.45 92.219 L 0.499 92.346 C 0.55 92.472 0.608 92.599 0.671 92.723 C 0.802 92.988 0.939 93.206 1.06 93.383 L 1.082 93.418 C 1.167 93.55 1.26 93.678 1.359 93.801 C 1.484 93.956 1.618 94.102 1.762 94.239 C 1.976 94.447 2.212 94.64 2.485 94.827 C 2.69 94.977 2.908 95.111 3.135 95.224 C 3.306 95.31 3.474 95.381 3.644 95.442 L 3.67 95.452 C 3.907 95.541 4.151 95.614 4.405 95.672 C 4.576 95.714 4.75 95.747 4.922 95.769 C 5.146 95.798 5.374 95.812 5.61 95.812 L 5.872 95.804 C 6.371 95.78 6.86 95.69 7.29 95.546 C 7.471 95.488 7.673 95.406 7.852 95.323 L 8.093 95.207 C 8.332 95.09 8.587 94.942 8.787 94.801 L 74.292 48.421 C 74.428 48.325 74.579 48.201 74.723 48.072 C 74.862 47.956 74.992 47.833 75.113 47.706 L 75.204 47.605 C 75.307 47.49 75.404 47.368 75.494 47.241 C 75.869 46.744 76.156 46.188 76.354 45.562 C 76.399 45.413 76.444 45.233 76.476 45.068 C 76.577 44.587 76.614 44.099 76.583 43.611 C 76.577 43.421 76.56 43.232 76.53 43.048 L 76.505 42.9 L 74.809 34.097 C 74.763 33.875 74.701 33.659 74.623 33.441 C 74.561 33.253 74.49 33.071 74.412 32.904 C 74.309 32.678 74.191 32.462 74.054 32.248 C 73.938 32.057 73.805 31.868 73.672 31.705 L 61.418 16.752 C 60.939 16.165 60.354 15.69 59.68 15.342 L 31.144 0.604 C 30.326 0.185 29.364 -0.023 28.422 0.002 L 28.315 0.007 L 13.383 0.876 C 13.173 0.884 12.957 0.908 12.745 0.946 C 12.601 0.97 12.457 1.001 12.316 1.036 C 12.166 1.071 11.977 1.121 11.764 1.195 C 11.616 1.245 11.47 1.302 11.33 1.365 L 3.27 5.036 C 3.045 5.135 2.825 5.255 2.615 5.393 C 2.19 5.656 1.803 5.975 1.462 6.345 C 1.342 6.473 1.218 6.617 1.119 6.748 C 0.71 7.289 0.409 7.892 0.239 8.481 L 0.167 8.723 L 0.115 8.945 C 0.061 9.211 0.035 9.443 0.024 9.612 C 0.008 9.767 0 9.921 0 10.071 L 0.109 90.317 C 0.109 90.408 0.112 90.499 0.116 90.59 Z "
              fill="rgb(254,254,254)"/>
        <path d=" M 5.609 90.312 L 20.71 26.989 L 48.498 41.339 L 5.609 90.312 Z " fill="rgb(145,205,212)"/>
        <path d=" M 21.387 28.464 L 7.519 86.613 L 46.905 41.641 L 21.387 28.464 Z  M 5.609 91.312 C 5.452 91.312 5.295 91.276 5.15 91.201 C 4.741 90.99 4.53 90.528 4.636 90.08 L 19.738 26.757 C 19.809 26.458 20.014 26.209 20.293 26.08 C 20.572 25.953 20.896 25.959 21.169 26.101 L 48.957 40.45 C 49.231 40.591 49.423 40.851 49.481 41.152 C 49.538 41.455 49.453 41.766 49.25 41.998 L 6.361 90.971 C 6.166 91.193 5.89 91.312 5.609 91.312 Z "
              fill="rgb(32,31,31)"/>
        <path d=" M 5.609 90.312 L 48.498 41.339 L 71.104 43.941 L 5.609 90.312 Z " fill="rgb(121,183,193)"/>
        <path d=" M 48.905 42.392 L 11.932 84.61 L 68.392 44.635 L 48.905 42.392 Z  M 5.609 91.312 C 5.334 91.312 5.062 91.199 4.866 90.982 C 4.527 90.606 4.523 90.035 4.857 89.654 L 47.746 40.68 C 47.961 40.433 48.289 40.308 48.613 40.345 L 71.218 42.947 C 71.63 42.994 71.97 43.291 72.073 43.692 C 72.175 44.094 72.02 44.517 71.682 44.756 L 6.187 91.128 C 6.012 91.252 5.81 91.312 5.609 91.312 Z "
              fill="rgb(32,31,31)"/>
        <path d=" M 5.609 90.312 L 20.71 26.989 L 5.5 10.064 L 5.609 90.312 Z " fill="rgb(111,167,176)"/>
        <path d=" M 6.504 12.676 L 6.597 81.856 L 19.615 27.268 L 6.504 12.676 Z  M 5.61 91.312 L 5.492 91.305 C 4.99 91.247 4.61 90.82 4.609 90.314 L 4.5 10.065 C 4.499 9.65 4.755 9.278 5.142 9.13 C 5.528 8.981 5.967 9.087 6.244 9.395 L 21.454 26.321 C 21.673 26.565 21.759 26.902 21.683 27.221 L 6.581 90.544 C 6.473 90.999 6.067 91.312 5.61 91.312 Z "
              fill="rgb(32,31,31)"/>
        <path d=" M 20.71 26.989 L 5.5 10.064 L 13.61 6.371 L 27.18 18.802 L 20.71 26.989 Z " fill="rgb(121,183,193)"/>
        <path d=" M 7.155 10.409 L 20.661 25.439 L 25.819 18.911 L 13.422 7.555 L 7.155 10.409 Z  M 20.71 27.989 C 20.427 27.989 20.157 27.869 19.966 27.658 L 4.756 10.732 C 4.543 10.495 4.456 10.171 4.522 9.86 C 4.586 9.547 4.796 9.285 5.086 9.153 L 13.196 5.461 C 13.56 5.295 13.989 5.363 14.285 5.634 L 27.856 18.065 C 28.241 18.419 28.289 19.011 27.964 19.422 L 21.494 27.61 C 21.312 27.84 21.036 27.98 20.741 27.989 L 20.71 27.989 Z "
              fill="rgb(32,31,31)"/>
        <path d=" M 51.428 31.324 L 69.418 35.191 L 57.157 20.229 L 28.633 5.498 L 13.61 6.371 L 27.18 18.802 L 51.428 31.324 Z "
              fill="rgb(145,205,212)"/>
        <path d=" M 51.769 30.374 L 66.831 33.612 L 56.514 21.023 L 28.417 6.512 L 16.03 7.232 L 27.757 17.974 L 51.769 30.374 Z  M 69.418 36.192 L 69.208 36.169 L 51.218 32.301 L 50.969 32.213 L 26.721 19.691 L 26.504 19.539 L 12.934 7.108 C 12.638 6.837 12.532 6.415 12.667 6.036 C 12.802 5.657 13.151 5.396 13.552 5.373 L 28.575 4.5 C 28.743 4.493 28.932 4.527 29.092 4.609 L 57.615 19.34 C 57.737 19.403 57.844 19.49 57.93 19.595 L 70.192 34.558 C 70.461 34.886 70.493 35.35 70.272 35.713 C 70.088 36.014 69.762 36.192 69.418 36.192 Z "
              fill="rgb(32,31,31)"/>
        <path d=" M 48.498 41.339 L 71.104 43.941 L 69.418 35.191 L 51.428 31.324 L 48.498 41.339 Z "
              fill="rgb(145,205,212)"/>
        <path d=" M 49.791 40.481 L 69.864 42.791 L 68.562 36.03 L 52.127 32.497 L 49.791 40.481 Z  M 71.104 44.941 L 70.989 44.934 L 48.384 42.333 C 48.091 42.299 47.828 42.137 47.665 41.892 C 47.502 41.646 47.455 41.341 47.538 41.058 L 50.468 31.043 C 50.615 30.539 51.137 30.238 51.638 30.346 L 69.628 34.214 C 70.021 34.298 70.325 34.609 70.401 35.003 L 72.086 43.752 C 72.146 44.064 72.054 44.387 71.837 44.62 C 71.647 44.826 71.38 44.941 71.104 44.941 Z "
              fill="rgb(32,31,31)"/>
        <path d=" M 48.498 41.339 L 20.71 26.989 L 27.18 18.802 L 51.428 31.324 L 48.498 41.339 Z "
              fill="rgb(145,205,212)"/>
        <path d=" M 22.247 26.657 L 47.879 39.894 L 50.237 31.834 L 27.453 20.068 L 22.247 26.657 Z  M 48.498 42.339 C 48.34 42.339 48.183 42.302 48.039 42.228 L 20.251 27.878 C 19.986 27.741 19.796 27.492 19.733 27.2 C 19.67 26.908 19.74 26.604 19.926 26.369 L 26.396 18.182 C 26.692 17.808 27.214 17.694 27.639 17.913 L 51.887 30.435 C 52.312 30.655 52.522 31.145 52.388 31.605 L 49.458 41.62 C 49.374 41.906 49.166 42.141 48.892 42.258 C 48.766 42.312 48.632 42.339 48.498 42.339 Z "
              fill="rgb(32,31,31)"/>
        <path d=" M 53.942 23.602 C 53.859 23.602 53.772 23.593 53.684 23.574 C 48.804 22.534 44.182 19.373 39.78 17.078 C 35.743 14.974 31.621 12.981 28.319 9.798 C 27.919 9.413 28.216 8.757 28.731 8.757 C 28.77 8.757 28.809 8.761 28.85 8.768 C 33.949 9.731 38.53 12.401 43.096 14.769 C 47.009 16.797 51.503 18.474 54.767 21.476 C 55.593 22.235 54.978 23.602 53.942 23.602 Z "
              fill="rgb(190,224,229)"/>
        <path d=" M 66.312 38.785 C 66.265 38.785 66.216 38.783 66.167 38.778 C 62.406 38.414 56.51 38.028 53.824 35.036 C 53.649 34.842 53.705 34.427 54.024 34.427 C 54.031 34.427 54.038 34.427 54.045 34.427 C 56.188 34.546 58.233 35.262 60.365 35.532 C 62.469 35.799 64.596 35.964 66.69 36.292 C 68.287 36.543 67.788 38.785 66.312 38.785 Z "
              fill="rgb(190,224,229)"/>
        <path d=" M 48.5 33.675 C 48.29 33.675 48.065 33.619 47.832 33.492 C 44.245 31.533 40.594 29.707 36.904 27.95 C 34.035 26.585 30.987 25.475 28.652 23.274 C 28.292 22.934 28.595 22.435 29.025 22.435 C 29.044 22.435 29.064 22.436 29.083 22.438 C 32.093 22.75 34.97 24.095 37.749 25.385 L 49.636 31.524 C 50.156 32.405 49.501 33.675 48.5 33.675 Z "
              fill="rgb(190,224,229)"/>
        <path d=" M 49.636 31.524 L 37.749 25.385 C 38.36 25.669 38.967 25.95 39.569 26.217 C 42.828 27.664 46.031 29.217 49.112 31.015 C 49.349 31.154 49.521 31.33 49.636 31.524 Z "
              fill="rgb(32,31,31)"/>
        <path d=" M 22.934 20.233 C 22.689 20.233 22.436 20.14 22.206 19.92 C 19.065 16.906 14.627 13.556 12.752 9.553 C 12.605 9.241 12.81 8.804 13.137 8.804 C 13.21 8.804 13.29 8.825 13.372 8.875 C 15.34 10.057 16.905 11.944 18.606 13.483 C 20.338 15.051 22.028 16.669 23.744 18.255 C 24.584 19.03 23.815 20.233 22.934 20.233 Z "
              fill="rgb(173,210,217)"/>
        <path d=" M 17.071 75.223 C 16.801 75.222 16.55 74.932 16.695 74.628 C 19.476 68.818 23.051 62.786 26.932 57.629 C 30.881 52.384 35.387 47.552 39.006 42.066 C 37.021 40.999 34.976 40.011 32.982 38.949 C 32.622 38.626 32.186 38.385 31.704 38.252 C 29.25 36.879 26.911 35.339 24.9 33.335 C 24.55 32.986 24.834 32.454 25.251 32.454 C 25.325 32.454 25.402 32.471 25.481 32.507 C 30.932 35.055 36.546 37.31 41.828 40.199 C 42.504 40.569 42.908 41.51 42.473 42.219 C 38.914 48.008 33.676 52.275 29.641 57.696 C 25.461 63.311 22.171 70.003 17.358 75.093 C 17.272 75.184 17.17 75.223 17.071 75.223 Z "
              fill="rgb(190,224,229)"/>
        <path d=" M 33.295 68.501 C 32.931 68.5 32.626 68.06 32.825 67.718 C 34.196 65.379 36.275 63.319 38.539 61.408 C 39.05 61.756 39.67 61.959 40.339 61.959 C 42.085 61.959 43.503 60.57 43.503 58.858 C 43.503 58.436 43.417 58.034 43.261 57.668 C 44.174 56.958 45.06 56.257 45.884 55.559 C 49.373 52.599 53.541 50.591 57.075 47.706 C 54.436 47.019 51.697 46.746 49.25 45.503 C 48.856 45.303 48.979 44.656 49.434 44.649 C 49.608 44.645 49.782 44.643 49.956 44.643 C 53.164 44.643 56.415 45.218 59.459 46.19 C 60.197 46.426 60.656 47.342 60.03 47.98 C 55.98 52.095 50.858 54.793 46.477 58.508 C 42.55 61.84 38.299 66.61 33.459 68.469 C 33.404 68.491 33.349 68.501 33.295 68.501 Z "
              fill="rgb(173,210,217)"/>
        <path d=" M 10.386 53.636 C 10.19 53.636 10.007 53.516 10.011 53.266 C 10.046 50.366 10.801 47.569 11.13 44.691 C 11.161 44.423 11.19 44.154 11.218 43.885 C 11.697 44.172 12.261 44.337 12.864 44.337 C 13.049 44.337 13.23 44.321 13.406 44.292 C 13.016 47.484 12.513 50.74 10.779 53.431 C 10.693 53.566 10.536 53.636 10.386 53.636 Z  M 14.201 38.427 C 13.795 38.241 13.342 38.137 12.864 38.137 C 12.472 38.137 12.097 38.207 11.75 38.334 C 11.902 36.973 12.092 35.62 12.37 34.29 C 12.836 32.068 13.647 29.52 13.41 27.227 C 13.095 24.18 11.279 22.819 9.154 20.924 C 8.791 20.601 9.042 19.905 9.505 19.905 C 9.556 19.905 9.61 19.914 9.666 19.933 C 14.292 21.479 16.124 25.775 15.464 30.431 C 15.084 33.104 14.619 35.761 14.201 38.427 Z "
              fill="rgb(164,199,207)"/>
        <path d=" M 9.546 7.123 C 9.022 6.57 8.702 5.83 8.702 5.017 C 8.702 3.302 10.116 1.916 11.866 1.916 C 13.613 1.916 15.029 3.302 15.029 5.017 C 15.029 5.108 15.025 5.198 15.017 5.287 L 13.552 5.373 C 13.42 5.38 13.293 5.414 13.178 5.469 L 9.546 7.123 Z "
              fill="rgb(254,254,254)"/>
        <path d=" M 12.244 8.091 L 13.422 7.555 L 13.527 7.652 C 13.146 7.883 12.711 8.037 12.244 8.091 Z "
              fill="rgb(145,195,203)"/>
        <path d=" M 11.866 8.113 C 10.949 8.113 10.123 7.732 9.546 7.123 L 13.178 5.469 C 12.944 5.581 12.758 5.782 12.667 6.036 C 12.532 6.415 12.638 6.837 12.934 7.108 L 13.422 7.555 L 12.244 8.091 C 12.12 8.106 11.994 8.113 11.866 8.113 Z "
              fill="rgb(46,44,43)"/>
        <path d=" M 13.527 7.652 L 13.422 7.555 L 12.934 7.108 C 12.638 6.837 12.532 6.415 12.667 6.036 C 12.758 5.782 12.944 5.581 13.178 5.469 C 13.293 5.414 13.42 5.38 13.552 5.373 L 15.017 5.287 C 14.928 6.287 14.354 7.151 13.527 7.652 Z "
              fill="rgb(46,44,43)"/>
        <path d=" M 32.653 6.449 L 29.092 4.609 C 28.944 4.534 28.773 4.499 28.615 4.499 C 28.602 4.499 28.588 4.499 28.575 4.5 L 26.712 4.608 C 26.916 3.087 28.24 1.916 29.849 1.916 C 31.595 1.916 33.011 3.302 33.011 5.017 C 33.011 5.533 32.882 6.02 32.653 6.449 Z "
              fill="rgb(254,254,254)"/>
        <path d=" M 29.849 8.113 C 28.686 8.113 27.671 7.501 27.121 6.588 L 28.417 6.512 L 31.061 7.878 C 30.688 8.029 30.278 8.113 29.849 8.113 Z "
              fill="rgb(166,213,219)"/>
        <path d=" M 31.061 7.878 L 28.417 6.512 L 27.121 6.588 C 26.844 6.127 26.685 5.59 26.685 5.017 C 26.685 4.878 26.694 4.742 26.712 4.608 L 28.575 4.5 C 28.588 4.499 28.602 4.499 28.615 4.499 C 28.773 4.499 28.944 4.534 29.092 4.609 L 32.653 6.449 C 32.311 7.089 31.747 7.598 31.061 7.878 Z "
              fill="rgb(46,44,43)"/>
        <path d=" M 2.04 25.737 C 1.272 25.737 0.568 25.469 0.02 25.023 L 0.014 20.256 C 0.563 19.807 1.269 19.538 2.04 19.538 C 3.042 19.538 3.935 19.993 4.515 20.706 L 4.52 24.561 C 3.941 25.278 3.045 25.737 2.04 25.737 Z "
              fill="rgb(254,254,254)"/>
        <path d=" M 4.52 24.561 L 4.515 20.706 C 4.945 21.235 5.202 21.906 5.202 22.636 C 5.202 23.363 4.947 24.032 4.52 24.561 Z "
              fill="rgb(46,44,43)"/>
        <path d=" M 20.661 25.439 L 17.093 21.468 C 17.563 20.334 18.698 19.538 20.023 19.538 C 21.644 19.538 22.98 20.729 23.165 22.27 L 20.844 25.208 L 20.661 25.439 Z "
              fill="rgb(145,195,203)"/>
        <path d=" M 20.023 25.737 C 18.277 25.737 16.861 24.349 16.861 22.636 C 16.861 22.223 16.943 21.828 17.093 21.468 L 20.661 25.439 L 20.447 25.71 C 20.308 25.728 20.167 25.737 20.023 25.737 Z  M 20.844 25.208 L 23.165 22.27 C 23.165 22.27 23.165 22.27 23.165 22.27 L 20.844 25.208 Z "
              fill="rgb(46,44,43)"/>
        <path d=" M 20.447 25.71 L 20.661 25.439 L 20.844 25.208 L 23.165 22.27 C 23.179 22.39 23.187 22.512 23.187 22.636 C 23.187 24.208 21.994 25.507 20.447 25.71 Z "
              fill="rgb(46,44,43)"/>
        <path d=" M 41.952 25.305 L 37.184 22.842 C 37.179 22.774 37.177 22.705 37.177 22.636 C 37.177 20.922 38.591 19.538 40.339 19.538 C 42.085 19.538 43.503 20.922 43.503 22.636 C 43.503 23.771 42.88 24.764 41.952 25.305 Z "
              fill="rgb(166,213,219)"/>
        <path d=" M 40.339 25.737 C 38.662 25.737 37.292 24.459 37.184 22.842 L 41.952 25.305 C 41.479 25.58 40.928 25.737 40.339 25.737 Z "
              fill="rgb(46,44,43)"/>
        <path d=" M 61.296 23.702 L 57.93 19.595 C 57.921 19.585 57.913 19.575 57.904 19.565 C 58.041 19.547 58.181 19.538 58.323 19.538 C 60.07 19.538 61.488 20.922 61.488 22.636 C 61.488 23.011 61.42 23.37 61.296 23.702 Z "
              fill="rgb(254,254,254)"/>
        <path d=" M 58.323 25.737 C 56.574 25.737 55.157 24.349 55.157 22.636 C 55.157 21.896 55.421 21.218 55.862 20.686 L 56.514 21.023 L 59.994 25.27 C 59.509 25.566 58.937 25.737 58.323 25.737 Z "
              fill="rgb(166,213,219)"/>
        <path d=" M 59.994 25.27 L 56.514 21.023 L 55.862 20.686 C 56.359 20.085 57.081 19.671 57.904 19.565 C 57.913 19.575 57.921 19.585 57.93 19.595 L 61.296 23.702 C 61.051 24.356 60.589 24.907 59.994 25.27 Z "
              fill="rgb(46,44,43)"/>
        <path d=" M 13.406 44.292 C 13.513 43.42 13.611 42.553 13.723 41.703 C 13.868 40.609 14.031 39.517 14.201 38.427 C 15.279 38.921 16.027 39.992 16.027 41.236 C 16.027 42.767 14.893 44.039 13.406 44.292 Z  M 11.218 43.885 C 10.306 43.341 9.698 42.358 9.698 41.236 C 9.698 39.908 10.551 38.775 11.75 38.334 C 11.544 40.183 11.408 42.047 11.218 43.885 Z "
              fill="rgb(135,181,188)"/>
        <path d=" M 12.864 44.337 C 12.261 44.337 11.697 44.172 11.218 43.885 C 11.408 42.047 11.544 40.183 11.75 38.334 C 12.097 38.207 12.472 38.137 12.864 38.137 C 13.342 38.137 13.795 38.241 14.201 38.427 C 14.031 39.517 13.868 40.609 13.723 41.703 C 13.611 42.553 13.513 43.42 13.406 44.292 C 13.23 44.321 13.049 44.337 12.864 44.337 Z "
              fill="rgb(180,209,215)"/>
        <path d=" M 30.849 44.337 C 29.099 44.337 27.683 42.948 27.683 41.236 C 27.683 39.524 29.099 38.137 30.849 38.137 C 31.145 38.137 31.432 38.177 31.704 38.252 C 32.127 38.489 32.553 38.72 32.982 38.949 C 33.614 39.515 34.011 40.33 34.011 41.236 C 34.011 42.948 32.593 44.337 30.849 44.337 Z "
              fill="rgb(166,213,219)"/>
        <path d=" M 32.982 38.949 C 32.553 38.72 32.127 38.489 31.704 38.252 C 32.186 38.385 32.622 38.626 32.982 38.949 Z "
              fill="rgb(203,229,233)"/>
        <path d=" M 51.161 44.337 C 50.03 44.337 49.038 43.754 48.479 42.878 L 48.905 42.392 L 53.796 42.955 C 53.228 43.788 52.26 44.337 51.161 44.337 Z "
              fill="rgb(145,195,203)"/>
        <path d=" M 48.479 42.878 C 48.361 42.694 48.263 42.497 48.186 42.289 C 48.203 42.295 48.219 42.3 48.236 42.304 C 48.284 42.317 48.334 42.327 48.384 42.333 L 48.904 42.393 L 48.479 42.878 Z "
              fill="rgb(46,44,43)"/>
        <path d=" M 54.318 41.002 L 49.791 40.481 L 50.454 38.215 C 50.682 38.164 50.918 38.137 51.161 38.137 C 52.829 38.137 54.196 39.399 54.318 41.002 Z "
              fill="rgb(166,213,219)"/>
        <path d=" M 53.796 42.955 L 48.904 42.393 L 48.384 42.333 C 48.334 42.327 48.284 42.317 48.236 42.304 C 48.321 42.327 48.41 42.339 48.498 42.339 C 48.632 42.339 48.766 42.312 48.892 42.258 C 49.166 42.141 49.374 41.906 49.458 41.62 L 49.791 40.481 L 54.318 41.002 C 54.324 41.079 54.327 41.157 54.327 41.236 C 54.327 41.872 54.132 42.463 53.796 42.955 Z "
              fill="rgb(46,44,43)"/>
        <path d=" M 48.498 42.339 C 48.41 42.339 48.321 42.327 48.236 42.304 C 48.219 42.3 48.203 42.295 48.186 42.289 C 48.065 41.96 47.999 41.606 47.999 41.236 C 47.999 39.762 49.048 38.53 50.454 38.215 L 49.791 40.481 L 49.458 41.62 C 49.374 41.906 49.166 42.141 48.892 42.258 C 48.766 42.312 48.632 42.339 48.498 42.339 Z "
              fill="rgb(46,44,43)"/>
        <path d=" M 71.897 42.771 L 71.137 38.827 C 71.854 39.395 72.312 40.263 72.312 41.236 C 72.312 41.794 72.161 42.318 71.897 42.771 Z "
              fill="rgb(254,254,254)"/>
        <path d=" M 69.864 42.791 L 66.2 42.369 C 66.059 42.018 65.982 41.636 65.982 41.236 C 65.982 39.582 67.303 38.232 68.968 38.142 L 69.864 42.791 Z "
              fill="rgb(166,213,219)"/>
        <path d=" M 69.146 44.337 C 67.806 44.337 66.661 43.521 66.2 42.369 L 69.864 42.791 L 68.968 38.142 C 69.027 38.139 69.086 38.137 69.146 38.137 C 69.9 38.137 70.593 38.396 71.137 38.827 L 71.897 42.771 C 71.352 43.706 70.324 44.337 69.146 44.337 Z "
              fill="rgb(46,44,43)"/>
        <path d=" M 2.04 61.959 C 1.295 61.959 0.61 61.706 0.069 61.284 L 0.063 56.439 C 0.604 56.014 1.292 55.759 2.04 55.759 C 3.071 55.759 3.986 56.242 4.564 56.99 L 4.569 60.72 C 3.992 61.473 3.074 61.959 2.04 61.959 Z "
              fill="rgb(254,254,254)"/>
        <path d=" M 4.569 60.72 L 4.564 56.99 C 4.965 57.509 5.202 58.156 5.202 58.858 C 5.202 59.557 4.967 60.202 4.569 60.72 Z "
              fill="rgb(46,44,43)"/>
        <path d=" M 20.023 61.959 C 18.277 61.959 16.861 60.57 16.861 58.858 C 16.861 57.145 18.277 55.759 20.023 55.759 C 21.771 55.759 23.187 57.145 23.187 58.858 C 23.187 60.57 21.771 61.959 20.023 61.959 Z "
              fill="rgb(166,213,219)"/>
        <path d=" M 38.539 61.408 C 37.716 60.849 37.177 59.915 37.177 58.858 C 37.177 57.145 38.591 55.759 40.339 55.759 C 41.655 55.759 42.785 56.547 43.261 57.668 C 41.712 58.873 40.083 60.106 38.539 61.408 Z "
              fill="rgb(145,195,203)"/>
        <path d=" M 40.339 61.959 C 39.67 61.959 39.05 61.756 38.539 61.408 C 40.083 60.106 41.712 58.873 43.261 57.668 C 43.417 58.034 43.503 58.436 43.503 58.858 C 43.503 60.57 42.085 61.959 40.339 61.959 Z "
              fill="rgb(187,217,223)"/>
        <path d=" M 56.246 61.199 C 55.579 60.63 55.157 59.792 55.157 58.858 C 55.157 57.145 56.574 55.759 58.323 55.759 C 59.637 55.759 60.764 56.544 61.243 57.661 L 56.246 61.199 Z "
              fill="rgb(254,254,254)"/>
        <path d=" M 11.866 78.601 C 10.999 78.601 10.214 78.26 9.643 77.708 L 10.87 72.559 C 11.184 72.458 11.518 72.403 11.866 72.403 C 13.613 72.403 15.029 73.788 15.029 75.503 C 15.029 77.213 13.613 78.601 11.866 78.601 Z "
              fill="rgb(166,213,219)"/>
        <path d=" M 9.643 77.708 L 9.643 77.707 L 10.87 72.559 L 10.87 72.559 L 9.643 77.708 Z " fill="rgb(46,44,43)"/>
        <path d=" M 9.643 77.707 C 9.062 77.145 8.702 76.365 8.702 75.503 C 8.702 74.129 9.61 72.967 10.87 72.559 L 9.643 77.707 Z "
              fill="rgb(46,44,43)"/>
        <path d=" M 29.849 78.601 C 28.455 78.601 27.274 77.72 26.851 76.498 L 31.753 73.027 C 32.517 73.592 33.011 74.49 33.011 75.503 C 33.011 77.213 31.595 78.601 29.849 78.601 Z "
              fill="rgb(254,254,254)"/>
        <path d=" M 27.206 73.796 C 27.625 73.173 28.267 72.709 29.022 72.51 L 27.206 73.796 Z "
              fill="rgb(145,195,203)"/>
        <path d=" M 26.851 76.498 C 26.743 76.185 26.685 75.851 26.685 75.503 C 26.685 74.872 26.877 74.285 27.206 73.796 L 29.022 72.51 C 29.286 72.44 29.563 72.403 29.849 72.403 C 30.564 72.403 31.223 72.635 31.753 73.027 L 26.851 76.498 Z "
              fill="rgb(46,44,43)"/>
        <path d=" M 3.99 95.561 C 3.882 95.528 3.776 95.491 3.67 95.452 L 3.644 95.442 C 3.474 95.381 3.306 95.31 3.135 95.224 C 2.908 95.111 2.69 94.977 2.485 94.827 C 2.212 94.64 1.976 94.447 1.762 94.239 C 1.618 94.102 1.484 93.956 1.359 93.801 C 1.26 93.678 1.167 93.55 1.082 93.418 L 1.06 93.383 C 0.939 93.206 0.802 92.988 0.671 92.723 C 0.608 92.599 0.55 92.472 0.499 92.346 L 0.45 92.219 C 0.375 92.013 0.31 91.776 0.261 91.543 C 0.224 91.393 0.182 91.188 0.153 90.939 C 0.139 90.845 0.129 90.75 0.122 90.658 C 0.653 90.26 1.318 90.023 2.04 90.023 C 3.786 90.023 5.202 91.41 5.202 93.124 C 5.202 94.113 4.728 94.994 3.99 95.561 Z "
              fill="rgb(254,254,254)"/>
    </g>
</svg>