<?xml version="1.0" encoding="UTF-8" standalone="no"?><!-- Generator: Gravit.io -->
<svg xmlns="http://www.w3.org/2000/svg" style="isolation:isolate"
     viewBox="0 0 183.528 89.338" width="183.528pt" height="89.338pt">
    <defs>
        <clipPath id="_clipPath_fYH1SP9lRpHwFJeNC917psPRBgjeNU94">
            <rect width="183.528" height="89.338"/>
        </clipPath>
    </defs>
    <g clip-path="url(#_clipPath_fYH1SP9lRpHwFJeNC917psPRBgjeNU94)">
        <path d=" M 0.895 38.443 C -0.119 33.81 -0.273 29.306 0.442 25.044 C 0.617 21.293 1.418 17.742 2.824 14.48 C 12.244 -7.397 31.994 0.83 42.608 5.25 C 47.459 7.269 52.721 8.957 58.239 10.267 C 59.91 10.662 61.637 11.025 63.51 11.377 C 64.315 11.529 65.1 11.664 65.905 11.8 L 66.188 11.849 C 69.106 12.322 72.121 12.703 75.086 12.972 C 79.207 13.384 83.401 13.613 87.961 13.677 C 90.61 13.724 93.366 13.71 96.188 13.63 C 99.215 13.554 102.364 13.412 105.573 13.203 C 116.625 12.474 127.737 11.001 139.092 9.431 C 139.994 9.306 140.918 9.17 141.858 9.029 C 151.166 7.65 162.75 5.933 172.389 12.255 C 177.666 15.711 181.381 21.298 182.842 27.984 C 183.66 31.728 183.748 35.734 183.098 39.607 C 182.869 44.73 181.406 49.648 178.85 53.869 C 172.873 63.748 161.836 70.537 147.772 72.996 C 146.149 73.279 144.489 73.511 142.75 73.693 C 142.674 73.988 142.586 74.283 142.49 74.576 C 140.002 82.078 131.371 86.427 124.403 87.293 C 118.742 87.996 113.463 86.449 109.912 83.048 C 109.795 82.937 109.684 82.826 109.578 82.718 C 105.959 80.166 104.801 76.209 104.356 74.296 C 99.701 74.496 95.02 74.787 90.448 75.07 C 80.68 75.675 70.631 76.296 60.522 76.072 C 60.485 76.201 60.442 76.33 60.399 76.457 C 57.912 83.957 49.28 88.306 42.313 89.171 C 36.655 89.875 31.371 88.328 27.823 84.927 C 27.713 84.826 27.614 84.724 27.52 84.626 C 23.502 81.836 22.5 77.253 22.149 75.646 C 22.041 75.158 21.95 74.67 21.864 74.193 L 20.635 67.253 C 13.356 62.654 7.809 55.99 3.742 46.992 C 2.483 44.207 1.524 41.33 0.895 38.443 Z "
              fill="rgb(255,255,255)"/>
        <path d=" M 116.52 78.197 C 115.862 77.662 114.971 77.523 114.215 77.138 C 112.098 76.062 111.451 73.398 111.039 71.058 C 110.213 66.394 109.387 61.732 108.559 57.068 C 108.512 56.796 108.465 56.513 108.543 56.248 C 108.643 55.912 108.926 55.664 109.203 55.453 C 110.842 54.209 112.846 53.449 114.897 53.295 C 115.641 53.24 116.418 53.269 117.088 53.599 C 117.852 53.978 118.381 54.697 118.869 55.396 C 121.137 58.626 123.354 62.4 122.633 66.281 C 122.34 67.853 121.573 69.316 121.344 70.902 C 121.155 72.205 121.338 73.546 121.073 74.837 C 120.803 76.127 119.873 77.443 118.559 77.509 C 118.311 77.523 118.037 77.498 117.834 77.642 C 117.635 77.791 117.653 78.199 117.903 78.211 L 116.52 78.197 Z "
              fill="rgb(255,199,0)"/>
        <path d=" M 110.862 72.963 C 110.711 72.373 110.59 71.767 110.483 71.158 L 108.004 57.166 C 107.951 56.859 107.883 56.482 108 56.089 C 108.145 55.599 108.516 55.265 108.862 55.002 C 110.576 53.701 112.703 52.892 114.852 52.732 C 115.51 52.683 116.479 52.668 117.34 53.091 C 118.268 53.552 118.883 54.429 119.332 55.07 C 121.66 58.39 123.944 62.332 123.19 66.384 C 123.045 67.162 122.791 67.908 122.549 68.628 C 122.276 69.433 122.018 70.193 121.905 70.982 C 121.823 71.535 121.815 72.097 121.807 72.693 C 121.795 73.429 121.781 74.193 121.625 74.953 C 121.326 76.396 120.248 77.992 118.588 78.076 L 118.451 78.08 L 118.467 78.234 C 118.455 78.548 118.19 78.789 117.877 78.775 C 117.547 78.761 117.272 78.541 117.172 78.214 C 117.047 77.839 117.194 77.412 117.502 77.187 C 117.813 76.961 118.158 76.955 118.41 76.949 L 118.532 76.947 C 119.545 76.894 120.297 75.789 120.518 74.722 C 120.655 74.068 120.664 73.39 120.674 72.675 C 120.684 72.07 120.694 71.447 120.783 70.82 C 120.912 69.929 121.201 69.082 121.477 68.265 C 121.719 67.55 121.948 66.877 122.078 66.177 C 122.752 62.545 120.711 59.005 118.407 55.72 C 117.914 55.019 117.457 54.412 116.838 54.105 C 116.227 53.804 115.459 53.82 114.938 53.859 C 113.004 54.005 111.088 54.73 109.547 55.902 C 109.336 56.062 109.137 56.232 109.084 56.408 C 109.045 56.548 109.08 56.763 109.117 56.97 L 111.596 70.961 C 112.022 73.365 112.662 75.716 114.471 76.634 C 114.737 76.769 115.024 76.869 115.305 76.972 C 115.84 77.166 116.393 77.365 116.877 77.757 C 117.119 77.955 117.155 78.31 116.957 78.552 C 116.762 78.795 116.407 78.832 116.162 78.634 C 115.828 78.363 115.387 78.205 114.922 78.035 C 114.596 77.918 114.266 77.796 113.957 77.642 C 112.219 76.757 111.373 74.972 110.862 72.963 Z "
              fill="rgb(0,0,0)"/>
        <path d=" M 114.03 76.894 C 114.274 77.216 114.559 77.537 114.889 77.853 C 117.112 79.98 120.463 80.531 123.516 80.152 C 127.805 79.619 134.178 76.787 135.659 72.312 C 137.305 67.353 132.024 64.101 127.694 64.066 C 124.588 64.043 121.563 65.043 118.742 66.339 C 114.623 68.232 110.905 72.763 114.03 76.894 Z "
              fill="rgb(255,199,0)"/>
        <path d=" M 135.143 69.439 C 135.006 68.904 134.762 68.392 134.41 67.902 C 133.106 66.076 130.34 64.785 127.688 64.763 C 125.108 64.744 122.358 65.445 119.035 66.972 C 116.334 68.214 114.242 70.396 113.705 72.533 C 113.36 73.916 113.655 75.24 114.584 76.474 C 114.807 76.767 115.073 77.062 115.371 77.349 C 117.2 79.099 120.137 79.869 123.43 79.461 C 127.381 78.97 133.582 76.361 135 72.093 C 135.307 71.162 135.356 70.273 135.143 69.439 Z  M 112.346 75.029 C 112.112 74.109 112.11 73.154 112.352 72.193 C 112.989 69.662 115.381 67.115 118.451 65.705 C 121.967 64.089 124.905 63.347 127.7 63.369 C 130.817 63.394 133.971 64.89 135.547 67.091 C 136.698 68.703 136.969 70.584 136.323 72.531 C 134.717 77.375 127.916 80.308 123.602 80.843 C 119.893 81.304 116.541 80.398 114.407 78.357 C 114.051 78.017 113.739 77.668 113.471 77.314 C 112.926 76.591 112.549 75.824 112.346 75.029 Z "
              fill="rgb(0,0,0)"/>
        <path d=" M 126.891 71.025 C 124.207 70.296 118.78 72.277 122.272 75.418 C 123.494 76.519 125.586 76.295 126.729 75.107 C 129.047 72.705 128.405 71.435 126.891 71.025 Z "
              fill="rgb(0,0,0)"/>
        <path d=" M 127.664 72.253 L 127.662 72.242 C 127.557 71.863 127.104 71.668 126.744 71.57 C 125.196 71.152 122.483 71.769 121.828 72.97 C 121.518 73.545 121.793 74.226 122.651 74.996 C 123.604 75.855 125.352 75.72 126.321 74.716 C 127.721 73.263 127.733 72.517 127.664 72.253 Z  M 120.643 73.996 C 120.471 73.318 120.647 72.775 120.834 72.431 C 121.764 70.726 125.022 69.931 127.041 70.478 C 128.207 70.796 128.616 71.451 128.752 71.941 C 128.998 72.892 128.475 74.111 127.135 75.502 C 125.744 76.943 123.295 77.099 121.893 75.837 C 121.141 75.162 120.782 74.535 120.643 73.996 Z "
              fill="rgb(0,0,0)"/>
        <path d=" M 34.43 80.076 C 33.772 79.541 32.883 79.402 32.125 79.017 C 30.006 77.941 29.362 75.277 28.949 72.937 C 28.121 68.273 27.297 63.611 26.471 58.945 C 26.424 58.673 26.375 58.39 26.453 58.127 C 26.553 57.791 26.834 57.545 27.116 57.332 C 28.752 56.088 30.754 55.328 32.805 55.173 C 33.551 55.119 34.328 55.148 34.998 55.478 C 35.762 55.855 36.289 56.578 36.78 57.273 C 39.047 60.505 41.264 64.279 40.543 68.16 C 40.25 69.734 39.485 71.195 39.254 72.781 C 39.067 74.084 39.248 75.427 38.981 76.716 C 38.715 78.005 37.785 79.322 36.469 79.39 C 36.221 79.402 35.948 79.377 35.746 79.521 C 35.543 79.669 35.563 80.078 35.813 80.089 L 34.43 80.076 Z "
              fill="rgb(255,199,0)"/>
        <path d=" M 28.77 74.835 C 28.621 74.25 28.5 73.642 28.391 73.037 L 25.914 59.045 C 25.86 58.74 25.793 58.363 25.91 57.966 C 26.055 57.476 26.428 57.144 26.772 56.882 C 28.487 55.578 30.616 54.771 32.764 54.611 C 33.416 54.562 34.385 54.545 35.248 54.97 C 36.176 55.429 36.791 56.308 37.24 56.951 C 39.573 60.271 41.852 64.212 41.098 68.263 C 40.953 69.041 40.701 69.787 40.457 70.507 C 40.186 71.312 39.928 72.072 39.815 72.861 C 39.735 73.414 39.725 73.976 39.715 74.572 C 39.703 75.31 39.694 76.072 39.534 76.832 C 39.235 78.275 38.159 79.871 36.498 79.955 L 36.364 79.957 L 36.377 80.113 C 36.364 80.427 36.1 80.667 35.789 80.654 C 35.459 80.64 35.182 80.42 35.082 80.091 C 34.957 79.716 35.102 79.291 35.412 79.066 C 35.723 78.839 36.069 78.834 36.321 78.828 L 36.444 78.824 C 37.455 78.771 38.207 77.667 38.428 76.601 C 38.563 75.947 38.573 75.271 38.584 74.554 C 38.594 73.951 38.604 73.324 38.696 72.699 C 38.825 71.808 39.11 70.962 39.385 70.146 C 39.627 69.431 39.858 68.755 39.987 68.056 C 40.66 64.425 38.619 60.886 36.317 57.599 C 35.823 56.896 35.366 56.291 34.746 55.984 C 34.282 55.753 33.676 55.675 32.848 55.738 C 30.914 55.882 29 56.609 27.455 57.781 C 27.258 57.931 27.045 58.113 26.994 58.287 C 26.951 58.427 26.992 58.64 27.028 58.847 L 29.504 72.839 C 29.905 75.078 30.485 77.548 32.381 78.513 C 32.649 78.648 32.932 78.75 33.217 78.851 C 33.752 79.045 34.305 79.242 34.787 79.636 C 35.028 79.83 35.065 80.187 34.869 80.431 C 34.672 80.673 34.315 80.71 34.073 80.513 C 33.739 80.242 33.299 80.084 32.832 79.916 C 32.506 79.796 32.178 79.677 31.869 79.521 C 30.127 78.636 29.283 76.849 28.77 74.835 Z "
              fill="rgb(0,0,0)"/>
        <path d=" M 31.938 78.773 C 32.182 79.095 32.469 79.416 32.797 79.732 C 35.022 81.859 38.371 82.41 41.426 82.031 C 45.715 81.498 52.086 78.666 53.571 74.191 C 55.215 69.232 49.936 65.98 45.602 65.945 C 42.5 65.921 39.473 66.921 36.655 68.216 C 32.532 70.113 28.815 74.642 31.938 78.773 Z "
              fill="rgb(255,199,0)"/>
        <path d=" M 53.051 71.32 C 52.914 70.783 52.67 70.271 52.323 69.781 C 51.014 67.955 48.248 66.664 45.598 66.642 C 43.016 66.623 40.266 67.326 36.944 68.851 C 34.244 70.093 32.153 72.275 31.616 74.41 C 31.266 75.795 31.565 77.119 32.494 78.353 L 32.496 78.353 C 32.717 78.648 32.981 78.941 33.28 79.228 C 35.11 80.978 38.047 81.748 41.34 81.339 C 45.291 80.849 51.494 78.238 52.909 73.972 C 53.217 73.041 53.264 72.152 53.051 71.32 Z  M 30.258 76.91 C 30.022 75.988 30.022 75.031 30.262 74.072 C 30.899 71.541 33.291 68.996 36.362 67.586 C 39.877 65.968 42.815 65.226 45.608 65.248 C 48.727 65.273 51.879 66.769 53.455 68.97 C 54.606 70.582 54.877 72.464 54.231 74.41 C 52.625 79.253 45.826 82.187 41.512 82.722 C 37.801 83.183 34.45 82.277 32.315 80.236 C 31.963 79.896 31.651 79.546 31.381 79.193 C 30.834 78.47 30.459 77.703 30.258 76.91 Z "
              fill="rgb(0,0,0)"/>
        <path d=" M 44.803 72.904 C 42.117 72.175 36.69 74.154 40.18 77.296 C 41.405 78.398 43.494 78.173 44.637 76.988 C 46.957 74.582 46.315 73.314 44.803 72.904 Z "
              fill="rgb(0,0,0)"/>
        <path d=" M 44.655 73.449 C 43.108 73.031 40.393 73.646 39.739 74.849 C 39.424 75.425 39.703 76.105 40.559 76.877 C 41.512 77.732 43.262 77.599 44.231 76.595 C 45.631 75.142 45.641 74.394 45.573 74.132 L 45.571 74.121 C 45.465 73.744 45.016 73.546 44.655 73.449 Z  M 38.553 75.875 C 38.379 75.195 38.559 74.652 38.744 74.31 C 39.672 72.605 42.932 71.812 44.951 72.359 C 46.117 72.673 46.526 73.328 46.66 73.822 C 46.912 74.81 46.385 75.988 45.043 77.378 C 43.655 78.822 41.205 78.98 39.801 77.716 C 39.051 77.039 38.69 76.414 38.553 75.875 Z "
              fill="rgb(0,0,0)"/>
        <path d=" M 61.774 22.22 C 76.162 24.906 91.037 25.109 105.643 24.148 C 117.043 23.396 128.366 21.89 139.678 20.324 C 148.737 19.068 159.86 16.67 168.041 22.037 C 176.824 27.793 178.133 41.16 172.696 50.144 C 167.26 59.127 156.877 64.101 146.534 65.908 C 138.739 67.268 130.802 67.108 122.871 66.949 C 120.277 66.896 117.683 66.844 115.096 66.845 C 95.264 66.847 75.477 69.755 55.637 68.691 C 34.996 67.58 19.297 63.949 10.299 44.029 C 7.055 36.847 5.905 28.337 9.022 21.097 C 15.533 5.972 28.033 10.918 39.438 15.668 C 46.67 18.677 54.155 20.798 61.774 22.22 Z "
              fill="rgb(255,199,0)"/>
        <path d=" M 61.67 22.775 C 53.701 21.287 46.147 19.072 39.221 16.189 C 28.301 11.642 15.926 6.49 9.543 21.322 C 6.789 27.718 7.252 35.91 10.813 43.795 C 19.303 62.584 33.688 66.943 55.668 68.125 C 67.1 68.74 78.719 68.019 89.959 67.32 C 98.194 66.808 106.707 66.281 115.098 66.279 C 117.688 66.277 120.326 66.33 122.877 66.382 C 130.653 66.539 138.692 66.703 146.438 65.351 C 158.088 63.316 167.481 57.668 172.211 49.851 C 177.213 41.587 176.602 28.326 167.735 22.509 C 160.571 17.812 151.03 19.224 142.612 20.47 C 141.643 20.613 140.688 20.753 139.756 20.882 C 128.264 22.474 117.008 23.964 105.68 24.711 C 88.944 25.814 74.549 25.179 61.67 22.775 Z  M 7.643 38.189 C 6.063 31.998 6.332 25.916 8.502 20.875 C 15.33 5.015 28.819 10.632 39.655 15.144 C 46.508 17.996 53.985 20.191 61.877 21.664 C 74.662 24.05 88.967 24.677 105.606 23.584 C 116.897 22.839 128.129 21.351 139.602 19.763 C 140.53 19.634 141.479 19.494 142.448 19.351 C 151.063 18.076 160.828 16.63 168.354 21.562 C 177.764 27.732 178.448 41.73 173.18 50.437 C 168.28 58.531 158.604 64.373 146.631 66.464 C 138.781 67.836 130.684 67.671 122.852 67.513 C 120.309 67.462 117.676 67.41 115.098 67.41 C 106.741 67.412 98.246 67.939 90.03 68.449 C 78.758 69.148 67.104 69.873 55.608 69.254 C 33.192 68.05 18.508 63.574 9.783 44.261 C 8.875 42.248 8.16 40.212 7.643 38.189 Z "
              fill="rgb(0,0,0)"/>
        <path d=" M 146.93 62.134 C 139.092 63.505 131.098 63.328 123.112 63.171 L 123.098 63.173 C 120.879 63.132 118.672 63.086 116.461 63.08 L 115.502 63.068 C 112.309 63.066 109.114 63.152 105.922 63.273 C 100.76 63.468 95.588 63.789 90.428 64.107 C 88.09 64.252 85.768 64.404 83.426 64.523 C 74.299 65.058 65.172 65.421 56.039 64.916 C 35.395 63.808 19.701 60.183 10.705 40.263 C 7.539 33.259 6.369 24.996 9.207 17.88 C 9.278 17.693 9.35 17.517 9.43 17.328 C 15.944 2.205 28.44 7.144 39.84 11.894 C 45.295 14.162 50.895 15.919 56.578 17.267 C 58.442 17.707 60.309 18.097 62.178 18.449 C 63.112 18.625 64.03 18.779 64.975 18.941 C 68.104 19.447 71.26 19.849 74.43 20.138 C 78.897 20.586 83.377 20.808 87.86 20.873 C 90.707 20.923 93.549 20.904 96.393 20.822 C 99.615 20.744 102.836 20.591 106.041 20.38 C 117.444 19.63 128.774 18.121 140.08 16.558 C 149.135 15.3 160.26 12.906 168.442 18.271 C 170.578 19.671 172.272 21.523 173.534 23.652 C 177.463 30.269 177.215 39.578 173.102 46.369 C 167.664 55.353 157.276 60.326 146.93 62.134 Z "
              fill="rgb(0,198,242)"/>
        <path d=" M 175.09 28.933 C 174.637 27.16 173.957 25.47 173.047 23.941 C 171.778 21.796 170.123 20.048 168.133 18.744 C 160.965 14.044 151.42 15.459 143 16.707 C 142.034 16.847 141.086 16.99 140.159 17.117 C 128.651 18.709 117.385 20.201 106.078 20.945 C 102.748 21.164 99.494 21.312 96.407 21.386 C 93.493 21.47 90.614 21.488 87.85 21.437 C 83.057 21.369 78.649 21.128 74.373 20.703 C 71.239 20.414 68.043 20.009 64.883 19.5 L 64.752 19.478 C 63.85 19.322 62.969 19.173 62.074 19.003 C 60.092 18.63 58.252 18.244 56.449 17.816 C 50.532 16.414 44.869 14.597 39.621 12.416 C 28.709 7.869 16.34 2.714 9.951 17.55 C 9.873 17.732 9.805 17.9 9.737 18.08 C 7.223 24.384 7.766 32.38 11.219 40.031 C 19.703 58.816 34.088 63.171 56.069 64.349 C 65.387 64.867 74.707 64.468 83.393 63.959 C 85.199 63.867 86.989 63.755 88.785 63.642 L 90.662 63.527 C 95.657 63.218 100.823 62.9 105.901 62.707 C 109.631 62.566 112.682 62.502 115.502 62.502 L 116.469 62.513 C 118.498 62.519 120.532 62.56 122.573 62.599 L 123.067 62.607 L 123.121 62.605 L 123.453 62.613 C 131.172 62.763 139.157 62.919 146.834 61.578 C 158.492 59.541 167.891 53.89 172.617 46.076 C 175.684 41.015 176.524 34.545 175.09 28.933 Z  M 8.055 34.443 C 6.532 28.472 6.721 22.587 8.684 17.671 C 8.752 17.488 8.824 17.304 8.91 17.107 C 15.743 1.24 29.223 6.859 40.057 11.371 C 45.248 13.529 50.852 15.328 56.711 16.716 C 58.494 17.138 60.319 17.521 62.281 17.892 C 63.17 18.06 64.045 18.21 64.944 18.363 L 65.071 18.384 C 68.198 18.89 71.367 19.291 74.481 19.576 C 78.729 20 83.106 20.238 87.867 20.306 C 90.615 20.357 93.477 20.341 96.377 20.257 C 99.451 20.181 102.69 20.033 106.004 19.818 C 117.274 19.074 128.518 17.587 140.002 15.998 C 140.928 15.869 141.873 15.728 142.834 15.587 C 151.455 14.31 161.227 12.863 168.754 17.798 C 170.889 19.199 172.662 21.07 174.022 23.363 C 178.002 30.078 177.828 39.658 173.586 46.662 C 168.688 54.755 159.008 60.597 147.028 62.691 C 139.244 64.052 131.205 63.894 123.43 63.742 L 123.143 63.738 L 123.086 63.74 L 122.549 63.73 C 120.516 63.689 118.489 63.652 116.459 63.644 L 115.494 63.632 C 112.696 63.632 109.659 63.697 105.944 63.838 C 100.877 64.031 95.719 64.347 90.733 64.654 L 88.856 64.771 C 87.055 64.882 85.26 64.996 83.453 65.087 C 74.741 65.597 65.381 66 56.008 65.48 C 33.592 64.277 18.908 59.804 10.188 40.496 C 9.282 38.492 8.571 36.462 8.055 34.443 Z "
              fill="rgb(0,0,0)"/>
        <path d=" M 116.461 63.08 L 115.502 63.068 C 112.309 63.066 109.114 63.152 105.922 63.273 C 100.76 63.468 95.588 63.789 90.428 64.107 C 88.662 61.978 87.121 59.652 85.596 57.334 C 80.225 49.214 74.828 41.042 71.129 32.043 C 69.301 27.619 67.696 22.74 64.975 18.941 C 68.104 19.447 71.26 19.849 74.43 20.138 C 78.897 20.586 83.377 20.808 87.86 20.873 C 89.071 21.699 90.219 22.627 91.284 23.669 C 97.231 29.476 99.807 37.777 103.409 45.261 C 106.621 51.937 110.864 58.252 116.461 63.08 Z "
              fill="rgb(255,199,0)"/>
        <path d=" M 87.68 21.433 C 82.951 21.363 78.598 21.123 74.373 20.703 C 71.66 20.453 68.907 20.117 66.168 19.701 C 67.975 22.548 69.278 25.853 70.545 29.06 C 70.912 29.994 71.278 30.919 71.653 31.826 C 75.348 40.822 80.799 49.056 86.069 57.021 C 87.43 59.091 88.967 61.425 90.684 63.525 C 95.67 63.218 100.828 62.9 105.901 62.707 C 109.399 62.574 112.299 62.509 114.969 62.503 C 110.309 58.177 106.252 52.47 102.899 45.507 C 102.043 43.728 101.231 41.876 100.448 40.086 C 97.942 34.355 95.348 28.431 90.889 24.074 C 89.924 23.129 88.844 22.242 87.68 21.433 Z  M 64.426 19.082 C 64.389 18.935 64.41 18.777 64.494 18.644 C 64.614 18.451 64.838 18.347 65.063 18.382 C 68.198 18.89 71.367 19.291 74.481 19.576 C 78.729 20 83.106 20.238 87.867 20.306 C 87.979 20.308 88.086 20.341 88.178 20.404 C 89.451 21.275 90.629 22.238 91.678 23.267 C 96.297 27.777 98.934 33.804 101.485 39.632 C 102.264 41.414 103.069 43.257 103.918 45.017 C 107.469 52.39 111.813 58.324 116.83 62.652 C 117.01 62.806 117.074 63.056 116.991 63.279 C 116.907 63.502 116.692 63.648 116.455 63.644 L 115.494 63.632 C 112.696 63.632 109.659 63.697 105.944 63.838 C 100.877 64.031 95.719 64.347 90.733 64.654 L 90.465 64.671 C 90.283 64.683 90.11 64.607 89.994 64.468 C 88.164 62.263 86.551 59.81 85.125 57.644 C 79.825 49.634 74.344 41.353 70.608 32.257 C 70.229 31.347 69.862 30.414 69.492 29.476 C 68.086 25.914 66.635 22.23 64.514 19.271 L 64.426 19.082 Z "
              fill="rgb(0,0,0)"/>
        <path d=" M 56.031 17.406 C 55.981 17.207 56.041 16.986 56.205 16.843 C 56.442 16.636 56.799 16.66 57.004 16.894 C 59.364 19.584 61.518 22.806 63.412 26.474 C 65.358 30.255 67.014 34.224 68.617 38.062 C 70.791 43.277 73.041 48.667 76.035 53.601 C 78.282 57.308 80.909 60.857 83.846 64.146 C 84.053 64.377 84.034 64.736 83.801 64.945 C 83.567 65.152 83.211 65.132 83.004 64.898 C 80.02 61.558 77.35 57.955 75.069 54.189 C 72.032 49.181 69.764 43.75 67.573 38.498 C 65.979 34.679 64.332 30.732 62.409 26.994 C 60.557 23.406 58.451 20.259 56.155 17.64 L 56.031 17.406 Z "
              fill="rgb(0,0,0)"/>
        <path d=" M 95.846 20.963 C 95.789 20.748 95.866 20.509 96.053 20.369 C 96.303 20.183 96.658 20.234 96.846 20.482 C 97.817 21.781 98.717 23.16 99.524 24.582 C 101.766 28.505 103.66 32.679 105.492 36.716 C 106.608 39.179 107.764 41.726 108.987 44.183 C 112.977 52.226 116.879 57.527 121.635 61.377 C 122.162 61.806 122.75 62.246 123.379 62.681 C 123.51 62.753 123.614 62.879 123.653 63.033 C 123.729 63.336 123.553 63.64 123.25 63.718 C 123.092 63.759 122.912 63.732 122.778 63.638 C 122.106 63.177 121.483 62.711 120.922 62.255 C 114.586 57.128 110.498 49.773 107.973 44.685 C 106.744 42.212 105.582 39.656 104.463 37.183 C 102.641 33.17 100.758 29.021 98.541 25.14 C 97.756 23.757 96.883 22.42 95.94 21.162 L 95.846 20.963 Z "
              fill="rgb(0,0,0)"/>
        <path d=" M 105.922 63.273 C 100.76 63.468 95.588 63.789 90.428 64.107 C 88.662 61.978 87.121 59.652 85.596 57.334 C 80.225 49.214 74.828 41.042 71.129 32.043 C 69.301 27.619 67.696 22.74 64.975 18.941 C 68.104 19.447 71.26 19.849 74.43 20.138 C 81.477 25.484 86.905 32.668 91.416 40.224 C 96.151 48.175 99.289 56.744 105.922 63.273 Z "
              fill="rgb(255,104,103)"/>
        <path d=" M 74.217 20.687 C 71.553 20.441 68.852 20.109 66.168 19.701 C 67.975 22.548 69.278 25.853 70.545 29.06 C 70.912 29.994 71.278 30.919 71.653 31.826 C 75.348 40.822 80.799 49.056 86.069 57.021 C 87.43 59.091 88.967 61.425 90.684 63.525 C 95.254 63.244 99.969 62.953 104.627 62.757 C 100.403 58.271 97.576 52.875 94.834 47.646 C 93.6 45.291 92.326 42.855 90.932 40.513 C 85.715 31.779 80.246 25.291 74.217 20.687 Z  M 64.426 19.082 C 64.389 18.935 64.41 18.777 64.494 18.644 C 64.614 18.451 64.838 18.347 65.063 18.382 C 68.198 18.89 71.367 19.291 74.481 19.576 C 74.586 19.585 74.688 19.625 74.772 19.687 C 80.969 24.388 86.574 31.011 91.903 39.935 C 93.315 42.302 94.596 44.751 95.838 47.121 C 98.86 52.888 101.713 58.336 106.319 62.869 C 106.479 63.027 106.531 63.265 106.449 63.476 C 106.367 63.687 106.17 63.828 105.944 63.838 C 100.877 64.031 95.719 64.347 90.733 64.654 L 90.465 64.671 C 90.283 64.683 90.11 64.607 89.994 64.468 C 88.164 62.263 86.551 59.81 85.125 57.644 C 79.825 49.634 74.344 41.353 70.608 32.257 C 70.229 31.347 69.862 30.414 69.492 29.476 C 68.086 25.914 66.635 22.23 64.514 19.271 L 64.426 19.082 Z "
              fill="rgb(0,0,0)"/>
        <path d=" M 132.45 42.496 C 134.662 44.146 137.664 46.371 137.883 47.541 C 137.409 45 136.84 42.478 136.2 39.976 C 138.239 38.494 140.192 36.892 142.035 35.173 C 139.567 34.711 137.034 34.279 134.483 33.943 C 133.873 32.037 133.164 30.154 132.071 28.484 C 131.59 30.17 131.073 31.845 130.535 33.513 C 127.989 33.3 125.446 33.214 122.957 33.337 C 124.649 35.406 126.612 37.318 128.58 39.177 C 127.741 41.48 126.862 43.767 125.918 46.027 C 128.162 44.984 130.344 43.802 132.45 42.496 Z "
              fill="rgb(255,199,0)"/>
        <path d=" M 132.284 30.246 C 131.955 31.334 131.598 32.484 131.198 33.728 C 131.1 34.037 130.801 34.236 130.477 34.209 C 128.297 34.025 126.301 33.951 124.424 33.986 C 125.926 35.683 127.582 37.275 129.059 38.67 C 129.262 38.863 129.33 39.158 129.235 39.418 C 128.549 41.298 127.893 43.011 127.252 44.607 C 128.893 43.785 130.512 42.878 132.08 41.904 C 132.325 41.753 132.637 41.765 132.866 41.937 L 132.991 42.029 C 134.438 43.111 135.694 44.066 136.645 44.912 C 136.315 43.369 135.922 41.746 135.524 40.148 C 135.453 39.871 135.557 39.58 135.789 39.41 C 137.438 38.214 139.026 36.937 140.524 35.605 C 138.278 35.199 136.26 34.88 134.391 34.634 C 134.123 34.599 133.901 34.412 133.817 34.156 C 133.424 32.925 132.946 31.554 132.284 30.246 Z  M 125.242 46.201 C 125.205 46.056 125.213 45.9 125.274 45.759 C 126.082 43.828 126.899 41.734 127.768 39.369 C 126.03 37.72 124.082 35.816 122.416 33.779 C 122.248 33.574 122.211 33.295 122.319 33.054 C 122.426 32.814 122.659 32.654 122.922 32.64 C 125.121 32.531 127.455 32.576 130.039 32.773 C 130.559 31.144 131.006 29.673 131.401 28.291 C 131.475 28.029 131.698 27.836 131.967 27.793 C 132.237 27.752 132.504 27.873 132.655 28.101 C 133.752 29.777 134.461 31.646 135.01 33.31 C 137.16 33.603 139.506 33.988 142.162 34.49 C 142.422 34.537 142.631 34.728 142.705 34.98 C 142.776 35.228 142.701 35.503 142.51 35.685 C 140.787 37.291 138.932 38.828 136.991 40.259 C 137.621 42.752 138.137 45.095 138.567 47.412 C 138.637 47.793 138.387 48.156 138.008 48.226 C 137.629 48.295 137.264 48.045 137.196 47.668 L 137.19 47.636 C 136.969 46.779 134.047 44.562 132.41 43.339 C 130.401 44.566 128.317 45.681 126.209 46.66 C 125.95 46.781 125.641 46.73 125.434 46.531 C 125.338 46.439 125.274 46.322 125.242 46.201 Z "
              fill="rgb(0,0,0)"/>
        <path d=" M 39.789 40.943 C 41.299 43.252 43.36 46.371 43.162 47.545 C 43.59 44.996 43.92 42.431 44.176 39.861 C 46.6 39.168 48.983 38.334 51.303 37.351 C 49.145 36.07 46.912 34.796 44.631 33.605 C 44.711 31.605 44.692 29.593 44.239 27.65 C 43.207 29.068 42.147 30.464 41.069 31.849 C 38.752 30.773 36.393 29.824 34.012 29.086 C 34.891 31.607 36.08 34.078 37.291 36.5 C 35.713 38.375 34.104 40.22 32.442 42.021 C 34.909 41.812 37.364 41.449 39.789 40.943 Z "
              fill="rgb(255,104,103)"/>
        <path d=" M 37.838 36.359 C 37.883 36.533 37.844 36.722 37.723 36.863 C 36.346 38.5 35.071 39.968 33.854 41.314 C 35.791 41.101 37.742 40.793 39.674 40.39 C 39.903 40.343 40.135 40.439 40.262 40.634 L 40.338 40.75 C 41.416 42.396 42.356 43.869 42.973 45.078 C 43.219 43.371 43.434 41.605 43.614 39.804 C 43.637 39.574 43.797 39.38 44.02 39.316 C 46.073 38.73 48.09 38.041 50.037 37.261 C 47.975 36.052 46.112 35.017 44.367 34.107 C 44.176 34.007 44.057 33.804 44.065 33.582 C 44.121 32.191 44.141 30.607 43.918 29.037 C 43.178 30.039 42.383 31.082 41.516 32.197 C 41.352 32.404 41.071 32.472 40.83 32.363 C 38.742 31.392 36.805 30.609 34.942 29.98 C 35.795 32.191 36.85 34.353 37.799 36.246 L 37.838 36.359 Z  M 31.895 42.16 C 31.848 41.976 31.893 41.779 32.026 41.636 C 33.461 40.086 34.967 38.377 36.617 36.418 C 35.545 34.263 34.356 31.787 33.477 29.273 C 33.407 29.06 33.455 28.845 33.606 28.693 C 33.754 28.539 33.975 28.482 34.178 28.545 C 36.305 29.205 38.508 30.056 40.897 31.146 C 41.955 29.781 42.903 28.525 43.78 27.318 C 43.91 27.138 44.131 27.052 44.348 27.095 C 44.565 27.14 44.731 27.324 44.787 27.523 C 45.246 29.484 45.27 31.509 45.207 33.271 C 47.153 34.293 49.246 35.47 51.592 36.865 C 51.776 36.972 51.885 37.177 51.867 37.388 C 51.854 37.601 51.719 37.789 51.522 37.871 C 49.332 38.798 47.039 39.615 44.7 40.296 C 44.44 42.839 44.11 45.304 43.721 47.634 L 43.719 47.638 C 43.668 47.947 43.375 48.154 43.067 48.103 C 42.76 48.05 42.553 47.755 42.604 47.451 L 42.604 47.447 C 42.75 46.552 40.727 43.41 39.528 41.576 C 37.192 42.046 34.825 42.386 32.491 42.584 C 32.258 42.603 32.035 42.48 31.934 42.269 L 31.895 42.16 Z "
              fill="rgb(0,0,0)"/>
        <path d=" M 65.285 64.591 C 62.228 64.591 59.148 64.52 56.069 64.349 C 34.088 63.171 19.703 58.816 11.219 40.031 C 7.785 32.422 7.229 24.472 9.696 18.183 C 9.738 18.209 9.779 18.235 9.821 18.261 C 15.416 21.74 21.66 26.316 21.762 32.896 C 21.793 34.953 21.18 36.976 21.239 39.039 C 21.418 46.818 30.239 51.127 37.78 53.048 C 50.89 56.392 64.266 57.902 77.75 58.288 C 79.143 60.265 80.642 62.183 82.237 64.025 C 76.771 64.337 71.069 64.591 65.285 64.591 Z "
              fill="rgb(0,167,242)"/>
        <path d=" M 65.255 65.158 C 62.183 65.158 59.112 65.086 56.039 64.916 C 35.395 63.808 19.701 60.183 10.705 40.263 C 7.539 33.259 6.369 24.996 9.207 17.88 C 9.367 17.983 9.534 18.083 9.696 18.183 C 7.229 24.472 7.785 32.422 11.219 40.031 C 19.703 58.816 34.088 63.171 56.069 64.349 C 59.148 64.52 62.228 64.591 65.285 64.591 C 71.069 64.591 76.771 64.337 82.237 64.025 C 82.393 64.206 82.55 64.386 82.708 64.565 C 76.891 64.9 71.074 65.158 65.255 65.158 Z "
              fill="rgb(0,0,0)"/>
        <path d=" M 83.667 63.944 C 82.069 62.142 80.565 60.263 79.165 58.324 C 81.142 58.369 83.121 58.39 85.102 58.39 C 85.274 58.39 85.444 58.39 85.617 58.39 C 86.731 60.078 87.955 61.896 89.302 63.61 L 88.785 63.642 C 87.079 63.75 85.38 63.855 83.667 63.944 Z "
              fill="rgb(0,167,242)"/>
        <path d=" M 83.989 64.494 C 83.982 64.369 83.935 64.245 83.846 64.146 C 83.786 64.079 83.726 64.012 83.667 63.944 C 85.38 63.855 87.079 63.75 88.785 63.642 L 89.302 63.61 C 89.444 63.792 89.588 63.972 89.733 64.15 C 87.817 64.27 85.908 64.392 83.989 64.494 Z "
              fill="rgb(0,0,0)"/>
        <path d=" M 82.708 64.565 C 82.55 64.386 82.393 64.206 82.237 64.025 C 80.642 62.183 79.143 60.265 77.75 58.288 C 78.221 58.301 78.693 58.313 79.165 58.324 C 80.565 60.263 82.069 62.142 83.667 63.944 C 83.726 64.012 83.786 64.079 83.846 64.146 C 83.935 64.245 83.982 64.369 83.989 64.494 C 83.801 64.504 83.614 64.513 83.426 64.523 C 83.187 64.537 82.947 64.551 82.708 64.565 Z "
              fill="rgb(0,0,0)"/>
        <path d=" M 90.684 63.525 C 89.335 61.875 88.097 60.081 86.968 58.384 C 91.575 58.353 96.186 58.211 100.804 57.985 C 101.955 59.651 103.212 61.255 104.627 62.757 C 99.969 62.953 95.254 63.244 90.684 63.525 Z "
              fill="rgb(127,87,103)"/>
        <path d=" M 130.93 62.71 C 128.423 62.71 125.924 62.661 123.453 62.613 L 123.275 62.609 C 122.685 62.197 122.133 61.782 121.635 61.377 C 120.016 60.066 118.495 58.586 117.036 56.888 C 125.339 56.196 133.627 55.339 141.867 54.478 C 145.696 54.072 150.293 53.089 151.518 49.433 C 152.686 45.962 150.028 41.609 152.246 38.679 C 153.301 37.299 154.837 36.921 156.564 36.921 C 157.608 36.921 158.722 37.059 159.842 37.197 C 160.963 37.335 162.091 37.472 163.161 37.472 C 163.352 37.472 163.54 37.468 163.727 37.459 C 169.709 37.133 173.222 30.969 173.516 24.781 C 174.194 26.081 174.719 27.479 175.09 28.933 C 176.524 34.545 175.684 41.015 172.617 46.076 C 167.891 53.89 158.492 59.541 146.834 61.578 C 141.614 62.49 136.253 62.71 130.93 62.71 Z "
              fill="rgb(0,167,242)"/>
        <path d=" M 131 63.277 C 128.559 63.277 126.115 63.23 123.67 63.182 C 123.671 63.133 123.665 63.083 123.653 63.033 C 123.614 62.879 123.51 62.753 123.379 62.681 C 123.344 62.657 123.31 62.633 123.275 62.609 L 123.453 62.613 C 125.924 62.661 128.423 62.71 130.93 62.71 C 136.253 62.71 141.614 62.49 146.834 61.578 C 158.492 59.541 167.891 53.89 172.617 46.076 C 175.684 41.015 176.524 34.545 175.09 28.933 C 174.719 27.479 174.194 26.081 173.516 24.781 C 173.534 24.405 173.54 24.027 173.534 23.652 C 177.463 30.269 177.215 39.578 173.102 46.369 C 167.664 55.353 157.276 60.326 146.93 62.134 C 141.674 63.054 136.347 63.277 131 63.277 Z "
              fill="rgb(0,0,0)"/>
        <path d=" M 121.324 62.575 C 119.77 62.546 118.219 62.52 116.671 62.514 C 114.908 60.977 113.229 59.241 111.639 57.313 C 112.984 57.214 114.33 57.109 115.675 57 C 117.223 58.876 118.965 60.672 120.922 62.255 C 121.053 62.361 121.187 62.468 121.324 62.575 Z "
              fill="rgb(0,167,242)"/>
        <path d=" M 122.093 63.155 C 120.401 63.123 118.715 63.092 117.027 63.082 C 117.028 62.92 116.958 62.762 116.83 62.652 C 116.777 62.606 116.724 62.56 116.671 62.514 C 118.219 62.52 119.77 62.546 121.324 62.575 C 121.57 62.768 121.827 62.961 122.093 63.155 Z "
              fill="rgb(0,0,0)"/>
        <path d=" M 106.146 62.697 C 104.642 61.195 103.326 59.595 102.129 57.917 C 104.841 57.775 107.553 57.605 110.265 57.412 C 111.755 59.278 113.324 60.976 114.969 62.503 C 112.362 62.509 109.535 62.571 106.146 62.697 Z "
              fill="rgb(127,168,0)"/>
        <path d=" M 106.487 63.252 C 106.482 63.11 106.423 62.972 106.319 62.869 C 106.261 62.812 106.203 62.755 106.146 62.697 C 109.535 62.571 112.362 62.509 114.969 62.503 C 113.324 60.976 111.755 59.278 110.265 57.412 C 110.722 57.38 111.182 57.347 111.639 57.313 C 113.229 59.241 114.908 60.977 116.671 62.514 C 116.724 62.56 116.777 62.606 116.83 62.652 C 116.958 62.762 117.028 62.92 117.027 63.082 C 116.838 63.081 116.65 63.08 116.461 63.08 L 115.502 63.068 C 115.467 63.068 115.432 63.068 115.397 63.068 C 112.427 63.068 109.456 63.143 106.487 63.252 Z "
              fill="rgb(0,0,0)"/>
        <path d=" M 123.67 63.182 C 123.484 63.179 123.298 63.175 123.112 63.171 L 123.098 63.173 C 122.763 63.167 122.428 63.161 122.093 63.155 C 121.827 62.961 121.57 62.768 121.324 62.575 C 121.187 62.468 121.053 62.361 120.922 62.255 C 118.965 60.672 117.223 58.876 115.675 57 C 116.13 56.963 116.582 56.926 117.036 56.888 C 118.495 58.586 120.016 60.066 121.635 61.377 C 122.133 61.782 122.685 62.197 123.275 62.609 C 123.31 62.633 123.344 62.657 123.379 62.681 C 123.51 62.753 123.614 62.879 123.653 63.033 C 123.665 63.083 123.671 63.133 123.67 63.182 Z "
              fill="rgb(0,0,0)"/>
        <path d=" M 89.733 64.15 C 89.588 63.972 89.444 63.792 89.302 63.61 C 87.955 61.896 86.731 60.078 85.617 58.39 C 86.066 58.389 86.519 58.387 86.968 58.384 C 88.097 60.081 89.335 61.875 90.684 63.525 C 95.254 63.244 99.969 62.953 104.627 62.757 C 103.212 61.255 101.955 59.651 100.804 57.985 C 101.246 57.963 101.687 57.94 102.129 57.917 C 103.326 59.595 104.642 61.195 106.146 62.697 C 106.203 62.755 106.261 62.812 106.319 62.869 C 106.423 62.972 106.482 63.11 106.487 63.252 C 106.299 63.259 106.11 63.266 105.922 63.273 C 100.76 63.468 95.588 63.789 90.428 64.107 C 90.196 64.121 89.965 64.136 89.733 64.15 Z "
              fill="rgb(0,0,0)"/>
    </g>
</svg>