<?xml version="1.0" encoding="UTF-8" standalone="no"?><!-- Generator: Gravit.io --><svg xmlns="http://www.w3.org/2000/svg" xmlns:xlink="http://www.w3.org/1999/xlink" style="isolation:isolate" viewBox="0 0 185.109 144.081" width="185.109pt" height="144.081pt"><defs><clipPath id="_clipPath_U6veXCPAdMTispTQZuGyPGh5erdDX9Ho"><rect width="185.109" height="144.081"/></clipPath></defs><g clip-path="url(#_clipPath_U6veXCPAdMTispTQZuGyPGh5erdDX9Ho)"><path d=" M 42.839 46.205 C 37.42 49.414 33.686 54.721 32.294 60.848 C 26.283 59.134 19.7 59.913 14.395 63.056 C 8.954 66.279 5.195 71.556 3.811 77.914 C 3.517 79.266 3.34 80.65 3.282 82.052 C 1.772 83.084 0.699 84.611 0.238 86.405 C -0.261 88.356 0.029 90.385 1.056 92.116 L 6.627 101.52 C 7.915 103.693 10.235 105.082 12.746 105.206 C 12.619 105.942 12.541 106.698 12.513 107.473 L 12.38 111.097 C 12.051 120.071 11.555 133.633 11.483 136.057 C 11.419 138.266 12.179 140.301 13.623 141.789 C 15.059 143.267 17.031 144.081 19.176 144.081 C 23.914 144.081 27.789 140.276 27.998 135.422 C 28.117 132.701 28.668 120.023 29.001 112.346 C 44.695 118.183 62.507 119.169 63.317 119.211 L 63.624 119.22 C 65.716 119.22 67.599 118.058 68.543 116.18 C 69.928 113.412 81.504 89.552 79.753 69.534 L 84.404 66.109 L 89.868 63.57 C 106.598 74.717 133.056 76.015 136.146 76.13 L 136.348 76.133 C 138.447 76.133 140.392 74.912 141.301 73.023 C 141.661 72.278 149.292 56.315 151.745 39.815 L 172.288 49.935 C 173.591 50.578 174.966 50.903 176.375 50.903 C 180.403 50.902 183.986 48.152 184.895 44.368 C 185.731 40.898 184.077 37.436 180.778 35.753 C 178.614 34.649 166.42 28.54 158.351 24.497 L 155.214 22.925 C 154.583 22.61 153.947 22.337 153.306 22.109 C 153.584 21.584 153.801 21.022 153.952 20.432 C 154.451 18.482 154.161 16.453 153.133 14.72 L 147.562 5.318 C 146.21 3.037 143.725 1.62 141.075 1.62 C 139.85 1.62 138.642 1.921 137.557 2.493 C 134.242 0.854 130.65 0 126.998 0 C 122.96 0 119.006 1.078 115.564 3.118 C 110.145 6.329 106.41 11.636 105.018 17.762 C 99.01 16.05 92.423 16.829 87.12 19.97 C 81.679 23.193 77.919 28.47 76.533 34.829 C 75.708 38.622 75.798 42.541 76.757 46.301 C 75.969 46.538 75.203 46.851 74.464 47.239 C 73.16 47.922 71.994 48.806 70.994 49.852 C 66.436 45.575 60.463 43.086 54.274 43.086 C 50.236 43.086 46.282 44.165 42.839 46.205 Z " fill="rgb(254,254,254)"/><path d=" M 25.615 102.562 C 24.761 103.069 23.648 102.853 23.044 102.037 C 22.402 101.166 22.591 99.94 23.459 99.3 L 139.915 13.532 C 140.783 12.894 142.01 13.078 142.652 13.948 C 143.292 14.818 143.107 16.044 142.236 16.686 L 25.781 102.453 L 25.615 102.562 Z " fill="rgb(210,211,213)"/><path d=" M 141.073 14.152 C 140.868 14.152 140.672 14.216 140.507 14.337 L 24.052 100.105 C 23.847 100.256 23.712 100.479 23.674 100.733 C 23.635 100.986 23.697 101.238 23.849 101.443 C 24.133 101.828 24.691 101.947 25.106 101.703 L 25.198 101.64 L 141.643 15.881 C 142.068 15.568 142.16 14.966 141.846 14.54 C 141.665 14.294 141.382 14.152 141.073 14.152 Z  M 24.623 103.834 C 23.688 103.834 22.797 103.385 22.24 102.631 C 21.77 101.995 21.577 101.214 21.696 100.431 C 21.816 99.651 22.231 98.963 22.865 98.495 L 139.322 12.727 C 140.589 11.796 142.526 12.092 143.456 13.354 C 144.423 14.668 144.141 16.523 142.83 17.491 L 26.374 103.258 L 26.119 103.426 C 25.671 103.692 25.151 103.834 24.623 103.834 Z " fill="rgb(32,31,31)"/><path d=" M 30.088 92.77 C 27.604 94.976 23.973 98.302 21.247 100.624 C 19.015 102.524 18.107 105.053 18.009 107.675 C 17.706 115.946 17.062 133.459 16.981 136.215 C 16.874 139.843 22.333 139.144 22.503 135.181 C 22.635 132.171 23.296 116.965 23.605 109.838 C 23.702 107.586 24.788 105.281 26.321 103.994 C 27.854 102.705 30.468 100.511 32.851 98.501 C 35.233 96.494 32.572 90.563 30.088 92.77 Z " fill="rgb(244,157,171)"/><path d=" M 31.222 93.286 C 31.084 93.286 30.926 93.364 30.752 93.518 C 29.957 94.224 29.044 95.045 28.081 95.91 C 26.055 97.733 23.758 99.799 21.896 101.386 C 20.078 102.932 19.107 105.061 19.008 107.712 L 18.886 111.058 C 18.554 120.123 18.051 133.824 17.981 136.244 C 17.967 136.696 18.069 137.038 18.285 137.261 C 18.486 137.467 18.802 137.581 19.175 137.581 C 20.099 137.581 21.432 136.824 21.504 135.138 C 21.636 132.127 22.297 116.921 22.606 109.794 C 22.715 107.282 23.921 104.704 25.678 103.228 L 27.15 101.992 C 28.621 100.755 30.475 99.197 32.206 97.737 C 32.936 97.122 32.882 95.786 32.524 94.805 C 32.176 93.854 31.589 93.286 31.222 93.286 Z  M 19.176 139.581 L 19.175 139.581 C 18.257 139.581 17.432 139.252 16.851 138.654 C 16.434 138.224 15.945 137.447 15.981 136.185 C 16.053 133.758 16.555 120.053 16.887 110.984 L 17.01 107.639 C 17.128 104.449 18.369 101.76 20.599 99.863 C 22.441 98.294 24.727 96.238 26.744 94.424 C 27.71 93.555 28.626 92.731 29.424 92.022 C 29.967 91.54 30.588 91.285 31.222 91.285 C 32.545 91.285 33.764 92.371 34.403 94.119 C 34.967 95.665 35.068 97.941 33.495 99.266 C 31.763 100.726 29.908 102.285 28.436 103.522 L 26.965 104.759 C 25.637 105.874 24.689 107.933 24.604 109.881 C 24.295 117.008 23.634 132.214 23.502 135.225 C 23.385 137.952 21.21 139.581 19.176 139.581 Z " fill="rgb(32,31,31)"/><path d=" M 144.615 32.061 L 144.44 32.153 L 13.275 93.09 C 12.292 93.545 11.129 93.119 10.673 92.139 C 10.217 91.159 10.646 89.994 11.626 89.538 L 142.791 28.603 C 143.771 28.146 144.934 28.572 145.39 29.553 C 145.818 30.473 145.468 31.555 144.615 32.061 Z " fill="rgb(210,211,213)"/><path d=" M 143.615 29.419 C 143.476 29.419 143.34 29.45 143.212 29.509 L 12.047 90.445 C 11.815 90.553 11.638 90.745 11.55 90.986 C 11.461 91.226 11.472 91.486 11.579 91.717 C 11.795 92.18 12.383 92.401 12.855 92.182 L 144.108 31.199 C 144.529 30.949 144.692 30.422 144.483 29.974 C 144.327 29.637 143.986 29.419 143.615 29.419 Z  M 12.45 94.272 C 11.304 94.272 10.25 93.6 9.767 92.561 C 9.433 91.844 9.4 91.04 9.672 90.297 C 9.944 89.556 10.488 88.964 11.205 88.631 L 142.37 27.696 C 142.763 27.512 143.182 27.419 143.615 27.419 C 144.76 27.419 145.813 28.091 146.297 29.131 C 146.94 30.514 146.436 32.144 145.125 32.921 L 144.876 33.053 L 13.695 93.996 C 13.301 94.18 12.882 94.272 12.45 94.272 Z " fill="rgb(32,31,31)"/><path d=" M 133.877 31.279 C 137.007 30.16 141.667 28.573 145.015 27.297 C 147.751 26.255 150.408 26.67 152.755 27.845 C 160.155 31.552 175.824 39.4 178.279 40.652 C 181.512 42.302 178.277 46.754 174.719 45.001 C 172.015 43.669 158.363 36.944 151.962 33.792 C 149.94 32.795 147.398 32.64 145.532 33.366 C 143.666 34.092 140.484 35.33 137.579 36.455 C 134.672 37.581 130.749 32.398 133.877 31.279 Z " fill="rgb(244,157,171)"/><path d=" M 148.126 31.915 C 149.602 31.915 151.122 32.263 152.405 32.895 L 175.161 44.104 C 175.564 44.303 175.972 44.403 176.375 44.403 C 177.503 44.403 178.396 43.595 178.576 42.847 C 178.707 42.303 178.454 41.864 177.825 41.543 C 175.61 40.414 162.499 33.845 154.666 29.92 L 152.307 28.739 C 149.953 27.561 147.594 27.386 145.372 28.232 C 143.07 29.109 140.136 30.138 137.547 31.045 C 136.343 31.467 135.203 31.867 134.214 32.22 C 133.793 32.371 133.67 32.576 133.745 33.003 C 133.964 34.275 135.949 36.017 137.217 35.522 C 140.123 34.398 143.303 33.16 145.169 32.434 C 146.043 32.094 147.065 31.915 148.126 31.915 Z  M 176.375 46.403 C 175.663 46.403 174.957 46.233 174.277 45.898 L 151.521 34.689 C 149.806 33.845 147.473 33.686 145.894 34.298 C 144.028 35.025 140.845 36.262 137.94 37.387 C 137.552 37.538 137.138 37.614 136.711 37.614 C 134.348 37.614 132.117 35.318 131.774 33.344 C 131.535 31.965 132.211 30.813 133.541 30.337 C 134.533 29.983 135.677 29.581 136.885 29.158 C 139.462 28.255 142.382 27.23 144.659 26.363 C 147.402 25.318 150.344 25.522 153.203 26.95 L 155.561 28.132 C 163.397 32.058 176.512 38.629 178.733 39.762 C 180.184 40.502 180.87 41.863 180.52 43.314 C 180.097 45.075 178.315 46.403 176.375 46.403 Z " fill="rgb(32,31,31)"/><path d=" M 45.642 50.937 C 39.231 54.734 36.233 62.205 37.468 69.57 C 31.603 64.948 23.612 63.989 17.198 67.788 C 8.696 72.824 6.194 84.316 11.61 93.457 C 22.348 111.582 63.624 113.72 63.624 113.72 C 63.624 113.72 81.952 77.121 70.84 58.365 C 65.425 49.225 54.144 45.899 45.642 50.937 Z " fill="rgb(244,157,171)"/><path d=" M 25.828 66.438 C 22.957 66.438 20.149 67.202 17.708 68.648 C 13.838 70.941 11.158 74.722 10.162 79.296 C 9.16 83.897 9.981 88.744 12.47 92.947 C 22.082 109.171 57.714 112.3 63.017 112.678 C 65.286 107.904 79.926 75.664 69.98 58.875 C 66.585 53.146 60.567 49.586 54.274 49.586 C 51.401 49.586 48.593 50.351 46.152 51.797 C 40.266 55.283 37.245 62.195 38.454 69.405 C 38.523 69.813 38.333 70.22 37.978 70.431 C 37.62 70.642 37.173 70.611 36.849 70.356 C 33.644 67.829 29.73 66.438 25.828 66.438 Z  M 63.624 114.72 L 63.572 114.718 C 61.865 114.63 21.636 112.342 10.749 93.967 C 8.001 89.328 7.099 83.966 8.208 78.871 C 9.323 73.748 12.335 69.506 16.689 66.927 C 19.438 65.299 22.599 64.438 25.828 64.438 C 29.444 64.438 33.064 65.505 36.226 67.477 C 35.803 60.284 39.152 53.619 45.132 50.077 C 47.882 48.447 51.043 47.586 54.274 47.586 C 61.27 47.586 67.947 51.521 71.7 57.855 C 82.961 76.862 65.276 112.653 64.519 114.167 C 64.348 114.507 64.001 114.72 63.624 114.72 Z " fill="rgb(32,31,31)"/><path d=" M 46.622 57.415 C 40.804 62.957 41.386 76.183 41.386 76.183 C 41.386 76.183 29.3 68.824 22.344 72.112 C 15.899 75.16 12.278 82.022 16.574 89.273 C 25.942 105.087 60.298 108.104 60.298 108.104 C 60.298 108.104 73.953 75.382 65.138 60.501 C 60.842 53.25 52.132 52.168 46.622 57.415 Z " fill="rgb(150,206,212)"/><path d=" M 26.563 72.266 C 25.1 72.266 23.824 72.518 22.772 73.016 C 19.458 74.583 17.034 77.191 16.122 80.172 C 15.28 82.921 15.734 85.893 17.435 88.764 C 25.688 102.695 54.652 106.478 59.651 107.032 C 61.524 102.275 72.045 74.123 64.277 61.011 C 62.1 57.336 58.492 55.141 54.626 55.141 C 51.94 55.141 49.342 56.206 47.312 58.139 C 41.886 63.307 42.379 76.011 42.385 76.139 C 42.402 76.507 42.213 76.855 41.895 77.043 C 41.576 77.233 41.181 77.229 40.866 77.037 C 40.787 76.989 32.945 72.266 26.563 72.266 Z  M 60.298 109.104 L 60.21 109.1 C 58.787 108.975 25.235 105.853 15.714 89.783 C 13.719 86.415 13.198 82.889 14.21 79.586 C 15.286 76.068 18.096 73.015 21.916 71.208 C 23.238 70.583 24.802 70.266 26.563 70.266 C 31.793 70.266 37.65 73.017 40.371 74.466 C 40.431 70.576 41.1 61.294 45.933 56.691 C 48.336 54.402 51.424 53.141 54.626 53.141 C 59.206 53.141 63.457 55.702 65.998 59.991 C 74.966 75.13 61.786 107.135 61.221 108.49 C 61.065 108.864 60.698 109.104 60.298 109.104 Z " fill="rgb(32,31,31)"/><path d=" M 59.396 104.658 C 59.396 104.658 25.038 101.639 15.671 85.827 C 15.304 85.208 15.015 84.594 14.76 83.983 C 14.925 85.687 15.505 87.467 16.574 89.273 C 25.942 105.087 60.298 108.104 60.298 108.104 C 60.298 108.104 72.158 79.669 66.622 63.76 C 69.678 80 59.396 104.658 59.396 104.658 Z " fill="rgb(32,31,31)"/><path d=" M 73.561 59.535 L 71.563 59.44 C 71.734 55.843 73.599 52.772 76.552 51.225 C 79.504 49.678 83.068 49.96 86.327 51.996 L 85.268 53.692 C 82.585 52.017 79.819 51.771 77.48 52.997 C 75.162 54.211 73.697 56.655 73.561 59.535 Z " fill="rgb(32,31,31)"/><path d=" M 74.095 59.777 C 74.681 60.765 74.355 62.041 73.365 62.627 C 72.379 63.212 71.101 62.886 70.516 61.897 C 69.931 60.909 70.257 59.633 71.245 59.048 C 72.234 58.462 73.511 58.789 74.095 59.777 Z " fill="rgb(32,31,31)"/><path d=" M 89.923 24.702 C 96.334 20.903 104.328 21.862 110.193 26.484 C 108.957 19.121 111.953 11.651 118.368 7.85 C 126.869 2.814 138.148 6.139 143.564 15.28 C 154.302 33.405 136.348 70.633 136.348 70.633 C 136.348 70.633 95.445 69.127 84.332 50.372 C 78.917 41.232 81.42 29.739 89.923 24.702 Z " fill="rgb(244,157,171)"/><path d=" M 98.552 23.353 C 95.68 23.353 92.873 24.117 90.433 25.563 C 86.562 27.855 83.882 31.637 82.885 36.211 C 81.883 40.812 82.702 45.66 85.192 49.862 C 95.139 66.65 130.449 69.298 135.726 69.601 C 137.943 64.768 152.316 32.014 142.704 15.79 C 139.308 10.06 133.29 6.5 126.998 6.5 C 124.126 6.5 121.318 7.265 118.877 8.711 C 112.991 12.198 109.968 19.109 111.179 26.319 C 111.248 26.727 111.058 27.134 110.703 27.345 C 110.346 27.555 109.898 27.525 109.574 27.27 C 106.369 24.744 102.454 23.353 98.552 23.353 Z  M 136.348 71.633 L 136.311 71.633 C 134.619 71.57 94.733 69.888 83.471 50.881 C 80.723 46.242 79.821 40.881 80.931 35.785 C 82.047 30.663 85.06 26.421 89.414 23.842 C 92.162 22.214 95.322 21.353 98.552 21.353 C 102.168 21.353 105.789 22.42 108.951 24.391 C 108.527 17.199 111.876 10.533 117.858 6.99 C 120.607 5.361 123.767 4.5 126.998 4.5 C 133.994 4.5 140.67 8.435 144.424 14.77 C 155.311 33.146 137.992 69.528 137.248 71.068 C 137.082 71.415 136.731 71.633 136.348 71.633 Z " fill="rgb(32,31,31)"/><path d=" M 84.007 53.904 C 84.594 54.892 85.869 55.219 86.857 54.634 C 87.846 54.048 88.173 52.772 87.587 51.784 C 87.003 50.796 85.726 50.469 84.738 51.055 C 83.749 51.64 83.423 52.916 84.007 53.904 Z " fill="rgb(32,31,31)"/><path d=" M 14.868 96.636 C 15.443 97.605 15.122 98.856 14.153 99.431 C 13.185 100.005 11.933 99.684 11.359 98.716 L 5.788 89.312 C 5.214 88.344 5.534 87.092 6.503 86.518 C 7.472 85.943 8.724 86.264 9.298 87.233 L 14.868 96.636 Z " fill="rgb(210,211,213)"/><path d=" M 7.541 87.233 C 7.356 87.233 7.174 87.283 7.013 87.378 C 6.775 87.52 6.605 87.746 6.536 88.015 C 6.467 88.284 6.507 88.564 6.649 88.803 L 12.219 98.206 C 12.502 98.683 13.16 98.857 13.644 98.571 C 14.137 98.278 14.3 97.639 14.008 97.145 L 8.438 87.743 C 8.248 87.423 7.913 87.233 7.541 87.233 Z  M 13.116 100.716 C 12.046 100.716 11.043 100.145 10.498 99.225 L 4.928 89.822 C 4.514 89.124 4.397 88.306 4.598 87.519 C 4.8 86.733 5.295 86.072 5.993 85.658 C 6.462 85.38 6.997 85.233 7.541 85.233 C 8.61 85.233 9.613 85.804 10.158 86.723 L 15.729 96.126 C 16.582 97.568 16.105 99.436 14.663 100.291 C 14.194 100.569 13.659 100.716 13.116 100.716 Z " fill="rgb(32,31,31)"/><path d=" M 148.402 17.524 C 148.976 18.493 148.658 19.743 147.687 20.318 C 146.719 20.891 145.468 20.571 144.893 19.602 L 139.322 10.199 C 138.748 9.23 139.07 7.979 140.037 7.406 C 141.007 6.83 142.255 7.152 142.83 8.121 L 148.402 17.524 Z " fill="rgb(210,211,213)"/><path d=" M 141.075 8.12 C 140.89 8.12 140.708 8.171 140.546 8.266 C 140.308 8.407 140.139 8.633 140.07 8.902 C 140.001 9.171 140.041 9.451 140.182 9.689 L 145.753 19.092 C 146.038 19.57 146.696 19.745 147.177 19.458 C 147.417 19.316 147.586 19.09 147.655 18.821 C 147.723 18.553 147.683 18.273 147.542 18.034 L 141.969 8.63 C 141.78 8.311 141.446 8.12 141.075 8.12 Z  M 146.651 21.603 C 145.582 21.603 144.579 21.032 144.033 20.112 L 138.461 10.709 C 138.047 10.011 137.931 9.193 138.132 8.406 C 138.334 7.62 138.83 6.959 139.527 6.546 C 139.997 6.267 140.532 6.12 141.075 6.12 C 142.143 6.12 143.145 6.691 143.69 7.611 L 149.262 17.014 C 149.676 17.713 149.793 18.53 149.592 19.316 C 149.392 20.103 148.896 20.764 148.197 21.178 C 147.728 21.456 147.194 21.603 146.651 21.603 Z " fill="rgb(32,31,31)"/><path d=" M 25.398 91.046 C 25.398 91.046 27.453 90.468 30.567 89.865 C 32.124 89.553 33.944 89.232 35.9 88.931 C 36.878 88.79 37.886 88.616 38.917 88.491 C 39.946 88.359 40.992 88.224 42.038 88.09 C 43.087 87.978 44.136 87.867 45.167 87.757 C 46.198 87.637 47.22 87.577 48.204 87.487 C 50.177 87.327 52.023 87.218 53.609 87.162 C 55.861 87.069 57.591 87.087 58.403 87.105 C 58.733 87.112 58.911 87.12 58.911 87.119 C 58.911 87.119 56.856 87.699 53.741 88.303 C 52.186 88.616 50.365 88.937 48.409 89.236 C 47.431 89.377 46.423 89.554 45.392 89.676 C 44.362 89.807 43.317 89.941 42.271 90.075 C 41.222 90.186 40.173 90.297 39.142 90.407 C 38.109 90.524 37.089 90.587 36.104 90.676 C 34.132 90.835 32.286 90.944 30.7 91 C 28.435 91.095 26.699 91.077 25.893 91.06 C 25.571 91.053 25.398 91.046 25.398 91.046 Z " fill="rgb(254,254,254)"/><path d=" M 35.427 82.686 C 35.427 82.687 36.775 82.18 38.83 81.683 C 39.857 81.424 41.06 81.165 42.353 80.931 C 43.647 80.692 45.03 80.472 46.421 80.298 C 47.81 80.123 49.205 79.991 50.518 79.903 C 51.829 79.809 53.059 79.763 54.117 79.76 C 56.232 79.734 57.663 79.894 57.663 79.894 C 57.663 79.893 56.316 80.402 54.261 80.9 C 53.234 81.159 52.031 81.418 50.737 81.651 C 49.444 81.891 48.06 82.108 46.669 82.282 C 45.28 82.457 43.884 82.586 42.571 82.674 C 41.261 82.767 40.03 82.814 38.972 82.817 C 36.859 82.843 35.427 82.686 35.427 82.686 Z " fill="rgb(254,254,254)"/><path d=" M 119.171 14.434 C 113.351 19.975 113.933 33.201 113.933 33.201 C 113.933 33.201 101.847 25.842 94.893 29.131 C 88.445 32.18 84.828 39.04 89.123 46.292 C 98.49 62.104 132.845 65.123 132.845 65.123 C 132.845 65.123 146.502 32.401 137.685 17.52 C 133.39 10.269 124.681 9.188 119.171 14.434 Z " fill="rgb(150,206,212)"/><path d=" M 99.112 29.285 C 97.649 29.285 96.374 29.537 95.321 30.035 C 92.007 31.602 89.583 34.209 88.67 37.189 C 87.829 39.939 88.282 42.91 89.983 45.782 C 98.235 59.712 127.199 63.497 132.198 64.05 C 134.072 59.293 144.594 31.142 136.825 18.03 C 134.648 14.355 131.04 12.16 127.175 12.16 C 124.489 12.16 121.891 13.225 119.861 15.158 C 114.441 20.318 114.926 33.03 114.932 33.158 C 114.948 33.526 114.759 33.874 114.442 34.062 C 114.124 34.251 113.728 34.247 113.414 34.056 C 113.334 34.008 105.494 29.285 99.112 29.285 Z  M 132.845 66.123 L 132.757 66.119 C 131.334 65.994 97.782 62.871 88.262 46.801 C 86.267 43.432 85.747 39.906 86.758 36.603 C 87.835 33.086 90.644 30.034 94.465 28.227 C 95.788 27.602 97.351 27.285 99.112 27.285 C 104.341 27.285 110.197 30.036 112.918 31.484 C 112.978 27.594 113.647 18.312 118.482 13.71 C 120.885 11.421 123.973 10.16 127.175 10.16 C 131.754 10.16 136.004 12.721 138.545 17.01 C 147.515 32.15 134.334 64.153 133.768 65.508 C 133.612 65.882 133.246 66.123 132.845 66.123 Z " fill="rgb(32,31,31)"/><path d=" M 131.945 61.676 C 131.945 61.676 97.586 58.659 88.218 42.845 C 87.852 42.227 87.562 41.612 87.308 41.002 C 87.474 42.705 88.052 44.486 89.123 46.292 C 98.49 62.104 132.845 65.123 132.845 65.123 C 132.845 65.123 144.707 36.688 139.171 20.779 C 142.227 37.019 131.945 61.676 131.945 61.676 Z " fill="rgb(32,31,31)"/><path d=" M 97.949 48.064 C 97.949 48.065 100.004 47.486 103.119 46.883 C 104.673 46.571 106.494 46.25 108.449 45.949 C 109.427 45.808 110.436 45.634 111.466 45.509 C 112.496 45.376 113.542 45.242 114.587 45.108 C 115.636 44.997 116.684 44.885 117.716 44.776 C 118.748 44.655 119.769 44.595 120.753 44.505 C 122.725 44.344 124.57 44.236 126.156 44.181 C 129.326 44.048 131.459 44.138 131.459 44.137 C 131.459 44.137 129.404 44.717 126.29 45.321 C 124.734 45.633 122.914 45.955 120.959 46.255 C 119.98 46.395 118.972 46.572 117.941 46.693 C 116.912 46.825 115.866 46.959 114.82 47.093 C 113.771 47.204 112.722 47.315 111.691 47.425 C 110.66 47.542 109.638 47.605 108.654 47.694 C 106.682 47.853 104.837 47.962 103.251 48.018 C 100.082 48.151 97.949 48.064 97.949 48.064 Z " fill="rgb(254,254,254)"/><path d=" M 107.974 39.706 C 107.974 39.706 109.322 39.199 111.377 38.702 C 112.404 38.443 113.607 38.185 114.9 37.95 C 116.194 37.712 117.578 37.491 118.968 37.318 C 120.357 37.142 121.752 37.01 123.065 36.923 C 124.376 36.828 125.606 36.782 126.665 36.779 C 127.799 36.765 128.738 36.805 129.363 36.845 C 129.903 36.879 130.21 36.913 130.21 36.913 C 130.21 36.912 128.863 37.421 126.808 37.919 C 125.781 38.178 124.579 38.437 123.285 38.67 C 121.992 38.91 120.607 39.127 119.216 39.301 C 117.828 39.476 116.431 39.604 115.119 39.693 C 113.808 39.786 112.578 39.833 111.52 39.836 C 110.383 39.851 109.443 39.811 108.818 39.773 C 108.28 39.739 107.974 39.705 107.974 39.706 Z " fill="rgb(254,254,254)"/><path d=" M 111.448 6.255 C 112.195 5.535 112.994 4.864 113.843 4.248 C 113.471 5.273 112.562 6.05 111.448 6.255 Z " fill="rgb(254,254,254)"/><path d=" M 131.41 5.023 C 129.971 4.68 128.492 4.5 126.998 4.5 C 126.658 4.5 126.319 4.51 125.981 4.529 C 125.789 4.129 125.681 3.683 125.681 3.212 C 125.681 1.497 127.099 0.111 128.843 0.111 C 130.593 0.111 132.007 1.497 132.007 3.212 C 132.007 3.888 131.786 4.514 131.41 5.023 Z " fill="rgb(254,254,254)"/><path d=" M 128.843 6.309 C 127.579 6.309 126.487 5.58 125.981 4.529 C 126.319 4.51 126.658 4.5 126.998 4.5 C 128.492 4.5 129.971 4.68 131.41 5.023 C 130.836 5.802 129.901 6.309 128.843 6.309 Z " fill="rgb(46,44,43)"/><path d=" M 146.861 6.309 C 145.115 6.309 143.699 4.922 143.699 3.212 C 143.699 2.845 143.764 2.493 143.882 2.167 C 145.399 2.778 146.707 3.875 147.562 5.318 L 148.022 6.094 C 147.662 6.232 147.271 6.309 146.861 6.309 Z " fill="rgb(254,254,254)"/><path d=" M 103.911 22.13 C 102.162 21.618 100.357 21.353 98.552 21.353 C 98.341 21.353 98.13 21.356 97.919 21.364 C 97.889 21.191 97.873 21.013 97.873 20.832 C 97.873 19.117 99.29 17.733 101.035 17.733 C 102.785 17.733 104.201 19.117 104.201 20.832 C 104.201 21.295 104.097 21.735 103.911 22.13 Z " fill="rgb(254,254,254)"/><path d=" M 101.035 23.933 C 100.357 23.933 99.728 23.723 99.213 23.366 C 100.193 23.405 101.171 23.531 102.136 23.74 C 101.793 23.865 101.422 23.933 101.035 23.933 Z " fill="rgb(246,175,185)"/><path d=" M 102.136 23.74 C 101.171 23.531 100.193 23.405 99.213 23.366 C 98.543 22.902 98.065 22.188 97.919 21.364 C 98.13 21.356 98.341 21.353 98.552 21.353 C 100.357 21.353 102.162 21.618 103.911 22.13 C 103.562 22.871 102.923 23.454 102.136 23.74 Z " fill="rgb(46,44,43)"/><path d=" M 119.019 23.933 C 117.755 23.933 116.662 23.204 116.156 22.152 C 116.553 20.696 117.076 19.266 117.764 17.986 C 118.149 17.823 118.573 17.733 119.019 17.733 C 120.767 17.733 122.183 19.117 122.183 20.832 C 122.183 22.544 120.767 23.933 119.019 23.933 Z " fill="rgb(170,215,219)"/><path d=" M 116.156 22.152 C 115.963 21.751 115.855 21.304 115.855 20.832 C 115.855 19.555 116.642 18.461 117.764 17.986 C 117.076 19.266 116.553 20.696 116.156 22.152 Z " fill="rgb(46,44,43)"/><path d=" M 140.193 20.648 C 139.993 20.054 139.769 19.473 139.521 18.912 C 139.909 19.395 140.154 19.994 140.193 20.648 Z " fill="rgb(246,175,185)"/><path d=" M 137.039 23.933 C 135.289 23.933 133.873 22.544 133.873 20.832 C 133.873 19.243 135.088 17.939 136.658 17.755 C 136.714 17.846 136.77 17.937 136.825 18.03 C 137.76 19.608 138.43 21.404 138.882 23.351 C 138.363 23.717 137.727 23.933 137.039 23.933 Z " fill="rgb(170,215,219)"/><path d=" M 138.882 23.351 C 138.43 21.404 137.76 19.608 136.825 18.03 C 136.77 17.937 136.714 17.846 136.658 17.755 C 136.782 17.741 136.91 17.733 137.039 17.733 C 138.046 17.733 138.942 18.194 139.521 18.912 C 139.769 19.473 139.993 20.054 140.193 20.648 C 140.197 20.709 140.199 20.77 140.199 20.832 C 140.199 21.451 140.014 22.028 139.695 22.512 C 139.541 21.919 139.367 21.342 139.171 20.779 C 139.296 21.44 139.398 22.114 139.48 22.801 C 139.306 23.009 139.105 23.194 138.882 23.351 Z " fill="rgb(46,44,43)"/><path d=" M 139.48 22.801 C 139.398 22.114 139.296 21.44 139.171 20.779 C 139.367 21.342 139.541 21.919 139.695 22.512 C 139.629 22.613 139.557 22.709 139.48 22.801 Z " fill="rgb(46,44,43)"/><path d=" M 155.023 23.933 C 153.273 23.933 151.857 22.544 151.857 20.832 C 151.857 19.411 152.829 18.218 154.157 17.85 C 154.238 18.705 154.171 19.576 153.952 20.432 C 153.801 21.022 153.584 21.584 153.306 22.109 C 153.947 22.337 154.583 22.61 155.214 22.925 L 156.505 23.572 C 156.063 23.802 155.559 23.933 155.023 23.933 Z " fill="rgb(254,254,254)"/><path d=" M 76.006 41.399 C 75.938 40.126 75.968 38.848 76.097 37.577 C 76.491 38.094 76.724 38.736 76.724 39.431 C 76.724 40.178 76.455 40.864 76.006 41.399 Z " fill="rgb(254,254,254)"/><path d=" M 91.543 42.532 C 89.798 42.532 88.38 41.144 88.38 39.431 C 88.38 37.719 89.798 36.333 91.543 36.333 C 93.294 36.333 94.709 37.719 94.709 39.431 C 94.709 41.144 93.294 42.532 91.543 42.532 Z " fill="rgb(170,215,219)"/><path d=" M 111.859 42.532 C 110.228 42.532 108.885 41.321 108.715 39.766 C 108.748 39.768 108.782 39.77 108.818 39.773 C 109.354 39.806 110.12 39.839 111.043 39.839 C 111.198 39.839 111.357 39.839 111.52 39.836 C 112.549 39.833 113.741 39.789 115.011 39.701 C 114.872 41.287 113.514 42.532 111.859 42.532 Z  M 108.697 39.457 C 108.697 39.449 108.697 39.44 108.697 39.431 C 108.697 37.719 110.113 36.333 111.859 36.333 C 113.077 36.333 114.134 37.006 114.663 37.994 C 113.46 38.216 112.341 38.459 111.377 38.702 C 110.223 38.981 109.291 39.264 108.697 39.457 Z " fill="rgb(170,215,219)"/><path d=" M 111.043 39.839 C 110.12 39.839 109.354 39.806 108.818 39.773 C 108.782 39.77 108.748 39.768 108.715 39.766 C 108.704 39.664 108.698 39.561 108.697 39.457 C 109.291 39.264 110.223 38.981 111.377 38.702 C 112.341 38.459 113.46 38.216 114.663 37.994 C 114.893 38.423 115.023 38.912 115.023 39.431 C 115.023 39.522 115.019 39.612 115.011 39.701 C 113.741 39.789 112.549 39.833 111.52 39.836 C 111.357 39.839 111.198 39.839 111.043 39.839 Z " fill="rgb(254,254,254)"/><path d=" M 129.843 42.532 C 128.095 42.532 126.679 41.144 126.679 39.431 C 126.679 38.849 126.843 38.305 127.127 37.84 C 129 37.369 130.209 36.913 130.21 36.913 L 130.21 36.913 L 130.21 36.913 L 130.21 36.913 L 130.21 36.913 L 130.21 36.913 C 130.21 36.913 129.903 36.879 129.363 36.845 C 129.046 36.824 128.648 36.804 128.185 36.791 C 128.667 36.5 129.235 36.333 129.843 36.333 C 131.593 36.333 133.007 37.719 133.007 39.431 C 133.007 41.144 131.593 42.532 129.843 42.532 Z " fill="rgb(170,215,219)"/><path d=" M 127.127 37.84 C 127.389 37.413 127.752 37.052 128.185 36.791 C 128.648 36.804 129.046 36.824 129.363 36.845 C 129.903 36.879 130.21 36.913 130.21 36.913 C 130.209 36.913 129 37.369 127.127 37.84 Z  M 130.21 36.913 L 130.21 36.913 L 130.21 36.913 L 130.21 36.913 Z " fill="rgb(254,254,254)"/><path d=" M 147.861 42.532 C 147.476 42.532 147.108 42.465 146.767 42.342 C 147.142 40.353 147.449 38.343 147.665 36.339 C 147.729 36.335 147.795 36.333 147.861 36.333 C 149.607 36.333 151.023 37.719 151.023 39.431 C 151.023 41.144 149.607 42.532 147.861 42.532 Z " fill="rgb(254,254,254)"/><path d=" M 144.976 40.708 C 144.797 40.319 144.697 39.886 144.697 39.431 C 144.697 38.648 144.993 37.933 145.482 37.388 C 145.339 38.494 145.169 39.603 144.976 40.708 Z " fill="rgb(246,175,185)"/><path d=" M 146.767 42.342 C 145.97 42.054 145.324 41.461 144.976 40.708 C 145.169 39.603 145.339 38.494 145.482 37.388 C 146.021 36.786 146.795 36.391 147.665 36.339 C 147.449 38.343 147.142 40.353 146.767 42.342 Z " fill="rgb(46,44,43)"/><path d=" M 165.845 42.532 C 164.383 42.532 163.153 41.56 162.79 40.24 L 167.006 42.317 C 166.647 42.456 166.255 42.532 165.845 42.532 Z " fill="rgb(254,254,254)"/><path d=" M 168.636 40.89 L 162.984 38.106 C 163.491 37.057 164.581 36.333 165.845 36.333 C 167.591 36.333 169.007 37.719 169.007 39.431 C 169.007 39.959 168.873 40.455 168.636 40.89 Z " fill="rgb(246,175,185)"/><path d=" M 167.006 42.317 L 162.79 40.24 C 162.719 39.982 162.681 39.711 162.681 39.431 C 162.681 38.957 162.79 38.508 162.984 38.106 L 168.636 40.89 C 168.284 41.536 167.706 42.046 167.006 42.317 Z " fill="rgb(46,44,43)"/><path d=" M 24.47 60.154 C 24.206 60.154 23.95 60.123 23.704 60.063 C 24.324 60.004 24.948 59.97 25.572 59.961 C 25.229 60.086 24.857 60.154 24.47 60.154 Z " fill="rgb(254,254,254)"/><path d=" M 42.454 60.154 C 41.363 60.154 40.4 59.612 39.832 58.787 C 40.666 57.013 41.803 55.405 43.209 54.043 C 44.577 54.371 45.595 55.568 45.618 57.003 C 44.777 57.873 44.069 58.889 43.474 59.99 C 43.154 60.097 42.811 60.154 42.454 60.154 Z " fill="rgb(246,175,185)"/><path d=" M 39.832 58.787 C 39.491 58.292 39.292 57.695 39.292 57.053 C 39.292 55.341 40.708 53.955 42.454 53.955 C 42.714 53.955 42.967 53.985 43.209 54.043 C 41.803 55.405 40.666 57.013 39.832 58.787 Z " fill="rgb(46,44,43)"/><path d=" M 43.474 59.99 C 44.069 58.889 44.777 57.873 45.618 57.003 C 45.618 57.02 45.618 57.037 45.618 57.053 C 45.618 58.416 44.721 59.574 43.474 59.99 Z " fill="rgb(46,44,43)"/><path d=" M 65.283 58.892 C 64.018 57.116 62.435 55.699 60.659 54.716 C 61.215 54.242 61.942 53.955 62.737 53.955 C 64.484 53.955 65.9 55.341 65.9 57.053 C 65.9 57.742 65.671 58.378 65.283 58.892 Z " fill="rgb(246,175,185)"/><path d=" M 62.737 60.154 C 60.989 60.154 59.573 58.766 59.573 57.053 C 59.573 56.843 59.595 56.637 59.636 56.439 C 61.167 57.275 62.536 58.493 63.636 60.027 C 63.351 60.11 63.049 60.154 62.737 60.154 Z " fill="rgb(170,215,219)"/><path d=" M 63.636 60.027 C 62.536 58.493 61.167 57.275 59.636 56.439 C 59.775 55.757 60.144 55.156 60.659 54.716 C 62.435 55.699 64.018 57.116 65.283 58.892 C 64.88 59.429 64.304 59.833 63.636 60.027 Z " fill="rgb(46,44,43)"/><path d=" M 77.64 57.767 C 77.585 57.538 77.556 57.299 77.556 57.053 C 77.556 55.341 78.974 53.955 80.72 53.955 C 81.406 53.955 82.041 54.168 82.559 54.531 L 79.062 57.106 L 77.64 57.767 Z " fill="rgb(254,254,254)"/><path d=" M 79.062 57.106 L 82.559 54.531 C 82.815 54.71 83.042 54.925 83.233 55.169 L 79.062 57.106 Z " fill="rgb(46,44,43)"/><path d=" M 80.72 60.154 C 79.967 60.154 79.275 59.896 78.731 59.465 L 83.884 57.071 C 83.874 58.776 82.462 60.154 80.72 60.154 Z " fill="rgb(218,219,220)"/><path d=" M 78.731 59.465 C 78.195 59.04 77.804 58.447 77.64 57.767 L 79.062 57.106 L 83.233 55.169 C 83.641 55.691 83.884 56.344 83.884 57.053 C 83.884 57.059 83.884 57.065 83.884 57.071 L 78.731 59.465 Z " fill="rgb(46,44,43)"/><path d=" M 101.035 60.154 C 99.29 60.154 97.873 58.766 97.873 57.053 C 97.873 56.688 97.937 56.338 98.055 56.013 C 99.813 57.069 101.678 58.018 103.599 58.873 C 103.024 59.65 102.09 60.154 101.035 60.154 Z " fill="rgb(246,175,185)"/><path d=" M 103.599 58.873 C 101.678 58.018 99.813 57.069 98.055 56.013 C 98.173 55.69 98.343 55.392 98.557 55.129 C 100.297 56.172 102.153 57.112 104.064 57.958 C 103.961 58.29 103.802 58.599 103.599 58.873 Z " fill="rgb(46,44,43)"/><path d=" M 104.064 57.958 C 102.153 57.112 100.297 56.172 98.557 55.129 C 99.136 54.413 100.032 53.955 101.035 53.955 C 102.785 53.955 104.201 55.341 104.201 57.053 C 104.201 57.368 104.153 57.672 104.064 57.958 Z " fill="rgb(46,44,43)"/><path d=" M 120.392 59.848 C 119.156 59.588 117.86 59.294 116.527 58.964 C 116.106 58.437 115.855 57.774 115.855 57.053 C 115.855 55.341 117.273 53.955 119.019 53.955 C 120.767 53.955 122.183 55.341 122.183 57.053 C 122.183 58.284 121.452 59.347 120.392 59.848 Z " fill="rgb(170,215,219)"/><path d=" M 119.019 60.154 C 118.008 60.154 117.106 59.689 116.527 58.964 C 117.86 59.294 119.156 59.588 120.392 59.848 C 119.977 60.044 119.511 60.154 119.019 60.154 Z " fill="rgb(46,44,43)"/><path d=" M 137.039 60.154 C 136.622 60.154 136.225 60.076 135.861 59.933 C 136.446 58.246 137.101 56.246 137.754 54.034 C 139.155 54.352 140.199 55.582 140.199 57.053 C 140.199 58.766 138.785 60.154 137.039 60.154 Z " fill="rgb(246,175,185)"/><path d=" M 135.861 59.933 C 135.533 59.804 135.233 59.624 134.97 59.401 C 135.509 57.829 136.106 55.992 136.703 53.972 C 136.813 53.961 136.925 53.955 137.039 53.955 C 137.285 53.955 137.524 53.982 137.754 54.034 C 137.101 56.246 136.446 58.246 135.861 59.933 Z " fill="rgb(46,44,43)"/><path d=" M 134.97 59.401 C 134.298 58.833 133.873 57.992 133.873 57.053 C 133.873 55.452 135.111 54.135 136.703 53.972 C 136.106 55.992 135.509 57.829 134.97 59.401 Z " fill="rgb(46,44,43)"/><path d=" M 13.982 76.796 C 12.939 76.796 12.014 76.302 11.438 75.541 C 12.305 73.719 13.482 72.097 14.926 70.739 C 16.213 71.132 17.146 72.306 17.146 73.698 C 17.146 74.128 17.056 74.537 16.895 74.91 C 16.536 75.311 16.203 75.73 15.9 76.162 C 15.368 76.56 14.703 76.796 13.982 76.796 Z " fill="rgb(246,175,185)"/><path d=" M 11.438 75.541 C 11.048 75.026 10.818 74.388 10.818 73.698 C 10.818 71.983 12.234 70.599 13.982 70.599 C 14.311 70.599 14.628 70.648 14.926 70.739 C 13.482 72.097 12.305 73.719 11.438 75.541 Z " fill="rgb(46,44,43)"/><path d=" M 15.9 76.162 C 16.203 75.73 16.536 75.311 16.895 74.91 C 16.678 75.407 16.333 75.838 15.9 76.162 Z " fill="rgb(46,44,43)"/><path d=" M 37.38 73.009 C 35.927 72.365 34.226 71.703 32.435 71.191 C 32.957 70.818 33.6 70.599 34.296 70.599 C 35.801 70.599 37.061 71.628 37.38 73.009 Z " fill="rgb(246,175,185)"/><path d=" M 34.296 76.796 C 32.548 76.796 31.132 75.408 31.132 73.698 C 31.132 73.436 31.165 73.181 31.227 72.938 C 33.378 73.499 35.45 74.329 37.119 75.096 C 36.597 76.104 35.529 76.796 34.296 76.796 Z " fill="rgb(170,215,219)"/><path d=" M 37.119 75.096 C 35.45 74.329 33.378 73.499 31.227 72.938 C 31.411 72.225 31.846 71.61 32.435 71.191 C 34.226 71.703 35.927 72.365 37.38 73.009 C 37.431 73.231 37.458 73.461 37.458 73.698 C 37.458 74.201 37.336 74.676 37.119 75.096 Z " fill="rgb(46,44,43)"/><path d=" M 52.278 76.796 C 50.532 76.796 49.116 75.408 49.116 73.698 C 49.116 71.983 50.532 70.599 52.278 70.599 C 54.03 70.599 55.443 71.983 55.443 73.698 C 55.443 75.408 54.03 76.796 52.278 76.796 Z " fill="rgb(170,215,219)"/><path d=" M 75.424 75.019 C 75.447 74.129 75.446 73.244 75.42 72.366 C 75.616 72.769 75.726 73.221 75.726 73.698 C 75.726 74.17 75.618 74.618 75.424 75.019 Z " fill="rgb(254,254,254)"/><path d=" M 72.562 76.796 C 70.814 76.796 69.398 75.408 69.398 73.698 C 69.398 71.983 70.814 70.599 72.562 70.599 C 72.819 70.599 73.069 70.629 73.309 70.686 C 73.444 72.647 73.435 74.667 73.309 76.709 C 73.07 76.766 72.819 76.796 72.562 76.796 Z " fill="rgb(246,175,185)"/><path d=" M 73.309 76.709 C 73.435 74.667 73.444 72.647 73.309 70.686 C 74.244 70.907 75.016 71.534 75.42 72.366 C 75.446 73.244 75.447 74.129 75.424 75.019 C 75.021 75.855 74.247 76.487 73.309 76.709 Z " fill="rgb(46,44,43)"/><path d=" M 113.97 73.12 C 112.156 72.707 110.302 72.238 108.437 71.705 C 109.018 71.028 109.889 70.599 110.861 70.599 C 112.406 70.599 113.694 71.683 113.97 73.12 Z " fill="rgb(254,254,254)"/><path d=" M 130.758 71.229 C 129.782 71.133 128.702 71.017 127.537 70.875 C 127.935 70.697 128.378 70.599 128.843 70.599 C 129.563 70.599 130.227 70.833 130.758 71.229 Z " fill="rgb(46,44,43)"/><path d=" M 4.157 94.417 C 3.232 94.417 2.4 94.028 1.822 93.409 L 1.143 92.262 C 1.046 91.965 0.993 91.648 0.993 91.32 C 0.993 89.606 2.409 88.219 4.157 88.219 C 4.274 88.219 4.389 88.225 4.502 88.237 C 4.495 88.79 4.639 89.335 4.928 89.822 L 6.813 93.004 C 6.248 93.854 5.269 94.417 4.157 94.417 Z " fill="rgb(254,254,254)"/><path d=" M 6.813 93.004 L 4.928 89.822 C 4.639 89.335 4.495 88.79 4.502 88.237 C 6.086 88.406 7.321 89.72 7.321 91.32 C 7.321 91.941 7.134 92.519 6.813 93.004 Z " fill="rgb(46,44,43)"/><path d=" M 24.687 94.41 C 23.541 93.704 22.447 92.952 21.423 92.152 C 21.348 91.887 21.308 91.608 21.308 91.32 C 21.308 89.606 22.724 88.219 24.47 88.219 C 25.933 88.219 27.163 89.19 27.526 90.512 C 26.187 90.824 25.398 91.046 25.398 91.046 L 25.398 91.046 L 25.398 91.046 L 25.398 91.046 C 25.398 91.046 25.398 91.046 25.398 91.046 C 25.403 91.046 25.576 91.053 25.893 91.06 C 26.212 91.067 26.675 91.074 27.259 91.074 C 27.376 91.074 27.498 91.073 27.624 91.073 C 27.631 91.154 27.634 91.237 27.634 91.32 C 27.634 92.957 26.334 94.3 24.687 94.41 Z " fill="rgb(170,215,219)"/><path d=" M 24.47 94.417 C 23.018 94.417 21.795 93.457 21.423 92.152 C 22.447 92.952 23.541 93.704 24.687 94.41 C 24.615 94.414 24.543 94.417 24.47 94.417 Z " fill="rgb(46,44,43)"/><path d=" M 27.259 91.074 C 26.675 91.074 26.212 91.067 25.893 91.06 C 25.576 91.053 25.403 91.046 25.398 91.046 C 25.398 91.046 25.398 91.046 25.398 91.046 C 25.398 91.046 26.187 90.824 27.526 90.512 C 27.575 90.693 27.609 90.88 27.624 91.073 C 27.498 91.073 27.376 91.074 27.259 91.074 Z  M 25.398 91.046 L 25.398 91.046 L 25.398 91.046 L 25.398 91.046 Z " fill="rgb(254,254,254)"/><path d=" M 42.454 94.417 C 40.708 94.417 39.292 93.028 39.292 91.32 C 39.292 90.99 39.345 90.673 39.442 90.375 C 40.376 90.276 41.323 90.176 42.271 90.075 C 43.237 89.951 44.204 89.828 45.157 89.706 C 45.45 90.176 45.618 90.728 45.618 91.32 C 45.618 93.028 44.202 94.417 42.454 94.417 Z " fill="rgb(170,215,219)"/><path d=" M 39.442 90.375 C 39.849 89.124 41.044 88.219 42.454 88.219 C 43.599 88.219 44.601 88.814 45.157 89.706 C 44.204 89.828 43.237 89.951 42.271 90.075 C 41.323 90.176 40.376 90.276 39.442 90.375 Z " fill="rgb(254,254,254)"/><path d=" M 62.737 94.417 C 60.989 94.417 59.573 93.028 59.573 91.32 C 59.573 89.606 60.989 88.219 62.737 88.219 C 63.412 88.219 64.037 88.426 64.55 88.779 C 64.046 90.772 63.51 92.668 62.982 94.408 C 62.901 94.414 62.82 94.417 62.737 94.417 Z " fill="rgb(170,215,219)"/><path d=" M 65.181 93.285 C 65.404 92.437 65.622 91.568 65.833 90.683 C 65.877 90.888 65.9 91.102 65.9 91.32 C 65.9 92.066 65.63 92.75 65.181 93.285 Z " fill="rgb(46,44,43)"/><path d=" M 62.982 94.408 C 63.51 92.668 64.046 90.772 64.55 88.779 C 65.197 89.223 65.666 89.898 65.833 90.683 C 65.622 91.568 65.404 92.437 65.181 93.285 C 64.649 93.918 63.866 94.341 62.982 94.408 Z " fill="rgb(46,44,43)"/><path d=" M 77.56 91.483 C 77.557 91.429 77.556 91.375 77.556 91.32 C 77.556 90.772 77.701 90.257 77.955 89.811 C 77.828 90.372 77.696 90.929 77.56 91.483 Z " fill="rgb(254,254,254)"/><path d=" M 16.834 112.432 C 16.852 111.938 16.87 111.455 16.887 110.984 L 17.01 107.639 C 17.011 107.608 17.012 107.577 17.014 107.546 C 17.704 108.114 18.142 108.967 18.142 109.92 C 18.142 110.953 17.627 111.869 16.834 112.432 Z " fill="rgb(46,44,43)"/><path d=" M 35.298 113.02 C 33.548 113.02 32.132 111.632 32.132 109.92 C 32.132 109.517 32.21 109.132 32.353 108.779 C 34.351 109.469 36.374 110.082 38.378 110.624 C 38.052 111.997 36.795 113.02 35.298 113.02 Z " fill="rgb(254,254,254)"/><path d=" M 38.054 108.399 C 36.669 108.012 35.282 107.593 33.904 107.136 C 34.324 106.934 34.798 106.821 35.298 106.821 C 36.479 106.821 37.511 107.457 38.054 108.399 Z " fill="rgb(246,175,185)"/><path d=" M 38.378 110.624 C 36.374 110.082 34.351 109.469 32.353 108.779 C 32.644 108.061 33.2 107.474 33.904 107.136 C 35.282 107.593 36.669 108.012 38.054 108.399 C 38.312 108.848 38.46 109.367 38.46 109.92 C 38.46 110.162 38.432 110.398 38.378 110.624 Z " fill="rgb(46,44,43)"/><path d=" M 55.699 111.917 C 54.084 111.705 52.285 111.441 50.36 111.115 C 50.203 110.747 50.116 110.343 50.116 109.92 C 50.116 109.084 50.454 108.326 51.002 107.769 C 52.965 108.136 54.714 108.412 56.149 108.615 C 56.337 109.011 56.443 109.453 56.443 109.92 C 56.443 110.681 56.163 111.378 55.699 111.917 Z " fill="rgb(246,175,185)"/><path d=" M 53.278 113.02 C 51.966 113.02 50.838 112.234 50.36 111.115 C 52.285 111.441 54.084 111.705 55.699 111.917 C 55.119 112.592 54.25 113.02 53.278 113.02 Z " fill="rgb(46,44,43)"/><path d=" M 56.149 108.615 C 54.714 108.412 52.965 108.136 51.002 107.769 C 51.36 107.406 51.807 107.128 52.308 106.969 C 53.347 107.155 54.314 107.314 55.189 107.449 C 55.599 107.753 55.93 108.153 56.149 108.615 Z " fill="rgb(46,44,43)"/><path d=" M 55.189 107.449 C 54.314 107.314 53.347 107.155 52.308 106.969 C 52.614 106.873 52.94 106.821 53.278 106.821 C 53.996 106.821 54.658 107.055 55.189 107.449 Z " fill="rgb(46,44,43)"/><path d=" M 70.765 111.375 C 70.529 110.941 70.396 110.446 70.396 109.92 C 70.396 108.541 71.316 107.373 72.586 106.97 C 71.938 108.619 71.319 110.101 70.765 111.375 Z " fill="rgb(254,254,254)"/><path d=" M 24.72 129.663 C 24.382 129.663 24.056 129.611 23.751 129.514 C 23.829 127.718 23.918 125.667 24.011 123.542 C 24.239 123.49 24.476 123.463 24.72 123.463 C 26.47 123.463 27.886 124.849 27.886 126.562 C 27.886 128.274 26.47 129.663 24.72 129.663 Z " fill="rgb(254,254,254)"/><path d=" M 21.823 127.807 C 21.653 127.426 21.558 127.004 21.558 126.562 C 21.558 126.025 21.697 125.521 21.942 125.081 C 21.901 126.02 21.861 126.934 21.823 127.807 Z " fill="rgb(246,175,185)"/><path d=" M 23.751 129.514 C 22.888 129.241 22.185 128.614 21.823 127.807 C 21.861 126.934 21.901 126.02 21.942 125.081 C 22.37 124.314 23.119 123.742 24.011 123.542 C 23.918 125.667 23.829 127.718 23.751 129.514 Z " fill="rgb(46,44,43)"/></g></svg>