<?xml version="1.0" encoding="UTF-8" standalone="no"?><!-- Generator: Gravit.io --><svg xmlns="http://www.w3.org/2000/svg" xmlns:xlink="http://www.w3.org/1999/xlink" style="isolation:isolate" viewBox="0 0 53.012 90.472" width="53.012pt" height="90.472pt"><defs><clipPath id="_clipPath_ReORyb9l6oTiJRT3xXFT82QhGhUaUnz0"><rect width="53.012" height="90.472"/></clipPath></defs><g clip-path="url(#_clipPath_ReORyb9l6oTiJRT3xXFT82QhGhUaUnz0)"><path d=" M 50.159 53.162 C 50.607 52.879 51.003 52.544 51.361 52.147 L 51.803 51.725 L 52.227 50.969 C 52.801 49.94 53.069 48.781 53.002 47.596 C 52.976 47.145 52.896 46.733 52.845 46.52 C 50.683 36.984 48.446 27.123 44.984 17.604 L 44.67 16.74 C 44.519 16.335 44.356 15.915 44.2 15.528 L 43.763 14.461 L 43.315 13.44 C 43.206 13.197 43.095 12.957 42.968 12.69 L 42.848 12.443 C 42.692 12.119 42.53 11.799 42.359 11.469 C 39.532 6.051 35.79 2.508 31.183 0.918 C 30.941 0.828 30.699 0.744 30.457 0.676 C 29.931 0.522 29.386 0.397 28.884 0.307 C 27.425 0.035 25.874 -0.057 24.273 0.033 C 18.444 0.365 11.8 3.192 6.884 7.455 L 6.646 7.673 C 4.655 9.436 3.11 11.428 2.048 13.602 C -0.326 18.466 -0.2 23.756 0.288 28.74 C 0.732 33.333 1.363 37.932 2.167 42.41 L 3.368 49.07 L 3.47 49.043 C 4.198 52.429 5.021 55.765 5.929 59.012 C 6.155 59.834 6.628 61.542 8.023 63.01 C 9.738 64.856 12.243 65.783 15.077 65.621 C 15.605 65.592 16.045 65.529 16.351 65.484 C 16.839 65.408 17.843 65.256 22.627 63.664 C 22.907 64.742 23.118 65.955 23.266 67.333 C 23.497 69.477 23.55 71.777 23.596 73.824 C 23.669 77.104 24.068 81.334 26.519 84.969 C 28.927 88.549 33.314 90.701 37.693 90.452 C 38.054 90.432 38.417 90.395 38.779 90.342 C 40.345 90.108 41.82 89.563 43.112 88.746 C 46.558 87.66 49.181 85.023 50.267 81.469 C 51.269 78.19 50.844 74.493 49.07 71.064 C 48.228 69.434 47.314 68.029 46.502 66.785 C 45.414 65.115 44.554 63.797 43.974 62.202 C 43.296 60.346 42.818 58.44 42.542 56.506 C 43.161 56.258 44.595 55.672 44.595 55.672 C 48.196 54.244 49.4 53.65 50.159 53.162 Z " fill="rgb(255,255,255)"/><path d=" M 29.391 66.672 C 29.645 69.027 29.703 71.41 29.754 73.688 C 29.816 76.412 30.105 79.27 31.628 81.53 C 34.057 85.136 40.375 85.569 41.819 80.846 C 42.402 78.942 41.956 76.84 41.042 75.07 C 39.269 71.643 36.991 69.229 35.628 65.488 C 34.239 61.676 33.519 57.618 33.535 53.561 C 33.539 52.497 33.462 51.199 32.513 50.723 C 31.961 50.445 31.3 50.565 30.702 50.721 C 29.297 51.09 26.556 51.785 25.614 52.97 C 24.182 54.772 25.204 54.947 26.343 56.76 C 28.203 59.721 29.013 63.168 29.391 66.672 Z " fill="rgb(255,199,0)"/><path d=" M 29.952 66.611 C 30.216 69.056 30.271 71.51 30.32 73.675 C 30.376 76.182 30.63 79.037 32.097 81.215 C 33.294 82.993 35.641 84.016 37.79 83.689 C 38.794 83.539 40.585 82.948 41.279 80.682 C 41.764 79.092 41.501 77.192 40.539 75.33 C 39.851 73.998 39.07 72.799 38.314 71.64 C 37.149 69.852 35.943 68.002 35.097 65.682 C 33.669 61.763 32.953 57.684 32.97 53.559 C 32.974 52.535 32.89 51.545 32.259 51.228 C 31.88 51.035 31.356 51.135 30.847 51.268 L 30.737 51.297 C 29.479 51.627 26.859 52.314 26.056 53.322 C 25.241 54.346 25.331 54.461 26.028 55.354 C 26.254 55.643 26.536 56.004 26.821 56.459 C 28.499 59.13 29.495 62.356 29.952 66.611 Z  M 37.001 84.877 C 34.72 84.877 32.415 83.711 31.159 81.846 C 29.529 79.428 29.249 76.371 29.189 73.7 C 29.141 71.558 29.087 69.129 28.829 66.733 C 28.39 62.654 27.447 59.58 25.864 57.061 C 25.605 56.649 25.353 56.326 25.136 56.049 C 24.31 54.989 23.868 54.256 25.171 52.617 C 26.127 51.416 28.398 50.74 30.451 50.203 L 30.56 50.174 C 31.247 49.994 32.05 49.856 32.767 50.217 C 34.111 50.893 34.105 52.696 34.101 53.563 C 34.085 57.555 34.778 61.502 36.159 65.295 C 36.961 67.493 38.078 69.207 39.261 71.023 C 40.032 72.205 40.829 73.428 41.544 74.811 C 42.643 76.936 42.933 79.138 42.359 81.012 C 41.72 83.102 40.116 84.485 37.956 84.807 C 37.64 84.855 37.321 84.877 37.001 84.877 Z " fill="rgb(0,0,0)"/><path d=" M 31.948 65.495 C 32.202 67.852 32.261 70.233 32.312 72.511 C 32.372 75.236 32.661 78.092 34.185 80.354 C 36.614 83.959 42.933 84.392 44.376 79.67 C 44.958 77.764 44.514 75.663 43.599 73.893 C 41.826 70.466 39.549 68.051 38.186 64.311 C 36.796 60.499 36.076 56.442 36.093 52.384 C 36.097 51.32 36.019 50.024 35.07 49.545 C 34.518 49.268 33.857 49.388 33.26 49.545 C 31.855 49.914 29.112 50.608 28.171 51.793 C 26.739 53.594 27.761 53.771 28.9 55.584 C 30.761 58.545 31.571 61.991 31.948 65.495 Z " fill="rgb(244,218,119)"/><path d=" M 32.51 65.435 C 32.774 67.879 32.828 70.333 32.876 72.498 C 32.933 75.006 33.189 77.862 34.654 80.037 C 35.853 81.817 38.196 82.832 40.347 82.512 C 41.352 82.362 43.142 81.772 43.835 79.504 C 44.321 77.914 44.059 76.014 43.097 74.152 C 42.407 72.821 41.626 71.623 40.871 70.463 C 39.706 68.675 38.5 66.826 37.654 64.505 C 36.226 60.586 35.511 56.508 35.527 52.381 C 35.53 51.36 35.447 50.368 34.816 50.051 C 34.437 49.859 33.913 49.957 33.404 50.092 L 33.289 50.121 C 32.031 50.451 29.414 51.139 28.613 52.145 C 27.799 53.17 27.888 53.284 28.585 54.177 C 28.812 54.467 29.093 54.828 29.379 55.283 C 31.057 57.953 32.052 61.18 32.51 65.435 Z  M 39.558 83.701 C 37.277 83.701 34.972 82.535 33.716 80.67 C 32.087 78.252 31.806 75.195 31.745 72.524 C 31.698 70.381 31.644 67.952 31.386 65.556 C 30.946 61.478 30.005 58.404 28.421 55.885 C 28.163 55.473 27.909 55.15 27.695 54.873 C 26.866 53.813 26.425 53.08 27.729 51.442 C 28.683 50.24 30.951 49.567 33.002 49.027 L 33.116 48.998 C 33.806 48.817 34.608 48.68 35.323 49.041 C 36.667 49.717 36.661 51.52 36.657 52.386 C 36.642 56.377 37.335 60.324 38.717 64.117 C 39.519 66.317 40.636 68.031 41.819 69.846 C 42.589 71.029 43.386 72.252 44.101 73.633 C 45.2 75.759 45.489 77.961 44.916 79.835 C 44.278 81.925 42.673 83.309 40.513 83.631 C 40.197 83.678 39.878 83.701 39.558 83.701 Z " fill="rgb(0,0,0)"/><path d=" M 46.853 47.945 L 46.853 47.965 C 46.306 48.316 44.634 49.03 42.324 49.945 C 42.153 50.018 41.991 50.078 41.82 50.149 C 39.419 51.09 36.42 52.231 33.309 53.377 C 25.519 56.233 17.01 59.151 15.415 59.395 C 14.402 59.545 13.228 59.561 12.535 58.817 C 12.162 58.425 12.008 57.887 11.864 57.369 C 10.39 52.09 9.177 46.723 8.23 41.32 C 7.447 36.95 6.846 32.559 6.42 28.149 C 6.028 24.149 5.819 19.92 7.583 16.303 C 9.718 11.933 14.473 9.218 19.035 8.01 C 19.686 7.839 20.277 7.723 20.8 7.653 C 25.753 6.979 25.324 10.686 24.727 15.598 C 24.136 20.459 24.073 25.34 24.237 30.221 C 24.493 37.632 25.286 45.055 25.592 52.443 C 25.626 53.215 25.641 54.028 25.298 54.719 C 24.966 55.408 46.267 47.979 46.853 47.945 Z " fill="rgb(0,135,255)"/><path d=" M 21.883 8.137 C 21.577 8.137 21.242 8.162 20.876 8.212 C 20.347 8.283 19.776 8.401 19.179 8.557 C 16.698 9.213 10.651 11.307 8.091 16.551 C 6.37 20.08 6.616 24.36 6.983 28.094 C 7.409 32.512 8.017 36.928 8.787 41.22 C 9.733 46.617 10.951 51.999 12.409 57.217 C 12.533 57.666 12.661 58.129 12.945 58.426 C 13.366 58.879 14.144 59.012 15.331 58.836 C 16.448 58.664 21.695 56.938 28.156 54.637 C 25.226 55.518 25.099 55.373 24.875 55.119 C 24.726 54.949 24.691 54.678 24.789 54.473 C 25.066 53.914 25.061 53.234 25.027 52.468 C 24.882 48.969 24.623 45.4 24.372 41.947 C 24.095 38.111 23.807 34.145 23.672 30.24 C 23.482 24.547 23.638 19.873 24.165 15.529 C 24.523 12.59 24.861 9.815 23.765 8.734 C 23.361 8.334 22.74 8.137 21.883 8.137 Z  M 14.435 60.045 C 13.686 60.045 12.759 59.887 12.121 59.201 C 11.648 58.703 11.466 58.047 11.32 57.52 C 9.853 52.268 8.625 46.85 7.673 41.418 C 6.898 37.098 6.286 32.651 5.857 28.203 C 5.476 24.317 5.224 19.85 7.075 16.055 C 9.023 12.067 13.329 8.936 18.891 7.463 C 19.532 7.295 20.15 7.17 20.724 7.092 C 22.491 6.852 23.745 7.125 24.56 7.928 C 26.05 9.399 25.697 12.303 25.288 15.666 C 24.768 19.95 24.613 24.568 24.802 30.201 C 24.937 34.084 25.224 38.041 25.501 41.865 C 25.751 45.326 26.011 48.904 26.157 52.42 C 26.181 52.977 26.191 53.525 26.099 54.051 C 28.498 53.43 35.775 50.996 40.36 49.463 C 45.675 47.686 46.581 47.395 46.819 47.381 C 46.972 47.379 47.118 47.424 47.231 47.525 C 47.343 47.625 47.409 47.768 47.417 47.918 L 47.418 47.939 C 47.427 48.141 47.329 48.332 47.158 48.441 C 46.814 48.662 45.958 49.114 42.532 50.471 L 42.039 50.671 C 39.521 51.658 36.493 52.806 33.504 53.907 C 25.848 56.714 17.206 59.692 15.501 59.954 C 15.28 59.986 14.89 60.045 14.435 60.045 Z " fill="rgb(0,0,0)"/><path d=" M 46.853 47.945 L 46.853 47.965 C 45.9 48.412 44.3 49.121 42.324 49.945 C 42.153 50.018 41.991 50.078 41.82 50.149 C 39.331 51.178 36.323 52.339 33.309 53.377 C 27.086 55.504 20.841 57.055 19.125 55.533 C 19.006 55.437 18.898 55.33 18.787 55.212 C 16.883 53.103 13.999 36.66 13.382 32.869 C 13.029 30.66 12.726 28.408 12.599 26.168 C 12.389 22.281 12.716 18.415 14.237 14.863 C 15.53 11.85 17.937 9.196 20.8 7.653 C 23.251 6.317 26.037 5.807 28.743 6.592 C 34.05 8.127 36.966 13.717 38.901 18.899 C 38.998 19.17 39.096 19.434 39.195 19.706 C 42.53 28.882 44.693 38.424 46.853 47.945 Z " fill="rgb(0,175,255)"/><path d=" M 26.105 6.783 C 24.439 6.783 22.734 7.242 21.069 8.149 C 18.31 9.638 16.009 12.166 14.756 15.086 C 13.447 18.143 12.927 21.758 13.163 26.137 C 13.273 28.044 13.511 30.093 13.941 32.779 C 15.187 40.43 17.719 53.186 19.207 54.833 C 19.292 54.924 19.382 55.014 19.482 55.094 C 20.083 55.627 22.582 56.445 33.126 52.842 C 35.82 51.914 38.831 50.773 41.605 49.627 L 42.107 49.424 C 43.612 48.795 45.105 48.147 46.204 47.643 C 44.112 38.423 41.937 28.902 38.663 19.9 L 38.368 19.088 C 36.73 14.701 33.931 8.681 28.586 7.135 C 27.777 6.901 26.946 6.783 26.105 6.783 Z  M 21.458 56.715 C 19.606 56.715 19.038 56.211 18.75 55.956 C 18.63 55.859 18.502 55.735 18.374 55.598 C 16.128 53.109 12.958 33.781 12.823 32.959 C 12.388 30.233 12.146 28.148 12.034 26.199 C 11.788 21.642 12.338 17.861 13.716 14.641 C 15.069 11.49 17.553 8.762 20.531 7.154 C 23.298 5.647 26.195 5.264 28.901 6.049 C 34.735 7.736 37.704 14.077 39.431 18.699 L 39.726 19.515 C 43.065 28.694 45.261 38.373 47.384 47.735 L 47.417 47.918 L 47.418 47.939 C 47.429 48.168 47.3 48.381 47.093 48.478 C 46.548 48.733 45.016 49.436 42.542 50.467 L 42.039 50.671 C 40.06 51.488 36.974 52.713 33.493 53.911 C 27.06 56.11 23.488 56.715 21.458 56.715 Z " fill="rgb(0,0,0)"/><path d=" M 36.737 30.188 C 36.357 27.994 36.04 25.763 35.282 23.87 C 34.629 22.236 32.948 22.777 32.318 23.858 C 29.47 28.754 39.669 38.221 33.677 42.914 C 29.011 46.569 26.799 35.146 25.663 32.808 C 25.124 31.697 21.216 26.555 21.404 30.816 C 21.439 31.606 21.775 32.389 21.624 33.166 C 21.425 34.197 20.253 34.925 19.239 34.647 C 16.47 33.887 15.891 23.842 12.599 26.168 L 12.353 26.358 C 11.82 26.789 11.38 27.412 11.17 28.065 C 10.398 30.449 11.214 33.012 11.335 35.523 C 11.449 37.889 10.456 40.75 8.23 41.32 C 7.447 36.95 6.846 32.56 6.42 28.149 C 5.874 22.489 6.288 16.124 10.968 12.067 C 15.337 8.278 22.911 4.906 28.743 6.592 C 34.32 8.205 37.257 14.295 39.195 19.707 C 39.283 20.196 39.372 20.666 39.447 21.084 C 39.993 23.953 40.359 26.857 40.544 29.771 C 40.696 32.173 37.15 32.559 36.737 30.188 Z " fill="rgb(255,104,103)"/><path d=" M 22.048 28.59 C 23.709 28.59 25.996 32.199 26.172 32.561 C 26.419 33.07 26.692 33.91 27.036 34.975 C 27.933 37.743 29.433 42.377 31.462 42.996 C 32.038 43.172 32.65 43 33.327 42.469 C 36.347 40.104 34.78 36.357 33.12 32.389 C 31.739 29.088 30.437 25.969 31.829 23.574 C 32.312 22.746 33.244 22.211 34.099 22.276 C 34.544 22.309 35.357 22.533 35.808 23.66 C 36.492 25.373 36.829 27.356 37.154 29.274 L 37.294 30.09 C 37.446 30.966 38.157 31.282 38.806 31.205 C 39.384 31.137 40.038 30.73 39.98 29.807 C 39.796 26.924 39.431 24.025 38.892 21.19 L 38.638 19.809 C 36.831 14.783 34.03 8.71 28.586 7.135 C 23.138 5.56 15.785 8.638 11.339 12.493 C 7.649 15.693 6.265 20.651 6.984 28.095 C 7.387 32.28 7.953 36.465 8.667 40.545 C 10.155 39.738 10.864 37.486 10.771 35.549 C 10.736 34.807 10.633 34.035 10.534 33.289 C 10.3 31.51 10.056 29.668 10.632 27.89 C 10.872 27.145 11.37 26.426 11.995 25.918 C 12.044 25.867 12.14 25.797 12.234 25.734 C 12.874 25.281 13.467 25.151 14.037 25.328 C 15.398 25.745 16.172 27.792 16.991 29.959 C 17.68 31.781 18.46 33.848 19.39 34.102 C 19.721 34.192 20.105 34.125 20.439 33.917 C 20.775 33.709 21.004 33.396 21.069 33.059 C 21.142 32.688 21.062 32.272 20.978 31.83 C 20.917 31.514 20.854 31.186 20.839 30.84 C 20.818 30.357 20.752 28.885 21.79 28.621 L 22.048 28.59 Z  M 31.907 44.195 C 31.648 44.195 31.388 44.156 31.132 44.078 C 28.539 43.285 27.049 38.684 25.96 35.324 C 25.642 34.342 25.368 33.493 25.154 33.055 C 24.654 32.024 22.656 29.631 22.067 29.719 C 22.076 29.732 21.931 29.949 21.968 30.791 C 21.981 31.068 22.035 31.343 22.088 31.617 C 22.189 32.145 22.293 32.688 22.18 33.274 C 22.055 33.918 21.638 34.504 21.036 34.877 C 20.435 35.252 19.725 35.367 19.091 35.192 C 17.607 34.785 16.794 32.635 15.933 30.359 C 15.279 28.627 14.536 26.664 13.706 26.41 C 13.625 26.385 13.378 26.311 12.925 26.629 C 12.834 26.694 12.788 26.722 12.748 26.761 C 12.255 27.164 11.88 27.703 11.708 28.238 C 11.21 29.774 11.427 31.41 11.655 33.141 C 11.757 33.91 11.862 34.705 11.901 35.494 C 12.029 38.18 10.859 41.231 8.37 41.867 L 7.781 42.019 L 7.674 41.42 C 6.898 37.097 6.286 32.651 5.857 28.203 C 5.11 20.471 6.661 15.053 10.598 11.639 C 15.276 7.584 23.064 4.361 28.901 6.049 C 34.837 7.766 37.804 14.149 39.726 19.516 L 40.004 20.984 C 40.55 23.859 40.923 26.805 41.109 29.734 C 41.21 31.328 40.055 32.196 38.939 32.328 C 37.771 32.469 36.446 31.809 36.18 30.283 L 36.039 29.463 C 35.724 27.604 35.398 25.682 34.757 24.08 C 34.587 23.655 34.338 23.428 34.016 23.404 C 33.595 23.379 33.071 23.691 32.806 24.143 C 31.696 26.051 32.896 28.918 34.163 31.952 C 35.832 35.942 37.723 40.463 34.025 43.36 C 33.314 43.916 32.605 44.195 31.907 44.195 Z " fill="rgb(0,0,0)"/><path d=" M 8.667 40.545 C 7.953 36.465 7.387 32.28 6.984 28.095 C 6.265 20.651 7.649 15.693 11.339 12.493 C 13.348 10.751 15.951 9.167 18.703 8.1 C 18.814 8.069 18.925 8.039 19.035 8.01 C 19.37 7.918 19.697 7.849 19.992 7.791 C 15.566 9.754 12.943 14.596 12.298 19.408 C 12.025 21.506 12.065 23.611 12.28 25.701 C 12.264 25.712 12.249 25.723 12.234 25.734 C 12.14 25.797 12.044 25.867 11.995 25.918 C 11.37 26.426 10.872 27.145 10.632 27.89 C 10.056 29.668 10.3 31.51 10.534 33.289 C 10.633 34.035 10.736 34.807 10.771 35.549 C 10.864 37.486 10.155 39.738 8.667 40.545 Z " fill="rgb(208,86,86)"/><path d=" M 8.23 41.32 C 7.447 36.95 6.846 32.559 6.42 28.149 C 6.028 24.149 5.819 19.92 7.583 16.303 C 9.666 12.039 14.244 9.35 18.703 8.1 C 15.951 9.167 13.348 10.751 11.339 12.493 C 7.649 15.693 6.265 20.651 6.984 28.095 C 7.387 32.28 7.953 36.465 8.667 40.545 C 10.155 39.738 10.864 37.486 10.771 35.549 C 10.736 34.807 10.633 34.035 10.534 33.289 C 10.3 31.51 10.056 29.668 10.632 27.89 C 10.872 27.145 11.37 26.426 11.995 25.918 C 12.044 25.867 12.14 25.797 12.234 25.734 C 12.249 25.723 12.264 25.712 12.28 25.701 C 12.302 25.92 12.327 26.139 12.353 26.358 C 11.82 26.789 11.38 27.412 11.17 28.065 C 10.398 30.449 11.214 33.012 11.335 35.523 C 11.449 37.889 10.456 40.75 8.23 41.32 Z " fill="rgb(0,0,0)"/></g></svg>