<?xml version="1.0" encoding="UTF-8" standalone="no"?><!-- Generator: Gravit.io --><svg xmlns="http://www.w3.org/2000/svg" xmlns:xlink="http://www.w3.org/1999/xlink" style="isolation:isolate" viewBox="0 0 103.324 78.771" width="103.324pt" height="78.771pt"><defs><clipPath id="_clipPath_XCLGJo5LfKOedYxIZ2185uuNMPXjGAbq"><rect width="103.324" height="78.771"/></clipPath></defs><g clip-path="url(#_clipPath_XCLGJo5LfKOedYxIZ2185uuNMPXjGAbq)"><path d=" M 8.535 37.222 C 6.78 39.273 4.538 40.428 3.776 40.781 C 3.374 40.946 3.15 41.055 3.134 41.063 C 2.802 41.22 2.546 41.391 2.394 41.5 C 2.262 41.59 2.115 41.697 2.011 41.782 L 1.926 41.854 C 1.712 42.038 1.521 42.235 1.356 42.427 C 1.214 42.587 1.03 42.823 0.913 43.001 C 0.721 43.294 0.594 43.551 0.504 43.751 C 0.412 43.95 0.307 44.215 0.246 44.414 C 0.156 44.705 0.109 44.962 0.081 45.138 C 0.047 45.319 0.01 45.581 0.002 45.887 L 0 46.004 L 0 46.032 L 0.001 46.137 C 0.008 46.472 0.048 46.749 0.088 46.955 C 0.124 47.182 0.179 47.43 0.238 47.625 C 0.345 47.975 0.472 48.249 0.549 48.401 C 0.643 48.602 0.763 48.825 0.869 48.992 C 1.067 49.301 1.264 49.533 1.415 49.698 C 1.573 49.878 1.762 50.068 1.928 50.21 C 2.239 50.476 2.585 50.709 2.957 50.902 C 3.048 50.952 3.141 50.998 3.235 51.041 C 3.343 51.092 5.996 52.388 9.297 55.765 C 19.773 66.476 34.265 78.771 53.51 78.771 C 71.797 78.771 84.629 72.443 91.651 59.962 C 97.206 50.083 101.443 45.918 101.467 45.894 C 101.886 45.495 102.243 45.023 102.565 44.418 L 102.71 44.111 C 102.952 43.557 103.103 42.982 103.155 42.398 C 103.165 42.302 103.172 42.207 103.176 42.111 C 103.817 24.94 103.05 8.896 86.843 1.267 C 85.055 0.426 83.012 0 80.77 0 C 74.07 0 66.308 3.894 61.436 6.809 C 58.684 4.513 54.468 2.018 49.139 2.018 C 47.072 2.018 45.003 2.403 42.989 3.164 C 34.16 6.5 23.647 18.767 12.749 32.126 C 11.1 34.146 9.676 35.892 8.535 37.222 Z " fill="rgb(254,254,254)"/><path d=" M 51.59 68.853 C 66.611 68.853 93.116 47.649 93.779 41.906 C 94.441 36.163 82.735 22.468 75.666 20.48 C 68.598 18.492 44.301 19.723 39.221 21.869 C 34.14 24.013 12.936 40.956 12.051 45.296 C 11.169 49.636 36.57 68.853 51.59 68.853 Z " fill="rgb(42,45,55)"/><path d=" M 63.322 20.477 C 53.437 20.477 42.578 21.536 39.61 22.79 C 34.569 24.918 13.822 41.614 13.03 45.496 C 13.03 45.502 12.928 46.108 14.376 47.88 C 19.963 54.717 39.521 67.853 51.59 67.853 C 66.761 67.853 92.237 46.539 92.785 41.791 C 93.382 36.614 82.005 23.301 75.396 21.442 C 73.181 20.819 68.893 20.477 63.322 20.477 Z  M 51.59 69.853 C 38.756 69.853 18.772 56.419 12.827 49.146 C 11.418 47.422 10.861 46.135 11.071 45.097 C 12.073 40.177 33.64 23.139 38.832 20.947 C 42.444 19.421 54.357 18.477 63.322 18.477 C 67.389 18.477 72.879 18.657 75.937 19.517 C 83.696 21.7 95.49 35.791 94.772 42.021 C 94.042 48.354 66.779 69.853 51.59 69.853 Z " fill="rgb(42,45,55)"/><path d=" M 63.395 45.099 C 61.67 44.049 57.178 43.654 54.733 44.215 C 53.115 44.586 53.514 47.923 53.514 51.394 C 53.514 54.407 56.816 55.874 56.816 55.874 L 62.108 55.271 C 62.108 55.271 64.338 53.703 64.338 50.294 C 64.338 48.582 64.276 47.816 64.297 47.357 C 64.342 46.306 63.706 45.289 63.395 45.099 Z " fill="rgb(254,254,254)"/><path d=" M 57.438 44.96 C 56.47 44.96 55.611 45.039 54.956 45.19 C 54.406 45.316 54.461 48.122 54.491 49.629 C 54.502 50.204 54.514 50.797 54.514 51.394 C 54.514 53.327 56.35 54.495 56.998 54.847 L 61.703 54.31 C 62.155 53.902 63.338 52.612 63.338 50.294 C 63.338 49.373 63.319 48.73 63.307 48.261 C 63.295 47.833 63.288 47.538 63.298 47.312 C 63.324 46.687 62.954 46.044 62.809 45.905 C 61.93 45.378 59.643 44.96 57.438 44.96 Z  M 56.816 56.874 C 56.676 56.874 56.538 56.845 56.409 56.788 C 56.25 56.717 52.514 55.016 52.514 51.394 C 52.514 50.81 52.502 50.23 52.491 49.668 C 52.429 46.482 52.374 43.73 54.509 43.24 C 55.309 43.057 56.322 42.96 57.438 42.96 C 59.452 42.96 62.357 43.297 63.914 44.245 C 64.614 44.673 65.353 46.072 65.296 47.399 C 65.287 47.592 65.296 47.842 65.306 48.205 C 65.32 48.686 65.338 49.347 65.338 50.294 C 65.338 54.178 62.791 56.013 62.683 56.089 C 62.546 56.185 62.387 56.245 62.221 56.264 L 56.929 56.868 L 56.816 56.874 Z " fill="rgb(42,45,55)"/><path d=" M 55.399 53.587 C 54.91 53.025 54.514 52.292 54.514 51.394 C 54.514 51.102 54.511 50.811 54.507 50.522 C 54.508 50.472 54.509 50.421 54.51 50.37 C 55.179 51.169 55.953 51.84 57.098 52.2 C 57.684 52.385 58.324 52.48 58.97 52.48 C 60.286 52.48 61.624 52.084 62.567 51.242 C 62.873 50.968 63.128 50.648 63.338 50.293 C 63.338 50.293 63.338 50.294 63.338 50.294 C 63.338 51.509 63.013 52.441 62.639 53.112 C 60.415 53.381 58.01 53.547 55.399 53.587 Z " fill="rgb(170,224,249)"/><path d=" M 54.167 53.597 L 54.167 53.597 C 54.093 53.481 54.025 53.36 53.961 53.235 C 54.261 52.486 54.479 51.584 54.507 50.522 C 54.511 50.811 54.514 51.102 54.514 51.394 C 54.514 52.292 54.91 53.025 55.399 53.587 C 54.994 53.594 54.582 53.597 54.167 53.597 Z  M 62.639 53.112 C 63.013 52.441 63.338 51.509 63.338 50.294 C 63.338 50.294 63.338 50.293 63.338 50.293 C 63.353 50.268 63.367 50.243 63.381 50.218 C 63.398 51.099 63.636 51.863 63.987 52.517 C 63.936 52.67 63.88 52.817 63.821 52.958 C 63.434 53.013 63.038 53.064 62.639 53.112 Z " fill="rgb(38,45,55)"/><path d=" M 74.262 42.938 C 72.537 41.888 66.67 42.46 65.505 44.015 C 64.512 45.342 64.38 46.646 64.38 50.116 C 64.38 53.13 67.682 54.597 67.682 54.597 L 72.976 53.994 C 72.976 53.994 75.203 52.425 75.203 49.016 C 75.203 47.304 75.145 45.655 75.165 45.195 C 75.209 44.146 74.574 43.128 74.262 42.938 Z " fill="rgb(254,254,254)"/><path d=" M 71.335 43.404 C 68.975 43.404 66.734 44.043 66.306 44.614 C 65.544 45.631 65.38 46.609 65.38 50.116 C 65.38 52.05 67.216 53.217 67.864 53.569 L 72.57 53.034 C 73.023 52.625 74.203 51.334 74.203 49.016 C 74.203 48.154 74.189 47.309 74.176 46.626 C 74.164 45.926 74.155 45.388 74.166 45.151 C 74.193 44.526 73.821 43.883 73.676 43.744 C 73.434 43.605 72.64 43.404 71.335 43.404 Z  M 67.682 55.597 C 67.542 55.597 67.404 55.567 67.276 55.511 C 67.116 55.44 63.38 53.738 63.38 50.116 C 63.38 46.613 63.5 45.026 64.704 43.416 C 65.897 41.824 69.563 41.404 71.335 41.404 C 72.398 41.404 73.859 41.522 74.781 42.083 C 75.481 42.509 76.22 43.909 76.164 45.237 C 76.154 45.457 76.164 45.95 76.176 46.59 C 76.189 47.284 76.203 48.142 76.203 49.016 C 76.203 52.9 73.66 54.735 73.552 54.812 C 73.414 54.908 73.255 54.969 73.089 54.988 L 67.795 55.59 L 67.682 55.597 Z " fill="rgb(42,45,55)"/><path d=" M 66.463 52.523 C 65.946 51.997 65.483 51.293 65.395 50.418 C 66.373 50.914 67.546 51.148 68.717 51.148 C 70.264 51.148 71.808 50.738 72.891 49.982 C 73.402 49.625 73.838 49.191 74.203 48.702 C 74.203 48.807 74.203 48.911 74.203 49.016 C 74.203 49.551 74.14 50.032 74.038 50.46 C 71.823 51.27 69.316 51.983 66.463 52.523 Z " fill="rgb(170,224,249)"/><path d=" M 65.32 52.727 C 64.789 52.046 64.38 51.177 64.38 50.116 C 64.38 49.986 64.381 49.866 64.381 49.742 C 64.684 50.006 65.026 50.231 65.395 50.418 C 65.483 51.293 65.946 51.997 66.463 52.523 C 66.087 52.594 65.707 52.662 65.32 52.727 Z  M 74.038 50.46 C 74.14 50.032 74.203 49.551 74.203 49.016 C 74.203 48.911 74.203 48.807 74.203 48.702 C 74.233 48.662 74.262 48.622 74.291 48.581 C 74.403 49.177 74.613 49.698 74.868 50.146 C 74.596 50.252 74.319 50.357 74.038 50.46 Z " fill="rgb(38,45,55)"/><path d=" M 81.86 41.604 C 80.697 40.723 76.746 41.202 75.961 42.507 C 75.292 43.62 75.203 44.713 75.203 47.625 C 75.203 50.154 77.428 51.383 77.428 51.383 L 80.992 50.877 C 80.992 50.877 82.494 49.562 82.494 46.702 C 82.494 45.267 82.453 43.883 82.467 43.497 C 82.496 42.616 82.068 41.763 81.86 41.604 Z " fill="rgb(254,254,254)"/><path d=" M 79.888 42.156 C 78.356 42.156 77.026 42.677 76.818 43.023 C 76.313 43.864 76.203 44.681 76.203 47.625 C 76.203 49.081 77.183 49.985 77.661 50.34 L 80.503 49.937 C 80.826 49.537 81.494 48.494 81.494 46.702 C 81.494 45.972 81.484 45.256 81.475 44.679 C 81.466 44.102 81.461 43.658 81.468 43.462 C 81.483 43.011 81.3 42.544 81.193 42.363 C 81.024 42.276 80.606 42.156 79.888 42.156 Z  M 77.428 52.383 C 77.26 52.383 77.093 52.34 76.945 52.258 C 76.832 52.196 74.203 50.708 74.203 47.625 C 74.203 44.687 74.284 43.355 75.104 41.992 C 75.863 40.73 78.115 40.156 79.888 40.156 C 80.671 40.156 81.754 40.269 82.464 40.807 C 82.98 41.2 83.504 42.387 83.466 43.53 C 83.46 43.713 83.467 44.12 83.475 44.65 C 83.484 45.235 83.494 45.962 83.494 46.702 C 83.494 49.978 81.727 51.564 81.652 51.63 C 81.505 51.757 81.325 51.84 81.133 51.867 L 77.569 52.373 L 77.428 52.383 Z " fill="rgb(42,45,55)"/><path d=" M 76.734 49.367 C 76.508 49.024 76.317 48.604 76.24 48.106 C 76.323 48.112 76.406 48.115 76.49 48.115 C 78.018 48.115 79.705 47.142 80.709 46.23 C 81.013 45.954 81.266 45.657 81.475 45.344 C 81.478 45.377 81.482 45.411 81.486 45.445 C 81.491 45.842 81.494 46.269 81.494 46.702 C 81.494 46.754 81.494 46.806 81.493 46.857 C 80.1 47.711 78.527 48.566 76.734 49.367 Z " fill="rgb(170,224,249)"/><path d=" M 75.812 49.765 C 75.5 49.249 75.255 48.609 75.215 47.842 C 75.538 47.997 75.883 48.08 76.24 48.106 C 76.317 48.604 76.508 49.024 76.734 49.367 C 76.433 49.501 76.126 49.634 75.812 49.765 Z  M 81.493 46.857 C 81.494 46.806 81.494 46.754 81.494 46.702 C 81.494 46.269 81.491 45.842 81.486 45.445 C 81.54 45.89 81.667 46.29 81.838 46.644 C 81.724 46.715 81.609 46.786 81.493 46.857 Z " fill="rgb(38,45,55)"/><path d=" M 88.36 40.269 C 87.33 39.581 83.824 39.954 83.129 40.973 C 82.533 41.843 82.457 42.696 82.457 44.969 C 82.457 46.943 84.428 47.904 84.428 47.904 L 87.591 47.509 C 87.591 47.509 88.922 46.482 88.922 44.25 C 88.922 43.128 88.887 42.048 88.899 41.747 C 88.924 41.06 88.545 40.392 88.36 40.269 Z " fill="rgb(254,254,254)"/><path d=" M 86.61 40.919 C 85.226 40.919 84.127 41.331 83.95 41.543 C 83.545 42.135 83.457 42.744 83.457 44.969 C 83.457 45.955 84.243 46.604 84.642 46.87 L 87.139 46.558 C 87.407 46.253 87.922 45.505 87.922 44.25 C 87.922 43.681 87.913 43.123 87.905 42.674 C 87.898 42.216 87.894 41.864 87.9 41.708 C 87.908 41.46 87.803 41.195 87.728 41.064 C 87.573 41.004 87.22 40.919 86.61 40.919 Z  M 84.428 48.904 C 84.276 48.904 84.127 48.87 83.989 48.803 C 83.886 48.753 81.457 47.539 81.457 44.969 C 81.457 42.607 81.533 41.533 82.304 40.408 C 83.107 39.233 85.388 38.919 86.61 38.919 C 87.624 38.919 88.401 39.093 88.915 39.437 C 89.418 39.773 89.935 40.796 89.898 41.784 C 89.893 41.923 89.899 42.236 89.905 42.642 C 89.913 43.1 89.922 43.669 89.922 44.25 C 89.922 46.943 88.273 48.247 88.202 48.301 C 88.061 48.41 87.892 48.48 87.715 48.502 L 84.552 48.896 L 84.428 48.904 Z " fill="rgb(42,45,55)"/><path d=" M 83.543 45.522 C 83.489 45.352 83.457 45.167 83.457 44.969 C 83.457 44.801 83.458 44.642 83.459 44.491 C 85.141 44.089 86.678 42.711 87.778 41.162 C 87.842 41.305 87.907 41.512 87.9 41.708 C 87.895 41.817 87.896 42.021 87.9 42.289 C 87.569 42.537 87.221 42.803 86.853 43.086 C 85.887 43.825 84.799 44.657 83.543 45.522 Z " fill="rgb(170,224,249)"/><path d=" M 82.689 46.097 C 82.547 45.767 82.457 45.391 82.457 44.969 C 82.457 44.839 82.457 44.73 82.457 44.609 C 82.465 44.61 82.472 44.61 82.48 44.61 C 82.81 44.61 83.137 44.568 83.459 44.491 C 83.458 44.642 83.457 44.801 83.457 44.969 C 83.457 45.167 83.489 45.352 83.543 45.522 C 83.267 45.713 82.982 45.904 82.689 46.097 Z  M 87.9 42.289 C 87.896 42.021 87.895 41.817 87.9 41.708 C 87.907 41.512 87.842 41.305 87.778 41.162 C 87.987 40.868 88.18 40.567 88.356 40.266 L 88.36 40.269 C 88.529 40.381 88.859 40.948 88.896 41.568 C 88.58 41.786 88.249 42.028 87.9 42.289 Z " fill="rgb(38,45,55)"/><path d=" M 32.802 42.938 C 34.526 41.888 40.393 42.46 41.559 44.015 C 42.553 45.342 42.684 46.646 42.684 50.116 C 42.684 53.13 39.38 54.597 39.38 54.597 L 34.088 53.994 C 34.088 53.994 31.86 52.425 31.86 49.016 C 31.86 47.304 31.92 45.655 31.9 45.195 C 31.855 44.146 32.489 43.128 32.802 42.938 Z " fill="rgb(254,254,254)"/><path d=" M 34.491 53.034 L 39.194 53.569 C 39.844 53.212 41.684 52.031 41.684 50.116 C 41.684 46.608 41.52 45.631 40.758 44.614 C 40.33 44.043 38.088 43.404 35.729 43.404 C 34.424 43.404 33.63 43.604 33.321 43.792 C 33.242 43.883 32.872 44.526 32.899 45.152 C 32.909 45.386 32.901 45.919 32.888 46.612 C 32.875 47.297 32.86 48.149 32.86 49.016 C 32.86 51.339 34.04 52.627 34.491 53.034 Z  M 39.38 55.597 L 39.267 55.59 L 33.975 54.988 C 33.809 54.969 33.65 54.908 33.513 54.812 C 33.404 54.735 30.86 52.9 30.86 49.016 C 30.86 48.135 30.875 47.272 30.888 46.575 C 30.9 45.942 30.91 45.455 30.901 45.24 C 30.844 43.91 31.583 42.509 32.281 42.084 C 33.204 41.522 34.665 41.404 35.729 41.404 C 37.5 41.404 41.166 41.824 42.359 43.415 C 43.564 45.024 43.684 46.611 43.684 50.116 C 43.684 53.738 39.944 55.44 39.786 55.511 C 39.657 55.567 39.52 55.597 39.38 55.597 Z " fill="rgb(42,45,55)"/><path d=" M 40.607 52.506 C 37.665 51.976 35.18 51.291 33.043 50.534 C 32.93 50.088 32.86 49.583 32.86 49.016 C 32.86 48.532 32.864 48.052 32.871 47.604 C 33.338 48.478 33.854 49.312 34.625 49.914 C 35.626 50.695 37.154 51.576 38.541 51.576 C 38.883 51.576 39.216 51.523 39.531 51.401 C 40.563 51.002 41.224 49.808 41.671 48.682 C 41.677 48.956 41.68 49.251 41.682 49.569 C 41.682 49.774 41.682 49.983 41.683 50.195 C 41.657 51.16 41.165 51.934 40.607 52.506 Z " fill="rgb(170,224,249)"/><path d=" M 41.763 52.702 C 41.371 52.639 40.985 52.574 40.607 52.506 C 41.165 51.934 41.657 51.16 41.683 50.195 C 41.683 50.309 41.683 50.424 41.684 50.541 L 41.686 51.394 C 41.686 51.826 41.739 52.231 41.833 52.609 C 41.81 52.641 41.787 52.672 41.763 52.702 Z  M 33.043 50.534 C 32.905 50.485 32.768 50.436 32.633 50.387 C 32.774 49.934 32.86 49.43 32.86 48.874 C 32.86 48.398 32.857 47.964 32.85 47.565 C 32.857 47.578 32.864 47.591 32.871 47.604 C 32.864 48.052 32.86 48.532 32.86 49.016 C 32.86 49.583 32.93 50.088 33.043 50.534 Z  M 41.682 49.569 C 41.68 49.251 41.677 48.956 41.671 48.682 C 41.678 48.665 41.684 48.648 41.691 48.631 C 41.685 48.935 41.683 49.248 41.682 49.569 Z " fill="rgb(38,45,55)"/><path d=" M 25.204 42.852 C 26.365 41.972 30.317 42.45 31.102 43.756 C 31.772 44.869 31.86 45.962 31.86 48.874 C 31.86 51.402 29.635 52.631 29.635 52.631 L 26.069 52.126 C 26.069 52.126 24.569 50.811 24.569 47.951 C 24.569 46.516 24.61 45.131 24.596 44.746 C 24.567 43.865 24.994 43.012 25.204 42.852 Z " fill="rgb(254,254,254)"/><path d=" M 26.561 51.186 L 29.401 51.589 C 29.88 51.233 30.86 50.329 30.86 48.874 C 30.86 45.928 30.75 45.111 30.245 44.271 C 30.037 43.926 28.707 43.404 27.176 43.404 C 26.459 43.404 26.041 43.525 25.869 43.611 C 25.764 43.793 25.58 44.26 25.595 44.713 C 25.603 44.907 25.597 45.363 25.588 45.954 C 25.58 46.526 25.57 47.232 25.57 47.951 C 25.57 49.737 26.233 50.779 26.561 51.186 Z  M 29.635 53.631 L 29.494 53.622 L 25.929 53.116 C 25.737 53.089 25.557 53.006 25.41 52.878 C 25.335 52.812 23.569 51.226 23.569 47.951 C 23.569 47.221 23.58 46.505 23.588 45.924 C 23.597 45.383 23.604 44.966 23.597 44.784 C 23.559 43.637 24.083 42.449 24.598 42.057 C 25.31 41.517 26.393 41.404 27.176 41.404 C 28.947 41.404 31.199 41.979 31.958 43.24 C 32.779 44.602 32.86 45.934 32.86 48.874 C 32.86 51.956 30.231 53.445 30.118 53.506 C 29.97 53.589 29.804 53.631 29.635 53.631 Z " fill="rgb(42,45,55)"/><path d=" M 30.762 49.65 C 28.716 48.786 27.032 47.877 25.574 47.031 C 25.577 46.787 25.58 46.552 25.583 46.331 C 26.602 47.303 27.811 47.932 28.972 47.932 C 29.112 47.932 29.252 47.923 29.391 47.904 C 30.208 47.792 30.597 47.038 30.781 46.14 C 30.84 46.785 30.86 47.644 30.86 48.874 C 30.86 49.153 30.823 49.412 30.762 49.65 Z " fill="rgb(170,224,249)"/><path d=" M 31.695 50.031 C 31.376 49.905 31.064 49.778 30.762 49.65 C 30.823 49.412 30.86 49.153 30.86 48.874 C 30.86 47.644 30.84 46.785 30.781 46.14 C 30.927 45.432 30.944 44.634 30.943 43.993 C 30.961 43.859 30.963 43.721 30.969 43.584 L 31.102 43.756 C 31.772 44.869 31.86 45.962 31.86 48.874 C 31.86 49.295 31.798 49.681 31.695 50.031 Z  M 25.574 47.031 C 25.434 46.949 25.294 46.867 25.157 46.787 C 25.252 46.59 25.336 46.379 25.402 46.152 C 25.461 46.213 25.522 46.273 25.583 46.331 C 25.58 46.552 25.577 46.787 25.574 47.031 Z " fill="rgb(38,45,55)"/><path d=" M 19.373 40.269 C 20.279 39.581 23.365 39.954 23.979 40.973 C 24.501 41.843 24.569 42.696 24.569 44.969 C 24.569 46.943 22.833 47.904 22.833 47.904 L 20.05 47.509 C 20.05 47.509 18.879 46.482 18.879 44.25 C 18.879 43.128 18.91 42.048 18.899 41.747 C 18.875 41.06 19.209 40.392 19.373 40.269 Z " fill="rgb(254,254,254)"/><path d=" M 20.553 46.57 L 22.59 46.86 C 22.949 46.574 23.569 45.942 23.569 44.969 C 23.569 42.719 23.49 42.101 23.121 41.487 C 22.979 41.299 22.066 40.919 20.914 40.919 C 20.458 40.919 20.179 40.984 20.05 41.032 C 19.982 41.176 19.889 41.451 19.898 41.713 C 19.904 41.867 19.9 42.233 19.893 42.707 C 19.887 43.15 19.879 43.695 19.879 44.25 C 19.879 45.488 20.306 46.24 20.553 46.57 Z  M 22.833 48.904 L 22.693 48.894 L 19.909 48.5 C 19.717 48.472 19.536 48.389 19.391 48.261 C 19.235 48.125 17.879 46.86 17.879 44.25 C 17.879 43.685 17.887 43.13 17.894 42.678 C 17.9 42.255 17.904 41.928 17.9 41.786 C 17.869 40.892 18.26 39.855 18.772 39.47 C 19.371 39.015 20.268 38.919 20.914 38.919 C 22.027 38.919 24.105 39.242 24.835 40.457 C 25.503 41.569 25.57 42.631 25.57 44.969 C 25.57 47.504 23.409 48.728 23.318 48.779 C 23.168 48.861 23.002 48.904 22.833 48.904 Z " fill="rgb(42,45,55)"/><path d=" M 52.567 44.215 C 50.844 43.166 45.666 42.963 43.904 44.215 C 42.553 45.176 42.686 47.923 42.686 51.394 C 42.686 54.407 45.988 55.874 45.988 55.874 L 51.281 55.271 C 51.281 55.271 53.51 53.703 53.51 50.294 C 53.51 48.582 53.45 46.932 53.469 46.473 C 53.514 45.423 52.879 44.405 52.567 44.215 Z " fill="rgb(254,254,254)"/><path d=" M 48.023 44.35 C 46.43 44.35 45.073 44.611 44.484 45.03 C 43.668 45.61 43.676 48.002 43.684 50.534 L 43.686 51.394 C 43.686 53.309 45.525 54.489 46.174 54.846 L 50.877 54.31 C 51.328 53.902 52.51 52.612 52.51 50.294 C 52.51 49.411 52.494 48.546 52.482 47.853 C 52.469 47.18 52.46 46.663 52.47 46.432 C 52.496 45.803 52.126 45.16 51.981 45.022 C 51.352 44.646 49.697 44.35 48.023 44.35 Z  M 45.988 56.874 C 45.849 56.874 45.711 56.845 45.582 56.788 C 45.423 56.717 41.686 55.016 41.686 51.394 L 41.684 50.541 C 41.673 47.211 41.664 44.581 43.325 43.4 C 44.611 42.487 46.82 42.35 48.023 42.35 C 49.669 42.35 51.863 42.616 53.087 43.361 C 53.785 43.787 54.525 45.187 54.468 46.516 C 54.459 46.724 54.47 47.199 54.481 47.817 C 54.493 48.519 54.51 49.398 54.51 50.294 C 54.51 54.178 51.965 56.012 51.857 56.088 C 51.72 56.185 51.561 56.245 51.395 56.264 L 46.102 56.868 L 45.988 56.874 Z " fill="rgb(42,45,55)"/><path d=" M 51.53 53.562 C 48.832 53.49 46.391 53.307 44.173 53.039 C 43.884 52.572 43.686 52.022 43.686 51.394 L 43.684 50.534 C 43.682 50.06 43.681 49.59 43.685 49.136 C 43.844 49.455 43.986 49.744 44.11 49.934 C 44.613 50.71 45.215 51.39 45.994 51.89 C 46.466 52.193 47.085 52.313 47.73 52.313 C 48.63 52.313 49.579 52.08 50.245 51.785 C 51.246 51.343 51.987 50.692 52.509 49.911 C 52.51 50.038 52.51 50.166 52.51 50.294 C 52.51 51.809 52.005 52.884 51.53 53.562 Z " fill="rgb(170,224,249)"/><path d=" M 52.688 53.586 C 52.297 53.58 51.911 53.572 51.53 53.562 C 52.005 52.884 52.51 51.809 52.51 50.294 C 52.51 50.166 52.51 50.038 52.509 49.911 C 53.05 49.101 53.356 48.151 53.469 47.149 C 53.481 47.898 53.51 49.075 53.51 50.294 C 53.51 51.697 53.133 52.788 52.688 53.586 Z  M 44.173 53.039 C 43.766 52.99 43.365 52.938 42.973 52.883 C 42.795 52.437 42.686 51.941 42.686 51.394 C 42.686 49.963 42.67 48.667 42.737 47.556 C 43.09 47.943 43.411 48.585 43.685 49.136 C 43.681 49.59 43.682 50.06 43.684 50.534 L 43.686 51.394 C 43.686 52.022 43.884 52.572 44.173 53.039 Z " fill="rgb(38,45,55)"/><path d=" M 58.047 43.569 C 55.341 44.7 49.303 43.828 47.815 42.651 C 46.824 41.867 45.709 40.005 45.516 37.791 C 45.295 35.274 45.242 33.141 45.345 30.917 C 45.451 28.611 50.414 26.538 50.414 26.538 L 60.529 24.539 C 60.529 24.539 60.805 36.656 60.692 39.171 C 60.576 41.688 58.954 43.189 58.047 43.569 Z " fill="rgb(254,254,254)"/><path d=" M 50.709 27.499 C 48.946 28.256 46.396 29.845 46.344 30.963 C 46.243 33.149 46.295 35.228 46.512 37.704 C 46.694 39.785 47.762 41.334 48.435 41.867 C 49.168 42.447 51.955 43.095 54.587 43.095 C 55.876 43.095 56.968 42.936 57.661 42.646 C 58.283 42.386 59.599 41.183 59.693 39.125 C 59.782 37.135 59.621 28.862 59.556 25.75 L 50.709 27.499 Z  M 54.587 45.095 C 52.021 45.095 48.558 44.514 47.195 43.435 C 46.024 42.509 44.742 40.431 44.52 37.878 C 44.294 35.31 44.241 33.149 44.346 30.871 C 44.475 28.074 49.103 26.002 50.028 25.615 L 50.22 25.557 L 60.335 23.558 C 60.622 23.5 60.926 23.574 61.155 23.759 C 61.386 23.944 61.523 24.221 61.529 24.516 C 61.54 25.012 61.804 36.696 61.691 39.216 C 61.557 42.143 59.669 43.974 58.433 44.491 C 57.238 44.99 55.682 45.095 54.587 45.095 Z " fill="rgb(42,45,55)"/><path d=" M 46.403 36.285 C 46.38 35.928 46.36 35.577 46.345 35.232 C 46.347 34.776 46.345 34.288 46.343 33.765 L 46.34 32.447 C 46.34 32.234 46.33 32.029 46.312 31.83 C 46.32 31.542 46.331 31.253 46.344 30.963 C 46.375 30.302 47.279 29.476 48.378 28.754 C 48.831 29.001 49.353 29.142 49.908 29.142 C 51.292 29.142 52.465 28.274 52.896 27.066 L 56.426 26.369 C 57.245 26.496 58.094 26.574 58.946 26.574 C 59.153 26.574 59.36 26.569 59.567 26.56 C 59.584 27.454 59.603 28.493 59.622 29.58 C 58.585 28.875 57.398 28.624 56.182 28.624 C 54.616 28.624 53.001 29.039 51.59 29.435 C 48.867 30.199 47.325 33.315 46.403 36.285 Z " fill="rgb(170,224,249)"/><path d=" M 46.321 36.555 C 46.336 36.145 46.342 35.705 46.345 35.232 C 46.36 35.577 46.38 35.928 46.403 36.285 C 46.375 36.375 46.348 36.465 46.321 36.555 Z  M 46.312 31.83 C 46.24 31.059 46.034 30.394 45.736 29.824 C 45.887 29.593 46.073 29.368 46.285 29.151 C 46.837 28.932 47.401 28.712 47.975 28.494 C 48.102 28.59 48.237 28.677 48.378 28.754 C 47.279 29.476 46.375 30.302 46.344 30.963 C 46.331 31.253 46.32 31.542 46.312 31.83 Z  M 52.896 27.066 C 52.938 26.949 52.973 26.829 53 26.705 C 53.631 26.495 54.276 26.286 54.933 26.078 C 55.415 26.19 55.915 26.289 56.426 26.369 L 52.896 27.066 Z " fill="rgb(38,45,55)"/><path d=" M 62 42.384 C 64.451 44.07 71.494 43.133 73.995 41.122 C 75.917 39.578 76.04 33.347 76.04 27.772 C 76.04 22.93 70.673 21.73 70.673 21.73 L 60.512 23.655 C 60.512 23.655 60.781 37.069 60.719 38.757 C 60.654 40.444 61.557 42.079 62 42.384 Z " fill="rgb(254,254,254)"/><path d=" M 61.528 24.48 C 61.587 27.477 61.773 37.327 61.718 38.794 C 61.667 40.131 62.368 41.372 62.598 41.584 C 63.211 42.003 64.462 42.257 66 42.257 L 66.001 42.257 C 68.844 42.257 72.011 41.434 73.368 40.342 C 75.04 39 75.04 31.416 75.04 27.772 C 75.04 24.22 71.512 23.001 70.639 22.754 L 61.528 24.48 Z  M 66.001 44.257 L 66 44.257 C 64.612 44.257 62.695 44.075 61.434 43.208 C 60.666 42.68 59.644 40.716 59.72 38.719 C 59.78 37.08 59.515 23.809 59.512 23.675 C 59.502 23.187 59.846 22.763 60.325 22.672 L 70.487 20.748 C 70.619 20.722 70.758 20.724 70.891 20.754 C 73.018 21.229 77.04 23.308 77.04 27.772 C 77.04 34.194 76.856 40.108 74.621 41.902 C 72.609 43.52 68.742 44.257 66.001 44.257 Z " fill="rgb(42,45,55)"/><path d=" M 74.896 34.037 C 74.337 31.941 73.539 29.646 72.684 28.541 C 72.606 28.441 72.526 28.344 72.445 28.25 C 73.027 27.688 73.389 26.907 73.389 26.043 C 73.389 25.06 72.923 24.186 72.196 23.618 C 72.369 23.642 72.539 23.667 72.708 23.695 C 73.868 24.452 75.04 25.725 75.04 27.772 C 75.04 29.384 75.04 31.766 74.896 34.037 Z  M 61.614 29.071 C 61.596 28.065 61.579 27.115 61.563 26.299 C 61.687 26.271 61.809 26.241 61.932 26.208 C 63.281 25.851 64.548 25.343 65.773 24.852 C 66.46 24.576 67.125 24.31 67.775 24.08 C 67.329 24.614 67.061 25.297 67.061 26.043 C 67.061 26.106 67.063 26.169 67.066 26.232 C 65.006 26.453 62.971 27.532 61.614 29.071 Z " fill="rgb(170,224,249)"/><path d=" M 75.137 34.991 C 75.063 34.681 74.982 34.362 74.896 34.037 C 75.04 31.766 75.04 29.384 75.04 27.772 C 75.04 25.725 73.868 24.452 72.708 23.695 C 73.409 23.808 74.075 23.951 74.709 24.122 C 74.998 24.457 75.258 24.836 75.471 25.262 C 75.205 25.911 75.04 26.733 75.04 27.772 C 75.04 29.069 75.075 31.232 75.107 33.117 C 75.118 33.781 75.129 34.43 75.137 34.991 Z  M 60.637 30.481 C 60.613 29.036 60.588 27.63 60.566 26.474 C 60.901 26.431 61.234 26.373 61.563 26.299 C 61.579 27.115 61.596 28.065 61.614 29.071 C 61.229 29.507 60.898 29.98 60.637 30.481 Z " fill="rgb(38,45,55)"/><path d=" M 77.362 40.02 C 79.684 41.557 86.651 40.088 89.022 38.253 C 90.841 36.845 90.662 32.821 90.662 27.735 C 90.662 23.318 86.218 21.169 86.218 21.169 L 80.231 23.965 C 80.231 23.965 76.04 22.776 76.04 27.772 C 76.04 30.28 76.174 36.038 76.149 36.712 C 76.086 38.251 76.943 39.741 77.362 40.02 Z " fill="rgb(254,254,254)"/><path d=" M 79.204 24.841 C 78.276 24.841 77.04 25.145 77.04 27.772 C 77.04 29.061 77.075 31.211 77.107 33.084 C 77.141 35.138 77.16 36.413 77.148 36.75 C 77.101 37.919 77.74 39.023 77.95 39.214 C 78.183 39.364 78.86 39.663 80.372 39.663 C 83.138 39.663 86.894 38.634 88.409 37.462 C 89.687 36.473 89.677 33.006 89.665 28.992 L 89.662 27.735 C 89.662 24.736 87.162 22.901 86.175 22.293 L 80.654 24.871 C 80.437 24.972 80.188 24.993 79.958 24.927 C 79.957 24.927 79.633 24.841 79.204 24.841 Z  M 80.372 41.663 C 78.819 41.663 77.621 41.391 76.81 40.854 C 76.065 40.358 75.074 38.528 75.15 36.671 C 75.16 36.375 75.135 34.793 75.107 33.117 C 75.075 31.232 75.04 29.069 75.04 27.772 C 75.04 23.197 78.228 22.841 79.204 22.841 C 79.565 22.841 79.88 22.879 80.11 22.918 L 85.795 20.263 C 86.067 20.135 86.382 20.137 86.654 20.269 C 86.858 20.368 91.662 22.749 91.662 27.735 L 91.665 28.986 C 91.68 33.901 91.69 37.452 89.634 39.044 C 87.767 40.488 83.613 41.663 80.372 41.663 Z " fill="rgb(42,45,55)"/><path d=" M 86.926 36.109 C 85.518 34.71 84.401 32.783 82.836 31.36 C 81.599 30.235 80.337 29.693 79.123 29.693 C 78.415 29.693 77.723 29.878 77.062 30.237 C 77.049 29.294 77.04 28.423 77.04 27.772 C 77.04 26.411 77.372 25.673 77.821 25.279 C 83.523 28.052 85.654 33.146 86.524 35.223 C 86.652 35.531 86.787 35.826 86.926 36.109 Z " fill="rgb(170,224,249)"/><path d=" M 76.072 30.927 C 76.055 29.724 76.04 28.579 76.04 27.772 C 76.04 26.357 76.377 25.438 76.859 24.847 C 77.19 24.984 77.511 25.128 77.821 25.279 C 77.372 25.673 77.04 26.411 77.04 27.772 C 77.04 28.423 77.049 29.294 77.062 30.237 C 76.724 30.421 76.393 30.652 76.072 30.927 Z " fill="rgb(38,45,55)"/><path d=" M 18.626 40.02 C 20.946 41.557 28.464 42.498 30.834 40.664 C 32.654 39.255 31.926 27.735 31.926 27.735 L 17.411 36.712 C 17.411 36.712 18.205 39.741 18.626 40.02 Z " fill="rgb(254,254,254)"/><path d=" M 19.297 39.261 C 20.611 40.047 23.702 40.673 26.321 40.673 C 28.144 40.673 29.566 40.381 30.222 39.873 C 30.898 39.226 31.23 34.648 31.016 29.474 L 18.574 37.169 C 18.83 38.055 19.126 38.94 19.297 39.261 Z  M 26.321 42.673 C 23.133 42.673 19.664 41.908 18.073 40.854 C 17.816 40.683 17.335 40.364 16.444 36.965 C 16.332 36.541 16.512 36.092 16.885 35.861 L 31.4 26.884 C 31.699 26.7 32.072 26.686 32.385 26.846 C 32.697 27.008 32.902 27.321 32.924 27.672 C 33.153 31.294 33.468 39.89 31.446 41.454 C 30.146 42.462 27.942 42.673 26.321 42.673 Z " fill="rgb(42,45,55)"/><path d=" M 26.321 40.673 C 25.83 40.673 25.322 40.651 24.813 40.61 C 24.929 40.534 25.047 40.458 25.165 40.381 C 26.706 39.382 28.379 38.297 30.249 37.158 C 29.279 38.601 27.896 39.942 26.38 40.673 C 26.36 40.673 26.341 40.673 26.321 40.673 Z " fill="rgb(170,224,249)"/><path d=" M 24.081 41.247 C 24.043 41.217 24.004 41.187 23.964 41.159 C 24.242 40.98 24.525 40.797 24.813 40.61 C 25.322 40.651 25.83 40.673 26.321 40.673 C 26.341 40.673 26.36 40.673 26.38 40.673 C 25.635 41.032 24.857 41.244 24.081 41.247 Z " fill="rgb(38,45,55)"/><path d=" M 33.404 40.664 C 35.442 42.561 41.342 42.573 43.711 40.739 C 45.531 39.33 45.34 37.534 45.34 32.447 C 45.34 28.03 40.472 27.735 40.472 27.735 C 40.472 27.735 31.886 33.644 31.86 34.317 C 31.799 35.856 31.81 39.18 33.404 40.664 Z " fill="rgb(254,254,254)"/><path d=" M 32.85 34.634 C 32.78 37.248 33.217 39.123 34.086 39.932 C 34.848 40.642 36.582 41.101 38.504 41.101 L 38.505 41.101 C 40.421 41.101 42.181 40.659 43.099 39.948 C 44.313 39.009 44.359 37.893 44.343 33.772 L 44.34 32.447 C 44.34 29.559 41.678 28.909 40.734 28.769 C 37.312 31.133 33.642 33.821 32.85 34.634 Z  M 38.505 43.101 L 38.504 43.101 C 37.317 43.101 34.375 42.934 32.723 41.396 C 31.352 40.119 30.725 37.725 30.86 34.278 C 30.882 33.727 30.906 33.104 39.904 26.911 C 40.09 26.785 40.315 26.723 40.532 26.737 C 42.541 26.858 46.34 28.209 46.34 32.447 L 46.343 33.765 C 46.359 38.011 46.365 39.949 44.323 41.53 C 43.053 42.513 40.877 43.101 38.505 43.101 Z " fill="rgb(42,45,55)"/><path d=" M 32.909 36.645 C 32.878 36.321 32.858 35.98 32.848 35.621 C 35.878 33.884 39.399 32.06 43.623 30.251 C 44.048 30.779 44.34 31.491 44.34 32.447 L 44.343 33.772 C 44.344 34.108 44.345 34.425 44.345 34.722 C 44.273 34.561 44.2 34.393 44.124 34.225 C 43.73 33.349 43.285 32.473 42.807 32.473 C 42.766 32.473 42.725 32.48 42.684 32.493 C 40.944 33.055 38.042 33.768 36.238 34.317 C 34.812 34.751 33.773 35.532 32.909 36.645 Z " fill="rgb(170,224,249)"/><path d=" M 32.088 37.878 C 31.975 37.309 31.911 36.729 31.877 36.185 C 32.195 35.998 32.519 35.81 32.848 35.621 C 32.858 35.98 32.878 36.321 32.909 36.645 C 32.618 37.019 32.347 37.43 32.088 37.878 Z  M 45.142 35.977 C 44.916 35.977 44.648 35.405 44.345 34.722 C 44.345 34.425 44.344 34.108 44.343 33.772 L 44.34 32.447 C 44.34 31.491 44.048 30.779 43.623 30.251 C 43.872 30.145 44.123 30.038 44.377 29.931 C 44.928 31.173 45.308 33.052 45.293 35.877 C 45.245 35.946 45.195 35.977 45.142 35.977 Z " fill="rgb(38,45,55)"/><path d=" M 5.499 46.028 C 5.499 46.028 9.399 44.138 16.469 44.165 C 23.54 44.191 27.072 54.597 54.167 54.597 C 81.262 54.597 87.912 41.117 92.158 41.261 C 96.404 41.404 97.68 41.906 97.68 41.906 C 97.68 41.906 93.041 46.27 86.857 57.265 C 81.635 66.548 71.598 73.271 53.51 73.271 C 35.441 73.271 21.725 60.607 13.229 51.919 C 8.934 47.525 5.499 46.028 5.499 46.028 Z " fill="rgb(217,53,77)"/><path d=" M 7.911 46.234 C 9.381 47.169 11.531 48.752 13.944 51.22 C 23.528 61.021 36.689 72.271 53.51 72.271 C 69.276 72.271 80.201 67.057 85.985 56.775 C 90.329 49.052 93.904 44.575 95.716 42.53 C 94.903 42.423 93.738 42.315 92.124 42.26 C 91.221 42.26 89.829 43.325 88.068 44.673 C 83.08 48.491 73.797 55.597 54.167 55.597 C 35.939 55.597 28.119 50.902 22.945 47.796 C 20.409 46.273 18.576 45.172 16.465 45.165 L 16.32 45.165 C 12.489 45.165 9.645 45.741 7.911 46.234 Z  M 53.51 74.271 C 35.943 74.271 22.373 62.699 12.514 52.618 C 8.431 48.441 5.131 46.959 5.098 46.944 C 4.741 46.787 4.507 46.437 4.5 46.047 C 4.493 45.657 4.712 45.299 5.063 45.129 C 5.229 45.048 9.197 43.165 16.32 43.165 L 16.473 43.165 C 19.134 43.175 21.271 44.457 23.975 46.081 C 28.96 49.074 36.493 53.597 54.167 53.597 C 73.119 53.597 81.716 47.017 86.853 43.086 C 89.075 41.384 90.544 40.26 92.091 40.26 L 92.193 40.261 C 96.486 40.406 97.899 40.918 98.046 40.975 C 98.364 41.1 98.596 41.38 98.661 41.716 C 98.727 42.052 98.614 42.399 98.365 42.633 C 98.321 42.676 93.744 47.059 87.729 57.756 C 81.564 68.715 70.051 74.271 53.51 74.271 Z " fill="rgb(42,45,55)"/><path d=" M 53.51 72.271 C 36.689 72.271 23.528 61.021 13.944 51.22 C 12.185 49.421 10.566 48.092 9.248 47.142 C 10.185 47.024 11.322 46.811 12.678 46.45 C 13.185 47.198 13.48 48.215 14.319 48.5 C 16.415 49.212 18.412 49.783 20.444 50.776 C 24.864 52.936 27.465 56.886 31.404 59.547 C 30.426 60.074 29.762 61.093 29.762 62.265 C 29.762 63.977 31.18 65.365 32.926 65.365 C 34.672 65.365 36.088 63.977 36.088 62.265 C 36.088 62.186 36.085 62.107 36.079 62.029 C 38.794 63.191 41.684 64.086 44.36 64.992 C 47.146 65.937 51.082 67.32 54.449 67.32 C 55.26 67.32 56.037 67.24 56.758 67.054 C 60.006 66.218 63.024 66.556 66.401 65.519 C 67.336 65.232 68.222 64.906 69.071 64.538 C 69.636 65.051 70.392 65.365 71.225 65.365 C 72.971 65.365 74.389 63.977 74.389 62.265 C 74.389 61.978 74.349 61.7 74.274 61.436 C 75.064 60.823 75.837 60.155 76.604 59.427 C 80.166 56.05 83.367 52.482 87.133 49.304 C 89.128 47.618 91.206 45.913 93.32 44.373 C 93.381 44.629 93.475 44.873 93.597 45.1 C 91.654 47.605 89.005 51.405 85.985 56.775 C 80.201 67.057 69.276 72.271 53.51 72.271 Z " fill="rgb(185,49,68)"/><path d=" M 53.51 73.271 C 35.441 73.271 21.725 60.607 13.229 51.919 C 11.034 49.673 9.064 48.185 7.662 47.266 C 8.11 47.255 8.636 47.218 9.248 47.142 C 10.566 48.092 12.185 49.421 13.944 51.22 C 23.528 61.021 36.689 72.271 53.51 72.271 C 69.276 72.271 80.201 67.057 85.985 56.775 C 89.005 51.405 91.654 47.605 93.597 45.1 C 93.761 45.408 93.977 45.684 94.232 45.92 C 92.332 48.389 89.768 52.089 86.857 57.265 C 81.635 66.548 71.598 73.271 53.51 73.271 Z " fill="rgb(41,40,50)"/><path d=" M 97.68 41.906 C 94.844 41.54 90.055 41.076 87.447 34.837 C 85.502 30.192 79.641 17.756 57.554 24.235 C 32.359 31.624 24.071 41.288 16.469 44.165 C 8.297 47.257 5.499 46.028 5.499 46.028 C 5.499 46.028 9.549 44.493 12.713 40.8 C 19.34 33.069 34.994 12.063 44.934 8.309 C 54.086 4.851 60.646 13.853 60.646 13.853 C 60.646 13.853 76.637 2.543 84.502 6.244 C 96.369 11.83 98.389 22.906 97.68 41.906 Z " fill="rgb(217,53,77)"/><path d=" M 49.139 8.518 C 47.859 8.518 46.563 8.762 45.287 9.244 C 37.362 12.238 25.108 27.26 17.785 36.235 C 16.106 38.293 14.655 40.071 13.472 41.451 C 12.11 43.041 10.601 44.248 9.286 45.121 C 10.891 44.894 13.12 44.363 16.115 43.23 C 18.477 42.336 20.947 40.733 24.076 38.704 C 30.837 34.318 40.096 28.313 57.273 23.275 C 61.506 22.033 65.427 21.404 68.924 21.404 C 82.907 21.404 87.018 31.224 88.369 34.451 C 90.455 39.442 94.022 40.377 96.719 40.77 C 97.288 23.082 95.328 12.445 84.076 7.149 C 83.161 6.718 82.049 6.5 80.77 6.5 C 72.865 6.5 61.339 14.587 61.223 14.669 C 60.777 14.984 60.16 14.883 59.838 14.442 C 59.795 14.383 55.424 8.518 49.139 8.518 Z  M 7.368 47.269 C 5.911 47.269 5.221 46.998 5.097 46.944 C 4.726 46.781 4.49 46.409 4.5 46.004 C 4.51 45.598 4.765 45.239 5.144 45.094 C 5.182 45.079 9.006 43.59 11.953 40.15 C 13.121 38.787 14.565 37.019 16.236 34.971 C 24.166 25.249 36.153 10.557 44.58 7.373 C 46.082 6.806 47.616 6.518 49.139 6.518 C 55.047 6.518 59.314 10.738 60.842 12.507 C 63.653 10.628 73.387 4.5 80.77 4.5 C 82.346 4.5 83.744 4.783 84.928 5.339 C 97.416 11.218 99.396 22.739 98.679 41.943 C 98.669 42.224 98.54 42.487 98.326 42.669 C 98.111 42.851 97.834 42.934 97.552 42.898 L 97.343 42.871 C 94.529 42.512 89.292 41.843 86.524 35.223 C 85.3 32.3 81.576 23.404 68.924 23.404 C 65.617 23.404 61.886 24.006 57.835 25.194 C 40.94 30.15 31.822 36.064 25.165 40.381 C 21.936 42.476 19.385 44.131 16.822 45.1 C 12.085 46.893 9.067 47.269 7.368 47.269 Z " fill="rgb(42,45,55)"/><path d=" M 9.286 45.121 C 9.589 44.92 9.902 44.701 10.221 44.464 C 11.322 43.88 12.366 43.1 13.561 42.309 C 15.863 40.784 17.534 39.847 19.134 37.85 C 19.318 37.98 19.555 38.061 19.783 38.061 C 20.064 38.061 20.332 37.938 20.472 37.639 C 21.399 35.662 21.815 33.5 22.674 31.52 C 22.883 31.896 23.142 32.259 23.502 32.664 C 23.657 32.838 23.886 32.921 24.117 32.921 C 24.43 32.921 24.747 32.769 24.889 32.484 C 25.091 32.081 25.293 31.677 25.495 31.272 C 25.883 31.612 26.246 31.766 26.597 31.766 C 27.26 31.766 27.879 31.215 28.53 30.328 L 29.099 30.896 C 29.276 31.074 29.483 31.152 29.689 31.152 C 29.99 31.152 30.288 30.985 30.486 30.718 C 31.011 30.006 31.459 29.527 31.92 29.142 C 31.922 29.142 31.924 29.142 31.926 29.142 C 33.25 29.142 34.385 28.343 34.855 27.211 C 36.01 26.321 36.966 25.183 38.148 24.299 C 38.272 24.478 38.397 24.657 38.531 24.828 C 38.722 25.089 39.036 25.266 39.345 25.266 C 39.551 25.266 39.754 25.188 39.919 25.006 C 41.316 23.458 42.815 22.879 44.625 22.009 C 46.906 20.91 47.926 19.36 50.779 19.229 C 50.825 19.226 50.87 19.225 50.915 19.225 C 51.739 19.225 52.468 19.572 53.173 19.919 C 53.878 20.266 54.559 20.613 55.288 20.613 C 55.677 20.613 56.079 20.514 56.506 20.264 C 59.52 18.498 63.961 18.383 67.399 18.126 C 68.58 18.039 69.596 17.911 70.715 17.547 C 71.278 17.234 71.858 17.077 72.454 17.077 C 73.058 17.077 73.68 17.238 74.318 17.561 C 74.854 17.912 75.08 18.292 75.666 18.345 C 77.59 18.516 79.356 19.334 81.174 19.933 C 83.096 20.566 84.508 20.191 86.248 21.694 C 86.676 22.063 87.076 22.518 87.453 23.033 C 86.068 23.364 85.043 24.584 85.043 26.043 C 85.043 27.753 86.459 29.142 88.211 29.142 C 88.965 29.142 89.658 28.883 90.202 28.451 C 90.868 30.124 91.448 31.76 91.993 33.003 C 93.245 35.854 94.782 38.216 96.738 40.156 C 96.734 40.296 96.729 40.439 96.725 40.58 C 96.618 40.57 96.51 40.564 96.401 40.564 C 96.199 40.564 96.002 40.583 95.811 40.618 C 93.263 40.125 90.228 38.899 88.369 34.451 C 87.214 31.693 84.045 24.122 74.423 21.977 C 73.35 21.536 72.311 21.358 71.297 21.358 C 70.914 21.358 70.535 21.384 70.159 21.43 C 69.756 21.413 69.345 21.404 68.924 21.404 C 65.59 21.404 61.871 21.976 57.864 23.105 L 52.312 23.172 C 51.127 22.718 50.366 22.327 50.344 22.315 C 50.197 22.238 50.038 22.201 49.882 22.201 C 49.522 22.201 49.173 22.397 48.995 22.739 C 48.933 22.858 48.897 22.984 48.885 23.11 C 47.642 23.526 46.75 24.68 46.75 26.043 C 46.75 26.299 46.782 26.547 46.841 26.785 C 36.065 30.927 29.319 35.303 24.076 38.704 C 20.947 40.733 18.477 42.336 16.115 43.23 C 13.12 44.363 10.891 44.894 9.286 45.121 Z " fill="rgb(185,49,68)"/><path d=" M 7.369 46.269 C 6.048 46.269 5.499 46.028 5.499 46.028 C 5.499 46.028 6 45.837 6.78 45.435 C 8.093 45.391 9.182 45.015 10.221 44.464 C 9.902 44.701 9.589 44.92 9.286 45.121 C 10.891 44.894 13.12 44.363 16.115 43.23 C 18.477 42.336 20.947 40.733 24.076 38.704 C 29.319 35.303 36.065 30.927 46.841 26.785 C 46.924 27.116 47.061 27.426 47.243 27.706 C 35.24 32.322 28.215 37.25 22.889 40.661 C 22.637 40.598 22.372 40.564 22.1 40.564 C 20.591 40.564 19.328 41.6 19.013 42.987 C 18.143 43.453 17.302 43.85 16.469 44.165 C 11.916 45.888 9.031 46.269 7.369 46.269 Z  M 94.354 41.299 C 91.899 40.592 89.187 39.001 87.447 34.837 C 86.168 31.782 83.197 25.359 75.031 23.161 C 75.154 22.685 74.912 22.179 74.446 21.986 C 74.438 21.983 74.43 21.98 74.423 21.977 C 84.045 24.122 87.214 31.693 88.369 34.451 C 90.228 38.899 93.263 40.125 95.811 40.618 C 95.262 40.719 94.763 40.959 94.354 41.299 Z  M 97.3 40.691 C 97.115 40.637 96.922 40.6 96.725 40.58 C 96.729 40.439 96.734 40.296 96.738 40.156 C 96.921 40.338 97.108 40.516 97.3 40.691 Z  M 53.046 25.638 C 53.042 25.609 53.038 25.581 53.033 25.553 C 53.079 25.568 53.124 25.582 53.171 25.596 C 53.128 25.61 53.088 25.624 53.046 25.638 Z  M 57.864 23.105 C 61.871 21.976 65.59 21.404 68.924 21.404 C 69.345 21.404 69.756 21.413 70.159 21.43 C 68.81 21.596 67.503 22.031 66.22 22.524 C 65.026 22.628 63.767 22.8 62.438 23.05 L 57.864 23.105 Z " fill="rgb(41,40,50)"/><path d=" M 24.94 28.176 C 31.723 20.495 39.826 12.14 45.786 9.985 C 47.198 9.475 48.543 9.262 49.81 9.262 C 52.718 9.262 55.202 10.39 57.072 11.651 C 58.807 13.058 59.818 14.414 59.838 14.442 C 60.034 14.71 60.338 14.852 60.646 14.852 C 60.648 14.852 60.65 14.852 60.652 14.852 C 60.765 14.987 60.822 15.063 60.822 15.063 C 60.822 15.063 68.409 9.928 75.525 8.073 C 75.331 8.475 75.223 8.924 75.223 9.398 C 75.223 10.594 75.912 11.632 76.924 12.15 C 73.336 12.239 69.716 13.123 66.494 14.436 C 64.654 15.185 62.914 16.657 60.968 16.657 C 60.292 16.657 59.592 16.479 58.854 16.032 C 57.492 15.209 56.357 14.212 54.897 13.523 C 53.915 13.06 52.889 12.867 51.861 12.867 C 50.262 12.867 48.657 13.333 47.201 13.976 C 43.119 15.781 39.377 18.99 35.51 21.223 C 34.717 21.681 33.853 22.356 32.948 23.109 C 32.627 23.002 32.283 22.944 31.926 22.944 C 30.178 22.944 28.762 24.329 28.762 26.043 C 28.762 26.187 28.772 26.328 28.791 26.467 C 27.489 27.379 26.183 28.061 24.94 28.176 Z  M 94.926 21.325 C 92.758 18.793 90.268 16.533 87.341 14.728 C 84.985 13.274 82.358 12.499 79.65 12.241 C 80.767 11.763 81.547 10.67 81.547 9.398 C 81.547 8.655 81.28 7.973 80.835 7.439 C 81.85 7.506 82.799 7.714 83.649 8.096 C 89.848 10.887 93.233 15.178 94.926 21.325 Z " fill="rgb(226,50,98)"/><path d=" M 60.646 14.852 C 60.338 14.852 60.034 14.71 59.838 14.442 C 59.818 14.414 58.807 13.058 57.072 11.651 C 58.956 12.922 60.216 14.329 60.652 14.852 C 60.65 14.852 60.648 14.852 60.646 14.852 Z " fill="rgb(74,81,96)"/><path d=" M 74.063 22.91 C 69.793 21.143 66.078 24.074 61.676 25.242 C 56.435 26.632 49.881 23.202 49.881 23.202 L 74.063 22.91 Z " fill="rgb(217,53,77)"/><path d=" M 58.946 26.574 C 54.233 26.574 49.65 24.209 49.417 24.088 C 48.928 23.832 48.739 23.228 48.995 22.739 C 49.25 22.249 49.857 22.06 50.344 22.315 C 50.406 22.348 56.629 25.548 61.419 24.275 C 62.651 23.949 63.86 23.464 65.028 22.996 C 67.989 21.809 71.05 20.581 74.446 21.986 C 74.955 22.197 75.197 22.782 74.986 23.293 C 74.776 23.803 74.188 24.044 73.68 23.834 C 71.039 22.74 68.598 23.719 65.773 24.852 C 64.548 25.343 63.281 25.851 61.932 26.208 C 60.958 26.467 59.949 26.574 58.946 26.574 Z " fill="rgb(42,45,55)"/><path d=" M 58.953 24.574 C 56.487 24.574 53.979 23.811 52.312 23.172 L 64.967 23.02 C 63.818 23.481 62.629 23.954 61.419 24.275 C 60.625 24.486 59.791 24.574 58.953 24.574 Z " fill="rgb(185,49,68)"/><path d=" M 58.952 25.573 C 56.607 25.573 54.263 24.94 52.546 24.328 C 52.204 23.824 51.716 23.424 51.14 23.186 L 52.312 23.172 C 53.979 23.811 56.487 24.574 58.953 24.574 C 59.791 24.574 60.625 24.486 61.419 24.275 C 62.629 23.954 63.818 23.481 64.967 23.02 L 67.891 22.985 C 65.887 23.643 63.867 24.661 61.676 25.242 C 60.793 25.476 59.872 25.573 58.952 25.573 Z  M 67.891 22.985 C 69.02 22.614 70.143 22.357 71.288 22.357 C 72.195 22.357 73.115 22.518 74.063 22.91 L 70.475 22.953 C 70.392 22.947 70.309 22.944 70.225 22.944 C 70.114 22.944 70.004 22.949 69.896 22.96 L 67.891 22.985 Z " fill="rgb(41,40,50)"/><path d=" M 64.032 37.93 C 64.033 37.93 64.215 37.284 64.696 36.514 C 65.152 35.724 65.869 34.833 66.58 34.013 C 66.931 33.611 67.281 33.209 67.612 32.832 C 67.93 32.457 68.233 32.105 68.485 31.782 C 68.737 31.458 68.945 31.16 69.088 30.935 C 69.231 30.709 69.332 30.566 69.332 30.566 C 69.332 30.566 69.401 30.712 69.483 30.991 C 69.528 31.132 69.558 31.303 69.569 31.502 C 69.595 31.706 69.598 31.933 69.564 32.176 C 69.532 32.677 69.364 33.233 69.11 33.781 C 68.854 34.33 68.49 34.848 68.091 35.322 C 67.274 36.252 66.291 36.949 65.477 37.349 C 64.681 37.764 64.032 37.93 64.032 37.93 Z " fill="rgb(170,224,249)"/><path d=" M 49.748 39.697 C 49.748 39.697 49.805 39.553 49.924 39.328 C 49.986 39.218 50.057 39.08 50.153 38.941 C 50.257 38.801 50.322 38.623 50.404 38.461 C 50.485 38.292 50.565 38.117 50.662 37.955 C 50.756 37.77 50.854 37.561 50.967 37.367 C 51.201 36.989 51.423 36.534 51.701 36.136 C 52.227 35.294 52.86 34.482 53.471 33.922 C 54.059 33.352 54.61 33.069 54.61 33.069 C 54.61 33.069 54.643 33.687 54.475 34.479 C 54.405 34.884 54.278 35.333 54.094 35.802 C 53.923 36.269 53.662 36.749 53.387 37.211 C 53.069 37.661 52.76 38.107 52.354 38.465 C 52.158 38.647 51.971 38.813 51.772 38.964 C 51.551 39.114 51.331 39.236 51.134 39.341 C 50.748 39.582 50.403 39.595 50.153 39.651 C 49.903 39.69 49.748 39.697 49.748 39.697 Z " fill="rgb(170,224,249)"/><path d=" M 66.978 38.372 C 66.978 38.372 67.035 38.267 67.145 38.116 L 67.268 37.856 C 67.297 37.775 67.344 37.641 67.391 37.55 C 67.552 37.097 67.776 36.581 68.084 36.077 C 68.393 35.574 68.785 35.097 69.18 34.743 C 69.362 34.561 69.551 34.409 69.689 34.292 C 69.824 34.177 69.922 34.102 69.922 34.102 C 69.922 34.102 69.992 34.192 70.078 34.369 C 70.158 34.542 70.244 34.802 70.27 35.102 C 70.354 35.713 70.184 36.475 69.786 37.126 C 69.578 37.448 69.329 37.747 69.028 37.98 C 68.737 38.215 68.395 38.385 68.076 38.465 C 67.771 38.548 67.428 38.554 67.256 38.495 C 67.082 38.428 66.978 38.372 66.978 38.372 Z " fill="rgb(170,224,249)"/><path d=" M 53.137 39.402 C 53.137 39.402 53.117 39.298 53.109 39.139 C 53.106 39.061 53.099 38.963 53.109 38.867 C 53.127 38.763 53.092 38.656 53.071 38.572 L 52.999 38.332 C 52.981 38.236 52.965 38.129 52.962 38.034 C 52.964 37.854 52.951 37.619 53 37.421 C 53.071 36.988 53.272 36.536 53.557 36.172 C 53.818 35.811 54.168 35.573 54.167 35.573 C 54.166 35.573 54.49 35.843 54.703 36.243 C 54.949 36.64 55.061 37.201 54.969 37.772 C 54.895 38.066 54.821 38.341 54.637 38.602 C 54.553 38.731 54.465 38.843 54.365 38.949 C 54.244 39.074 54.112 39.17 53.994 39.246 C 53.762 39.426 53.56 39.383 53.401 39.406 C 53.241 39.412 53.137 39.402 53.137 39.402 Z " fill="rgb(170,224,249)"/><path d=" M 78.611 35.721 C 78.611 35.721 78.695 35.832 78.809 36.025 C 78.848 36.14 78.973 36.207 79.048 36.263 C 79.112 36.316 79.258 36.37 79.35 36.426 C 79.461 36.476 79.602 36.508 79.727 36.551 C 79.876 36.583 80.004 36.628 80.174 36.658 C 80.337 36.692 80.505 36.728 80.676 36.764 C 80.856 36.798 81.037 36.833 81.219 36.868 C 81.963 37.005 82.74 37.161 83.362 37.317 C 83.668 37.374 83.94 37.436 84.153 37.465 C 84.375 37.479 84.502 37.488 84.502 37.488 C 84.502 37.488 84.465 37.609 84.324 37.823 C 84.181 38.011 83.926 38.256 83.574 38.445 C 83.232 38.637 82.797 38.793 82.328 38.859 C 81.858 38.937 81.35 38.918 80.844 38.832 C 80.34 38.724 79.84 38.552 79.404 38.249 C 78.969 37.976 78.6 37.547 78.434 37.112 C 78.354 36.883 78.299 36.695 78.317 36.473 C 78.319 36.269 78.347 36.114 78.414 36.029 C 78.528 35.833 78.611 35.721 78.611 35.721 Z " fill="rgb(170,224,249)"/><path d=" M 36.496 39.108 C 36.496 39.108 36.603 39.046 36.782 38.969 C 36.871 38.934 36.981 38.885 37.102 38.853 C 37.216 38.806 37.378 38.791 37.488 38.727 C 37.607 38.666 37.722 38.599 37.832 38.554 C 37.94 38.52 38.055 38.45 38.172 38.387 C 38.285 38.317 38.41 38.305 38.518 38.224 C 38.627 38.152 38.742 38.104 38.86 38.054 C 38.975 37.983 39.087 37.911 39.214 37.858 C 39.341 37.812 39.457 37.712 39.588 37.654 C 39.856 37.54 40.104 37.37 40.374 37.273 C 40.628 37.156 40.862 37.049 41.047 36.99 C 41.232 36.927 41.356 36.898 41.356 36.898 C 41.356 36.898 41.374 37.018 41.375 37.215 C 41.369 37.409 41.367 37.694 41.268 37.993 C 41.172 38.298 41.047 38.652 40.78 38.967 C 40.647 39.123 40.537 39.305 40.348 39.433 C 40.174 39.574 39.981 39.7 39.789 39.825 C 39.571 39.914 39.35 40 39.127 40.063 C 38.911 40.145 38.668 40.122 38.452 40.133 C 38.025 40.167 37.582 39.987 37.281 39.852 C 37.118 39.794 37.043 39.677 36.939 39.597 C 36.843 39.516 36.764 39.425 36.697 39.355 C 36.567 39.209 36.496 39.108 36.496 39.108 Z " fill="rgb(170,224,249)"/><path d=" M 54.185 60.982 C 54.053 60.982 53.921 60.981 53.788 60.979 C 53.29 59.909 52.188 59.166 50.908 59.166 C 49.858 59.166 48.927 59.668 48.352 60.44 C 38.277 58.733 27.219 53.493 27.219 52.067 C 27.219 51.846 27.334 51.751 27.576 51.751 C 29.219 51.751 36.738 56.168 54.185 56.168 C 71.746 56.168 78.201 51.448 79.521 51.448 C 79.705 51.448 79.789 51.54 79.789 51.75 C 79.789 53.464 65.224 60.982 54.185 60.982 Z " fill="rgb(226,50,98)"/><path d=" M 31.92 29.142 C 30.322 29.139 29.002 27.975 28.791 26.467 C 30.21 25.474 31.624 24.209 32.948 23.109 C 34.193 23.525 35.088 24.68 35.088 26.043 C 35.088 26.456 35.005 26.851 34.855 27.211 C 34.582 27.422 34.298 27.619 33.996 27.795 C 33.15 28.292 32.524 28.636 31.92 29.142 Z " fill="rgb(223,98,99)"/><path d=" M 31.926 29.142 C 31.924 29.142 31.922 29.142 31.92 29.142 C 32.524 28.636 33.15 28.292 33.996 27.795 C 34.298 27.619 34.582 27.422 34.855 27.211 C 34.385 28.343 33.25 29.142 31.926 29.142 Z " fill="rgb(195,87,89)"/><path d=" M 28.791 26.467 C 28.772 26.328 28.762 26.187 28.762 26.043 C 28.762 24.329 30.178 22.944 31.926 22.944 C 32.283 22.944 32.627 23.002 32.948 23.109 C 31.624 24.209 30.21 25.474 28.791 26.467 Z " fill="rgb(230,98,119)"/><path d=" M 49.908 29.142 C 49.353 29.142 48.831 29.001 48.378 28.754 C 49.137 28.256 49.989 27.808 50.709 27.499 L 52.896 27.066 C 52.465 28.274 51.292 29.142 49.908 29.142 Z " fill="rgb(187,229,250)"/><path d=" M 48.378 28.754 C 48.237 28.677 48.102 28.59 47.975 28.494 C 49.56 27.891 51.232 27.294 53 26.705 C 52.973 26.829 52.938 26.949 52.896 27.066 L 50.709 27.499 C 49.989 27.808 49.137 28.256 48.378 28.754 Z " fill="rgb(57,65,78)"/><path d=" M 47.975 28.494 C 47.687 28.275 47.439 28.008 47.243 27.706 C 49.059 27.008 50.991 26.315 53.046 25.638 C 53.063 25.77 53.072 25.906 53.072 26.043 C 53.072 26.27 53.047 26.492 53 26.705 C 51.232 27.294 49.56 27.891 47.975 28.494 Z " fill="rgb(62,65,78)"/><path d=" M 46.841 26.785 C 46.782 26.547 46.75 26.299 46.75 26.043 C 46.75 24.68 47.642 23.526 48.885 23.11 C 48.849 23.501 49.047 23.894 49.417 24.088 C 49.513 24.138 50.347 24.568 51.624 25.058 C 49.945 25.627 48.354 26.203 46.841 26.785 Z " fill="rgb(195,87,89)"/><path d=" M 47.243 27.706 C 47.061 27.426 46.924 27.116 46.841 26.785 C 48.354 26.203 49.945 25.627 51.624 25.058 C 52.048 25.22 52.522 25.389 53.033 25.553 C 53.038 25.581 53.042 25.609 53.046 25.638 C 50.991 26.315 49.059 27.008 47.243 27.706 Z " fill="rgb(61,60,73)"/><path d=" M 53.033 25.553 C 52.522 25.389 52.048 25.22 51.624 25.058 C 50.347 24.568 49.513 24.138 49.417 24.088 C 49.047 23.894 48.849 23.501 48.885 23.11 C 49.206 23.002 49.55 22.944 49.908 22.944 C 50.345 22.944 50.761 23.03 51.14 23.186 L 49.881 23.202 C 49.881 23.202 50.939 23.756 52.546 24.328 C 52.791 24.69 52.961 25.105 53.033 25.553 Z " fill="rgb(62,65,78)"/><path d=" M 52.546 24.328 C 50.939 23.756 49.881 23.202 49.881 23.202 L 51.14 23.186 C 51.716 23.424 52.204 23.824 52.546 24.328 Z " fill="rgb(61,60,73)"/><path d=" M 70.225 29.142 C 68.541 29.142 67.166 27.854 67.066 26.232 C 67.325 26.204 67.583 26.19 67.841 26.19 C 69.532 26.19 71.187 26.802 72.445 28.25 C 71.873 28.801 71.089 29.142 70.225 29.142 Z " fill="rgb(254,254,254)"/><path d=" M 72.445 28.25 C 71.187 26.802 69.532 26.19 67.841 26.19 C 67.583 26.19 67.325 26.204 67.066 26.232 C 67.063 26.169 67.061 26.106 67.061 26.043 C 67.061 25.297 67.329 24.614 67.775 24.08 C 68.608 23.786 69.418 23.552 70.222 23.436 C 70.908 23.47 71.566 23.532 72.196 23.618 C 72.923 24.186 73.389 25.06 73.389 26.043 C 73.389 26.907 73.027 27.688 72.445 28.25 Z " fill="rgb(187,229,250)"/><path d=" M 72.196 23.618 C 71.566 23.532 70.908 23.47 70.222 23.436 C 70.576 23.385 70.929 23.357 71.282 23.357 C 71.47 23.357 71.659 23.365 71.848 23.382 C 71.969 23.453 72.086 23.532 72.196 23.618 Z " fill="rgb(62,65,78)"/><path d=" M 67.775 24.08 C 68.29 23.464 69.043 23.047 69.896 22.96 L 70.475 22.953 C 70.974 22.992 71.44 23.143 71.848 23.382 C 71.659 23.365 71.47 23.357 71.282 23.357 C 70.929 23.357 70.576 23.385 70.222 23.436 C 69.418 23.552 68.608 23.786 67.775 24.08 Z " fill="rgb(62,65,78)"/><path d=" M 69.896 22.96 C 70.004 22.949 70.114 22.944 70.225 22.944 C 70.309 22.944 70.392 22.947 70.475 22.953 L 69.896 22.96 Z " fill="rgb(61,60,73)"/><path d=" M 90.202 28.451 C 89.428 26.508 88.539 24.516 87.453 23.033 C 87.696 22.975 87.95 22.944 88.211 22.944 C 89.957 22.944 91.373 24.329 91.373 26.043 C 91.373 27.015 90.916 27.882 90.202 28.451 Z " fill="rgb(223,98,99)"/><path d=" M 88.211 29.142 C 86.459 29.142 85.043 27.753 85.043 26.043 C 85.043 24.584 86.068 23.364 87.453 23.033 C 88.539 24.516 89.428 26.508 90.202 28.451 C 89.658 28.883 88.965 29.142 88.211 29.142 Z " fill="rgb(195,87,89)"/><path d=" M 23.559 45.182 C 22.75 44.424 21.93 43.68 21.09 42.958 C 21.453 42.742 21.822 42.516 22.199 42.282 C 22.611 42.36 23.035 42.427 23.465 42.483 C 23.546 43.003 23.569 43.745 23.569 44.969 C 23.569 45.042 23.566 45.113 23.559 45.182 Z " fill="rgb(254,254,254)"/><path d=" M 24.033 46.116 C 24.014 46.104 23.994 46.093 23.975 46.081 C 23.945 46.063 23.915 46.045 23.885 46.027 C 23.845 45.958 23.813 45.878 23.79 45.786 C 23.742 45.588 23.67 45.406 23.602 45.222 C 23.588 45.209 23.574 45.195 23.559 45.182 C 23.566 45.113 23.569 45.042 23.569 44.969 C 23.569 43.745 23.546 43.003 23.465 42.483 C 23.999 42.553 24.542 42.605 25.086 42.636 C 25.201 42.958 25.264 43.304 25.264 43.665 C 25.264 44.662 24.782 45.549 24.033 46.116 Z " fill="rgb(62,65,78)"/><path d=" M 23.426 45.752 C 22.172 45.002 21.029 44.345 19.88 43.88 C 19.881 43.804 19.881 43.729 19.882 43.654 C 20.278 43.435 20.68 43.203 21.09 42.958 C 21.93 43.68 22.75 44.424 23.559 45.182 C 23.54 45.389 23.492 45.579 23.426 45.752 Z " fill="rgb(187,229,250)"/><path d=" M 23.885 46.027 C 23.73 45.934 23.577 45.843 23.426 45.752 C 23.492 45.579 23.54 45.389 23.559 45.182 C 23.574 45.195 23.588 45.209 23.602 45.222 C 23.67 45.406 23.742 45.588 23.79 45.786 C 23.813 45.878 23.845 45.958 23.885 46.027 Z  M 19.88 43.88 C 19.8 43.848 19.72 43.817 19.64 43.786 C 19.72 43.743 19.801 43.698 19.882 43.654 C 19.881 43.729 19.881 43.804 19.88 43.88 Z " fill="rgb(57,65,78)"/><path d=" M 25.086 42.636 C 24.542 42.605 23.999 42.553 23.465 42.483 C 23.035 42.427 22.611 42.36 22.199 42.282 C 22.728 41.952 23.272 41.605 23.836 41.241 C 23.847 41.242 23.858 41.242 23.869 41.242 C 23.934 41.245 23.999 41.247 24.064 41.247 C 24.07 41.247 24.075 41.247 24.081 41.247 C 24.537 41.605 24.888 42.085 25.086 42.636 Z " fill="rgb(62,65,78)"/><path d=" M 24.064 41.247 C 23.999 41.247 23.934 41.245 23.869 41.242 C 23.858 41.242 23.847 41.242 23.836 41.241 C 23.879 41.214 23.922 41.186 23.964 41.159 C 24.004 41.187 24.043 41.217 24.081 41.247 C 24.075 41.247 24.07 41.247 24.064 41.247 Z " fill="rgb(57,65,78)"/><path d=" M 22.1 46.762 C 20.518 46.762 19.206 45.622 18.974 44.137 C 19.195 44.024 19.417 43.907 19.64 43.786 C 19.72 43.817 19.8 43.848 19.88 43.88 C 21.029 44.345 22.172 45.002 23.426 45.752 C 23.577 45.843 23.73 45.934 23.885 46.027 C 23.915 46.045 23.945 46.063 23.975 46.081 C 23.994 46.093 24.014 46.104 24.033 46.116 C 23.499 46.521 22.828 46.762 22.1 46.762 Z " fill="rgb(62,65,78)"/><path d=" M 18.974 44.137 C 18.95 43.983 18.938 43.825 18.938 43.665 C 18.938 43.432 18.964 43.205 19.013 42.987 C 20.228 42.337 21.501 41.55 22.889 40.661 C 23.283 40.76 23.646 40.931 23.964 41.159 C 23.922 41.186 23.879 41.214 23.836 41.241 C 23.272 41.605 22.728 41.952 22.199 42.282 C 21.822 42.516 21.453 42.742 21.09 42.958 C 20.68 43.203 20.278 43.435 19.882 43.654 C 19.801 43.698 19.72 43.743 19.64 43.786 C 19.417 43.907 19.195 44.024 18.974 44.137 Z " fill="rgb(62,65,78)"/><path d=" M 19.013 42.987 C 19.328 41.6 20.591 40.564 22.1 40.564 C 22.372 40.564 22.637 40.598 22.889 40.661 C 21.501 41.55 20.228 42.337 19.013 42.987 Z " fill="rgb(61,60,73)"/><path d=" M 42.73 43.968 C 42.619 43.782 42.496 43.598 42.359 43.415 C 42.168 43.161 41.914 42.936 41.615 42.739 C 42.085 42.622 42.527 42.479 42.932 42.312 C 43.106 42.663 43.215 43.052 43.242 43.462 C 43.048 43.61 42.879 43.779 42.73 43.968 Z " fill="rgb(62,65,78)"/><path d=" M 40.084 46.762 C 38.338 46.762 36.922 45.373 36.922 43.665 C 36.922 43.595 36.924 43.526 36.929 43.457 C 38.807 43.622 40.404 44.142 40.758 44.614 C 41.139 45.123 41.37 45.621 41.507 46.432 C 41.079 46.643 40.596 46.762 40.084 46.762 Z " fill="rgb(254,254,254)"/><path d=" M 41.507 46.432 C 41.37 45.621 41.139 45.123 40.758 44.614 C 40.404 44.142 38.807 43.622 36.929 43.457 C 36.939 43.307 36.96 43.161 36.991 43.017 C 37.603 43.085 38.137 43.101 38.504 43.101 L 38.505 43.101 C 39.608 43.101 40.669 42.974 41.615 42.739 C 41.914 42.936 42.168 43.161 42.359 43.415 C 42.496 43.598 42.619 43.782 42.73 43.968 C 42.273 44.547 42.014 45.312 41.868 46.223 C 41.753 46.3 41.632 46.37 41.507 46.432 Z " fill="rgb(62,65,78)"/><path d=" M 41.868 46.223 C 42.014 45.312 42.273 44.547 42.73 43.968 C 42.879 43.779 43.048 43.61 43.242 43.462 C 43.246 43.529 43.248 43.597 43.248 43.665 C 43.248 44.726 42.701 45.665 41.868 46.223 Z " fill="rgb(62,65,78)"/><path d=" M 38.505 41.101 L 38.504 41.101 C 38.438 41.101 38.373 41.1 38.307 41.099 C 38.814 40.761 39.426 40.564 40.084 40.564 C 40.491 40.564 40.879 40.639 41.236 40.776 C 40.428 40.985 39.487 41.101 38.505 41.101 Z " fill="rgb(254,254,254)"/><path d=" M 38.505 43.101 L 38.504 43.101 C 38.137 43.101 37.603 43.085 36.991 43.017 C 37.163 42.223 37.645 41.541 38.307 41.099 C 38.373 41.1 38.438 41.101 38.504 41.101 L 38.505 41.101 C 39.487 41.101 40.428 40.985 41.236 40.776 C 41.98 41.06 42.586 41.613 42.932 42.312 C 42.527 42.479 42.085 42.622 41.615 42.739 C 40.669 42.974 39.608 43.101 38.505 43.101 Z " fill="rgb(62,65,78)"/><path d=" M 63.54 44.04 C 63.53 44.036 63.519 44.031 63.509 44.026 C 63.52 44.028 63.53 44.03 63.541 44.032 C 63.54 44.035 63.54 44.038 63.54 44.04 Z  M 61.839 43.452 C 61.304 43.321 60.738 43.219 60.172 43.144 C 60.363 42.918 60.548 42.669 60.719 42.395 C 60.956 42.768 61.206 43.051 61.434 43.208 C 61.562 43.296 61.698 43.377 61.839 43.452 Z " fill="rgb(62,65,78)"/><path d=" M 60.401 46.762 C 59.124 46.762 58.026 46.023 57.526 44.96 C 59.593 44.971 61.714 45.343 62.666 45.826 C 62.092 46.403 61.29 46.762 60.401 46.762 Z " fill="rgb(254,254,254)"/><path d=" M 62.666 45.826 C 61.714 45.343 59.593 44.971 57.526 44.96 C 57.501 44.908 57.478 44.856 57.457 44.802 C 57.797 44.721 58.127 44.619 58.433 44.491 C 58.956 44.272 59.597 43.817 60.172 43.144 C 60.738 43.219 61.304 43.321 61.839 43.452 C 62.343 43.72 62.919 43.903 63.509 44.026 C 63.519 44.031 63.53 44.036 63.54 44.04 C 63.455 44.731 63.137 45.352 62.666 45.826 Z " fill="rgb(62,65,78)"/><path d=" M 57.376 42.751 C 57.668 41.818 58.397 41.074 59.329 40.746 C 58.871 41.821 58.096 42.464 57.661 42.646 C 57.573 42.683 57.477 42.718 57.376 42.751 Z " fill="rgb(254,254,254)"/><path d=" M 57.457 44.802 C 57.315 44.45 57.237 44.066 57.237 43.665 C 57.237 43.347 57.285 43.04 57.376 42.751 C 57.477 42.718 57.573 42.683 57.661 42.646 C 58.096 42.464 58.871 41.821 59.329 40.746 C 59.526 40.677 59.732 40.626 59.944 40.596 C 60.131 41.292 60.414 41.917 60.719 42.395 C 60.548 42.669 60.363 42.918 60.172 43.144 C 59.597 43.817 58.956 44.272 58.433 44.491 C 58.127 44.619 57.797 44.721 57.457 44.802 Z " fill="rgb(62,65,78)"/><path d=" M 62.888 41.748 C 62.779 41.696 62.683 41.642 62.598 41.584 C 62.536 41.527 62.441 41.397 62.336 41.211 C 62.542 41.367 62.727 41.547 62.888 41.748 Z " fill="rgb(254,254,254)"/><path d=" M 63.541 44.032 C 63.53 44.03 63.52 44.028 63.509 44.026 C 62.919 43.903 62.343 43.72 61.839 43.452 C 61.698 43.377 61.562 43.296 61.434 43.208 C 61.206 43.051 60.956 42.768 60.719 42.395 C 60.414 41.917 60.131 41.292 59.944 40.596 C 60.093 40.575 60.246 40.564 60.401 40.564 C 61.13 40.564 61.802 40.805 62.336 41.211 C 62.441 41.397 62.536 41.527 62.598 41.584 C 62.683 41.642 62.779 41.696 62.888 41.748 C 63.311 42.275 63.563 42.941 63.563 43.665 C 63.563 43.789 63.555 43.912 63.541 44.032 Z " fill="rgb(62,65,78)"/><path d=" M 78.385 46.762 C 77.549 46.762 76.789 46.444 76.224 45.925 C 76.273 44.309 76.427 43.673 76.818 43.023 C 77.026 42.677 78.356 42.156 79.888 42.156 C 80.606 42.156 81.024 42.276 81.193 42.363 C 81.3 42.544 81.483 43.011 81.468 43.462 C 81.464 43.561 81.464 43.722 81.466 43.931 C 81.463 44.079 81.461 44.232 81.459 44.392 C 81.125 45.75 79.875 46.762 78.385 46.762 Z " fill="rgb(254,254,254)"/><path d=" M 76.224 45.925 C 75.607 45.36 75.223 44.556 75.223 43.665 C 75.223 42.472 75.907 41.438 76.913 40.919 C 77.721 41.413 78.884 41.663 80.372 41.663 C 80.511 41.663 80.653 41.661 80.795 41.657 C 81.148 42.064 81.396 42.563 81.497 43.112 C 81.481 43.364 81.471 43.636 81.466 43.931 C 81.464 43.722 81.464 43.561 81.468 43.462 C 81.483 43.011 81.3 42.544 81.193 42.363 C 81.024 42.276 80.606 42.156 79.888 42.156 C 78.356 42.156 77.026 42.677 76.818 43.023 C 76.427 43.673 76.273 44.309 76.224 45.925 Z " fill="rgb(62,65,78)"/><path d=" M 81.459 44.392 C 81.461 44.232 81.463 44.079 81.466 43.931 C 81.471 43.636 81.481 43.364 81.497 43.112 C 81.53 43.292 81.547 43.476 81.547 43.665 C 81.547 43.915 81.517 44.159 81.459 44.392 Z " fill="rgb(62,65,78)"/><path d=" M 80.372 41.663 C 78.884 41.663 77.721 41.413 76.913 40.919 C 77.352 40.692 77.853 40.564 78.385 40.564 C 79.35 40.564 80.215 40.988 80.795 41.657 C 80.653 41.661 80.511 41.663 80.372 41.663 Z " fill="rgb(62,65,78)"/><path d=" M 93.32 44.373 C 93.265 44.145 93.236 43.908 93.236 43.665 C 93.236 43.186 93.347 42.733 93.545 42.328 C 93.967 42.354 94.348 42.384 94.69 42.416 C 95.016 42.496 95.333 42.562 95.639 42.618 C 95.41 42.878 95.155 43.174 94.875 43.509 C 94.341 43.727 93.831 44.001 93.354 44.348 C 93.342 44.356 93.331 44.364 93.32 44.373 Z " fill="rgb(223,98,99)"/><path d=" M 95.071 46.476 C 94.761 46.335 94.478 46.146 94.232 45.92 C 95.242 44.608 96.063 43.644 96.651 42.99 C 96.039 43.112 95.444 43.278 94.875 43.509 C 95.155 43.174 95.41 42.878 95.639 42.618 C 96.265 42.733 96.842 42.807 97.343 42.871 L 97.552 42.898 C 97.595 42.903 97.639 42.906 97.682 42.906 C 97.918 42.906 98.145 42.823 98.326 42.669 C 98.334 42.662 98.342 42.655 98.35 42.648 C 98.199 42.795 96.986 43.994 95.071 46.476 Z  M 94.69 42.416 C 94.348 42.384 93.967 42.354 93.545 42.328 C 93.579 42.257 93.616 42.188 93.655 42.121 C 94.007 42.236 94.353 42.333 94.69 42.416 Z  M 98.679 41.948 C 98.679 41.946 98.679 41.945 98.679 41.943 C 98.679 41.942 98.679 41.94 98.679 41.939 C 98.679 41.942 98.679 41.945 98.679 41.948 Z " fill="rgb(62,65,78)"/><path d=" M 93.597 45.1 C 93.475 44.873 93.381 44.629 93.32 44.373 C 93.331 44.364 93.342 44.356 93.354 44.348 C 93.831 44.001 94.341 43.727 94.875 43.509 C 94.493 43.967 94.065 44.496 93.597 45.1 Z " fill="rgb(195,87,89)"/><path d=" M 94.232 45.92 C 93.977 45.684 93.761 45.408 93.597 45.1 C 94.065 44.496 94.493 43.967 94.875 43.509 C 95.444 43.278 96.039 43.112 96.651 42.99 C 96.063 43.644 95.242 44.608 94.232 45.92 Z " fill="rgb(61,60,73)"/><path d=" M 97.682 42.906 C 97.639 42.906 97.595 42.903 97.552 42.898 L 97.343 42.871 C 96.842 42.807 96.265 42.733 95.639 42.618 C 95.333 42.562 95.016 42.496 94.69 42.416 C 94.353 42.333 94.007 42.236 93.655 42.121 C 93.839 41.809 94.076 41.531 94.354 41.299 C 95.577 41.652 96.736 41.784 97.68 41.906 C 97.691 41.618 97.699 41.338 97.707 41.053 C 97.569 40.934 97.434 40.814 97.3 40.691 C 97.838 40.847 98.317 41.141 98.694 41.53 C 98.689 41.666 98.684 41.802 98.679 41.939 C 98.679 41.94 98.679 41.942 98.679 41.943 C 98.679 41.945 98.679 41.946 98.679 41.948 C 98.668 42.216 98.548 42.469 98.35 42.648 C 98.342 42.655 98.334 42.662 98.326 42.669 C 98.145 42.823 97.918 42.906 97.682 42.906 Z " fill="rgb(62,65,78)"/><path d=" M 96.719 40.77 C 96.426 40.727 96.122 40.678 95.811 40.618 C 96.002 40.583 96.199 40.564 96.401 40.564 C 96.51 40.564 96.618 40.57 96.725 40.58 C 96.723 40.644 96.721 40.706 96.719 40.77 Z " fill="rgb(195,87,89)"/><path d=" M 97.68 41.906 C 96.736 41.784 95.577 41.652 94.354 41.299 C 94.763 40.959 95.262 40.719 95.811 40.618 C 96.122 40.678 96.426 40.727 96.719 40.77 C 96.721 40.706 96.723 40.644 96.725 40.58 C 96.922 40.6 97.115 40.637 97.3 40.691 C 97.434 40.814 97.569 40.934 97.707 41.053 C 97.699 41.338 97.691 41.618 97.68 41.906 Z " fill="rgb(61,60,73)"/><path d=" M 15.801 62.048 C 15.746 61.993 15.69 61.936 15.635 61.881 C 15.69 61.93 15.745 61.98 15.8 62.029 C 15.8 62.035 15.801 62.042 15.801 62.048 Z " fill="rgb(208,164,76)"/><path d=" M 36.079 62.029 C 34.458 61.336 32.899 60.547 31.487 59.604 C 31.459 59.585 31.432 59.566 31.404 59.547 C 31.855 59.304 32.374 59.166 32.926 59.166 C 34.591 59.166 35.956 60.427 36.079 62.029 Z " fill="rgb(223,98,99)"/><path d=" M 32.926 65.365 C 31.18 65.365 29.762 63.977 29.762 62.265 C 29.762 61.093 30.426 60.074 31.404 59.547 C 31.432 59.566 31.459 59.585 31.487 59.604 C 32.899 60.547 34.458 61.336 36.079 62.029 C 36.085 62.107 36.088 62.186 36.088 62.265 C 36.088 63.977 34.672 65.365 32.926 65.365 Z " fill="rgb(195,87,89)"/><path d=" M 50.908 65.365 C 49.162 65.365 47.746 63.977 47.746 62.265 C 47.746 61.583 47.971 60.952 48.352 60.44 C 50.224 60.758 52.061 60.953 53.788 60.979 C 53.971 61.371 54.072 61.806 54.072 62.265 C 54.072 63.977 52.656 65.365 50.908 65.365 Z " fill="rgb(223,98,99)"/><path d=" M 53.788 60.979 C 52.061 60.953 50.224 60.758 48.352 60.44 C 48.927 59.668 49.858 59.166 50.908 59.166 C 52.188 59.166 53.29 59.909 53.788 60.979 Z " fill="rgb(230,98,119)"/><path d=" M 69.071 64.538 C 68.448 63.971 68.059 63.163 68.059 62.265 C 68.059 60.552 69.475 59.166 71.225 59.166 C 72.678 59.166 73.904 60.127 74.274 61.436 C 72.653 62.695 70.956 63.72 69.071 64.538 Z " fill="rgb(223,98,99)"/><path d=" M 71.225 65.365 C 70.392 65.365 69.636 65.051 69.071 64.538 C 70.956 63.72 72.653 62.695 74.274 61.436 C 74.349 61.7 74.389 61.978 74.389 62.265 C 74.389 63.977 72.971 65.365 71.225 65.365 Z " fill="rgb(195,87,89)"/></g></svg>