<?xml version="1.0" encoding="UTF-8" standalone="no"?><!-- Generator: Gravit.io -->
<svg xmlns="http://www.w3.org/2000/svg" style="isolation:isolate"
     viewBox="0 0 85.3 124.834" width="85.3pt" height="124.834pt">
    <defs>
        <clipPath id="_clipPath_zXMKjS8TWqw3lyMEU2ES8XUU7uimEZ7K">
            <rect width="85.3" height="124.834"/>
        </clipPath>
    </defs>
    <g clip-path="url(#_clipPath_zXMKjS8TWqw3lyMEU2ES8XUU7uimEZ7K)">
        <path d=" M 11.213 46.327 L 11.15 46.539 C 10.833 47.69 10.987 48.919 11.576 49.957 L 22.863 69.806 C 22.251 71.089 22.256 72.642 23.012 73.971 L 25.132 77.699 C 23.925 79.1 23.664 81.162 24.63 82.86 L 46.902 122.028 L 46.952 122.114 L 47.206 122.539 C 47.897 123.693 49.068 124.478 50.397 124.678 L 50.878 124.75 C 51.084 124.781 51.533 124.834 52.212 124.834 C 54.869 124.834 60.703 124.05 69.926 118.806 C 81.467 112.243 84.3 106.596 84.751 105.529 L 84.944 105.074 C 85.489 103.784 85.403 102.315 84.711 101.098 L 62.196 61.501 C 61.606 60.463 60.627 59.702 59.477 59.386 C 58.827 59.208 58.154 59.179 57.504 59.293 L 55.384 55.564 C 54.794 54.526 53.816 53.765 52.664 53.449 C 52.407 53.378 52.144 53.33 51.881 53.306 L 40.594 33.456 C 40.004 32.419 39.026 31.658 37.875 31.342 L 37.658 31.288 L 30.553 18.791 C 26.857 12.292 17.795 0 9.949 0 C 8.594 0 7.33 0.328 6.194 0.974 C 1.271 3.772 0.269 11.78 0.066 15.094 C -0.173 19.018 0.035 26.669 4.106 33.829 L 11.213 46.327 Z "
              fill="rgb(254,254,254)"/>
        <path d=" M 39.406 44.984 L 22.521 54.585 C 22.521 54.585 15.029 41.408 9.408 31.524 C 3.789 21.64 6.137 8.042 9.432 6.169 C 12.726 4.295 21.258 13.069 26.293 21.923 C 31.327 30.776 39.406 44.984 39.406 44.984 Z "
              fill="rgb(217,51,99)"/>
        <path d=" M 10.47 6.914 C 10.252 6.914 10.074 6.955 9.927 7.038 C 8.766 7.698 7.373 11.029 7.076 15.903 C 6.744 21.353 7.911 26.866 10.277 31.03 L 22.896 53.221 L 38.043 44.609 L 25.424 22.417 C 20.891 14.449 13.625 6.914 10.47 6.914 Z  M 22.146 55.949 L 8.539 32.018 C 5.043 25.869 4.871 19.206 5.079 15.781 C 5.397 10.566 6.912 6.452 8.938 5.3 C 9.388 5.044 9.903 4.914 10.47 4.914 C 14.979 4.914 22.645 13.486 27.162 21.429 L 40.769 45.359 L 22.146 55.949 Z "
              fill="rgb(32,31,31)"/>
        <path d=" M 11.328 29.92 C 10.267 29.92 9.519 29.564 9.519 29.564 C 9.519 29.564 11.735 29.432 13.39 26.515 C 15.058 26.428 16.383 25.075 16.383 23.421 C 16.383 22.359 15.839 21.423 15.009 20.865 C 15.03 20.67 15.049 20.472 15.066 20.268 C 15.618 13.647 12.401 8.676 11.144 7.01 C 11.257 7.039 11.374 7.076 11.494 7.119 C 13.6 9.021 18.878 14.488 17.879 20.723 C 16.619 28.582 13.385 29.92 11.328 29.92 Z "
              fill="rgb(32,31,31)"/>
        <path d=" M 11.494 7.119 C 11.374 7.076 11.257 7.039 11.144 7.01 C 10.844 6.613 10.656 6.403 10.656 6.403 C 10.656 6.403 10.981 6.655 11.494 7.119 Z "
              fill="rgb(32,31,31)"/>
        <path d=" M 80.207 103.801 C 80.207 103.801 78.23 108.467 67.728 114.439 C 57.227 120.41 52.204 119.724 52.204 119.724 L 30.427 81.425 L 58.429 65.502 L 80.207 103.801 Z "
              fill="rgb(161,53,105)"/>
        <path d=" M 31.79 81.8 L 52.799 118.747 C 54.158 118.734 58.925 118.294 67.234 113.57 C 75.469 108.887 78.31 105.036 79.062 103.811 L 58.054 66.866 L 31.79 81.8 Z  M 52.733 120.748 C 52.289 120.748 52.068 120.714 52.068 120.714 L 51.589 120.642 L 51.335 120.218 L 29.063 81.05 L 58.804 64.139 L 81.32 103.736 L 81.128 104.191 C 81.042 104.394 78.896 109.239 68.222 115.308 C 59.589 120.218 54.514 120.748 52.733 120.748 Z "
              fill="rgb(32,31,31)"/>
        <path d=" M 52.799 118.747 L 50.881 115.375 C 53.267 114.78 55.213 114.037 56.853 112.929 C 57.375 113.939 58.444 114.63 59.679 114.63 C 61.424 114.63 62.84 113.242 62.84 111.529 C 62.84 110.203 61.99 109.074 60.797 108.631 C 61.391 107.632 61.939 106.488 62.459 105.173 C 64.412 100.233 54.393 79.086 48.429 72.34 L 53.716 69.333 C 55.065 71.16 56.34 73.042 57.546 74.973 C 56.911 75.54 56.513 76.356 56.513 77.265 C 56.513 78.973 57.929 80.364 59.679 80.364 C 59.999 80.364 60.308 80.317 60.599 80.23 C 62.831 84.364 64.777 88.663 66.461 93.049 C 66.381 93.322 66.338 93.611 66.338 93.909 C 66.338 94.918 66.83 95.815 67.594 96.381 C 69.089 101.642 68.994 106.578 66.87 111.967 C 66.554 112.768 66.19 113.576 65.778 114.374 C 58.366 118.345 54.076 118.735 52.799 118.747 Z "
              fill="rgb(137,48,87)"/>
        <path d=" M 52.733 119.748 C 52.379 119.748 52.204 119.724 52.204 119.724 L 49.867 115.614 C 50.214 115.537 50.552 115.457 50.881 115.375 L 52.799 118.747 C 54.076 118.735 58.366 118.345 65.778 114.374 C 65.5 114.912 65.201 115.445 64.881 115.967 C 65.781 115.514 66.728 115.007 67.728 114.439 C 59.189 119.294 54.272 119.748 52.733 119.748 Z  M 80.207 103.801 L 58.429 65.502 L 56.702 66.485 L 56.702 66.485 L 58.429 65.502 L 80.207 103.801 L 80.207 103.801 Z  M 48.429 72.34 L 48.428 72.339 L 53.716 69.332 L 53.716 69.333 L 48.429 72.34 Z "
              fill="rgb(32,31,31)"/>
        <path d=" M 65.778 114.374 C 66.19 113.576 66.554 112.768 66.87 111.967 C 68.994 106.578 69.089 101.642 67.594 96.381 C 68.124 96.775 68.785 97.008 69.502 97.008 C 71.248 97.008 72.668 95.62 72.668 93.909 C 72.668 92.195 71.248 90.808 69.502 90.808 C 68.058 90.808 66.84 91.754 66.461 93.049 C 64.777 88.663 62.831 84.364 60.599 80.23 C 61.895 79.843 62.84 78.66 62.84 77.265 C 62.84 75.55 61.424 74.164 59.679 74.164 C 58.857 74.164 58.108 74.47 57.546 74.973 C 56.34 73.042 55.065 71.16 53.716 69.333 L 58.054 66.866 L 79.062 103.811 C 78.31 105.036 75.469 108.887 67.234 113.57 C 66.736 113.853 66.251 114.121 65.778 114.374 Z "
              fill="rgb(118,44,72)"/>
        <path d=" M 64.881 115.967 C 65.201 115.445 65.5 114.912 65.778 114.374 C 66.251 114.121 66.736 113.853 67.234 113.57 C 75.469 108.887 78.31 105.036 79.062 103.811 L 58.054 66.866 L 53.716 69.333 L 53.716 69.332 L 57.196 67.354 L 56.702 66.485 L 58.429 65.502 L 80.207 103.801 C 80.207 103.801 78.23 108.467 67.728 114.439 L 67.728 114.439 C 66.728 115.007 65.781 115.514 64.881 115.967 Z "
              fill="rgb(32,31,31)"/>
        <path d=" M 55.833 66.979 L 33.023 79.949 L 28.808 72.536 L 51.618 59.565 L 55.833 66.979 Z "
              fill="rgb(189,191,193)"/>
        <path d=" M 30.172 72.911 L 33.398 78.585 L 54.47 66.604 L 51.243 60.929 L 30.172 72.911 Z  M 32.648 81.313 L 27.445 72.161 L 51.993 58.202 L 57.196 67.354 L 32.648 81.313 Z "
              fill="rgb(32,31,31)"/>
        <path d=" M 33.398 78.585 L 30.172 72.911 L 30.98 72.452 L 34.206 78.125 L 33.398 78.585 Z "
              fill="rgb(217,218,219)"/>
        <path d=" M 33.023 79.949 L 28.808 72.536 L 29.617 72.076 L 30.111 72.946 L 30.172 72.911 L 33.398 78.585 L 34.206 78.125 L 34.701 78.995 L 33.023 79.949 Z "
              fill="rgb(32,31,31)"/>
        <path d=" M 37.471 76.269 L 42.32 69.757 L 40.707 66.921 L 45.571 64.155 L 47.828 68.124 L 40.514 74.387 C 40.05 74.57 39.64 74.858 39.315 75.221 L 37.471 76.269 Z "
              fill="rgb(175,177,180)"/>
        <path d=" M 35.986 78.264 L 37.471 76.269 L 39.315 75.221 C 39.174 75.378 39.05 75.548 38.944 75.731 L 35.986 78.264 Z "
              fill="rgb(32,31,31)"/>
        <path d=" M 40.514 74.387 L 47.828 68.124 L 45.571 64.155 L 50.065 61.599 C 50.595 62.237 51.38 62.664 52.268 62.732 L 54.47 66.604 L 41.066 74.225 C 40.875 74.263 40.691 74.317 40.514 74.387 Z "
              fill="rgb(163,165,168)"/>
        <path d=" M 35.986 78.264 L 38.944 75.731 C 38.756 76.054 38.626 76.414 38.567 76.796 L 35.986 78.264 Z  M 42.832 74.371 C 42.479 74.237 42.095 74.164 41.693 74.164 C 41.478 74.164 41.269 74.185 41.066 74.225 L 54.47 66.604 L 52.268 62.732 C 52.35 62.738 52.433 62.742 52.517 62.742 C 52.809 62.742 53.092 62.703 53.361 62.63 L 55.833 66.979 L 42.832 74.371 Z "
              fill="rgb(32,31,31)"/>
        <path d=" M 49.941 60.52 L 30.486 71.582 L 17.373 48.521 L 36.828 37.459 L 49.941 60.52 Z "
              fill="rgb(212,213,215)"/>
        <path d=" M 18.736 48.896 L 30.861 70.218 L 48.578 60.145 L 36.453 38.822 L 18.736 48.896 Z  M 30.111 72.946 L 16.01 48.146 L 37.203 36.095 L 51.304 60.895 L 30.111 72.946 Z "
              fill="rgb(32,31,31)"/>
        <path d=" M 30.861 70.218 L 18.736 48.896 L 23.064 46.435 L 29.584 57.901 C 29.24 58.397 29.039 58.997 29.039 59.643 C 29.039 61.354 30.455 62.742 32.201 62.742 C 32.246 62.742 32.291 62.741 32.335 62.739 L 35.189 67.757 L 30.861 70.218 Z "
              fill="rgb(230,231,232)"/>
        <path d=" M 30.486 71.582 L 17.373 48.521 L 22.57 45.565 L 23.064 46.435 L 18.736 48.896 L 30.861 70.218 L 35.189 67.757 L 35.683 68.627 L 30.486 71.582 Z "
              fill="rgb(32,31,31)"/>
        <path d=" M 39.719 65.182 L 27.594 43.859 L 32.457 41.094 L 44.582 62.417 L 39.719 65.182 Z "
              fill="rgb(196,198,200)"/>
        <path d=" M 40.213 66.051 L 39.719 65.182 L 44.582 62.417 L 45.076 63.285 L 49.558 60.737 C 49.558 60.737 49.558 60.737 49.558 60.737 L 40.213 66.051 Z  M 27.594 43.859 L 27.099 42.99 L 31.963 40.225 L 32.457 41.094 L 27.594 43.859 Z "
              fill="rgb(32,31,31)"/>
        <path d=" M 31.963 40.224 L 31.963 40.224 L 36.828 37.459 L 31.963 40.225" fill="rgb(32,31,31)"/>
        <path d=" M 44.582 62.417 L 32.457 41.094 L 36.453 38.822 L 48.578 60.145 L 44.582 62.417 Z "
              fill="rgb(182,184,186)"/>
        <path d=" M 45.076 63.285 L 44.582 62.417 L 48.578 60.145 L 36.453 38.822 L 32.457 41.094 L 31.963 40.224 L 36.828 37.459 L 38.574 40.529 C 38.546 40.696 38.531 40.867 38.531 41.042 C 38.531 42.337 39.344 43.448 40.497 43.91 L 49.359 59.495 C 49.356 59.544 49.355 59.594 49.355 59.643 C 49.355 60.028 49.427 60.397 49.558 60.737 L 45.076 63.285 Z "
              fill="rgb(32,31,31)"/>
        <path d=" M 51.351 111.312 C 50.306 111.312 49.29 110.765 48.736 109.791 L 35.199 85.984 C 34.379 84.542 34.883 82.707 36.326 81.886 C 36.795 81.619 37.305 81.492 37.809 81.492 C 38.855 81.492 39.871 82.039 40.425 83.013 L 53.962 106.819 C 54.783 108.263 54.277 110.098 52.834 110.919 C 52.365 111.185 51.855 111.312 51.351 111.312 Z "
              fill="rgb(191,49,120)"/>
    </g>
</svg>