<?xml version="1.0" encoding="UTF-8" standalone="no"?><!-- Generator: Gravit.io --><svg xmlns="http://www.w3.org/2000/svg" xmlns:xlink="http://www.w3.org/1999/xlink" style="isolation:isolate" viewBox="138.317 820.378 1163.054 863.272" width="1163.054pt" height="863.272pt"><g><path d=" M 633.364 1565.12 C 571.82 1565.12 485.263 1512.33 376.094 1408.24 C 297.03 1332.85 226.985 1249.27 220.154 1231.86 C 213.128 1213.97 214.639 1195.37 224.51 1178.08 C 262.074 1112.3 426.608 1058.06 742.313 1007.36 C 753.714 1005.54 761.952 1004.21 765.748 1003.49 C 790.683 998.735 816.247 992.908 840.968 987.266 C 904.734 972.723 970.677 957.683 1038.42 957.683 C 1061.51 957.683 1084.08 959.471 1105.53 962.994 C 1105.98 963.052 1106.56 963.057 1107.22 963.057 L 1107.29 963.057 C 1116.23 963.057 1134.78 959.973 1152.73 956.986 C 1177.88 952.806 1203.89 948.484 1223.49 948.484 C 1247.38 948.484 1261.66 956.148 1265.95 971.262 C 1275.92 1006.44 1215.28 1151.87 1178.25 1235.43 C 1141.26 1318.9 1074.32 1461.46 1041.55 1478.47 C 989.863 1505.3 903.788 1517.68 820.549 1529.64 C 759.093 1538.48 701.047 1546.83 664.706 1559.91 C 655.108 1563.36 644.565 1565.12 633.364 1565.12 Z " fill="rgb(103,38,45)"/><path d=" M 739.01 1541.3 C 672.185 1541.29 482.622 1499.06 450.525 1491.29 C 445.975 1490.19 442.155 1487.11 440.109 1482.9 C 438.058 1478.7 437.994 1473.8 439.933 1469.53 C 457.799 1430.25 491.776 1394.42 501.764 1384.38 C 541.842 1344.07 591.635 1313.36 634.967 1302.24 C 650.348 1298.29 667.737 1296.2 685.246 1296.2 C 707.639 1296.2 728.106 1299.59 744.637 1305.91 C 783.55 1239.95 904.602 1221.76 974.36 1221.76 C 991.344 1221.76 1006.97 1222.72 1020.81 1224.63 C 1088.28 1233.89 1133.1 1261.37 1166.1 1313.72 C 1169.98 1319.88 1169.12 1327.89 1164.02 1333.09 C 1126.26 1371.55 1111 1380.27 1102.8 1383.48 C 1051.61 1403.6 1003.69 1428.38 957.361 1452.34 C 895.423 1484.38 831.38 1517.51 759.994 1539 C 754.795 1540.57 748.13 1541.3 739.024 1541.3 L 739.01 1541.3 Z " fill="rgb(233,158,192)"/><path d=" M 974.36 1206.07 C 924.465 1206.07 871.959 1214.14 830.307 1228.21 C 788.554 1242.32 757.378 1262.46 738.372 1287.34 C 718.074 1281.63 697.904 1280.51 685.246 1280.51 C 666.44 1280.51 647.707 1282.76 631.069 1287.03 C 585.116 1298.84 532.62 1331.09 490.636 1373.31 C 480.181 1383.83 444.595 1421.37 425.643 1463.03 C 421.77 1471.55 421.901 1481.36 425.999 1489.78 C 430.097 1498.19 437.736 1504.34 446.832 1506.54 C 481.112 1514.84 669.788 1556.99 739.015 1556.99 C 749.704 1556.99 757.811 1556.05 764.525 1554.03 C 837.294 1532.11 902 1498.65 964.572 1466.28 C 1010.55 1442.5 1058.1 1417.91 1108.55 1398.09 C 1118.88 1394.04 1135.8 1384.23 1175.22 1344.08 C 1185.42 1333.7 1187.14 1317.66 1179.38 1305.35 C 1144.16 1249.49 1094.45 1218.89 1022.94 1209.08 C 1008.4 1207.08 992.055 1206.07 974.36 1206.07 Z  M 974.36 1237.46 C 990.662 1237.46 1005.75 1238.4 1018.67 1240.17 C 1088.54 1249.77 1125.98 1279.52 1152.82 1322.09 C 1128.08 1347.29 1108.21 1364.5 1097.07 1368.88 C 976.114 1416.4 878.161 1487.03 755.468 1523.97 C 751.75 1525.09 746.148 1525.6 739.015 1525.6 C 676.452 1525.6 496.975 1486.38 454.218 1476.03 C 467.743 1446.3 493.502 1414.95 512.893 1395.44 C 543.898 1364.26 591.167 1329.69 638.869 1317.44 C 652.862 1313.85 669.047 1311.89 685.246 1311.89 C 710.162 1311.9 735.107 1316.52 752.091 1326.88 C 774.776 1262.29 890.692 1237.46 974.36 1237.46 Z " fill="rgb(55,53,53)"/><path d=" M 364.06 1227.4 C 356.757 1227.4 348.528 1226.69 342.901 1221.5 C 331.656 1211.09 329.015 1192.4 326.682 1175.9 C 326.053 1171.45 325.459 1167.25 324.811 1164.44 C 323.973 1160.81 322.901 1156.86 321.785 1152.75 C 315.042 1127.81 303.749 1086.07 339.374 1068.68 C 356.173 1060.57 376.026 1055.75 392.537 1055.75 C 417.156 1055.75 435.007 1065.99 442.807 1084.59 C 449.687 1101.07 471.446 1157.62 462.768 1194.1 C 457.219 1217.76 425.215 1221.37 399.495 1224.27 L 394.886 1224.79 C 384.82 1226.07 373.162 1227.4 364.06 1227.4 Z " fill="rgb(254,254,254)"/><path d=" M 392.537 1041.58 C 373.722 1041.58 352.119 1046.8 333.274 1055.9 C 312.417 1066.08 300.743 1085.28 300.28 1110.02 C 299.973 1126.34 304.49 1143.04 308.119 1156.44 C 309.221 1160.51 310.258 1164.35 311.023 1167.65 C 311.52 1169.84 312.1 1173.93 312.66 1177.89 C 315.193 1195.79 318.341 1218.07 333.284 1231.89 C 342.555 1240.46 354.604 1241.55 364.06 1241.55 C 373.897 1241.55 386.033 1240.19 396.635 1238.84 L 401.079 1238.34 C 428.021 1235.3 468.727 1230.71 476.566 1197.28 C 485.95 1157.85 465.224 1101.53 455.879 1079.15 C 445.862 1055.26 422.783 1041.58 392.537 1041.58 Z  M 392.537 1069.91 C 408.932 1069.91 423.543 1075.27 429.746 1090.06 C 443.022 1121.86 455.105 1165.12 448.99 1190.82 C 445.453 1205.91 413.867 1208.31 393.239 1210.73 C 383.076 1212.01 372.153 1213.23 364.06 1213.23 C 358.448 1213.23 354.194 1212.65 352.514 1211.09 C 342.273 1201.62 341.581 1174.16 338.614 1161.27 C 332.655 1135.52 316.114 1095.8 345.585 1081.41 C 358.857 1075 376.552 1069.91 392.537 1069.91 Z " fill="rgb(55,53,53)"/><path d=" M 499.241 1228.68 C 491.075 1228.68 481.877 1227.9 475.587 1222.08 C 463.022 1210.48 460.074 1189.58 457.473 1171.14 C 456.776 1166.17 456.113 1161.49 455.392 1158.35 C 454.452 1154.3 453.258 1149.89 452.011 1145.29 C 444.469 1117.43 431.85 1070.8 471.65 1051.36 C 490.408 1042.3 512.59 1036.9 531.05 1036.9 C 558.558 1036.9 578.504 1048.35 587.221 1069.13 C 594.909 1087.54 619.22 1150.72 609.52 1191.48 C 603.303 1217.92 567.523 1221.95 538.773 1225.19 L 533.672 1225.77 C 522.446 1227.2 509.433 1228.68 499.246 1228.68 L 499.241 1228.68 Z " fill="rgb(254,254,254)"/><path d=" M 531.05 1021.08 C 510.018 1021.08 485.876 1026.92 464.824 1037.09 C 441.536 1048.46 428.489 1069.92 427.972 1097.56 C 427.636 1115.79 432.683 1134.44 436.742 1149.43 C 437.97 1153.97 439.129 1158.26 439.987 1161.95 C 440.542 1164.37 441.185 1168.93 441.809 1173.35 C 444.63 1193.36 448.143 1218.27 464.858 1233.71 C 475.202 1243.27 488.668 1244.5 499.241 1244.5 C 510.256 1244.5 523.806 1242.98 535.635 1241.47 L 540.542 1240.91 C 570.651 1237.52 616.156 1232.4 624.935 1195.06 C 635.425 1150.97 612.273 1088.05 601.827 1063.05 C 590.641 1036.36 564.848 1021.08 531.05 1021.08 Z  M 531.05 1052.72 C 549.375 1052.72 565.696 1058.71 572.629 1075.25 C 587.464 1110.77 600.96 1159.11 594.129 1187.82 C 590.168 1204.67 554.889 1207.36 531.835 1210.06 C 520.493 1211.5 508.288 1212.86 499.241 1212.86 C 492.965 1212.86 488.21 1212.2 486.33 1210.47 C 474.885 1199.89 474.12 1169.21 470.812 1154.81 C 464.147 1126.03 445.668 1081.66 478.593 1065.58 C 493.418 1058.41 513.185 1052.72 531.05 1052.72 Z " fill="rgb(55,53,53)"/><path d=" M 1063.01 1076.35 C 1055.69 1076.35 1047.46 1075.65 1041.83 1070.44 C 1030.59 1060.05 1027.95 1041.35 1025.62 1024.84 C 1024.99 1020.41 1024.4 1016.21 1023.75 1013.4 C 1022.92 1009.77 1021.84 1005.82 1020.73 1001.71 C 1013.98 976.767 1002.68 935.028 1038.33 917.644 C 1055.1 909.532 1074.96 904.704 1091.48 904.704 C 1116.09 904.704 1133.95 914.945 1141.75 933.537 C 1148.63 950.029 1170.38 1006.59 1161.72 1043.05 C 1156.15 1066.73 1124.11 1070.34 1098.38 1073.23 L 1093.83 1073.75 C 1083.79 1075.03 1072.14 1076.35 1063.01 1076.35 Z " fill="rgb(254,254,254)"/><path d=" M 1091.48 890.541 C 1072.65 890.541 1051.05 895.764 1032.21 904.87 C 1011.36 915.038 999.68 934.239 999.217 958.979 C 998.91 975.3 1003.43 991.992 1007.06 1005.4 C 1008.16 1009.47 1009.2 1013.32 1009.96 1016.62 C 1010.46 1018.79 1011.04 1022.88 1011.6 1026.83 C 1014.13 1044.74 1017.28 1067.03 1032.23 1080.85 C 1041.48 1089.41 1053.54 1090.52 1063.01 1090.52 C 1072.88 1090.52 1085 1089.15 1095.59 1087.8 L 1099.96 1087.3 C 1126.91 1084.27 1167.65 1079.69 1175.51 1046.26 C 1184.89 1006.81 1164.17 950.492 1154.83 928.11 C 1144.8 904.217 1121.72 890.541 1091.48 890.541 Z  M 1091.48 918.862 C 1107.88 918.862 1122.49 924.222 1128.69 939.018 C 1141.96 970.813 1154.05 1014.08 1147.94 1039.78 C 1144.39 1054.86 1112.81 1057.27 1092.19 1059.68 C 1082.03 1060.98 1071.1 1062.19 1063.01 1062.19 C 1057.38 1062.19 1053.14 1061.6 1051.46 1060.05 C 1041.21 1050.58 1040.52 1023.12 1037.56 1010.23 C 1031.59 984.474 1015.05 944.753 1044.53 930.37 C 1057.8 923.958 1075.49 918.862 1091.48 918.862 Z " fill="rgb(55,53,53)"/><path d=" M 644.696 1209.27 C 639.922 1209.27 632.93 1208.76 627.372 1204.3 C 614.451 1193.96 609.505 1173.66 605.135 1155.74 C 603.946 1150.85 602.821 1146.23 601.793 1143.13 C 600.473 1139.18 598.87 1134.89 597.199 1130.42 C 586.519 1101.8 570.383 1058.55 606.271 1036.09 C 625.944 1023.88 649.296 1016.61 668.784 1016.61 C 691.488 1016.61 709.134 1026.4 718.469 1044.18 C 727.668 1061.77 757.261 1122.28 752.369 1163.15 C 749.227 1189.99 713.953 1197.16 688.194 1202.39 L 683.361 1203.38 C 669.422 1206.42 654.967 1209.27 644.696 1209.27 Z " fill="rgb(254,254,254)"/><path d=" M 668.784 1001.19 C 646.538 1001.19 620.146 1009.32 598.187 1022.95 C 585.876 1030.66 565.881 1048.96 569.111 1085.67 C 570.675 1103.47 577.091 1120.65 582.748 1135.82 C 584.4 1140.24 585.959 1144.42 587.172 1148.05 C 587.981 1150.5 589.082 1155.02 590.149 1159.39 C 594.855 1178.7 600.711 1202.72 617.749 1216.36 C 628.151 1224.7 640.604 1224.7 644.696 1224.7 C 656.38 1224.7 671.736 1221.71 686.611 1218.46 L 691.269 1217.51 C 719.931 1211.68 763.248 1202.88 767.692 1164.91 C 772.958 1120.95 744.594 1060.85 732.155 1037.05 C 719.999 1013.91 697.5 1001.19 668.784 1001.19 Z  M 668.784 1032.04 C 683.897 1032.04 697.427 1037.29 704.813 1051.35 C 722.625 1085.42 740.525 1132.3 737.051 1161.32 C 735.059 1178.34 701.821 1183.79 680.218 1188.28 C 667.43 1191.07 653.446 1193.84 644.696 1193.84 C 641.12 1193.84 638.416 1193.38 637.023 1192.26 C 625.038 1182.68 621.086 1152.3 616.434 1138.28 C 607.079 1110.27 584.863 1067.69 614.456 1049.17 C 629.33 1039.93 650.246 1032.04 668.784 1032.04 Z " fill="rgb(55,53,53)"/><path d=" M 929.162 1128.79 C 920.996 1128.79 911.803 1128.01 905.513 1122.2 C 892.948 1110.59 890 1089.69 887.399 1071.25 C 886.697 1066.29 886.034 1061.6 885.313 1058.47 C 884.373 1054.4 883.174 1049.98 881.927 1045.38 C 874.395 1017.52 861.781 970.906 901.571 951.481 C 920.333 942.414 942.516 937.021 960.967 937.021 C 988.479 937.021 1008.43 948.465 1017.15 969.245 C 1024.83 987.67 1049.14 1050.87 1039.44 1091.61 C 1033.23 1118.04 997.458 1122.07 968.713 1125.31 L 963.603 1125.89 C 952.363 1127.32 939.345 1128.79 929.166 1128.79 L 929.162 1128.79 Z " fill="rgb(254,254,254)"/><path d=" M 960.967 921.201 C 939.939 921.201 915.802 927.033 894.745 937.206 C 871.462 948.572 858.419 970.019 857.898 997.653 C 857.557 1015.88 862.6 1034.53 866.653 1049.51 C 867.886 1054.06 869.05 1058.36 869.903 1062.06 C 870.463 1064.48 871.107 1069.05 871.73 1073.46 C 874.556 1093.48 878.073 1118.39 894.784 1133.83 C 905.128 1143.39 918.589 1144.62 929.162 1144.62 C 940.163 1144.62 953.722 1143.09 965.566 1141.59 L 970.482 1141.03 C 1000.59 1137.64 1046.09 1132.52 1054.86 1095.18 C 1065.34 1051.12 1042.19 988.187 1031.76 963.174 C 1020.56 936.48 994.764 921.201 960.967 921.201 Z  M 960.967 952.845 C 979.295 952.845 995.617 958.833 1002.55 975.364 C 1017.38 1010.89 1030.89 1059.22 1024.05 1087.94 C 1020.09 1104.79 984.811 1107.48 961.766 1110.17 C 950.419 1111.62 938.205 1112.98 929.162 1112.98 C 922.887 1112.98 918.131 1112.32 916.256 1110.58 C 904.811 1100.01 904.041 1069.32 900.733 1054.92 C 894.078 1026.15 875.589 981.77 908.514 965.697 C 923.345 958.536 943.106 952.845 960.967 952.845 Z " fill="rgb(55,53,53)"/><path d=" M 784.758 1177.63 C 779.974 1177.63 772.973 1177.08 767.414 1172.33 C 754.567 1161.36 751.424 1140.23 748.652 1121.59 C 747.901 1116.55 747.195 1111.8 746.444 1108.64 C 745.466 1104.51 744.233 1100.09 742.956 1095.47 C 734.898 1066.41 722.723 1022.5 760.232 999.617 C 781.845 986.555 806.654 978.779 826.659 978.779 C 849.893 978.779 867.106 989.059 875.126 1007.72 C 882.843 1025.79 907.306 1087.92 898.429 1130.09 C 892.928 1156.4 858.473 1163.85 830.79 1169.83 L 825.684 1170.94 C 810.722 1174.4 795.287 1177.63 784.758 1177.63 Z " fill="rgb(254,254,254)"/><path d=" M 826.659 962.959 C 803.896 962.959 776.023 971.588 752.106 986.039 C 704.282 1015.21 719.522 1070.17 727.707 1099.7 C 728.968 1104.26 730.167 1108.57 731.044 1112.27 C 731.648 1114.8 732.335 1119.43 733.003 1123.91 C 736.023 1144.24 739.785 1169.54 757.139 1184.37 C 767.779 1193.45 780.559 1193.45 784.758 1193.45 C 796.159 1193.45 810.776 1190.62 829.206 1186.37 L 834.132 1185.3 C 862.873 1179.08 906.312 1169.7 913.922 1133.31 C 923.476 1087.92 900.153 1026.03 889.684 1001.53 C 879.145 977.001 856.183 962.959 826.659 962.959 Z  M 826.659 994.604 C 841.669 994.604 854.541 999.894 860.588 1013.97 C 875.486 1048.83 889.254 1096.86 882.945 1126.83 C 879.272 1144.41 844.841 1150.51 822.274 1155.49 C 808.627 1158.65 793.66 1161.81 784.758 1161.81 C 781.416 1161.81 778.932 1161.36 777.689 1160.3 C 766.333 1150.6 765.265 1119.36 761.835 1104.98 C 755.02 1076.23 736.369 1032.7 768.471 1013.12 C 784.91 1003.19 807.526 994.604 826.659 994.604 Z " fill="rgb(55,53,53)"/><path d=" M 705.505 1666.37 C 701.836 1666.37 698.313 1666.27 694.976 1666.07 C 591.795 1660.33 466.047 1549.47 400.284 1483.9 C 308.032 1391.93 219.652 1276.19 180.359 1195.91 C 180.344 1195.88 180.159 1195.5 180.091 1195.34 C 176.345 1186.95 179.847 1177.03 188.134 1172.88 C 190.614 1171.63 193.255 1171.05 195.857 1171.05 C 201.981 1171.05 207.886 1174.31 211.009 1180.01 C 212.442 1182.46 255.545 1255.02 366.063 1325.64 C 481.574 1399.43 661.885 1474.14 783 1474.14 C 799.473 1474.14 814.44 1472.71 827.486 1469.89 C 938.955 1445.77 1078.2 1296.25 1158.14 1161.02 C 1223.22 1050.96 1245.35 941.664 1245.57 940.572 C 1247.19 932.387 1254.38 926.653 1262.49 926.653 C 1263.32 926.653 1264.16 926.716 1265 926.838 C 1274.1 928.163 1280.57 936.382 1279.71 945.542 C 1264.91 1103.47 1165.06 1515.76 1005.8 1598.92 C 972.854 1616.3 920.47 1628.93 881.308 1628.93 C 870.609 1628.93 860.865 1628.02 852.354 1626.23 C 851.151 1625.99 849.991 1625.73 848.865 1625.46 C 848.008 1626.14 847.145 1626.8 846.264 1627.47 C 811.799 1652.78 748.057 1666.37 705.505 1666.37 Z " fill="rgb(237,61,89)"/><path d=" M 1262.48 909.381 C 1259.84 909.381 1257.25 909.683 1254.75 910.258 C 1249.43 911.482 1244.58 913.932 1240.52 917.293 C 1236.87 920.304 1233.82 924.066 1231.64 928.407 C 1230.2 931.272 1229.14 934.366 1228.55 937.62 C 1226.96 945.162 1204.5 1048.66 1143.27 1152.23 C 1065.24 1284.23 930.458 1429.93 823.833 1453.01 C 811.988 1455.57 798.249 1456.87 783 1456.87 C 665.193 1456.87 488.761 1383.53 375.359 1311.08 C 270.838 1244.3 228.271 1175.19 226.02 1171.45 C 219.764 1160.23 208.032 1153.75 195.838 1153.75 C 190.834 1153.75 185.752 1154.85 180.944 1157.15 C 163.818 1165.35 156.52 1185.83 164.607 1203.01 C 164.685 1203.18 164.768 1203.35 164.852 1203.52 C 204.909 1285.36 294.619 1402.94 388.089 1496.13 C 470.549 1578.35 590.572 1677.56 694.094 1683.32 C 697.607 1683.53 701.5 1683.65 705.505 1683.65 C 750.561 1683.65 814.717 1670.01 852.914 1643.92 C 861.543 1645.44 871.072 1646.2 881.308 1646.2 C 923.617 1646.2 978.151 1633.03 1013.92 1614.17 C 1086.54 1576.25 1152.8 1475.06 1210.73 1313.47 C 1262.3 1169.59 1289.29 1027.1 1296.81 948.221 C 1296.98 946.813 1297.07 945.381 1297.07 943.929 C 1297.07 925.425 1282.53 910.317 1264.25 909.425 C 1263.66 909.396 1263.06 909.381 1262.48 909.381 Z  M 195.862 1188.3 L 195.871 1188.32 L 195.862 1188.31 L 195.862 1188.3 Z  M 1262.51 943.929 C 1245.92 1120.94 1142.53 1508.05 997.809 1583.61 C 969.444 1598.57 920.202 1611.66 881.308 1611.66 C 872.129 1611.66 863.525 1610.93 855.915 1609.33 C 851.681 1608.49 848.091 1607.35 844.733 1606.23 C 842.128 1608.64 839.316 1611.09 835.896 1613.65 C 805.528 1635.95 745.616 1649.1 705.505 1649.1 C 702.201 1649.1 699.025 1649.01 696.013 1648.83 C 533.034 1639.76 269.61 1338.98 195.871 1188.32 C 196.656 1189.85 241.947 1266.83 356.762 1340.19 C 476.941 1416.97 659.956 1491.41 783 1491.41 C 800.354 1491.41 816.519 1489.93 831.141 1486.77 C 948.704 1461.33 1089.7 1310.74 1173.01 1169.81 C 1240.34 1055.93 1262.51 943.929 1262.51 943.929 Z  M 1262.51 943.929 L 1262.54 943.929 L 1262.51 943.929 Z " fill="rgb(55,53,53)"/><path d=" M 234.668 1205.98 C 191.794 1205.98 165.499 1192.58 156.51 1166.16 C 154.547 1160.4 155.765 1154.04 159.711 1149.4 C 163.02 1145.51 167.847 1143.33 172.861 1143.33 C 173.821 1143.33 174.786 1143.41 175.745 1143.57 C 177.485 1143.86 179.35 1144.02 181.304 1144.02 C 202.016 1144.02 243.15 1127.9 321.512 1051.15 C 327.203 1045.78 332.757 1040.46 338.404 1035.07 C 383.032 992.387 433.614 944.012 489.94 922.136 C 513.097 913.25 537.53 908.758 562.621 908.758 C 609.364 908.758 656.657 923.978 700.423 952.952 C 743.828 883.798 808.159 842.2 879.345 837.977 C 883.354 837.757 887.321 837.65 891.32 837.65 C 948.338 837.65 1009.82 859.223 1064.07 878.264 C 1071.44 880.845 1078.68 883.389 1085.78 885.83 C 1107.75 893.83 1173.73 917.859 1221.07 917.859 C 1237.1 917.859 1249.19 915.184 1257 909.912 C 1259.9 907.954 1263.27 906.96 1266.66 906.96 C 1269.16 906.96 1271.67 907.501 1274.01 908.602 C 1279.52 911.194 1283.25 916.49 1283.85 922.546 C 1285.22 936.509 1280.84 950.053 1271.18 961.727 C 1227.25 1014.82 1072.07 1032.85 873.767 1050.9 C 817.065 1056.06 763.477 1060.94 725.052 1066.91 C 687.585 1077.35 636.769 1095.03 582.992 1113.74 C 458.754 1156.97 317.936 1205.98 234.668 1205.98 Z " fill="rgb(237,61,89)"/><path d=" M 891.296 820.378 C 886.97 820.378 882.648 820.496 878.458 820.729 C 806.551 824.992 741.431 864.076 695.337 929.425 C 652.872 904.509 607.591 891.486 562.626 891.486 C 535.411 891.486 508.897 896.363 483.816 905.986 C 424.162 929.157 372.26 978.789 326.468 1022.58 C 320.85 1027.96 315.32 1033.24 309.883 1038.38 C 309.732 1038.52 309.581 1038.67 309.43 1038.81 C 228.402 1118.17 192.836 1126.74 181.304 1126.74 C 180.315 1126.74 179.419 1126.68 178.634 1126.54 C 176.71 1126.22 174.776 1126.06 172.861 1126.06 C 162.834 1126.05 153.183 1130.43 146.561 1138.2 C 138.669 1147.47 136.238 1160.2 140.159 1171.73 C 148.159 1195.23 171.048 1223.25 234.668 1223.25 C 320.855 1223.25 463.139 1173.74 588.667 1130.05 C 641.71 1111.6 691.858 1094.14 728.706 1083.82 C 766.523 1078.01 819.404 1073.19 875.335 1068.1 C 1084.46 1049.07 1236.22 1031.09 1284.49 972.738 C 1297.14 957.44 1302.86 939.505 1301.04 920.86 C 1299.85 908.748 1292.38 898.156 1281.36 892.972 C 1276.69 890.775 1271.67 889.688 1266.66 889.688 C 1259.88 889.688 1253.14 891.681 1247.34 895.598 C 1245.12 897.099 1238.1 900.587 1221.07 900.587 C 1176.78 900.587 1112.96 877.343 1091.98 869.703 C 1091.79 869.63 1091.59 869.562 1091.39 869.493 C 1084.33 867.067 1077.13 864.539 1069.8 861.967 C 1014.25 842.473 951.281 820.378 891.32 820.378 L 891.325 820.378 L 891.296 820.378 Z  M 891.32 854.921 C 952.879 854.921 1021.52 881.995 1080.16 902.161 C 1112.59 913.971 1173.8 935.13 1221.07 935.13 C 1239.07 935.13 1255.06 932.056 1266.66 924.231 C 1276.14 1020.98 879.896 1025.14 721.397 1050 C 600.361 1083.51 351.924 1188.7 234.668 1188.7 C 202.127 1188.7 179.662 1180.59 172.861 1160.6 C 175.599 1161.06 178.415 1161.29 181.304 1161.29 C 231.141 1161.29 301.41 1095.02 333.6 1063.49 C 381.385 1018.37 436.177 961.547 496.191 938.238 C 517.876 929.917 540.225 926.029 562.626 926.029 C 612.502 926.034 662.577 945.327 705.817 977.912 C 743.4 909.04 805.533 859.657 880.368 855.219 C 883.993 855.019 887.642 854.921 891.32 854.921 Z " fill="rgb(55,53,53)"/><path d=" M 434.676 1025.88 C 432.995 1062.31 507.986 1012.36 524.692 1003.7 C 540.244 995.627 561.983 995.549 576.161 985.454 C 600.565 968.08 579.172 955.208 556.434 952.207 C 513.029 946.472 436.527 986.087 434.676 1025.88 Z " fill="rgb(254,254,254)"/><path d=" M 756.442 948.329 C 754.761 984.742 829.757 934.794 846.458 926.132 C 862.02 918.053 883.759 917.986 897.932 907.89 C 922.331 890.517 900.933 877.645 878.2 874.639 C 834.79 868.909 758.293 908.524 756.442 948.329 Z " fill="rgb(254,254,254)"/><path d=" M 947.598 1576.33 C 981.405 1559.47 1016.12 1533.13 1025.67 1524.14 C 1029.17 1520.86 1059.32 1478.47 1050.13 1477.9 C 1038.15 1477.17 1017.64 1498.28 1008.61 1506.41 C 991.237 1522.04 969.927 1534.27 947.023 1540.12 C 932.076 1543.93 868.821 1545.68 875.028 1572.5 C 881.508 1600.42 914.107 1593.02 947.598 1576.33 Z " fill="rgb(254,254,254)"/><path d=" M 1062.07 1443.79 C 1061.57 1451.06 1065.48 1453.98 1070.88 1454.35 C 1077.62 1454.83 1086.36 1445.48 1081.46 1436.63 C 1076.25 1427.2 1062.69 1434.94 1062.07 1443.79 Z " fill="rgb(254,254,254)"/></g></svg>