<svg xmlns="http://www.w3.org/2000/svg" width="1550.739" height="1151.029"><path d="M495.047 744.742c-61.544 0-148.101-52.79-257.27-156.88-79.064-75.39-149.109-158.97-155.94-176.38-7.026-17.89-5.515-36.49 4.356-53.78 37.564-65.78 202.098-120.02 517.803-170.72 11.401-1.82 19.639-3.15 23.435-3.87 24.935-4.755 50.499-10.582 75.22-16.224 63.766-14.543 129.709-29.583 197.452-29.583 23.09 0 45.66 1.788 67.11 5.311.45.058 1.03.063 1.69.063h.07c8.94 0 27.49-3.084 45.44-6.071 25.15-4.18 51.16-8.502 70.76-8.502 23.89 0 38.17 7.664 42.46 22.778 9.97 35.178-50.67 180.608-87.7 264.168-36.99 83.47-103.93 226.03-136.7 243.04-51.687 26.83-137.762 39.21-221.001 51.17-61.456 8.84-119.502 17.19-155.843 30.27-9.598 3.45-20.141 5.21-31.342 5.21z" fill="#67262D"/><path d="M600.693 720.922c-66.825-.01-256.388-42.24-288.485-50.01-4.55-1.1-8.37-4.18-10.416-8.39a15.682 15.682 0 01-.176-13.37c17.866-39.28 51.843-75.11 61.831-85.15 40.078-40.31 89.871-71.02 133.203-82.14 15.381-3.95 32.77-6.04 50.279-6.04 22.393 0 42.86 3.39 59.391 9.71 38.913-65.96 159.965-84.15 229.723-84.15 16.984 0 32.61.96 46.45 2.87 67.47 9.26 112.29 36.74 145.29 89.09a15.701 15.701 0 01-2.08 19.37c-37.76 38.46-53.02 47.18-61.22 50.39-51.19 20.12-99.11 44.9-145.439 68.86-61.938 32.04-125.981 65.17-197.367 86.66-5.199 1.57-11.864 2.3-20.97 2.3h-.014z" fill="#E99EC0"/><path d="M836.043 385.692c-49.895 0-102.401 8.07-144.053 22.14-41.753 14.11-72.929 34.25-91.935 59.13-20.298-5.71-40.468-6.83-53.126-6.83-18.806 0-37.539 2.25-54.177 6.52-45.953 11.81-98.449 44.06-140.433 86.28-10.455 10.52-46.041 48.06-64.993 89.72a31.421 31.421 0 00.356 26.75 31.39 31.39 0 0020.833 16.76c34.28 8.3 222.956 50.45 292.183 50.45 10.689 0 18.796-.94 25.51-2.96 72.769-21.92 137.475-55.38 200.047-87.75 45.978-23.78 93.528-48.37 143.978-68.19 10.33-4.05 27.25-13.86 66.67-54.01 10.2-10.38 11.92-26.42 4.16-38.73-35.22-55.86-84.93-86.46-156.44-96.27-14.54-2-30.885-3.01-48.58-3.01zm0 31.39c16.302 0 31.39.94 44.31 2.71 69.87 9.6 107.31 39.35 134.15 81.92-24.74 25.2-44.61 42.41-55.75 46.79-120.956 47.52-218.909 118.15-341.602 155.09-3.718 1.12-9.32 1.63-16.453 1.63-62.563 0-242.04-39.22-284.797-49.57 13.525-29.73 39.284-61.08 58.675-80.59 31.005-31.18 78.274-65.75 125.976-78 13.993-3.59 30.178-5.55 46.377-5.55 24.916.01 49.861 4.63 66.845 14.99 22.685-64.59 138.601-89.42 222.269-89.42z" fill="#373535"/><path d="M225.743 407.022c-7.303 0-15.532-.71-21.159-5.9-11.245-10.41-13.886-29.1-16.219-45.6-.629-4.45-1.223-8.65-1.871-11.46-.838-3.63-1.91-7.58-3.026-11.69-6.743-24.94-18.036-66.68 17.589-84.07 16.799-8.11 36.652-12.93 53.163-12.93 24.619 0 42.47 10.24 50.27 28.84 6.88 16.48 28.639 73.03 19.961 109.51-5.549 23.66-37.553 27.27-63.273 30.17l-4.609.52c-10.066 1.28-21.724 2.61-30.826 2.61z" fill="#FEFEFE"/><path d="M254.22 221.202c-18.815 0-40.418 5.22-59.263 14.32-20.857 10.18-32.531 29.38-32.994 54.12-.307 16.32 4.21 33.02 7.839 46.42 1.102 4.07 2.139 7.91 2.904 11.21.497 2.19 1.077 6.28 1.637 10.24 2.533 17.9 5.681 40.18 20.624 54 9.271 8.57 21.32 9.66 30.776 9.66 9.837 0 21.973-1.36 32.575-2.71l4.444-.5c26.942-3.04 67.648-7.63 75.487-41.06 9.384-39.43-11.342-95.75-20.687-118.13-10.017-23.89-33.096-37.57-63.342-37.57zm0 28.33c16.395 0 31.006 5.36 37.209 20.15 13.276 31.8 25.359 75.06 19.244 100.76-3.537 15.09-35.123 17.49-55.751 19.91-10.163 1.28-21.086 2.5-29.179 2.5-5.612 0-9.866-.58-11.546-2.14-10.241-9.47-10.933-36.93-13.9-49.82-5.959-25.75-22.5-65.47 6.971-79.86 13.272-6.41 30.967-11.5 46.952-11.5z" fill="#373535"/><path d="M360.924 408.302c-8.166 0-17.364-.78-23.654-6.6-12.565-11.6-15.513-32.5-18.114-50.94-.697-4.97-1.36-9.65-2.081-12.79-.94-4.05-2.134-8.46-3.381-13.06-7.542-27.86-20.161-74.49 19.639-93.93 18.758-9.06 40.94-14.46 59.4-14.46 27.508 0 47.454 11.45 56.171 32.23 7.688 18.41 31.999 81.59 22.299 122.35-6.217 26.44-41.997 30.47-70.747 33.71l-5.101.58c-11.226 1.43-24.239 2.91-34.426 2.91h-.005z" fill="#FEFEFE"/><path d="M392.733 200.702c-21.032 0-45.174 5.84-66.226 16.01-23.288 11.37-36.335 32.83-36.852 60.47-.336 18.23 4.711 36.88 8.77 51.87 1.228 4.54 2.387 8.83 3.245 12.52.555 2.42 1.198 6.98 1.822 11.4 2.821 20.01 6.334 44.92 23.049 60.36 10.344 9.56 23.81 10.79 34.383 10.79 11.015 0 24.565-1.52 36.394-3.03l4.907-.56c30.109-3.39 75.614-8.51 84.393-45.85 10.49-44.09-12.662-107.01-23.108-132.01-11.186-26.69-36.979-41.97-70.777-41.97zm0 31.64c18.325 0 34.646 5.99 41.579 22.53 14.835 35.52 28.331 83.86 21.5 112.57-3.961 16.85-39.24 19.54-62.294 22.24-11.342 1.44-23.547 2.8-32.594 2.8-6.276 0-11.031-.66-12.911-2.39-11.445-10.58-12.21-41.26-15.518-55.66-6.665-28.78-25.144-73.15 7.781-89.23 14.825-7.17 34.592-12.86 52.457-12.86z" fill="#373535"/><path d="M924.693 255.972c-7.32 0-15.55-.7-21.18-5.91-11.24-10.39-13.88-29.09-16.21-45.6-.63-4.43-1.22-8.63-1.87-11.44-.83-3.63-1.91-7.58-3.02-11.69-6.75-24.943-18.05-66.682 17.6-84.066 16.77-8.112 36.63-12.94 53.15-12.94 24.61 0 42.47 10.241 50.27 28.833 6.88 16.492 28.63 73.053 19.97 109.513-5.57 23.68-37.61 27.29-63.34 30.18l-4.55.52c-10.04 1.28-21.69 2.6-30.82 2.6z" fill="#FEFEFE"/><path d="M953.163 70.163c-18.83 0-40.43 5.223-59.27 14.329-20.85 10.168-32.53 29.369-32.993 54.109-.307 16.321 4.213 33.013 7.843 46.421 1.1 4.07 2.14 7.92 2.9 11.22.5 2.17 1.08 6.26 1.64 10.21 2.53 17.91 5.68 40.2 20.63 54.02 9.25 8.56 21.31 9.67 30.78 9.67 9.87 0 21.99-1.37 32.58-2.72l4.37-.5c26.95-3.03 67.69-7.61 75.55-41.04 9.38-39.45-11.34-95.768-20.68-118.15-10.03-23.893-33.11-37.569-63.35-37.569zm0 28.321c16.4 0 31.01 5.36 37.21 20.156 13.27 31.795 25.36 75.062 19.25 100.762-3.55 15.08-35.13 17.49-55.75 19.9-10.16 1.3-21.09 2.51-29.18 2.51-5.63 0-9.87-.59-11.55-2.14-10.25-9.47-10.94-36.93-13.9-49.82-5.97-25.756-22.51-65.477 6.97-79.86 13.27-6.412 30.96-11.508 46.95-11.508z" fill="#373535"/><path d="M506.379 388.892c-4.774 0-11.766-.51-17.324-4.97-12.921-10.34-17.867-30.64-22.237-48.56-1.189-4.89-2.314-9.51-3.342-12.61-1.32-3.95-2.923-8.24-4.594-12.71-10.68-28.62-26.816-71.87 9.072-94.33 19.673-12.21 43.025-19.48 62.513-19.48 22.704 0 40.35 9.79 49.685 27.57 9.199 17.59 38.792 78.1 33.9 118.97-3.142 26.84-38.416 34.01-64.175 39.24l-4.833.99c-13.939 3.04-28.394 5.89-38.665 5.89z" fill="#FEFEFE"/><path d="M530.467 180.812c-22.246 0-48.638 8.13-70.597 21.76-12.311 7.71-32.306 26.01-29.076 62.72 1.564 17.8 7.98 34.98 13.637 50.15 1.652 4.42 3.211 8.6 4.424 12.23.809 2.45 1.91 6.97 2.977 11.34 4.706 19.31 10.562 43.33 27.6 56.97 10.402 8.34 22.855 8.34 26.947 8.34 11.684 0 27.04-2.99 41.915-6.24l4.658-.95c28.662-5.83 71.979-14.63 76.423-52.6 5.266-43.96-23.098-104.06-35.537-127.86-12.156-23.14-34.655-35.86-63.371-35.86zm0 30.85c15.113 0 28.643 5.25 36.029 19.31 17.812 34.07 35.712 80.95 32.238 109.97-1.992 17.02-35.23 22.47-56.833 26.96-12.788 2.79-26.772 5.56-35.522 5.56-3.576 0-6.28-.46-7.673-1.58-11.985-9.58-15.937-39.96-20.589-53.98-9.355-28.01-31.571-70.59-1.978-89.11 14.874-9.24 35.79-17.13 54.328-17.13z" fill="#373535"/><path d="M790.845 308.412c-8.166 0-17.359-.78-23.649-6.59-12.565-11.61-15.513-32.51-18.114-50.95-.702-4.96-1.365-9.65-2.086-12.78-.94-4.07-2.139-8.49-3.386-13.09-7.532-27.86-20.146-74.474 19.644-93.899 18.762-9.067 40.945-14.46 59.396-14.46 27.512 0 47.463 11.444 56.183 32.224 7.68 18.425 31.99 81.625 22.29 122.365-6.21 26.43-41.982 30.46-70.727 33.7l-5.11.58c-11.24 1.43-24.258 2.9-34.437 2.9h-.004z" fill="#FEFEFE"/><path d="M822.65 100.823c-21.028 0-45.165 5.832-66.222 16.005-23.283 11.366-36.326 32.813-36.847 60.447-.341 18.227 4.702 36.877 8.755 51.857 1.233 4.55 2.397 8.85 3.25 12.55.56 2.42 1.204 6.99 1.827 11.4 2.826 20.02 6.343 44.93 23.054 60.37 10.344 9.56 23.805 10.79 34.378 10.79 11.001 0 24.56-1.53 36.404-3.03l4.916-.56c30.108-3.39 75.608-8.51 84.378-45.85 10.48-44.06-12.67-106.993-23.1-132.006-11.2-26.694-36.996-41.973-70.793-41.973zm0 31.644c18.328 0 34.65 5.988 41.583 22.519 14.83 35.526 28.34 83.856 21.5 112.576-3.96 16.85-39.239 19.54-62.284 22.23-11.347 1.45-23.561 2.81-32.604 2.81-6.275 0-11.031-.66-12.906-2.4-11.445-10.57-12.215-41.26-15.523-55.66-6.655-28.77-25.144-73.15 7.781-89.223 14.831-7.161 34.592-12.852 52.453-12.852z" fill="#373535"/><path d="M646.441 357.252c-4.784 0-11.785-.55-17.344-5.3-12.847-10.97-15.99-32.1-18.762-50.74-.751-5.04-1.457-9.79-2.208-12.95-.978-4.13-2.211-8.55-3.488-13.17-8.058-29.06-20.233-72.97 17.276-95.853 21.613-13.062 46.422-20.838 66.427-20.838 23.234 0 40.447 10.28 48.467 28.941 7.717 18.07 32.18 80.2 23.303 122.37-5.501 26.31-39.956 33.76-67.639 39.74l-5.106 1.11c-14.962 3.46-30.397 6.69-40.926 6.69z" fill="#FEFEFE"/><path d="M688.342 142.581c-22.763 0-50.636 8.629-74.553 23.08-47.824 29.171-32.584 84.131-24.399 113.661 1.261 4.56 2.46 8.87 3.337 12.57.604 2.53 1.291 7.16 1.959 11.64 3.02 20.33 6.782 45.63 24.136 60.46 10.64 9.08 23.42 9.08 27.619 9.08 11.401 0 26.018-2.83 44.448-7.08l4.926-1.07c28.741-6.22 72.18-15.6 79.79-51.99 9.554-45.39-13.769-107.28-24.238-131.78-10.539-24.529-33.501-38.571-63.025-38.571zm0 31.645c15.01 0 27.882 5.29 33.929 19.366 14.898 34.86 28.666 82.89 22.357 112.86-3.673 17.58-38.104 23.68-60.671 28.66-13.647 3.16-28.614 6.32-37.516 6.32-3.342 0-5.826-.45-7.069-1.51-11.356-9.7-12.424-40.94-15.854-55.32-6.815-28.75-25.466-72.28 6.636-91.86 16.439-9.93 39.055-18.516 58.188-18.516z" fill="#373535"/><path d="M567.188 845.992c-3.669 0-7.192-.1-10.529-.3-103.181-5.74-228.929-116.6-294.692-182.17-92.252-91.97-180.632-207.71-219.925-287.99-.015-.03-.2-.41-.268-.57-3.746-8.39-.244-18.31 8.043-22.46a17.102 17.102 0 017.723-1.83c6.124 0 12.029 3.26 15.152 8.96 1.433 2.45 44.536 75.01 155.054 145.63 115.511 73.79 295.822 148.5 416.937 148.5 16.473 0 31.44-1.43 44.486-4.25 111.469-24.12 250.714-173.64 330.654-308.87 65.08-110.06 87.21-219.356 87.43-220.448 1.62-8.185 8.81-13.919 16.92-13.919.83 0 1.67.063 2.51.185 9.1 1.325 15.57 9.544 14.71 18.704-14.8 157.928-114.65 570.218-273.91 653.378-32.946 17.38-85.33 30.01-124.492 30.01-10.699 0-20.443-.91-28.954-2.7a92.72 92.72 0 01-3.489-.77c-.857.68-1.72 1.34-2.601 2.01-34.465 25.31-98.207 38.9-140.759 38.9z" fill="#ED3D59"/><path d="M1124.163 89.003a34.411 34.411 0 00-21.96 7.912 34.463 34.463 0 00-8.88 11.114 34.033 34.033 0 00-3.09 9.213c-1.59 7.542-24.05 111.04-85.28 214.61-78.03 132-212.812 277.7-319.437 300.78-11.845 2.56-25.584 3.86-40.833 3.86-117.807 0-294.239-73.34-407.641-145.79-104.521-66.78-147.088-135.89-149.339-139.63-6.256-11.22-17.988-17.7-30.182-17.7-5.004 0-10.086 1.1-14.894 3.4-17.126 8.2-24.424 28.68-16.337 45.86.078.17.161.34.245.51 40.057 81.84 129.767 199.42 223.237 292.61 82.46 82.22 202.483 181.43 306.005 187.19 3.513.21 7.406.33 11.411.33 45.056 0 109.212-13.64 147.409-39.73 8.629 1.52 18.158 2.28 28.394 2.28 42.309 0 96.843-13.17 132.612-32.03 72.62-37.92 138.88-139.11 196.81-300.7 51.57-143.88 78.56-286.37 86.08-365.249.17-1.408.26-2.84.26-4.292 0-18.504-14.54-33.612-32.82-34.504a36.36 36.36 0 00-1.77-.044zM57.545 367.922l.009.02-.009-.01v-.01zm1066.648-244.371c-16.59 177.011-119.98 564.121-264.701 639.681-28.365 14.96-77.607 28.05-116.501 28.05-9.179 0-17.783-.73-25.393-2.33-4.234-.84-7.824-1.98-11.182-3.1-2.605 2.41-5.417 4.86-8.837 7.42-30.368 22.3-90.28 35.45-130.391 35.45-3.304 0-6.48-.09-9.492-.27-162.979-9.07-426.403-309.85-500.142-460.51.785 1.53 46.076 78.51 160.891 151.87 120.179 76.78 303.194 151.22 426.238 151.22 17.354 0 33.519-1.48 48.141-4.64 117.563-25.44 258.559-176.03 341.869-316.96 67.33-113.88 89.5-225.881 89.5-225.881zm0 0h.03-.03z" fill="#373535"/><path d="M96.351 385.602c-42.874 0-69.169-13.4-78.158-39.82a17.264 17.264 0 0116.351-22.83c.96 0 1.925.08 2.884.24 1.74.29 3.605.45 5.559.45 20.712 0 61.846-16.12 140.208-92.87 5.691-5.37 11.245-10.69 16.892-16.08 44.628-42.683 95.21-91.058 151.536-112.934 23.157-8.886 47.59-13.378 72.681-13.378 46.743 0 94.036 15.22 137.802 44.194C605.511 63.42 669.842 21.822 741.028 17.599c4.009-.22 7.976-.327 11.975-.327 57.018 0 118.5 21.573 172.75 40.614 7.37 2.581 14.61 5.125 21.71 7.566 21.97 8 87.95 32.029 135.29 32.029 16.03 0 28.12-2.675 35.93-7.947a17.25 17.25 0 019.66-2.952c2.5 0 5.01.541 7.35 1.642a17.284 17.284 0 019.84 13.944c1.37 13.963-3.01 27.507-12.67 39.181-43.93 53.093-199.11 71.123-397.413 89.173-56.702 5.16-110.29 10.04-148.715 16.01-37.467 10.44-88.283 28.12-142.06 46.83-124.238 43.23-265.056 92.24-348.324 92.24z" fill="#ED3D59"/><path d="M752.979 0c-4.326 0-8.648.118-12.838.351-71.907 4.263-137.027 43.347-183.121 108.696-42.465-24.916-87.746-37.939-132.711-37.939-27.215 0-53.729 4.877-78.81 14.5-59.654 23.171-111.556 72.803-157.348 116.594a3574.849 3574.849 0 01-16.585 15.8c-.151.14-.302.29-.453.43-81.028 79.36-116.594 87.93-128.126 87.93-.989 0-1.885-.06-2.67-.2a35.218 35.218 0 00-5.773-.48 34.532 34.532 0 00-26.3 12.14 34.55 34.55 0 00-6.402 33.53c8 23.5 30.889 51.52 94.509 51.52 86.187 0 228.471-49.51 353.999-93.2 53.043-18.45 103.191-35.91 140.039-46.23 37.817-5.81 90.698-10.63 146.629-15.72 209.125-19.03 360.885-37.01 409.155-95.362 12.65-15.298 18.37-33.233 16.55-51.878a34.547 34.547 0 00-34.38-31.172c-6.78 0-13.52 1.993-19.32 5.91-2.22 1.501-9.24 4.989-26.27 4.989-44.29 0-108.11-23.244-129.09-30.884-.19-.073-.39-.141-.59-.21-7.06-2.426-14.26-4.954-21.59-7.526C875.933 22.095 812.964 0 753.003 0h.005-.029zm.024 34.543c61.559 0 130.2 27.074 188.84 47.24 32.43 11.81 93.64 32.969 140.91 32.969 18 0 33.99-3.074 45.59-10.899 9.48 96.749-386.764 100.909-545.263 125.769-121.036 33.51-369.473 138.7-486.729 138.7-32.541 0-55.006-8.11-61.807-28.1 2.738.46 5.554.69 8.443.69 49.837 0 120.106-66.27 152.296-97.8 47.785-45.12 102.577-101.943 162.591-125.252 21.685-8.321 44.034-12.209 66.435-12.209 49.876.005 99.951 19.298 143.191 51.883 37.583-68.872 99.716-118.255 174.551-122.693 3.625-.2 7.274-.298 10.952-.298z" fill="#373535"/><path d="M296.359 205.502c-1.681 36.43 73.31-13.52 90.016-22.18 15.552-8.073 37.291-8.151 51.469-18.246 24.404-17.374 3.011-30.246-19.727-33.247-43.405-5.735-119.907 33.88-121.758 73.673zM618.125 127.951c-1.681 36.413 73.315-13.535 90.016-22.197 15.562-8.079 37.301-8.146 51.474-18.242 24.399-17.373 3.001-30.245-19.732-33.251-43.41-5.73-119.907 33.885-121.758 73.69zM809.281 755.952c33.807-16.86 68.522-43.2 78.072-52.19 3.5-3.28 33.65-45.67 24.46-46.24-11.98-.73-32.49 20.38-41.52 28.51-17.373 15.63-38.683 27.86-61.587 33.71-14.947 3.81-78.202 5.56-71.995 32.38 6.48 27.92 39.079 20.52 72.57 3.83zM923.753 623.412c-.5 7.27 3.41 10.19 8.81 10.56 6.74.48 15.48-8.87 10.58-17.72-5.21-9.43-18.77-1.69-19.39 7.16z" fill="#FEFEFE"/></svg>