<?xml version="1.0" encoding="UTF-8" standalone="no"?><!-- Generator: Gravit.io --><svg xmlns="http://www.w3.org/2000/svg" xmlns:xlink="http://www.w3.org/1999/xlink" style="isolation:isolate" viewBox="0 0 78.003 138.223" width="78.003pt" height="138.223pt"><defs><clipPath id="_clipPath_3ox1R2bTjdsiSCcc5nQ8okBxKbM0BCr0"><rect width="78.003" height="138.223"/></clipPath></defs><g clip-path="url(#_clipPath_3ox1R2bTjdsiSCcc5nQ8okBxKbM0BCr0)"><path d=" M 11.471 38.041 C 2.45 41.324 0.467 46.689 0.087 49.597 C -0.11 51.114 0.026 52.649 0.494 54.167 C 0.608 54.722 0.715 55.273 0.815 55.816 C 1.025 56.95 1.264 58.235 1.59 59.576 C 1.855 60.665 2.297 62.488 3.608 64.26 C 4.457 65.405 5.455 66.234 6.401 66.848 C 6.548 67.435 6.701 68.033 6.861 68.642 L 7.477 70.92 C 8.171 73.385 8.931 75.898 9.799 78.606 C 10.743 81.549 11.82 84.705 13.191 88.543 C 13.863 90.423 14.564 92.307 15.264 94.185 C 16.151 96.572 17.047 98.95 17.94 101.32 L 19.234 104.75 C 19.797 106.227 20.357 107.699 20.908 109.191 C 21.485 110.738 22.019 112.189 22.522 113.581 C 23.1 115.182 23.638 116.701 24.134 118.145 L 24.236 118.549 L 24.363 118.805 C 24.832 120.139 25.28 121.463 25.719 122.83 L 25.837 123.188 C 25.969 123.592 26.1 123.988 26.235 124.363 C 26.827 126.029 27.713 128.195 29.288 130.137 C 29.674 130.619 30.099 131.086 30.532 131.507 C 30.703 131.674 30.89 131.838 31.099 132.01 L 31.059 131.977 C 31.344 132.235 31.633 132.488 31.968 132.748 C 32.898 133.461 33.931 134.107 35.166 134.744 C 35.644 134.985 36.107 135.208 36.573 135.408 C 38.156 136.115 39.847 136.698 41.603 137.141 C 41.861 137.215 42.119 137.281 42.36 137.334 C 43.613 137.625 44.893 137.847 46.168 137.996 C 47.473 138.147 48.796 138.223 50.099 138.223 C 50.345 138.223 50.592 138.213 50.839 138.199 L 51.064 138.191 C 51.543 138.178 52.023 138.163 52.509 138.131 L 52.678 138.125 L 52.827 138.113 C 53.451 138.066 54.077 137.988 54.691 137.906 L 54.811 137.896 L 55.012 137.863 C 58.958 137.306 62.699 136.084 66.129 134.23 C 70.646 131.791 73.905 128.629 75.813 124.838 C 78.262 119.979 78.156 114.839 77.834 109.922 L 77.735 108.474 C 77.571 105.912 77.357 102.76 77.099 99.607 C 76.834 96.029 76.554 92.723 76.25 89.57 C 76.171 88.62 76.083 87.646 75.992 86.659 C 75.798 84.543 75.578 82.334 75.328 80.007 C 74.964 76.358 74.552 72.8 74.236 70.132 C 73.885 67.047 73.503 63.96 73.107 60.892 C 72.98 59.894 72.846 58.9 72.71 57.905 C 72.836 57.766 72.96 57.627 73.081 57.484 C 73.926 56.504 75.105 54.94 75.577 52.705 C 76.072 50.348 75.53 48.365 75.24 47.302 L 74.489 44.554 C 74.522 44.098 74.528 43.652 74.511 43.219 C 74.387 40.127 73.098 37.318 70.877 35.305 C 67.937 32.644 64.384 32.236 62.472 32.017 C 58.342 31.545 54.116 31.307 49.911 31.307 C 49.14 31.307 48.364 31.314 47.587 31.33 L 47.854 24.871 C 48.452 24.394 48.979 23.811 49.405 23.137 L 49.407 23.133 C 49.745 22.849 50.057 22.535 50.336 22.188 C 50.651 21.984 50.951 21.756 51.233 21.501 C 52.82 21.226 54.147 20.65 55.107 20.234 C 57.241 19.309 59.498 18.771 61.823 18.635 C 63.786 18.515 65.602 17.555 66.819 15.98 C 68.016 14.42 68.481 12.42 68.095 10.485 L 67.085 5.466 C 66.722 3.667 65.627 2.068 64.082 1.078 C 62.982 0.372 61.71 0 60.403 0 C 59.89 0 59.374 0.058 58.832 0.183 C 55.314 1.017 51.778 1.972 48.28 3.035 C 47.132 2.219 45.755 1.777 44.335 1.777 C 43.321 1.777 42.303 2.009 41.383 2.451 C 40.794 2.734 40.26 3.094 39.79 3.515 C 39.078 3.76 38.411 4.119 37.826 4.581 C 37.56 4.788 37.312 5.014 37.082 5.253 C 36.546 5.475 36.037 5.767 35.573 6.121 C 34.741 6.754 34.084 7.553 33.627 8.448 C 33.522 8.529 33.417 8.613 33.316 8.7 C 32.371 9.518 31.688 10.55 31.306 11.685 C 29.835 13 28.988 14.924 29.025 16.902 C 29.124 22.188 29.112 27.669 28.99 33.256 C 22.997 34.381 17.124 35.984 11.471 38.041 Z " fill="rgb(255,255,255)"/><path d=" M 69.725 121.769 C 68.298 124.607 65.701 126.713 62.89 128.231 C 60.125 129.726 57.081 130.699 53.964 131.127 C 53.42 131.201 52.861 131.273 52.306 131.316 C 49.484 131.544 46.622 131.332 43.85 130.682 C 43.693 130.65 43.538 130.605 43.384 130.56 C 41.985 130.211 40.612 129.749 39.312 129.164 C 38.95 129.01 38.606 128.844 38.248 128.662 C 36.872 127.953 35.572 127.078 34.61 125.877 C 33.711 124.767 33.14 123.432 32.658 122.078 C 32.489 121.611 32.348 121.162 32.193 120.696 C 31.712 119.196 31.202 117.693 30.665 116.174 C 29.609 113.092 28.473 109.959 27.294 106.807 C 26.605 104.937 25.887 103.064 25.17 101.178 C 24.001 98.07 22.819 94.947 21.654 91.81 C 20.963 89.955 20.273 88.1 19.61 86.249 C 18.455 83.012 17.33 79.764 16.291 76.524 C 15.492 74.035 14.737 71.551 14.039 69.071 C 13.84 68.34 13.642 67.595 13.442 66.863 C 12.187 62.095 11.187 57.367 10.557 52.706 C 17.698 55.943 25.537 57.355 33.346 56.982 C 35.224 56.902 37.1 56.707 38.957 56.407 C 39.944 56.25 42.501 55.646 45.61 54.738 C 49.379 53.625 53.975 52.089 57.631 50.383 C 59.124 49.683 60.476 48.955 61.525 48.209 C 63.165 47.076 64.112 45.914 63.952 44.809 C 64.336 47.241 64.689 49.699 65.043 52.143 L 65.05 52.215 C 65.501 55.393 65.938 58.569 66.345 61.758 C 66.737 64.799 67.115 67.852 67.463 70.904 C 67.849 74.162 68.219 77.418 68.545 80.684 C 68.883 83.836 69.193 86.984 69.457 90.143 C 69.777 93.467 70.055 96.786 70.301 100.117 C 70.568 103.391 70.791 106.676 71 109.959 C 71.012 110.119 71.025 110.28 71.036 110.441 C 71.288 114.279 71.46 118.327 69.725 121.769 Z " fill="rgb(255,140,138)"/><path d=" M 11.258 53.633 C 11.856 57.729 12.752 62.023 13.989 66.72 L 14.585 68.923 C 15.247 71.275 16.003 73.776 16.829 76.351 C 17.743 79.201 18.796 82.285 20.143 86.058 C 20.804 87.908 21.493 89.761 22.184 91.613 C 23.058 93.965 23.941 96.308 24.819 98.642 L 26.115 102.074 C 26.693 103.592 27.269 105.102 27.824 106.61 C 29.126 110.09 30.231 113.159 31.2 115.99 C 31.763 117.584 32.265 119.068 32.732 120.523 L 32.846 120.871 C 32.957 121.209 33.066 121.543 33.19 121.886 C 33.61 123.068 34.159 124.424 35.05 125.519 C 35.848 126.517 36.945 127.355 38.507 128.158 C 38.851 128.334 39.184 128.495 39.533 128.644 C 40.772 129.201 42.109 129.659 43.521 130.012 C 43.685 130.058 43.821 130.1 43.959 130.127 C 46.692 130.767 49.48 130.976 52.26 130.753 C 52.807 130.71 53.355 130.639 53.888 130.566 C 56.995 130.14 59.934 129.186 62.621 127.734 C 65.783 126.025 68.004 123.933 69.22 121.516 C 70.837 118.307 70.744 114.618 70.472 110.478 L 70.437 110 C 70.264 107.291 70.028 103.728 69.737 100.162 C 69.478 96.649 69.202 93.39 68.895 90.197 C 68.649 87.267 68.351 84.177 67.983 80.744 C 67.699 77.91 67.366 74.897 66.901 70.971 C 66.585 68.191 66.22 65.203 65.784 61.83 C 65.418 58.967 65.007 55.937 64.49 52.295 L 64.485 52.244 L 64.482 52.214 L 64.374 51.471 C 64.159 49.987 63.944 48.501 63.721 47.019 C 63.276 47.566 62.651 48.118 61.847 48.674 C 60.855 49.38 59.552 50.107 57.871 50.895 C 53.961 52.719 49.133 54.287 45.771 55.281 C 42.741 56.166 40.096 56.798 39.047 56.966 C 37.142 57.272 35.232 57.468 33.37 57.547 C 25.728 57.91 18.106 56.56 11.258 53.633 Z  M 50.097 131.971 C 47.951 131.971 45.814 131.724 43.721 131.231 C 43.57 131.202 43.401 131.154 43.233 131.105 C 41.771 130.74 40.368 130.26 39.08 129.68 C 38.717 129.525 38.36 129.353 37.991 129.165 C 36.281 128.285 35.067 127.352 34.169 126.23 C 33.173 125.003 32.577 123.538 32.125 122.267 C 31.998 121.916 31.886 121.571 31.772 121.223 L 31.656 120.873 C 31.191 119.424 30.693 117.95 30.132 116.362 C 29.164 113.535 28.063 110.476 26.765 107.004 C 26.208 105.497 25.635 103.99 25.059 102.476 L 23.762 99.042 C 22.881 96.705 21.998 94.359 21.123 92.008 C 20.432 90.15 19.741 88.293 19.078 86.439 C 17.727 82.653 16.67 79.557 15.753 76.697 C 14.922 74.109 14.162 71.596 13.495 69.225 L 12.897 67.012 C 11.546 61.881 10.597 57.227 9.996 52.781 C 9.969 52.578 10.054 52.375 10.219 52.252 C 10.384 52.129 10.603 52.106 10.79 52.191 C 17.714 55.33 25.509 56.795 33.318 56.417 C 35.14 56.34 37.005 56.148 38.867 55.849 C 39.882 55.687 42.469 55.066 45.452 54.195 C 48.775 53.213 53.546 51.665 57.392 49.871 C 59.01 49.113 60.255 48.418 61.198 47.748 C 62.751 46.674 63.508 45.687 63.393 44.89 C 63.348 44.583 63.561 44.297 63.867 44.25 C 64.183 44.203 64.463 44.414 64.511 44.721 C 64.856 46.906 65.175 49.111 65.493 51.309 L 65.603 52.06 L 65.607 52.113 L 65.61 52.143 C 66.128 55.789 66.54 58.82 66.905 61.685 C 67.342 65.063 67.708 68.058 68.025 70.84 C 68.49 74.771 68.824 77.791 69.107 80.629 C 69.476 84.064 69.774 87.163 70.021 90.096 C 70.328 93.291 70.605 96.557 70.864 100.075 C 71.156 103.646 71.392 107.214 71.565 109.923 L 71.6 110.4 C 71.873 114.554 71.973 118.565 70.23 122.023 C 68.908 124.652 66.528 126.908 63.158 128.728 C 60.352 130.246 57.284 131.242 54.041 131.687 C 53.485 131.762 52.916 131.836 52.35 131.88 C 51.599 131.94 50.847 131.971 50.097 131.971 Z " fill="rgb(0,0,0)"/><path d=" M 45.61 54.738 C 37.043 65.31 28.381 75.814 19.61 86.249 C 18.455 83.012 17.33 79.764 16.291 76.524 C 21.999 70.017 27.679 63.508 33.346 56.982 C 35.224 56.902 37.1 56.707 38.957 56.407 C 39.944 56.25 42.501 55.646 45.61 54.738 Z " fill="rgb(0,175,255)"/><path d=" M 16.928 76.656 C 17.741 79.181 18.668 81.902 19.813 85.13 C 27.826 75.586 35.97 65.721 44.047 55.769 C 41.768 56.394 39.891 56.83 39.047 56.966 C 37.225 57.26 35.398 57.451 33.613 57.535 C 28.068 63.92 22.512 70.289 16.928 76.656 Z  M 19.61 86.814 L 19.51 86.806 C 19.311 86.769 19.146 86.63 19.078 86.439 C 17.727 82.653 16.67 79.557 15.753 76.697 C 15.693 76.508 15.735 76.301 15.866 76.151 C 21.573 69.645 27.252 63.136 32.919 56.611 C 33.021 56.494 33.166 56.424 33.321 56.417 C 35.14 56.34 37.005 56.148 38.867 55.849 C 39.882 55.687 42.469 55.066 45.452 54.195 C 45.685 54.126 45.943 54.219 46.081 54.426 C 46.218 54.631 46.205 54.902 46.05 55.095 C 37.387 65.783 28.638 76.389 20.043 86.613 C 19.935 86.742 19.775 86.814 19.61 86.814 Z " fill="rgb(0,0,0)"/><path d=" M 65.05 52.215 C 51.966 68.707 38.682 85.035 25.17 101.178 C 24.001 98.07 22.819 94.947 21.654 91.81 C 33.7 78.036 45.693 64.226 57.631 50.383 C 61.442 48.592 64.226 46.636 63.952 44.809 C 64.333 47.269 64.699 49.743 65.05 52.215 Z " fill="rgb(0,175,255)"/><path d=" M 22.301 91.93 C 23.137 94.174 23.98 96.412 24.819 98.642 L 25.358 100.072 C 38.289 84.609 51.438 68.461 64.456 52.054 C 64.217 50.375 63.971 48.695 63.718 47.019 C 62.725 48.232 60.821 49.499 57.981 50.844 C 46.241 64.457 34.238 78.278 22.301 91.93 Z  M 25.17 101.744 L 25.075 101.736 C 24.877 101.701 24.712 101.565 24.641 101.377 L 23.762 99.042 C 22.881 96.705 21.998 94.359 21.123 92.008 C 21.051 91.812 21.091 91.595 21.228 91.438 C 33.264 77.676 45.367 63.739 57.203 50.014 L 57.391 49.871 C 62.876 47.293 63.506 45.645 63.393 44.892 C 63.347 44.585 63.559 44.297 63.867 44.25 C 64.172 44.203 64.464 44.415 64.511 44.722 C 64.893 47.185 65.259 49.662 65.609 52.135 C 65.632 52.289 65.589 52.445 65.493 52.566 C 52.211 69.308 38.79 85.786 25.604 101.541 C 25.495 101.671 25.336 101.744 25.17 101.744 Z " fill="rgb(0,0,0)"/><path d=" M 67.463 70.904 C 55.395 86.14 43.122 101.239 30.665 116.174 C 29.609 113.092 28.473 109.959 27.294 106.807 C 40.364 91.834 53.38 76.827 66.345 61.758 C 66.737 64.799 67.115 67.852 67.463 70.904 Z " fill="rgb(0,175,255)"/><path d=" M 27.942 106.924 C 29.05 109.894 30.014 112.562 30.873 115.041 C 42.973 100.523 55.082 85.621 66.875 70.736 C 66.605 68.377 66.299 65.862 65.945 63.088 C 53.823 77.174 41.044 91.914 27.942 106.924 Z  M 30.665 116.739 L 30.563 116.73 C 30.361 116.693 30.196 116.551 30.13 116.357 C 29.164 113.535 28.063 110.476 26.765 107.004 C 26.691 106.809 26.732 106.591 26.868 106.434 C 40.345 90.996 53.482 75.842 65.916 61.389 C 66.062 61.22 66.291 61.151 66.507 61.216 C 66.721 61.279 66.877 61.463 66.905 61.685 C 67.342 65.063 67.708 68.058 68.025 70.84 C 68.042 70.988 67.999 71.138 67.906 71.255 C 55.853 86.473 43.469 101.707 31.1 116.536 C 30.99 116.666 30.831 116.739 30.665 116.739 Z " fill="rgb(0,0,0)"/><path d=" M 69.457 90.143 C 59.192 103.09 48.781 115.918 38.248 128.662 C 36.872 127.953 35.572 127.078 34.61 125.877 C 33.711 124.767 33.14 123.432 32.658 122.078 C 44.675 108.314 56.623 94.516 68.545 80.684 C 68.883 83.836 69.193 86.984 69.457 90.143 Z " fill="rgb(0,175,255)"/><path d=" M 33.303 122.199 C 33.708 123.302 34.236 124.517 35.05 125.519 C 35.777 126.43 36.755 127.207 38.106 127.946 C 48.839 114.956 59.188 102.182 68.875 89.968 C 68.665 87.484 68.417 84.878 68.12 82.043 C 55.327 96.881 43.928 110.029 33.303 122.199 Z  M 38.248 129.226 L 37.989 129.164 C 36.281 128.285 35.067 127.352 34.169 126.23 C 33.173 125.003 32.577 123.538 32.125 122.267 C 32.057 122.074 32.098 121.86 32.232 121.706 C 43.152 109.199 54.891 95.66 68.116 80.315 C 68.263 80.144 68.5 80.076 68.713 80.144 C 68.929 80.212 69.083 80.4 69.107 80.625 C 69.476 84.064 69.774 87.163 70.021 90.096 C 70.032 90.24 69.989 90.383 69.9 90.494 C 60.08 102.88 49.577 115.842 38.684 129.021 C 38.573 129.155 38.412 129.226 38.248 129.226 Z " fill="rgb(0,0,0)"/><path d=" M 71 109.959 C 65.375 117.055 59.695 124.115 53.964 131.127 C 50.61 131.603 47.16 131.461 43.85 130.682 C 52.693 120.516 61.51 110.332 70.301 100.117 C 70.568 103.391 70.791 106.676 71 109.959 Z " fill="rgb(0,175,255)"/><path d=" M 44.903 130.331 C 47.781 130.902 50.723 130.992 53.667 130.598 C 59.193 123.834 64.829 116.832 70.422 109.777 C 70.274 107.449 70.08 104.521 69.845 101.513 C 61.858 110.79 53.475 120.476 44.903 130.331 Z  M 50.068 131.969 C 47.931 131.969 45.807 131.722 43.72 131.231 C 43.527 131.185 43.372 131.043 43.312 130.854 C 43.251 130.666 43.293 130.459 43.423 130.31 C 52.528 119.843 61.428 109.56 69.872 99.748 C 70.021 99.574 70.259 99.51 70.476 99.579 C 70.693 99.649 70.846 99.844 70.864 100.07 C 71.156 103.646 71.392 107.214 71.565 109.923 C 71.573 110.062 71.53 110.201 71.443 110.31 C 65.755 117.486 60.022 124.609 54.401 131.484 C 54.312 131.595 54.184 131.667 54.043 131.686 C 52.717 131.875 51.39 131.969 50.068 131.969 Z " fill="rgb(0,0,0)"/><path d=" M 38.325 84.426 C 36.506 82.903 34.502 81.579 32.409 80.347 C 35.255 77.08 38.1 73.809 40.938 70.54 C 44.921 69.893 48.814 68.727 52.475 67.035 C 47.755 72.89 43.034 78.693 38.325 84.426 Z " fill="rgb(0,159,232)"/><path d=" M 31.412 79.77 C 30.139 79.045 28.839 78.347 27.534 77.653 C 29.328 75.495 31.126 73.324 32.926 71.143 C 33.084 71.145 33.242 71.145 33.4 71.145 C 35.348 71.145 37.296 71.026 39.227 70.785 C 36.625 73.781 34.02 76.777 31.412 79.77 Z  M 18.854 72.742 C 17.446 71.826 16.092 70.845 14.824 69.764 C 14.743 69.482 14.663 69.201 14.585 68.923 L 14.096 67.114 C 14.991 67.452 15.877 67.769 16.707 68.088 C 18.294 68.697 19.917 69.215 21.565 69.643 C 20.662 70.676 19.758 71.709 18.854 72.742 Z " fill="rgb(230,127,126)"/><path d=" M 14.824 69.764 C 14.559 69.538 14.297 69.307 14.039 69.071 C 13.84 68.34 13.642 67.595 13.442 66.863 C 13.66 66.948 13.878 67.032 14.096 67.114 L 14.585 68.923 C 14.663 69.201 14.743 69.482 14.824 69.764 Z " fill="rgb(0,0,0)"/><path d=" M 26.513 77.111 C 24.247 75.907 21.98 74.696 19.82 73.356 C 20.815 72.219 21.809 71.082 22.802 69.945 C 25.65 70.601 28.564 70.989 31.489 71.107 C 29.829 73.118 28.17 75.12 26.513 77.111 Z " fill="rgb(0,159,232)"/><path d=" M 27.534 77.653 C 27.194 77.472 26.854 77.292 26.513 77.111 C 28.17 75.12 29.829 73.118 31.489 71.107 C 31.967 71.126 32.447 71.138 32.926 71.143 C 31.126 73.324 29.328 75.495 27.534 77.653 Z  M 19.82 73.356 C 19.495 73.154 19.174 72.95 18.854 72.742 C 19.758 71.709 20.662 70.676 21.565 69.643 C 21.977 69.749 22.388 69.85 22.802 69.945 C 21.809 71.082 20.815 72.219 19.82 73.356 Z " fill="rgb(0,0,0)"/><path d=" M 39.178 85.168 C 38.899 84.915 38.614 84.668 38.325 84.426 C 43.034 78.693 47.755 72.89 52.475 67.035 C 53.3 66.654 54.112 66.246 54.912 65.812 C 49.666 72.333 44.414 78.795 39.178 85.168 Z  M 32.409 80.347 C 32.079 80.153 31.747 79.96 31.412 79.77 C 34.02 76.777 36.625 73.781 39.227 70.785 C 39.799 70.714 40.369 70.632 40.938 70.54 C 38.1 73.809 35.255 77.08 32.409 80.347 Z " fill="rgb(0,0,0)"/><path d=" M 46.262 96.376 C 45.494 93.969 44.458 91.663 43.045 89.576 C 48.033 83.832 52.951 78.152 57.781 72.559 C 58.08 75.379 58.378 78.201 58.677 81.022 C 54.563 86.154 50.42 91.278 46.262 96.376 Z " fill="rgb(0,159,232)"/><path d=" M 46.652 97.687 C 46.53 97.247 46.401 96.81 46.262 96.376 C 50.42 91.278 54.563 86.154 58.677 81.022 C 58.734 81.555 58.79 82.086 58.847 82.618 C 54.804 87.657 50.736 92.683 46.652 97.687 Z  M 43.045 89.576 C 42.968 89.461 42.889 89.347 42.81 89.234 C 42.666 89.03 42.519 88.828 42.369 88.63 C 47.533 82.682 52.624 76.803 57.618 71.017 C 57.672 71.531 57.727 72.045 57.781 72.559 C 52.951 78.152 48.033 83.832 43.045 89.576 Z " fill="rgb(0,0,0)"/><path d=" M 48.01 115.887 C 48.414 112.354 48.407 108.767 48.042 105.262 C 51.841 100.884 55.755 96.363 59.808 91.673 C 60.104 94.462 60.402 97.252 60.699 100.043 C 60.705 100.093 60.71 100.143 60.715 100.194 C 56.573 105.354 52.332 110.593 48.01 115.887 Z " fill="rgb(0,159,232)"/><path d=" M 47.711 118.04 C 47.828 117.326 47.927 116.607 48.01 115.887 C 52.332 110.593 56.573 105.354 60.715 100.194 C 60.771 100.726 60.827 101.259 60.881 101.793 C 56.589 107.135 52.191 112.56 47.711 118.04 Z  M 48.042 105.262 C 47.989 104.755 47.928 104.249 47.861 103.746 C 51.664 99.361 55.585 94.831 59.644 90.133 C 59.699 90.646 59.753 91.16 59.808 91.673 C 55.755 96.363 51.841 100.884 48.042 105.262 Z " fill="rgb(0,0,0)"/><path d=" M 50.071 130.839 C 48.335 130.839 46.608 130.669 44.903 130.331 C 50.415 123.994 55.848 117.728 61.149 111.594 C 61.067 112.461 60.945 113.325 60.775 114.184 C 59.571 120.239 56.114 125.495 52.702 130.709 C 51.824 130.796 50.946 130.839 50.071 130.839 Z " fill="rgb(0,159,232)"/><path d=" M 50.108 131.405 C 48.008 131.405 45.904 131.164 43.85 130.682 C 43.693 130.65 43.538 130.605 43.384 130.56 C 43.592 130.291 43.76 130.018 43.886 129.779 C 49.79 122.989 55.608 116.279 61.267 109.728 C 61.246 110.351 61.207 110.974 61.149 111.594 C 55.848 117.728 50.415 123.994 44.903 130.331 C 46.608 130.669 48.335 130.839 50.071 130.839 C 50.946 130.839 51.824 130.796 52.702 130.709 C 52.57 130.912 52.438 131.114 52.306 131.316 L 52.306 131.316 C 51.575 131.375 50.842 131.405 50.108 131.405 Z " fill="rgb(0,0,0)"/><path d=" M 65.159 52.987 C 65.123 52.73 65.086 52.472 65.05 52.215 C 65.046 52.189 65.043 52.163 65.039 52.138 C 65.04 52.139 65.042 52.141 65.043 52.143 L 65.05 52.215 C 65.086 52.472 65.123 52.73 65.159 52.987 L 65.159 52.987 L 65.159 52.987 Z " fill="rgb(0,0,0)"/><path d=" M 61.245 48.403 C 61.341 48.338 61.434 48.274 61.525 48.209 C 61.526 48.21 61.527 48.21 61.527 48.211 C 61.435 48.275 61.341 48.339 61.245 48.403 Z " fill="rgb(0,0,0)"/><path d=" M 64.353 51.332 C 63.557 50.41 62.742 49.508 61.917 48.625 C 62.689 48.078 63.288 47.544 63.718 47.019 C 63.935 48.455 64.146 49.894 64.353 51.332 Z " fill="rgb(0,102,152)"/><path d=" M 65.039 52.138 C 64.812 51.868 64.583 51.599 64.353 51.332 C 64.146 49.894 63.935 48.455 63.718 47.019 C 63.288 47.544 62.689 48.078 61.917 48.625 C 61.787 48.486 61.657 48.348 61.527 48.211 C 63.159 47.073 64.118 45.917 63.952 44.809 C 64.329 47.244 64.692 49.692 65.039 52.138 Z  M 57.631 50.383 C 58.999 49.739 60.235 49.075 61.245 48.403 C 60.24 49.081 58.994 49.744 57.631 50.383 Z " fill="rgb(0,0,0)"/><path d=" M 55.349 130.325 C 60.365 124.178 65.463 117.843 70.533 111.458 C 70.748 115.202 70.708 118.562 69.22 121.516 C 68.004 123.933 65.783 126.025 62.621 127.734 C 60.359 128.957 57.918 129.826 55.349 130.325 Z " fill="rgb(133,74,75)"/><path d=" M 54.798 130.999 C 54.981 130.775 55.165 130.55 55.349 130.325 C 57.918 129.826 60.359 128.957 62.621 127.734 C 65.783 126.025 68.004 123.933 69.22 121.516 C 70.708 118.562 70.748 115.202 70.533 111.458 C 70.708 111.237 70.884 111.016 71.059 110.795 C 71.133 111.948 71.194 113.117 71.194 114.281 C 71.194 116.885 70.887 119.463 69.725 121.769 C 68.298 124.607 65.701 126.713 62.89 128.231 C 60.372 129.593 57.623 130.521 54.798 130.999 Z " fill="rgb(0,0,0)"/><path d=" M 61.267 109.728 C 61.358 107.092 61.146 104.434 60.881 101.793 C 63.642 98.357 66.359 94.956 69.027 91.595 C 69.275 94.271 69.503 97.012 69.72 99.925 C 66.948 103.145 64.127 106.417 61.267 109.728 Z " fill="rgb(133,74,75)"/><path d=" M 69.72 99.925 C 69.503 97.012 69.275 94.271 69.027 91.595 C 69.197 91.381 69.365 91.169 69.535 90.955 C 69.805 93.82 70.044 96.683 70.259 99.553 C 70.112 99.564 69.972 99.631 69.872 99.748 C 69.821 99.807 69.771 99.866 69.72 99.925 Z " fill="rgb(0,0,0)"/><path d=" M 59.644 90.133 C 59.378 87.628 59.112 85.123 58.847 82.618 C 61.598 79.19 64.338 75.755 67.06 72.322 C 67.432 75.498 67.714 78.071 67.958 80.499 C 65.12 83.792 62.352 86.999 59.644 90.133 Z " fill="rgb(133,74,75)"/><path d=" M 67.958 80.499 C 67.714 78.071 67.432 75.498 67.06 72.322 C 67.226 72.113 67.391 71.905 67.556 71.696 C 67.886 74.502 68.203 77.308 68.488 80.121 C 68.347 80.136 68.212 80.203 68.116 80.315 C 68.064 80.376 68.01 80.438 67.958 80.499 Z " fill="rgb(0,0,0)"/><path d=" M 33.4 71.145 C 33.242 71.145 33.084 71.145 32.926 71.143 C 37.265 65.885 41.613 60.569 45.939 55.231 C 48.65 54.426 52.262 53.261 55.579 51.897 C 50.17 58.165 44.709 64.473 39.227 70.785 C 37.296 71.026 35.348 71.145 33.4 71.145 Z  M 21.565 69.643 C 19.917 69.215 18.294 68.697 16.707 68.088 C 15.877 67.769 14.991 67.452 14.096 67.114 L 13.989 66.72 C 12.752 62.023 11.856 57.729 11.258 53.633 C 17.377 56.249 24.113 57.605 30.931 57.605 C 31.309 57.605 31.688 57.601 32.067 57.592 C 28.572 61.614 25.073 65.629 21.565 69.643 Z " fill="rgb(133,74,75)"/><path d=" M 14.096 67.114 C 13.878 67.032 13.66 66.948 13.442 66.863 L 13.442 66.863 C 12.187 62.095 11.187 57.367 10.557 52.706 C 16.953 55.605 23.909 57.041 30.901 57.041 C 31.457 57.041 32.013 57.032 32.57 57.014 C 32.402 57.206 32.234 57.399 32.067 57.592 C 31.688 57.601 31.309 57.605 30.931 57.605 C 24.113 57.605 17.377 56.249 11.258 53.633 C 11.856 57.729 12.752 62.023 13.989 66.72 L 14.096 67.114 L 14.096 67.114 Z  M 45.939 55.231 C 45.976 55.186 46.013 55.14 46.05 55.095 C 46.169 54.947 46.204 54.752 46.152 54.577 C 49.397 53.604 53.171 52.337 56.412 50.931 C 56.134 51.253 55.856 51.575 55.579 51.897 C 52.262 53.261 48.65 54.426 45.939 55.231 Z " fill="rgb(0,0,0)"/><path d=" M 31.489 71.107 C 28.564 70.989 25.65 70.601 22.802 69.945 C 26.414 65.813 30.016 61.677 33.613 57.535 C 35.398 57.451 37.225 57.26 39.047 56.966 C 39.891 56.83 41.768 56.394 44.047 55.769 C 39.87 60.916 35.675 66.039 31.489 71.107 Z " fill="rgb(0,93,138)"/><path d=" M 32.926 71.143 C 32.447 71.138 31.967 71.126 31.489 71.107 C 35.675 66.039 39.87 60.916 44.047 55.769 C 41.768 56.394 39.891 56.83 39.047 56.966 C 37.225 57.26 35.398 57.451 33.613 57.535 C 30.016 61.677 26.414 65.813 22.802 69.945 C 22.388 69.85 21.977 69.749 21.565 69.643 C 25.073 65.629 28.572 61.614 32.067 57.592 C 32.234 57.399 32.402 57.206 32.57 57.014 C 32.828 57.005 33.087 56.995 33.346 56.982 C 35.224 56.902 37.1 56.707 38.957 56.407 C 39.944 56.25 42.501 55.646 45.61 54.738 C 45.789 54.685 45.97 54.632 46.152 54.577 C 46.204 54.752 46.169 54.947 46.05 55.095 C 46.013 55.14 45.976 55.186 45.939 55.231 C 41.613 60.569 37.265 65.885 32.926 71.143 Z " fill="rgb(0,0,0)"/><path d=" M 57.618 71.017 C 57.393 68.889 57.168 66.76 56.943 64.632 C 56.276 65.045 55.599 65.438 54.912 65.812 C 58.17 61.761 61.426 57.688 64.674 53.598 C 65.092 56.57 65.439 59.139 65.752 61.579 C 63.072 64.695 60.36 67.841 57.618 71.017 Z " fill="rgb(133,74,75)"/><path d=" M 65.752 61.579 C 65.439 59.139 65.092 56.57 64.674 53.598 C 64.837 53.394 64.997 53.191 65.159 52.987 C 65.545 55.721 65.92 58.455 66.273 61.196 C 66.137 61.214 66.009 61.281 65.916 61.389 C 65.861 61.452 65.807 61.516 65.752 61.579 Z " fill="rgb(0,0,0)"/><path d=" M 40.938 70.54 C 46.655 63.954 52.348 57.375 57.981 50.844 C 59.593 50.08 60.903 49.342 61.917 48.625 C 62.742 49.508 63.557 50.41 64.353 51.332 C 64.387 51.573 64.422 51.813 64.456 52.054 C 60.471 57.076 56.474 62.074 52.475 67.035 C 48.814 68.727 44.921 69.893 40.938 70.54 Z " fill="rgb(0,93,138)"/><path d=" M 39.227 70.785 C 44.709 64.473 50.17 58.165 55.579 51.897 C 55.856 51.575 56.134 51.253 56.412 50.931 C 56.828 50.75 57.235 50.568 57.631 50.383 L 57.631 50.383 C 58.994 49.744 60.24 49.081 61.245 48.403 C 61.341 48.339 61.435 48.275 61.527 48.211 C 61.657 48.348 61.787 48.486 61.917 48.625 C 60.903 49.342 59.593 50.08 57.981 50.844 C 52.348 57.375 46.655 63.954 40.938 70.54 C 40.369 70.632 39.799 70.714 39.227 70.785 Z  M 52.475 67.035 C 56.474 62.074 60.471 57.076 64.456 52.054 C 64.422 51.813 64.387 51.573 64.353 51.332 C 64.583 51.599 64.812 51.868 65.039 52.138 C 65.043 52.163 65.046 52.189 65.05 52.215 C 65.086 52.472 65.123 52.73 65.159 52.987 C 64.997 53.191 64.837 53.394 64.674 53.598 C 61.426 57.688 58.17 61.761 54.912 65.812 C 54.112 66.246 53.3 66.654 52.475 67.035 Z " fill="rgb(0,0,0)"/><path d=" M 58.677 81.022 C 58.378 78.201 58.08 75.379 57.781 72.559 C 60.532 69.372 63.255 66.214 65.945 63.088 C 66.299 65.862 66.605 68.377 66.875 70.736 C 64.158 74.166 61.424 77.596 58.677 81.022 Z " fill="rgb(0,93,138)"/><path d=" M 58.847 82.618 C 58.79 82.086 58.734 81.555 58.677 81.022 C 61.424 77.596 64.158 74.166 66.875 70.736 C 66.605 68.377 66.299 65.862 65.945 63.088 C 63.255 66.214 60.532 69.372 57.781 72.559 C 57.727 72.045 57.672 71.531 57.618 71.017 C 60.36 67.841 63.072 64.695 65.752 61.579 C 65.807 61.516 65.861 61.452 65.916 61.389 C 66.009 61.281 66.137 61.214 66.273 61.196 C 66.297 61.383 66.321 61.57 66.345 61.758 C 66.737 64.799 67.115 67.852 67.463 70.904 C 67.494 71.168 67.525 71.432 67.556 71.696 C 67.391 71.905 67.226 72.113 67.06 72.322 C 64.338 75.755 61.598 79.19 58.847 82.618 Z " fill="rgb(0,0,0)"/><path d=" M 60.715 100.194 C 60.71 100.143 60.705 100.093 60.699 100.043 C 60.402 97.252 60.104 94.462 59.808 91.673 C 62.514 88.541 65.283 85.333 68.12 82.043 C 68.417 84.878 68.665 87.484 68.875 89.968 C 66.204 93.336 63.481 96.748 60.715 100.194 Z " fill="rgb(0,93,138)"/><path d=" M 60.881 101.793 C 60.827 101.259 60.771 100.726 60.715 100.194 C 63.481 96.748 66.204 93.336 68.875 89.968 C 68.665 87.484 68.417 84.878 68.12 82.043 C 65.283 85.333 62.514 88.541 59.808 91.673 C 59.753 91.16 59.699 90.646 59.644 90.133 C 62.352 86.999 65.12 83.792 67.958 80.499 C 68.01 80.438 68.064 80.376 68.116 80.315 C 68.212 80.203 68.347 80.136 68.488 80.121 C 68.507 80.309 68.526 80.497 68.545 80.684 C 68.883 83.836 69.193 86.984 69.457 90.143 C 69.483 90.414 69.509 90.685 69.535 90.955 C 69.365 91.169 69.197 91.381 69.027 91.595 C 66.359 94.956 63.642 98.357 60.881 101.793 Z " fill="rgb(0,0,0)"/><path d=" M 52.702 130.709 C 56.114 125.495 59.571 120.239 60.775 114.184 C 60.945 113.325 61.067 112.461 61.149 111.594 C 64.091 108.189 66.993 104.825 69.845 101.513 C 70.08 104.521 70.274 107.449 70.422 109.777 C 64.829 116.832 59.193 123.834 53.667 130.598 C 53.345 130.641 53.024 130.678 52.702 130.709 Z " fill="rgb(0,93,138)"/><path d=" M 52.306 131.316 C 52.438 131.114 52.57 130.912 52.702 130.709 C 53.024 130.678 53.345 130.641 53.667 130.598 C 59.193 123.834 64.829 116.832 70.422 109.777 C 70.274 107.449 70.08 104.521 69.845 101.513 C 66.993 104.825 64.091 108.189 61.149 111.594 C 61.207 110.974 61.246 110.351 61.267 109.728 C 64.127 106.417 66.948 103.145 69.72 99.925 C 69.771 99.866 69.821 99.807 69.872 99.748 C 69.972 99.631 70.112 99.564 70.259 99.553 C 70.273 99.741 70.287 99.929 70.301 100.117 C 70.568 103.391 70.791 106.676 71 109.959 C 71.012 110.119 71.025 110.28 71.036 110.441 C 71.044 110.559 71.052 110.677 71.059 110.795 C 70.884 111.016 70.708 111.237 70.533 111.458 C 65.463 117.843 60.365 124.178 55.349 130.325 C 55.165 130.55 54.981 130.775 54.798 130.999 C 54.521 131.046 54.242 131.089 53.964 131.127 C 53.42 131.201 52.861 131.273 52.306 131.316 Z " fill="rgb(0,0,0)"/><path d=" M 6.821 51.18 C 7.376 53.458 7.659 55.689 8.214 57.967 C 8.404 58.748 8.606 59.553 9.084 60.199 C 9.718 61.054 10.741 61.51 11.719 61.93 C 17.827 64.553 24.091 67.215 30.728 67.598 C 40.774 68.176 50.29 63.503 59.264 58.95 C 62.4 57.359 65.62 55.703 67.915 53.037 C 68.355 52.527 68.767 51.961 68.905 51.301 C 69.059 50.571 68.86 49.818 68.664 49.1 C 68.038 46.808 67.411 44.516 66.785 42.225 L 6.821 51.18 L 6.821 51.18 Z " fill="rgb(230,231,232)"/><path d=" M 32.39 68.211 C 31.825 68.211 31.262 68.195 30.695 68.162 C 23.882 67.769 17.302 64.943 11.495 62.449 C 10.55 62.043 9.372 61.536 8.63 60.535 C 8.074 59.785 7.857 58.891 7.665 58.1 C 7.384 56.944 7.169 55.789 6.961 54.67 C 6.756 53.572 6.545 52.435 6.272 51.314 C 6.198 51.011 6.384 50.705 6.688 50.631 C 6.993 50.557 7.297 50.744 7.371 51.047 C 7.651 52.198 7.865 53.35 8.072 54.464 C 8.277 55.566 8.489 56.707 8.764 57.833 C 8.939 58.553 9.119 59.296 9.538 59.862 C 10.099 60.617 11.078 61.039 11.942 61.41 C 17.942 63.986 24.146 66.652 30.76 67.033 C 40.92 67.616 50.952 62.532 59.008 58.445 C 61.925 56.967 65.231 55.289 67.486 52.668 C 67.849 52.248 68.234 51.742 68.352 51.185 C 68.481 50.574 68.288 49.869 68.118 49.248 L 66.239 42.373 C 66.157 42.072 66.335 41.762 66.636 41.68 C 66.941 41.596 67.248 41.775 67.331 42.076 L 69.21 48.95 C 69.402 49.658 69.644 50.539 69.459 51.418 C 69.288 52.226 68.8 52.877 68.344 53.406 C 65.942 56.196 62.529 57.928 59.52 59.455 C 51.785 63.379 42.261 68.211 32.39 68.211 Z " fill="rgb(0,0,0)"/><path d=" M 10.758 56.523 C 17.111 60.949 25.08 62.715 32.816 62.357 C 40.55 61.999 48.083 59.629 55.115 56.389 C 58.716 54.73 62.278 52.789 64.995 49.9 C 67.451 47.291 68.959 42.766 66.302 40.359 C 65.08 39.252 63.337 38.978 61.698 38.791 C 45.583 36.948 29.045 38.9 13.802 44.447 C 6.985 46.927 3.699 51.605 10.758 56.523 Z " fill="rgb(255,255,255)"/><path d=" M 11.081 56.059 C 16.929 60.133 24.654 62.171 32.789 61.792 C 39.706 61.473 46.932 59.537 54.879 55.875 C 58.125 54.379 61.817 52.453 64.583 49.514 C 66.21 47.785 67.211 45.43 67.134 43.514 C 67.089 42.386 66.682 41.466 65.922 40.778 C 64.831 39.79 63.206 39.532 61.634 39.353 C 45.617 37.519 29.144 39.467 13.995 44.978 C 10.086 46.4 7.685 48.432 7.408 50.55 C 7.177 52.319 8.447 54.225 11.081 56.059 Z  M 30.879 62.967 C 23.209 62.967 16.012 60.873 10.435 56.987 C 7.389 54.865 5.993 52.65 6.287 50.403 C 6.625 47.814 9.225 45.51 13.609 43.916 C 28.922 38.344 45.573 36.379 61.763 38.229 C 63.517 38.43 65.342 38.726 66.682 39.94 C 67.66 40.826 68.207 42.047 68.264 43.469 C 68.353 45.673 67.231 48.35 65.407 50.289 C 62.508 53.369 58.697 55.361 55.352 56.902 C 47.271 60.626 39.907 62.595 32.842 62.922 C 32.185 62.952 31.529 62.967 30.879 62.967 Z " fill="rgb(0,0,0)"/><path d=" M 65.779 55.675 C 65.523 55.675 65.289 55.498 65.23 55.236 C 65.088 54.621 65.002 54.022 64.919 53.443 C 64.777 52.465 64.645 51.539 64.266 50.629 C 64.146 50.341 64.281 50.01 64.569 49.89 C 64.859 49.767 65.19 49.906 65.309 50.194 C 65.743 51.236 65.894 52.277 66.038 53.282 C 66.118 53.838 66.201 54.414 66.331 54.982 C 66.401 55.287 66.211 55.591 65.906 55.66 L 65.779 55.675 L 65.779 55.675 Z " fill="rgb(0,0,0)"/><path d=" M 60.546 58.656 L 60.525 58.656 C 60.241 58.645 60.01 58.428 59.984 58.144 L 59.567 53.797 C 59.537 53.486 59.766 53.211 60.076 53.181 C 60.387 53.159 60.663 53.379 60.692 53.689 L 61.01 57.006 C 61.167 57.131 61.253 57.336 61.215 57.548 L 61.104 58.187 C 61.056 58.459 60.82 58.656 60.546 58.656 Z " fill="rgb(0,0,0)"/><path d=" M 56.775 60.607 C 56.492 60.607 56.251 60.398 56.214 60.117 L 55.691 56.171 C 55.65 55.861 55.867 55.576 56.177 55.535 C 56.48 55.496 56.77 55.711 56.812 56.021 L 57.278 59.541 C 57.327 59.629 57.354 59.73 57.35 59.838 L 57.34 60.064 C 57.328 60.357 57.094 60.594 56.801 60.607 L 56.775 60.607 L 56.775 60.607 Z " fill="rgb(0,0,0)"/><path d=" M 52.128 62.816 C 51.855 62.816 51.613 62.617 51.57 62.338 L 50.922 58.162 C 50.874 57.853 51.085 57.564 51.394 57.517 C 51.696 57.467 51.991 57.68 52.039 57.989 L 52.688 62.164 C 52.735 62.473 52.525 62.762 52.216 62.809 L 52.128 62.816 L 52.128 62.816 Z " fill="rgb(0,0,0)"/><path d=" M 47.144 64.701 C 46.873 64.701 46.635 64.506 46.587 64.23 L 45.855 59.952 C 45.802 59.644 46.009 59.352 46.317 59.3 C 46.619 59.246 46.917 59.453 46.97 59.762 L 47.702 64.04 C 47.755 64.348 47.548 64.64 47.24 64.692 L 47.144 64.701 L 47.144 64.701 Z " fill="rgb(0,0,0)"/><path d=" M 42.092 66.605 L 42.017 66.6 C 41.892 66.579 41.479 66.467 41.398 65.879 L 40.767 61.332 C 40.725 61.022 40.941 60.737 41.25 60.694 C 41.557 60.648 41.844 60.867 41.888 61.177 L 42.476 65.42 L 42.555 65.48 C 42.758 65.672 42.81 65.988 42.68 66.252 C 42.581 66.453 42.322 66.605 42.092 66.605 Z " fill="rgb(0,0,0)"/><path d=" M 37.226 67.941 L 37.156 67.937 C 36.878 67.902 36.667 67.67 36.66 67.391 C 36.615 65.605 36.359 63.826 35.896 62.101 C 35.815 61.801 35.993 61.49 36.295 61.41 C 36.6 61.327 36.907 61.509 36.987 61.808 C 37.408 63.374 37.667 64.982 37.76 66.601 C 37.884 66.74 37.937 66.938 37.882 67.131 L 37.771 67.529 C 37.701 67.775 37.477 67.941 37.226 67.941 Z " fill="rgb(0,0,0)"/><path d=" M 31.49 68.252 C 31.186 68.252 30.934 68.01 30.925 67.703 L 30.781 62.744 C 30.773 62.432 31.019 62.172 31.33 62.162 L 31.347 62.162 C 31.651 62.162 31.903 62.404 31.912 62.711 L 32.056 67.67 C 32.065 67.982 31.818 68.243 31.507 68.252 L 31.49 68.252 L 31.49 68.252 Z " fill="rgb(0,0,0)"/><path d=" M 26.437 66.76 C 26.143 66.76 25.895 66.533 25.873 66.234 L 25.603 62.474 C 25.579 62.162 25.814 61.891 26.125 61.869 C 26.44 61.85 26.707 62.08 26.73 62.392 L 27.002 66.154 C 27.024 66.465 26.789 66.736 26.478 66.758 L 26.437 66.76 L 26.437 66.76 Z " fill="rgb(0,0,0)"/><path d=" M 22.539 66.285 L 22.313 66.242 C 22.15 66.171 21.878 65.976 21.873 65.479 C 21.864 64.136 21.841 62.795 21.804 61.453 C 21.795 61.141 22.041 60.881 22.354 60.872 C 22.662 60.879 22.926 61.111 22.935 61.422 C 22.969 62.668 22.991 63.914 23.002 65.161 C 23.091 65.234 23.161 65.329 23.195 65.432 C 23.275 65.674 23.198 65.945 23.001 66.125 C 22.89 66.226 22.708 66.285 22.539 66.285 Z " fill="rgb(0,0,0)"/><path d=" M 18.396 64.959 L 18.364 64.959 C 18.052 64.941 17.813 64.676 17.83 64.363 C 17.899 63.105 17.861 61.836 17.719 60.586 C 17.683 60.276 17.906 59.996 18.216 59.961 C 18.533 59.926 18.807 60.148 18.842 60.459 C 18.991 61.769 19.031 63.104 18.959 64.425 C 18.942 64.726 18.693 64.959 18.396 64.959 Z " fill="rgb(0,0,0)"/><path d=" M 14.976 63.402 C 14.664 63.402 14.411 63.15 14.41 62.84 C 14.408 62.184 14.385 61.723 14.362 61.262 C 14.339 60.785 14.316 60.308 14.313 59.632 C 14.312 59.32 14.564 59.065 14.876 59.064 L 14.878 59.064 C 15.19 59.064 15.442 59.316 15.443 59.628 C 15.445 60.283 15.469 60.744 15.491 61.205 C 15.515 61.683 15.538 62.159 15.541 62.836 C 15.542 63.147 15.29 63.402 14.978 63.402 L 14.976 63.402 L 14.976 63.402 Z " fill="rgb(0,0,0)"/><path d=" M 12.095 62.144 C 11.824 62.144 11.586 61.951 11.538 61.676 C 11.279 60.164 11.116 58.616 11.052 57.074 C 11.039 56.762 11.282 56.498 11.594 56.485 C 11.904 56.469 12.17 56.715 12.183 57.027 C 12.244 58.521 12.402 60.021 12.653 61.484 C 12.706 61.792 12.499 62.084 12.192 62.137 L 12.095 62.144 L 12.095 62.144 Z " fill="rgb(0,0,0)"/><path d=" M 35.207 48.928 C 35.83 38.224 36.042 27.495 35.842 16.775 C 36.663 16.976 37.485 17.178 38.307 17.379 C 38.129 16.205 37.951 15.031 37.774 13.857 C 38.499 14.08 39.224 14.303 39.949 14.525 C 39.949 13.527 39.867 12.528 39.704 11.543 C 40.43 11.881 41.157 12.217 41.884 12.555 C 42.04 11.699 42.085 10.824 42.017 9.957 C 42.899 10.256 43.728 10.709 44.455 11.29 C 44.416 10.392 44.376 9.494 44.337 8.596 C 45.078 9.248 45.733 9.998 46.276 10.822 C 50.924 9.283 55.639 7.946 60.403 6.816 C 60.739 8.487 61.075 10.158 61.411 11.829 C 58.313 12.014 55.247 12.744 52.399 13.978 C 51.066 14.555 49.515 15.241 48.241 14.543 C 47.618 14.974 46.726 14.969 46.106 14.533 C 46.288 15.172 46.471 15.81 46.653 16.45 C 45.992 16.203 45.267 16.13 44.569 16.239 C 44.725 16.793 44.88 17.347 45.035 17.9 C 44.254 18.008 43.457 18.006 42.676 17.894 C 42.991 18.438 43.307 18.982 43.622 19.525 C 42.834 19.467 42.046 19.409 41.258 19.351 C 40.893 28.195 40.528 37.04 40.164 45.885 C 40.111 47.164 40.026 48.535 39.238 49.543 C 38.451 50.553 36.685 50.872 35.947 49.826 C 35.826 49.654 35.695 49.43 35.485 49.439 C 35.275 49.447 35.341 49.889 35.501 49.752 L 35.207 48.928 L 35.207 48.928 Z " fill="rgb(255,199,0)"/><path d=" M 35.775 48.918 C 36.081 49.023 36.266 49.292 36.377 49.453 C 36.638 49.824 37.001 49.899 37.265 49.906 C 37.836 49.902 38.449 49.635 38.793 49.195 C 39.445 48.359 39.544 47.191 39.599 45.861 L 40.692 19.327 C 40.699 19.174 40.768 19.03 40.882 18.928 C 40.996 18.827 41.152 18.775 41.3 18.787 L 42.595 18.883 L 42.187 18.18 C 42.078 17.992 42.086 17.76 42.207 17.58 C 42.327 17.4 42.542 17.308 42.755 17.336 C 43.269 17.408 43.785 17.43 44.309 17.402 L 44.025 16.392 C 43.982 16.236 44.006 16.07 44.094 15.933 C 44.181 15.798 44.322 15.705 44.482 15.681 C 44.934 15.609 45.391 15.605 45.842 15.667 L 45.562 14.687 C 45.496 14.457 45.583 14.211 45.778 14.072 C 45.973 13.933 46.234 13.932 46.431 14.07 C 46.856 14.369 47.495 14.373 47.92 14.078 C 48.096 13.957 48.326 13.945 48.513 14.047 C 49.532 14.604 50.911 14.007 52.128 13.478 C 54.898 12.279 57.775 11.557 60.731 11.31 L 59.965 7.502 C 55.424 8.596 50.882 9.892 46.454 11.359 C 46.213 11.439 45.945 11.348 45.805 11.134 C 45.55 10.748 45.27 10.379 44.966 10.029 L 45.02 11.266 C 45.029 11.486 44.909 11.693 44.711 11.794 C 44.513 11.896 44.275 11.87 44.103 11.732 C 43.642 11.363 43.143 11.054 42.613 10.806 C 42.609 11.426 42.552 12.045 42.441 12.656 C 42.408 12.828 42.299 12.975 42.144 13.057 C 41.989 13.137 41.806 13.141 41.646 13.067 L 40.404 12.491 C 40.478 13.167 40.515 13.848 40.515 14.525 C 40.515 14.705 40.43 14.873 40.285 14.98 C 40.141 15.088 39.955 15.119 39.783 15.066 L 38.467 14.662 L 38.865 17.295 C 38.894 17.482 38.827 17.67 38.688 17.797 C 38.55 17.925 38.356 17.973 38.172 17.93 L 36.42 17.499 C 36.597 27.935 36.379 38.501 35.775 48.918 Z  M 37.305 51.037 L 37.237 51.036 C 36.569 51.019 35.997 50.763 35.607 50.307 C 35.437 50.348 35.243 50.332 35.109 50.248 C 34.804 50.055 34.742 49.676 34.815 49.404 L 34.831 49.35 C 34.707 49.239 34.632 49.074 34.643 48.894 C 35.263 38.248 35.476 27.445 35.276 16.785 C 35.274 16.609 35.352 16.443 35.488 16.333 C 35.625 16.224 35.805 16.183 35.977 16.225 L 37.621 16.629 L 37.215 13.942 C 37.186 13.75 37.257 13.557 37.404 13.43 C 37.551 13.303 37.754 13.261 37.94 13.317 L 39.367 13.756 C 39.336 13.045 39.262 12.335 39.147 11.635 C 39.112 11.429 39.195 11.22 39.362 11.093 C 39.528 10.965 39.752 10.94 39.942 11.03 L 41.432 11.721 C 41.491 11.15 41.498 10.574 41.453 10.002 C 41.438 9.812 41.52 9.629 41.669 9.512 C 41.818 9.394 42.017 9.361 42.198 9.422 C 42.774 9.617 43.322 9.869 43.841 10.178 L 43.773 8.619 C 43.762 8.393 43.889 8.183 44.093 8.085 C 44.298 7.988 44.541 8.021 44.711 8.171 C 45.382 8.762 45.984 9.427 46.502 10.152 C 51.019 8.67 55.65 7.363 60.273 6.266 C 60.424 6.231 60.579 6.258 60.708 6.34 C 60.838 6.423 60.928 6.555 60.958 6.705 L 61.966 11.718 C 61.998 11.878 61.959 12.045 61.859 12.174 C 61.759 12.304 61.609 12.384 61.444 12.393 C 58.396 12.574 55.427 13.282 52.623 14.497 C 51.287 15.076 49.695 15.765 48.268 15.182 C 47.859 15.382 47.395 15.463 46.947 15.42 L 47.197 16.295 C 47.256 16.5 47.193 16.721 47.037 16.865 C 46.88 17.01 46.654 17.054 46.455 16.98 C 46.086 16.842 45.694 16.767 45.302 16.756 L 45.579 17.748 C 45.624 17.905 45.598 18.074 45.508 18.211 C 45.418 18.348 45.274 18.438 45.111 18.461 C 44.645 18.523 44.168 18.551 43.706 18.543 L 44.111 19.242 C 44.217 19.423 44.213 19.647 44.102 19.825 C 43.99 20.003 43.803 20.103 43.58 20.09 L 41.799 19.957 L 40.73 45.908 C 40.681 47.087 40.614 48.701 39.684 49.892 C 39.138 50.592 38.209 51.037 37.305 51.037 Z " fill="rgb(0,0,0)"/><path d=" M 38.504 17.236 C 39.542 18.182 40.58 19.127 41.618 20.071 C 41.717 20.161 41.845 20.258 41.971 20.215 C 42.097 20.171 42.057 19.916 41.934 19.969 L 38.504 17.236 L 38.504 17.236 Z " fill="rgb(255,199,0)"/><path d=" M 41.904 20.792 C 41.683 20.792 41.459 20.691 41.237 20.489 L 38.123 17.654 C 37.893 17.444 37.876 17.087 38.086 16.855 C 38.296 16.625 38.653 16.609 38.885 16.818 L 41.756 19.432 C 41.943 19.371 42.204 19.412 42.356 19.531 C 42.553 19.687 42.648 19.947 42.603 20.211 C 42.56 20.463 42.388 20.669 42.154 20.75 L 41.904 20.792 L 41.904 20.792 Z " fill="rgb(0,0,0)"/><path d=" M 40.225 14.515 C 40.983 15.678 42.001 16.67 43.185 17.397 L 40.225 14.515 L 40.225 14.515 Z " fill="rgb(255,199,0)"/><path d=" M 43.184 17.963 C 43.083 17.963 42.982 17.935 42.889 17.879 C 41.638 17.111 40.553 16.055 39.751 14.823 C 39.58 14.561 39.654 14.211 39.916 14.041 C 40.179 13.869 40.528 13.945 40.698 14.206 C 41.409 15.298 42.371 16.234 43.481 16.916 C 43.746 17.079 43.83 17.428 43.666 17.693 C 43.56 17.867 43.374 17.963 43.184 17.963 Z " fill="rgb(0,0,0)"/><path d=" M 41.82 11.752 C 42.483 13.305 43.594 14.661 44.984 15.615 L 41.82 11.752 L 41.82 11.752 Z " fill="rgb(255,199,0)"/><path d=" M 44.984 16.182 C 44.874 16.182 44.762 16.148 44.664 16.082 C 43.194 15.073 42 13.614 41.3 11.975 C 41.178 11.687 41.312 11.355 41.599 11.232 C 41.886 11.111 42.218 11.244 42.341 11.531 C 42.957 12.975 44.01 14.261 45.305 15.149 C 45.562 15.326 45.627 15.678 45.45 15.935 C 45.341 16.096 45.164 16.182 44.984 16.182 Z " fill="rgb(0,0,0)"/><path d=" M 44.968 10.392 C 45.487 11.66 46.142 12.872 46.915 14.002 L 44.968 10.392 L 44.968 10.392 Z " fill="rgb(255,199,0)"/><path d=" M 46.916 14.567 C 46.735 14.567 46.558 14.481 46.448 14.321 C 45.652 13.158 44.979 11.908 44.444 10.607 C 44.326 10.318 44.464 9.988 44.753 9.87 C 45.042 9.751 45.373 9.891 45.491 10.179 C 45.994 11.406 46.631 12.585 47.382 13.683 C 47.558 13.94 47.492 14.292 47.234 14.469 C 47.137 14.535 47.025 14.567 46.916 14.567 Z " fill="rgb(0,0,0)"/></g></svg>